<svg width="38" height="51" viewBox="0 0 38 51" fill="none" xmlns="http://www.w3.org/2000/svg">
<path d="M19 0.77832C9.01513 0.77832 0.891891 8.90156 0.891891 18.8863C0.891891 31.2777 17.0969 49.469 17.7868 50.2374C18.4349 50.9592 19.5663 50.9579 20.2132 50.2374C20.9031 49.469 37.1081 31.2777 37.1081 18.8863C37.1079 8.90156 28.9848 0.77832 19 0.77832ZM19 27.997C13.9764 27.997 9.88945 23.91 9.88945 18.8863C9.88945 13.8627 13.9765 9.77578 19 9.77578C24.0235 9.77578 28.1104 13.8628 28.1104 18.8864C28.1104 23.9101 24.0235 27.997 19 27.997Z" fill="#2260EA"/>
</svg>
