<svg width="1920" height="1191" viewBox="0 0 1920 1191" fill="none" xmlns="http://www.w3.org/2000/svg">
<path d="M722.2 440.043C833.408 506.768 1104.41 642.493 1278.24 583.025C1519.72 500.413 1497.48 290.707 1684.94 125.484C1834.91 -6.69453 2022.8 -7.96548 2098 7.92135" stroke="#8EA2BF" stroke-opacity="0.33"/>
<path d="M725.378 442.04C614.17 375.316 343.169 239.59 169.338 299.059C-72.1414 381.671 -49.8998 591.376 -237.364 756.599C-387.336 888.778 -575.224 890.049 -650.422 874.162" stroke="#8EA2BF" stroke-opacity="0.33"/>
<path d="M722.2 749.387C833.408 816.112 1104.41 951.837 1278.24 892.369C1519.72 809.757 1497.48 600.051 1684.94 434.828C1834.91 302.65 2022.8 301.379 2098 317.266" stroke="#8EA2BF" stroke-opacity="0.33"/>
<path d="M725.378 751.385C614.17 684.66 343.169 548.935 169.338 608.404C-72.1414 691.016 -49.8998 900.721 -237.364 1065.94C-387.336 1198.12 -575.224 1199.39 -650.422 1183.51" stroke="#8EA2BF" stroke-opacity="0.33"/>
<path d="M722.2 531.942C833.408 598.667 1104.41 734.392 1278.24 674.924C1519.72 592.312 1497.48 382.606 1684.94 217.383C1834.91 85.2049 2022.8 83.9339 2098 99.8208" stroke="#8EA2BF" stroke-opacity="0.33"/>
<path d="M725.378 533.94C614.17 467.216 343.169 331.49 169.338 390.959C-72.1414 473.571 -49.8998 683.277 -237.364 848.5C-387.336 980.678 -575.224 981.949 -650.422 966.062" stroke="#8EA2BF" stroke-opacity="0.33"/>
<path d="M720.622 645.852C831.83 712.577 1102.83 848.302 1276.66 788.834C1518.14 706.222 1495.9 496.516 1683.36 331.293C1833.34 199.115 2021.22 197.844 2096.42 213.73" stroke="#8EA2BF" stroke-opacity="0.33"/>
<path d="M723.799 647.85C612.592 581.125 341.59 445.4 167.76 504.868C-73.7195 587.48 -51.4779 797.186 -238.942 962.409C-388.914 1094.59 -576.802 1095.86 -652 1079.97" stroke="#8EA2BF" stroke-opacity="0.33"/>
</svg>
