<svg width="1002" height="977" viewBox="0 0 1002 977" fill="none" xmlns="http://www.w3.org/2000/svg">
<g opacity="0.1">
<circle cx="333.734" cy="656.305" r="292.59" stroke="white" stroke-width="60"/>
<path d="M446.858 663.188C446.858 723.321 398.11 772.069 337.977 772.069C327.931 772.104 317.932 770.704 308.282 767.912C261.483 754.595 229.2 711.845 229.2 663.188C229.2 614.531 261.483 571.781 308.282 558.464C317.932 555.672 327.931 554.272 337.977 554.307C398.11 554.307 446.858 603.054 446.858 663.188Z" fill="#2260EA"/>
<path d="M308.277 767.915C352.011 767.915 387.464 721.028 387.464 663.191C387.464 605.353 352.011 558.467 308.277 558.467C264.544 558.467 229.091 605.353 229.091 663.191C229.091 721.028 264.544 767.915 308.277 767.915Z" fill="#2260EA"/>
<path d="M941.763 237.56L862.577 435.526H545.831L466.645 237.56H941.763Z" fill="#2260EA"/>
<path d="M882.381 237.56L803.194 435.526H862.584L941.771 237.56H882.381Z" fill="#2260EA"/>
<path d="M783.39 633.493V772.069L704.204 831.459L625.018 772.069V633.493H783.39Z" fill="#2260EA"/>
<path d="M724.002 633.493V772.069L674.511 809.287L704.206 831.459L783.392 772.069V633.493H724.002Z" fill="#2260EA"/>
<path d="M842.782 534.508V613.694C842.782 624.628 833.919 633.491 822.986 633.491H585.426C574.493 633.491 565.63 624.628 565.63 613.694V534.508H842.782Z" fill="#2260EA"/>
<path d="M783.393 534.508V613.694C783.393 624.628 774.529 633.491 763.596 633.491H585.427C574.493 633.491 565.63 624.628 565.63 613.694V534.508H783.393Z" fill="#E8EDFC"/>
<path d="M882.377 435.529H526.038C515.104 435.529 506.241 444.392 506.241 455.325V514.715C506.241 525.649 515.104 534.512 526.038 534.512H882.377C893.31 534.512 902.173 525.649 902.173 514.715V455.325C902.173 444.392 893.31 435.529 882.377 435.529Z" fill="#2260EA"/>
<path d="M822.987 435.529H526.038C515.104 435.529 506.241 444.392 506.241 455.325V514.715C506.241 525.649 515.104 534.512 526.038 534.512H822.987C833.92 534.512 842.783 525.649 842.783 514.715V455.325C842.783 444.392 833.92 435.529 822.987 435.529Z" fill="#E8EDFC"/>
<path d="M981.366 39.5949V217.764C981.366 228.698 972.502 237.561 961.569 237.561H446.857C443.51 237.624 440.213 236.731 437.355 234.987C431.053 231.539 427.113 224.948 427.061 217.764V39.5949C427.061 28.6616 435.924 19.7983 446.857 19.7983H961.569C972.502 19.7983 981.366 28.6616 981.366 39.5949Z" fill="#2260EA"/>
<path d="M921.976 39.5949V217.764C921.976 228.698 913.113 237.561 902.179 237.561H446.857C443.51 237.624 440.213 236.731 437.355 234.987C431.053 231.539 427.113 224.948 427.061 217.764V39.5949C427.061 28.6616 435.924 19.7983 446.857 19.7983H902.179C913.113 19.7983 921.976 28.6616 921.976 39.5949Z" fill="#E8EDFC"/>
<path d="M14.4982 272.799L42.4114 300.713C-31.6279 376.138 -32.0238 373.168 -34.9933 379.899C-37.5638 386.098 -36.8186 393.178 -33.0137 398.706L-65.4801 421.67C-76.9655 405.037 -79.2031 383.705 -71.4191 365.052C-69.5639 360.454 -67.1004 356.126 -64.0943 352.184C-59.5411 346.047 -60.333 347.828 14.4982 272.799Z" fill="white"/>
<path d="M267.453 484.31C262.512 474.604 250.659 470.712 240.926 475.6C157.384 517.371 111.258 600.913 111.258 710.982C111.258 721.915 120.121 730.778 131.054 730.778C141.988 730.778 150.851 721.915 150.851 710.982C150.851 616.75 189.059 545.68 258.743 510.838C268.449 505.897 272.341 494.044 267.453 484.31Z" fill="white"/>
<path d="M309.219 473.422C320.153 473.422 329.016 464.558 329.016 453.625C329.016 442.692 320.153 433.828 309.219 433.828C298.286 433.828 289.423 442.692 289.423 453.625C289.423 464.558 298.286 473.422 309.219 473.422Z" fill="white"/>
<path d="M337.976 569.762L337.966 569.762C286.422 569.876 244.666 611.632 244.552 663.176V663.185C244.552 714.782 286.379 756.609 337.976 756.609C389.572 756.609 431.4 714.782 431.4 663.185C431.4 611.589 389.572 569.762 337.976 569.762ZM462.315 663.185C462.315 731.854 406.65 787.521 337.983 787.524C269.353 787.419 213.744 731.811 213.637 663.182C213.639 594.513 269.306 538.846 337.976 538.846C406.646 538.846 462.315 594.515 462.315 663.185Z" fill="white"/>
<path d="M337.976 569.762L337.966 569.762C286.422 569.876 244.666 611.632 244.552 663.176V663.185C244.552 714.782 286.379 756.609 337.976 756.609C389.572 756.609 431.4 714.782 431.4 663.185C431.4 611.589 389.572 569.762 337.976 569.762ZM462.315 663.185C462.315 731.854 406.65 787.521 337.983 787.524C269.353 787.419 213.744 731.811 213.637 663.182C213.639 594.513 269.306 538.846 337.976 538.846C406.646 538.846 462.315 594.515 462.315 663.185Z" stroke="white" stroke-width="8.67797"/>
<path d="M337.976 569.762L337.966 569.762C286.422 569.876 244.666 611.632 244.552 663.176V663.185C244.552 714.782 286.379 756.609 337.976 756.609C389.572 756.609 431.4 714.782 431.4 663.185C431.4 611.589 389.572 569.762 337.976 569.762ZM462.315 663.185C462.315 731.854 406.65 787.521 337.983 787.524C269.353 787.419 213.744 731.811 213.637 663.182C213.639 594.513 269.306 538.846 337.976 538.846C406.646 538.846 462.315 594.515 462.315 663.185Z" stroke="white" stroke-width="8.67797"/>
<path d="M961.563 0H446.851C424.985 0 407.258 17.7265 407.258 39.5932V217.763C407.077 231.843 414.695 244.869 427.055 251.615C432.977 255.364 439.842 257.355 446.851 257.356H453.186L500.302 376.136V377.917L516.337 417.511C498.965 421.898 486.705 437.406 486.444 455.322V514.712C486.444 536.579 504.171 554.305 526.038 554.305H545.834V613.695C545.834 635.562 563.561 653.288 585.427 653.288H605.224V772.068C605.224 778.299 608.158 784.166 613.143 787.905L684.411 841.356V910.644C684.411 921.577 693.274 930.441 704.207 930.441C715.141 930.441 724.004 921.577 724.004 910.644V841.356L795.272 787.905C800.256 784.166 803.19 778.299 803.19 772.068V653.288H822.987C844.854 653.288 862.58 635.562 862.58 613.695V554.305H882.377C904.243 554.305 921.97 536.579 921.97 514.712V455.322C921.89 436.952 909.184 421.05 891.285 416.917L955.228 257.356H961.563C983.43 257.356 1001.16 239.629 1001.16 217.763V39.5932C1001.16 17.7265 983.43 0 961.563 0ZM763.597 762.169L704.207 806.712L644.817 762.169V653.288H763.597V762.169ZM882.377 514.712H704.207C693.274 514.712 684.411 523.575 684.411 534.508C684.411 545.442 693.274 554.305 704.207 554.305H822.987V613.695H585.427V554.305H625.021C635.954 554.305 644.817 545.442 644.817 534.508C644.817 523.575 635.954 514.712 625.021 514.712H526.038V455.322H882.377V514.712ZM849.118 415.729H559.296L537.322 360.892V359.11L495.947 257.356H911.676L849.118 415.729ZM961.563 217.763H446.851V39.5932H961.563V217.763Z" fill="white"/>
<path d="M506.244 118.78H545.837C556.77 118.78 565.634 109.916 565.634 98.9831C565.634 88.0498 556.77 79.1865 545.837 79.1865H506.244C495.311 79.1865 486.447 88.0498 486.447 98.9831C486.447 109.916 495.311 118.78 506.244 118.78Z" fill="white"/>
<path d="M625.021 118.78H902.174C913.107 118.78 921.97 109.916 921.97 98.9831C921.97 88.0498 913.107 79.1865 902.174 79.1865H625.021C614.088 79.1865 605.225 88.0498 605.225 98.9831C605.225 109.916 614.088 118.78 625.021 118.78Z" fill="white"/>
</g>
</svg>
