<svg width="934" height="975" viewBox="0 0 934 975" fill="none" xmlns="http://www.w3.org/2000/svg">
<g opacity="0.1" clip-path="url(#clip0)">
<path d="M601.764 406.247H666.763V471.246C666.763 480.225 659.488 487.5 650.509 487.5H618.01C609.039 487.5 601.764 480.225 601.764 471.246V406.247Z" fill="#2260EA"/>
<path d="M699.269 341.248V390.001C699.217 407.928 684.697 422.448 666.77 422.501H601.771C583.843 422.448 569.323 407.928 569.264 390.001V341.248H699.269Z" fill="#7FACFA"/>
<path d="M650.516 341.248V390.001C650.464 407.928 635.944 422.448 618.017 422.501H601.771C583.843 422.448 569.323 407.928 569.264 390.001V341.248H650.516Z" fill="#A4C2F7"/>
<path d="M244.265 702.812H439.262V873.44H244.265V702.812Z" fill="#7FACFA"/>
<path d="M244.265 702.812H390.516V873.44H244.265V702.812Z" fill="#A4C2F7"/>
<path d="M276.764 337.188H406.762V637.813H276.764V337.188Z" fill="#7FACFA"/>
<path d="M276.764 337.188H358.016V637.813H276.764V337.188Z" fill="#A4C2F7"/>
<path d="M423.016 288.434V97.499C422.986 88.5354 415.726 81.2752 406.762 81.2529H260.511C251.547 81.2752 244.287 88.5354 244.265 97.499V227.497L423.016 288.434Z" fill="#7FACFA"/>
<path d="M780.508 915.364V942.5C780.485 951.464 773.225 958.724 764.262 958.747H634.264C625.3 958.724 618.04 951.464 618.01 942.5C617.988 933.537 610.728 926.277 601.764 926.247H325.507C316.544 926.277 309.284 933.537 309.261 942.5C309.231 951.464 301.971 958.724 293.008 958.747H163.01C154.046 958.724 146.786 951.464 146.764 942.5V915.364C146.793 911.853 147.932 908.439 150.014 905.612L190.637 851.503C193.724 847.434 198.529 845.032 203.632 845.002H723.639C728.742 845.032 733.547 847.434 736.635 851.503L777.257 905.612C779.34 908.439 780.478 911.853 780.508 915.364V915.364Z" fill="#CAD9FC"/>
<path d="M731.762 915.364V942.5C731.732 951.464 724.472 958.724 715.509 958.747H634.264C625.3 958.724 618.04 951.464 618.01 942.5C617.988 933.537 610.728 926.277 601.764 926.247H325.507C316.544 926.277 309.284 933.537 309.261 942.5C309.231 951.464 301.971 958.724 293.008 958.747H163.01C154.046 958.724 146.786 951.464 146.764 942.5V915.364C146.793 911.853 147.932 908.439 150.014 905.612L190.637 851.503C193.724 847.434 198.529 845.032 203.632 845.002H674.886C679.989 845.032 684.795 847.434 687.889 851.503L728.512 905.612C730.587 908.439 731.725 911.853 731.762 915.364V915.364Z" fill="#2260EA"/>
<path d="M748.012 162.498V341.249C747.99 350.213 740.73 357.473 731.766 357.502H244.266C235.303 357.473 228.042 350.213 228.013 341.249V243.75C228.042 234.787 235.303 227.527 244.266 227.497H366.461C369.213 227.556 371.921 226.82 374.264 225.384C376.161 224.403 377.827 223.019 379.137 221.323L434.391 152.426C437.456 148.543 442.12 146.274 447.066 146.252H731.766C740.73 146.274 747.99 153.534 748.012 162.498Z" fill="#CAD9FC"/>
<path d="M699.267 162.498V341.249C699.237 350.213 691.977 357.473 683.013 357.502H244.266C235.303 357.473 228.042 350.213 228.013 341.249V243.75C228.042 234.787 235.303 227.527 244.266 227.497H366.461C369.213 227.556 371.921 226.82 374.264 225.384C376.161 224.403 377.827 223.019 379.137 221.323L434.391 152.426C437.456 148.543 442.12 146.274 447.066 146.252H683.013C691.977 146.274 699.237 153.534 699.267 162.498Z" fill="#2260EA"/>
<path d="M406.764 64.9985V81.252H260.513V64.9985C260.498 52.0627 265.631 39.655 274.773 30.5055C283.922 21.3634 296.33 16.2307 309.266 16.253H358.019C370.947 16.2307 383.362 21.3634 392.504 30.5055C401.654 39.655 406.779 52.0627 406.764 64.9985Z" fill="#CAD9FC"/>
<path d="M358.019 64.9994V81.2529H260.513V64.9994C260.513 38.0789 282.338 16.2539 309.266 16.2539C336.186 16.2539 358.019 38.0789 358.019 64.9994Z" fill="#2260EA"/>
<path d="M553.014 243.75C553.014 261.699 538.464 276.249 520.514 276.249C502.565 276.249 488.015 261.699 488.015 243.75C488.015 225.8 502.565 211.25 520.514 211.25C538.464 211.25 553.014 225.8 553.014 243.75Z" fill="#CAD9FC"/>
<path d="M683.013 243.75C683.013 261.699 668.463 276.249 650.513 276.249C632.564 276.249 618.014 261.699 618.014 243.75C618.014 225.8 632.564 211.25 650.513 211.25C668.463 211.25 683.013 225.8 683.013 243.75V243.75Z" fill="#2260EA"/>
<path d="M731.764 633.752V637.649C731.764 644.924 726.914 651.307 719.899 653.248L439.261 731.25H244.264L183.973 670.96C180.983 667.925 179.294 663.848 179.265 659.586V633.752C179.287 624.788 186.547 617.528 195.511 617.498H715.51C724.474 617.528 731.734 624.788 731.764 633.752V633.752Z" fill="#CAD9FC"/>
<path d="M666.765 617.498V621.403C666.765 628.678 661.907 635.053 654.9 637.002L374.262 714.997H228.01L183.973 670.96C180.983 667.925 179.294 663.848 179.265 659.586V633.752C179.287 624.788 186.547 617.528 195.511 617.498H666.765Z" fill="#2260EA"/>
<path d="M163.01 958.747H211.763C202.799 958.724 195.539 951.464 195.509 942.501V915.364C195.546 911.853 196.685 908.439 198.76 905.612L239.382 851.503C242.477 847.434 247.282 845.032 252.385 845.002H293.008V731.25L276.762 714.997L232.725 670.96C229.734 667.925 228.046 663.848 228.009 659.586V633.752C228.038 624.788 235.299 617.528 244.262 617.498H195.509C186.546 617.528 179.285 624.788 179.263 633.752V659.586C179.293 663.848 180.982 667.925 183.972 670.96L244.262 731.25V845.002H203.632C198.529 845.032 193.724 847.434 190.637 851.503L150.014 905.612C147.932 908.439 146.793 911.853 146.764 915.364V942.501C146.786 951.464 154.046 958.724 163.01 958.747Z" fill="white"/>
<path d="M244.266 357.502H276.766V617.498H325.511V357.502H293.012C284.048 357.472 276.788 350.212 276.766 341.248V243.75C276.788 234.786 284.048 227.526 293.012 227.496V97.498C293.041 88.5345 300.302 81.2743 309.265 81.252V64.9985C309.25 52.0627 314.376 39.655 323.525 30.5055C332.667 21.3634 345.082 16.2307 358.018 16.253H309.265C296.329 16.2307 283.922 21.3634 274.772 30.5055C265.63 39.655 260.497 52.0627 260.512 64.9985V81.252C251.549 81.2743 244.288 88.5345 244.266 97.498V227.496C235.303 227.526 228.042 234.786 228.013 243.75V341.248C228.042 350.212 235.303 357.472 244.266 357.502Z" fill="white"/>
<path d="M260.513 617.498V357.502H293.012V617.498H260.513Z" fill="white"/>
<path d="M276.766 536.253C267.803 536.275 260.542 543.535 260.513 552.499V617.498H293.012V552.499C292.99 543.535 285.73 536.275 276.766 536.253Z" fill="white"/>
<path d="M293.012 357.502H260.513V422.501C260.513 431.472 267.788 438.747 276.766 438.747C285.737 438.747 293.012 431.472 293.012 422.501V357.502Z" fill="white"/>
<path d="M260.514 487.499C260.58 491.799 262.262 495.92 265.23 499.037L267.67 500.986C268.57 501.603 269.559 502.094 270.593 502.451C271.515 502.92 272.497 503.247 273.516 503.425C274.587 503.604 275.674 503.716 276.767 503.753C281.067 503.686 285.188 502.005 288.304 499.037C292.247 495.235 293.98 489.686 292.894 484.323C291.808 478.952 288.051 474.511 282.941 472.547C280.985 471.714 278.887 471.275 276.767 471.246C272.445 471.209 268.287 472.905 265.23 475.962C262.172 479.019 260.469 483.177 260.514 487.499V487.499Z" fill="white"/>
<path d="M406.764 633.751C397.793 633.751 390.518 626.476 390.518 617.498V373.748H276.766C267.788 373.748 260.513 366.473 260.513 357.502C260.513 348.523 267.788 341.248 276.766 341.248H406.764C415.743 341.248 423.018 348.523 423.018 357.502V617.498C423.018 626.476 415.743 633.751 406.764 633.751V633.751Z" fill="white"/>
<path d="M293.011 975H163.013C145.071 974.977 130.536 960.442 130.514 942.5V915.364C130.536 908.438 132.753 901.699 136.829 896.105L177.638 841.736C183.812 833.598 193.422 828.793 203.636 828.748H569.261C578.239 828.748 585.514 836.023 585.514 845.002C585.514 853.973 578.239 861.248 569.261 861.248H203.636L163.013 915.371V942.5H293.011C293.034 924.558 307.576 910.023 325.511 910.001H601.768C610.739 910.001 618.014 917.276 618.014 926.247C618.014 935.225 610.739 942.5 601.768 942.5H325.511C325.496 960.442 310.953 974.977 293.011 975V975Z" fill="white"/>
<path d="M764.264 975H634.266C616.324 974.977 601.782 960.442 601.767 942.5H325.51C316.539 942.5 309.264 935.225 309.264 926.247C309.264 917.276 316.539 910.001 325.51 910.001H601.767C619.701 910.023 634.244 924.558 634.266 942.5H764.264V915.364L723.642 861.248H358.017C349.038 861.248 341.763 853.973 341.763 845.002C341.763 836.023 349.038 828.748 358.017 828.748H723.642C733.825 828.793 743.421 833.568 749.588 841.684L790.262 895.852C794.45 901.498 796.726 908.334 796.764 915.364V942.5C796.741 960.442 782.206 974.977 764.264 975V975Z" fill="white"/>
<path d="M439.263 861.248H244.266C235.288 861.248 228.013 853.973 228.013 845.002V731.25C228.013 722.279 235.288 714.996 244.266 714.996C253.237 714.996 260.512 722.279 260.512 731.25V828.748H423.017V731.25C423.017 722.279 430.292 714.996 439.263 714.996C448.242 714.996 455.517 722.279 455.517 731.25V845.002C455.517 853.973 448.242 861.248 439.263 861.248Z" fill="white"/>
<path d="M439.263 747.503H244.266C239.952 747.503 235.823 745.785 232.774 742.735L172.535 682.497C166.421 676.42 162.991 668.148 163.014 659.519V633.751C163.036 615.809 177.571 601.274 195.513 601.252H715.513C733.455 601.274 747.997 615.809 748.012 633.751V637.649C747.983 652.237 738.268 665.024 724.224 668.966L443.615 746.908C442.194 747.303 440.736 747.503 439.263 747.503V747.503ZM250.991 714.997H437.047L715.513 637.649V633.751H195.513V659.519L250.991 714.997Z" fill="white"/>
<path d="M731.764 373.748H244.264C226.322 373.726 211.787 359.191 211.765 341.249V243.75C211.787 225.808 226.322 211.273 244.264 211.251H366.459L421.706 142.198C427.85 134.469 437.193 129.976 447.072 129.998H731.764C749.706 130.02 764.241 144.563 764.264 162.498V341.249C764.241 359.191 749.706 373.726 731.764 373.748ZM244.264 243.75V341.249H731.764V162.498H447.072L391.832 231.566C385.681 239.287 376.338 243.772 366.459 243.75H244.264Z" fill="white"/>
<path d="M244.266 243.75C235.288 243.75 228.013 236.475 228.013 227.497V97.4985C228.035 79.5565 242.578 65.0213 260.512 64.999H406.764C424.706 65.0213 439.241 79.5565 439.263 97.4985V166.559C439.263 175.538 431.988 182.813 423.017 182.813C414.039 182.813 406.764 175.538 406.764 166.559V97.4985H260.512V227.497C260.512 236.475 253.237 243.75 244.266 243.75Z" fill="white"/>
<path d="M228.012 308.749H195.512C141.664 308.749 98.0137 265.099 98.0137 211.25C98.0137 157.402 141.664 113.752 195.512 113.752H244.265C253.236 113.752 260.511 121.027 260.511 129.998C260.511 138.976 253.236 146.251 244.265 146.251H195.512C159.613 146.251 130.513 175.351 130.513 211.25C130.513 247.149 159.613 276.249 195.512 276.249H228.012C236.99 276.249 244.265 283.524 244.265 292.503C244.265 301.474 236.99 308.749 228.012 308.749Z" fill="white"/>
<path d="M406.762 97.4985H260.511C251.54 97.4985 244.265 90.2235 244.265 81.2525V64.999C244.302 29.1149 273.38 0.0371932 309.264 0H358.017C393.893 0.0371932 422.978 29.1149 423.016 64.999V81.2525C423.016 90.2235 415.741 97.4985 406.762 97.4985ZM276.764 64.999H390.516C390.494 47.057 375.951 32.5218 358.017 32.4995H309.264C291.322 32.5218 276.786 47.057 276.764 64.999Z" fill="white"/>
<path d="M309.267 243.75C300.289 243.75 293.014 236.475 293.014 227.497V146.252C293.014 137.273 300.289 129.998 309.267 129.998C318.238 129.998 325.513 137.273 325.513 146.252V227.497C325.513 236.475 318.238 243.75 309.267 243.75Z" fill="white"/>
<path d="M358.017 243.75C349.039 243.75 341.764 236.475 341.764 227.497V146.252C341.764 137.273 349.039 129.998 358.017 129.998C366.988 129.998 374.263 137.273 374.263 146.252V227.497C374.263 236.475 366.988 243.75 358.017 243.75Z" fill="white"/>
<path d="M666.766 438.747H601.767C574.854 438.717 553.043 416.914 553.014 390.001V357.502C553.014 348.523 560.289 341.248 569.26 341.248H699.265C708.236 341.248 715.511 348.523 715.511 357.502V390.001C715.481 416.914 693.671 438.717 666.766 438.747V438.747ZM585.513 373.748V390.001C585.521 398.972 592.788 406.24 601.767 406.247H666.766C675.737 406.24 683.004 398.972 683.012 390.001V373.748H585.513Z" fill="white"/>
<path d="M650.513 503.753H618.013C600.071 503.731 585.536 489.188 585.514 471.246V422.501C585.514 413.522 592.789 406.247 601.767 406.247H666.766C675.737 406.247 683.012 413.522 683.012 422.501V471.246C682.99 489.188 668.455 503.731 650.513 503.753ZM618.013 438.747V471.246H650.513V438.747H618.013Z" fill="white"/>
<path d="M634.267 568.752C625.289 568.752 618.014 561.477 618.014 552.499V487.5C618.014 478.529 625.289 471.246 634.267 471.246C643.238 471.246 650.513 478.529 650.513 487.5V552.499C650.513 561.477 643.238 568.752 634.267 568.752V568.752Z" fill="white"/>
<path d="M520.516 292.503C493.588 292.503 471.763 270.671 471.763 243.75C471.763 216.83 493.588 194.997 520.516 194.997C547.436 194.997 569.261 216.83 569.261 243.75C569.231 270.663 547.429 292.473 520.516 292.503ZM520.516 227.497C511.537 227.497 504.262 234.779 504.262 243.75C504.262 252.721 511.537 260.004 520.516 260.004C529.487 260.004 536.762 252.721 536.762 243.75C536.754 234.779 529.487 227.511 520.516 227.497Z" fill="white"/>
<path d="M650.509 292.503C623.589 292.503 601.764 270.671 601.764 243.75C601.764 216.83 623.589 194.997 650.509 194.997C677.437 194.997 699.262 216.83 699.262 243.75C699.232 270.663 677.422 292.473 650.509 292.503V292.503ZM650.509 227.497C641.538 227.497 634.263 234.779 634.263 243.75C634.263 252.721 641.538 260.004 650.509 260.004C659.488 260.004 666.763 252.721 666.763 243.75C666.755 234.779 659.48 227.511 650.509 227.497Z" fill="white"/>
<path d="M341.767 633.751C332.796 633.751 325.514 626.476 325.514 617.498V536.252C325.514 527.274 332.796 519.999 341.767 519.999C350.738 519.999 358.021 527.274 358.021 536.252V617.498C358.021 626.476 350.738 633.751 341.767 633.751V633.751Z" fill="white"/>
</g>
<defs>
<clipPath id="clip0">
<rect width="975" height="975" fill="white" transform="translate(-41)"/>
</clipPath>
</defs>
</svg>
