<svg width="934" height="947" viewBox="0 0 934 947" fill="none" xmlns="http://www.w3.org/2000/svg">
<g opacity="0.1" clip-path="url(#clip0)">
<path d="M513.234 189.873V481.104L448.502 545.829L383.77 481.104V189.873H513.234Z" fill="#7FACFA"/>
<path d="M464.689 189.873V464.928L416.136 513.47L383.77 481.104V189.873H464.689Z" fill="#A4C2F7"/>
<path d="M641.408 50.4004L578.128 202.33C573.113 214.306 569.386 222.231 556.444 222.231H348.646C335.63 222.165 323.91 214.336 318.873 202.33L255.592 50.4004C253.518 45.4232 254.066 39.7424 257.059 35.2541C260.052 30.7657 265.09 28.0698 270.483 28.0772H626.518C631.911 28.0698 636.949 30.7657 639.941 35.2541C642.934 39.7424 643.483 45.4232 641.408 50.4004V50.4004Z" fill="#CAD9FC"/>
<path d="M592.855 50.4004L529.582 202.33C524.56 214.306 520.841 222.231 507.891 222.231H348.646C335.63 222.165 323.91 214.336 318.873 202.33L255.592 50.4004C253.518 45.4232 254.066 39.7424 257.059 35.2541C260.052 30.7657 265.09 28.0698 270.483 28.0772H577.965C583.358 28.0698 588.396 30.7657 591.388 35.2541C594.381 39.7424 594.93 45.4232 592.855 50.4004Z" fill="#E8EDFC"/>
<path d="M887.875 349.728L477.146 760.529C461.292 776.283 435.705 776.283 419.851 760.529L9.12165 349.728C5.03977 345.743 3.4322 339.862 4.91383 334.359C5.66205 331.56 7.11405 328.997 9.12165 326.916L43.4288 292.616C46.4513 289.587 50.5554 287.884 54.8373 287.884C59.1192 287.884 63.2233 289.587 66.2458 292.616L448.499 674.614L830.751 292.616C835.996 287.38 844.13 286.38 850.494 290.187C851.62 290.854 852.657 291.668 853.568 292.616L887.875 326.916C890.905 329.938 892.609 334.041 892.609 338.322C892.609 342.603 890.905 346.706 887.875 349.728V349.728Z" fill="#CAD9FC"/>
<path d="M850.494 290.187C849.731 292.801 848.338 295.186 846.449 297.142L435.712 707.951C428.119 715.542 417.807 719.794 407.072 719.757C396.368 719.823 386.1 715.564 378.588 707.951L4.91406 334.359C5.66229 331.56 7.11428 328.997 9.12189 326.916L43.429 292.616C46.4515 289.587 50.5556 287.884 54.8375 287.884C59.1194 287.884 63.2235 289.587 66.2461 292.616L448.499 674.614L830.752 292.616C835.996 287.38 844.131 286.38 850.494 290.187V290.187Z" fill="#E8EDFC"/>
<path d="M917.811 610.548V950.321C917.789 959.246 910.558 966.474 901.632 966.497H-4.63605C-13.5629 966.474 -20.7932 959.246 -20.8154 950.321V610.548C-20.7932 601.623 -13.5629 594.394 -4.63605 594.364H165.129C170.307 594.35 175.182 596.816 178.234 601.001L378.913 878.967C381.965 883.151 386.84 885.618 392.018 885.603H504.977C510.156 885.618 515.03 883.151 518.082 878.967L718.762 601.001C721.814 596.816 726.688 594.35 731.867 594.364H901.632C910.558 594.394 917.789 601.623 917.811 610.548V610.548Z" fill="#CAD9FC"/>
<path d="M869.265 610.548V950.321C869.236 959.246 862.005 966.474 853.079 966.497H-4.63605C-13.5629 966.474 -20.7932 959.246 -20.8154 950.321V610.548C-20.7932 601.623 -13.5629 594.394 -4.63605 594.364H156.876C162.055 594.35 166.929 596.816 169.981 601.001L370.653 878.967C373.713 883.151 378.587 885.618 383.765 885.603H504.977C510.156 885.618 515.03 883.151 518.082 878.967L718.762 601.001C721.814 596.816 726.688 594.35 731.867 594.364H853.079C862.005 594.394 869.236 601.623 869.265 610.548Z" fill="#E8EDFC"/>
<path d="M27.7301 950.321V610.547C27.7598 601.623 34.9901 594.394 43.9169 594.364H-4.63605C-13.5629 594.394 -20.7932 601.623 -20.8154 610.547V950.321C-20.7932 959.246 -13.5629 966.474 -4.63605 966.497H43.9169C34.9901 966.474 27.7598 959.246 27.7301 950.321V950.321Z" fill="white"/>
<path d="M319.036 28.0772H270.483C265.09 28.0698 260.052 30.7657 257.059 35.2541C254.066 39.7424 253.518 45.4232 255.592 50.4004L318.873 202.33C323.91 214.336 335.63 222.165 348.646 222.231H383.768V481.103L416.134 513.47L448.5 545.829L472.777 521.558L432.314 481.103V222.231H397.199C384.183 222.165 372.456 214.336 367.418 202.33L304.145 50.4004C302.071 45.4232 302.619 39.7424 305.612 35.2541C308.605 30.7657 313.643 28.0698 319.036 28.0772V28.0772Z" fill="white"/>
<path d="M448.5 562.004C444.211 562.011 440.092 560.3 437.062 557.264L372.322 492.546C369.292 489.509 367.581 485.398 367.581 481.103V222.231C367.581 213.291 374.826 206.047 383.768 206.047H513.232C522.174 206.047 529.419 213.291 529.419 222.231V481.103C529.419 485.398 527.708 489.509 524.678 492.546L459.938 557.264C456.908 560.3 452.789 562.011 448.5 562.004ZM399.947 474.407L448.5 522.942L497.053 474.407V238.406H399.947V474.407Z" fill="#2260EA"/>
<path d="M556.394 238.409H348.714C329.105 238.453 311.407 226.647 303.91 208.531L240.629 56.7125C236.459 46.7285 237.555 35.3151 243.563 26.3088C249.564 17.3025 259.676 11.8884 270.499 11.8958H626.505C637.328 11.8884 647.44 17.3025 653.441 26.3088C659.449 35.3151 660.545 46.7285 656.374 56.7125L593.094 208.546C589.153 225.736 574.025 238.038 556.394 238.409ZM270.499 44.2548H270.44L333.779 196.088C336.283 202.124 342.18 206.057 348.714 206.05H556.394C557.09 206.094 557.794 206.028 558.468 205.842C560.387 202.761 561.98 199.502 563.224 196.095L626.505 44.2548H270.499Z" fill="#2260EA"/>
<path d="M448.499 788.529C433.468 788.566 419.052 782.589 408.45 771.938L-2.32365 361.248C-8.39832 355.182 -11.8135 346.953 -11.8135 338.369C-11.8135 329.785 -8.39832 321.556 -2.32365 315.49L31.9983 281.161C44.644 268.54 65.1275 268.54 77.7658 281.161L448.499 651.805L819.232 281.161C831.87 268.54 852.354 268.54 864.999 281.161L899.321 315.49C905.396 321.556 908.811 329.785 908.811 338.369C908.811 346.953 905.396 355.182 899.321 361.248L488.547 771.938C477.946 782.589 463.53 788.566 448.499 788.529V788.529ZM54.882 304.04L20.5601 338.369L431.342 749.052C440.95 758.221 456.063 758.221 465.671 749.052L876.438 338.369L842.116 304.04L459.937 686.134C453.618 692.444 443.38 692.444 437.061 686.134L54.882 304.04Z" fill="#2260EA"/>
<path d="M901.634 982.68H-4.63383C-22.5023 982.658 -36.9778 968.186 -37 950.321C-37 941.382 -29.7548 934.138 -20.8132 934.138C-11.879 934.138 -4.63383 941.382 -4.63383 950.321V950.343L901.634 950.321V610.548H731.898L531.197 888.366C525.1 896.772 515.344 901.764 504.95 901.779H392.05C381.664 901.764 371.915 896.787 365.81 888.381L165.116 610.548H-4.63383C-4.63383 619.48 -11.879 626.724 -20.8132 626.724C-29.7548 626.724 -37 619.48 -37 610.548C-36.9778 592.683 -22.5023 578.204 -4.63383 578.189H165.102C175.488 578.204 185.237 583.181 191.334 591.587L392.035 869.42H504.95L705.651 591.602C711.756 583.196 721.505 578.204 731.898 578.189H901.634C919.502 578.204 933.978 592.683 934 610.548V950.321C933.978 968.186 919.502 982.658 901.634 982.68V982.68Z" fill="#2260EA"/>
<path d="M173.398 303.134C167.709 303.141 162.434 300.156 159.508 295.276L110.955 214.382C107.932 209.419 107.799 203.22 110.607 198.132C113.407 193.051 118.726 189.859 124.534 189.777C130.349 189.688 135.757 192.725 138.706 197.724L187.259 278.626C190.259 283.618 190.341 289.847 187.466 294.913C184.599 299.986 179.228 303.126 173.398 303.134Z" fill="#2260EA"/>
<path d="M173.385 303.134C164.443 303.134 157.198 295.891 157.198 286.951V28.079C157.198 19.1393 164.443 11.8958 173.385 11.8958C182.319 11.8958 189.564 19.1393 189.564 28.079V228.543L208.063 197.732C211.011 192.733 216.419 189.696 222.227 189.778C228.042 189.867 233.354 193.059 236.162 198.14C238.969 203.228 238.836 209.427 235.813 214.382L187.26 295.283C184.334 300.157 179.067 303.134 173.385 303.134Z" fill="#2260EA"/>
<path d="M723.631 303.133C717.941 303.14 712.667 300.156 709.74 295.275L661.187 214.381C656.668 206.723 659.172 196.857 666.795 192.28C674.426 187.703 684.308 190.139 688.938 197.724L737.491 278.625C740.492 283.617 740.573 289.846 737.706 294.912C734.832 299.985 729.461 303.126 723.631 303.133Z" fill="#2260EA"/>
<path d="M723.615 303.134C714.681 303.134 707.436 295.891 707.436 286.951V28.079C707.436 19.1393 714.681 11.8958 723.615 11.8958C732.557 11.8958 739.802 19.1393 739.802 28.079V228.543L758.293 197.732C761.241 192.733 766.649 189.696 772.464 189.778C778.272 189.867 783.591 193.059 786.392 198.14C789.199 203.228 789.066 209.427 786.043 214.382L737.49 295.283C734.564 300.157 729.297 303.134 723.615 303.134Z" fill="#2260EA"/>
</g>
<defs>
<clipPath id="clip0">
<rect width="971" height="955" fill="white" transform="translate(-37 -8)"/>
</clipPath>
</defs>
</svg>
