<svg width="862" height="909" viewBox="0 0 862 909" fill="none" xmlns="http://www.w3.org/2000/svg">
<g opacity="0.1">
<path d="M146.682 543.786C231.687 492.946 273.355 392.424 249.246 296.354C267.111 300.826 285.46 303.075 303.876 303.05C382.887 303.077 456.102 261.586 496.678 193.79C537.255 261.586 610.469 303.077 689.481 303.05C707.897 303.075 726.246 300.826 744.111 296.354C720.001 392.424 761.669 492.946 846.675 543.786C761.669 594.627 720.001 695.149 744.111 791.219C648.052 767.266 547.621 808.896 496.678 893.783C445.735 808.896 345.304 767.266 249.246 791.219C273.355 695.149 231.687 594.627 146.682 543.786V543.786Z" fill="#E8EDFC"/>
<path d="M846.674 543.792C761.668 492.952 720 392.43 744.11 296.36C728.709 300.187 712.948 302.381 697.088 302.904C676.413 397.187 718.246 494.144 801.022 543.792C718.246 593.441 676.413 690.398 697.088 784.681C712.948 785.204 728.709 787.398 744.11 791.225C720 695.155 761.668 594.633 846.674 543.792V543.792Z" fill="#CAD9FC"/>
<path d="M729.045 552.765C682.199 587.314 658.305 644.941 666.959 702.503C667.489 705.825 666.394 709.201 664.015 711.58C661.635 713.959 658.26 715.054 654.938 714.524C597.38 705.905 539.771 729.792 505.2 776.611C503.227 779.352 500.056 780.976 496.678 780.976C493.301 780.976 490.13 779.352 488.157 776.611C458.508 736.498 411.582 712.837 361.701 712.85C342.071 712.85 337.81 716.046 332.332 713.763C328.045 711.773 325.615 707.164 326.397 702.503C334.982 644.95 311.102 587.357 264.311 552.765C261.57 550.792 259.945 547.621 259.945 544.243C259.945 540.866 261.57 537.695 264.311 535.722C311.075 501.108 334.947 443.533 326.397 385.984C325.615 381.322 328.045 376.713 332.332 374.723C334.268 373.973 336.358 373.712 338.419 373.962C383.878 380.722 430.02 367.268 464.722 337.137L489.983 312.637C491.986 310.592 494.728 309.44 497.591 309.44C500.454 309.44 503.196 310.592 505.2 312.637L528.33 336.528C551.068 356.546 579.148 369.502 609.134 373.81C624.256 376.208 639.663 376.208 654.785 373.81C658.108 373.281 661.483 374.376 663.862 376.755C666.242 379.134 667.337 382.509 666.807 385.832C658.292 443.376 682.157 500.934 728.893 535.569C731.714 537.51 733.412 540.704 733.442 544.128C733.473 547.551 731.832 550.775 729.045 552.765V552.765Z" fill="#A4C2F7"/>
<path d="M618.418 543.788C618.418 611.022 563.914 665.526 496.68 665.526C489.022 665.518 481.381 664.805 473.854 663.396C416.387 652.501 374.791 602.278 374.791 543.788C374.791 485.298 416.387 435.075 473.854 424.18C481.381 422.771 489.022 422.058 496.68 422.05C563.914 422.05 618.418 476.554 618.418 543.788Z" fill="#CAD9FC"/>
<path d="M473.853 663.4C528.481 663.4 572.766 609.85 572.766 543.792C572.766 477.735 528.481 424.185 473.853 424.185C419.226 424.185 374.941 477.735 374.941 543.792C374.941 609.85 419.226 663.4 473.853 663.4Z" fill="#E8EDFC"/>
<path d="M200.855 247.969C153.225 295.447 89.4649 308.838 71.6608 290.882L7.13965 226.36C24.9438 244.317 88.7041 230.926 136.182 183.296C183.66 135.666 196.138 76.775 181.073 56.2317L243.768 118.775C261.724 136.579 248.333 200.339 200.855 247.969V247.969Z" fill="#CAD9FC"/>
<path d="M136.185 183.293C88.7071 230.923 24.9468 244.162 7.14265 226.358L-25.1179 193.793C-27.9987 190.936 -29.6191 187.046 -29.6191 182.989C-29.6191 178.931 -27.9987 175.042 -25.1179 172.184L125.381 21.9902C128.238 19.1094 132.127 17.489 136.185 17.489C140.242 17.489 144.132 19.1094 146.989 21.9902L179.25 54.2508L181.076 56.229C196.141 76.468 182.141 137.489 136.185 183.293V183.293Z" fill="#E8EDFC"/>
<path d="M122.641 294.531C117.772 292.096 126.75 300.314 20.5338 194.097C17.653 191.24 16.0326 187.35 16.0326 183.293C16.0326 179.236 17.653 175.346 20.5338 172.489L159.011 34.0119L146.685 21.9902C143.827 19.1094 139.938 17.489 135.88 17.489C131.823 17.489 127.934 19.1094 125.076 21.9902L-25.1179 172.489C-27.9987 175.346 -29.6191 179.236 -29.6191 183.293C-29.6191 187.35 -27.9987 191.24 -25.1179 194.097L71.6637 290.879C80.3376 300.314 99.6635 300.314 122.641 294.531Z" fill="white"/>
<path d="M249.246 791.225C264.646 787.398 280.407 785.204 296.267 784.681C316.942 690.398 275.109 593.441 192.333 543.792C275.109 494.144 316.942 397.187 296.267 302.904C280.407 302.381 264.646 300.187 249.246 296.36C273.355 392.43 231.687 492.952 146.682 543.792C231.687 594.633 273.355 695.155 249.246 791.225V791.225Z" fill="white"/>
<path d="M216.075 449.446L242.857 463.75C222.45 502.289 191.872 534.499 154.445 556.88L139.228 530.706C171.766 511.124 198.338 483.026 216.075 449.446V449.446Z" fill="white"/>
<path d="M194.311 490.839C185.907 490.839 179.094 497.652 179.094 506.056C179.094 514.46 185.907 521.273 194.311 521.273C202.715 521.273 209.528 514.46 209.528 506.056C209.528 497.652 202.715 490.839 194.311 490.839Z" fill="white"/>
<path d="M854.435 530.704C775.444 483.225 736.677 389.764 758.87 300.315C760.327 295.035 758.835 289.379 754.962 285.506C751.089 281.633 745.433 280.141 740.153 281.598C723.479 285.749 706.359 287.844 689.175 287.837C638.831 287.827 590.189 269.613 552.22 236.555C545.875 231.008 536.235 231.655 530.688 238C525.141 244.345 525.788 253.986 532.133 259.533C575.741 297.415 631.563 318.274 689.327 318.271C701.247 318.218 713.148 317.302 724.936 315.532C723.231 327.223 722.367 339.021 722.349 350.836C722.457 426.834 758.377 498.336 819.283 543.791C758.362 589.182 722.388 660.622 722.197 736.593C722.258 748.462 723.173 760.312 724.936 772.049C713.245 770.345 701.447 769.48 689.632 769.463C613.634 769.57 542.132 805.49 496.677 866.396C451.286 805.476 379.846 769.502 303.875 769.31C292.006 769.376 280.157 770.292 268.419 772.049C283.173 675.893 237.997 580.422 154.289 530.856C147.178 527.642 138.789 530.328 134.867 537.074C130.945 543.82 132.761 552.44 139.072 557.03C218.418 604.122 257.261 697.854 234.484 787.267C233.027 792.547 234.52 798.202 238.393 802.075C242.266 805.948 247.921 807.441 253.201 805.984C342.747 783.643 436.378 822.429 483.895 901.548C486.636 906.168 491.61 909 496.982 909C502.353 909 507.327 906.168 510.068 901.548C557.509 822.686 650.8 783.938 740.153 805.984C745.433 807.441 751.089 805.948 754.962 802.075C758.835 798.202 760.327 792.547 758.87 787.267C736.529 697.721 775.316 604.09 854.435 556.573C859.054 553.832 861.887 548.858 861.887 543.486C861.887 538.115 859.054 533.141 854.435 530.4V530.704Z" fill="white"/>
<path d="M-3.65932 237.163L60.8618 301.684C70.6616 310.265 83.4746 314.591 96.4701 313.706C107.617 313.552 118.684 311.81 129.339 308.532C155.469 300.446 179.587 286.909 200.1 268.815L235.251 303.815C238.842 319.284 240.68 335.108 240.73 350.988C240.711 385.332 232.245 419.144 216.078 449.444C212.177 456.687 214.738 465.718 221.86 469.835C225.438 471.88 229.692 472.387 233.649 471.24C237.607 470.093 240.931 467.389 242.86 463.748C261.424 429.061 271.145 390.331 271.164 350.988C271.164 347.032 271.164 343.228 271.164 339.423L390.163 458.422C353.377 504.586 350.308 569.127 382.548 618.573C414.788 668.019 475.082 691.246 532.163 676.207C589.244 661.169 630.267 611.249 633.958 552.336C637.65 493.423 603.179 438.773 548.422 416.727C540.606 413.533 531.681 417.28 528.488 425.096C525.294 432.912 529.041 441.837 536.857 445.031C579.177 462.03 605.979 504.085 603.518 549.625C601.056 595.165 569.876 634.085 525.971 646.423C482.065 658.762 435.176 641.781 409.352 604.189C383.529 566.598 384.502 516.738 411.771 480.183L486.184 554.595C489.041 557.476 492.93 559.096 496.988 559.096C501.045 559.096 504.935 557.476 507.792 554.595C510.673 551.738 512.293 547.848 512.293 543.791C512.293 539.733 510.673 535.844 507.792 532.987L433.075 458.574C440.374 453.059 448.353 448.507 456.814 445.031C464.63 441.837 468.377 432.912 465.184 425.096C461.99 417.28 453.065 413.533 445.249 416.727C432.989 421.96 421.517 428.874 411.163 437.27L292.316 318.271H303.881C361.645 318.275 417.468 297.415 461.075 259.533C467.42 253.986 468.068 244.345 462.521 238C456.974 231.655 447.334 231.008 440.988 236.555C403.019 269.613 354.377 287.827 304.033 287.837C288.153 287.787 272.329 285.95 256.86 282.359L221.86 247.207C239.954 226.694 253.491 202.576 261.577 176.447C270.403 146.012 267.968 121.208 254.729 107.969L146.687 0.38307C140.752 -5.51701 131.166 -5.51701 125.231 0.38307C122.35 3.24036 120.729 7.12982 120.729 11.1873C120.729 15.2448 122.35 19.1343 125.231 21.9916L168.295 65.0563C170.882 67.6433 174.078 80.2736 167.382 103.404C150.511 156.399 108.988 197.922 55.9923 214.794C33.0142 221.49 20.2317 218.294 17.6448 215.707L-25.1156 172.642C-27.9729 169.761 -31.8624 168.141 -35.9199 168.141C-39.9774 168.141 -43.8668 169.761 -46.7241 172.642C-52.4253 178.54 -52.4253 187.896 -46.7241 193.794L-3.65932 237.163ZM64.8183 244.011C95.8186 234.251 123.937 217.004 146.687 193.794C169.829 170.924 186.973 142.7 196.6 111.621C198.026 106.612 199.194 101.533 200.1 96.4039L232.817 129.121C235.404 131.708 238.599 144.338 231.904 167.468C215.032 220.464 173.509 261.987 120.513 278.859C97.5353 285.554 84.7529 282.359 82.1659 279.772L49.7532 247.511C54.831 246.601 59.8591 245.432 64.8183 244.011V244.011Z" fill="white"/>
<path d="M511.896 11.1879C511.896 2.78369 505.083 -4.0293 496.679 -4.0293C488.275 -4.0293 481.462 2.78369 481.462 11.1879V41.6224C481.462 50.0267 488.275 56.8397 496.679 56.8397C505.083 56.8397 511.896 50.0267 511.896 41.6224V11.1879Z" fill="white"/>
<path d="M511.896 102.494C511.896 94.0894 505.083 87.2764 496.679 87.2764C488.275 87.2764 481.462 94.0894 481.462 102.494V132.928C481.462 141.332 488.275 148.145 496.679 148.145C505.083 148.145 511.896 141.332 511.896 132.928V102.494Z" fill="white"/>
<path d="M511.896 193.799C511.896 185.394 505.083 178.581 496.679 178.581C488.275 178.581 481.462 185.394 481.462 193.799V224.233C481.462 232.637 488.275 239.45 496.679 239.45C505.083 239.45 511.896 232.637 511.896 224.233V193.799Z" fill="white"/>
<path d="M511.896 285.098C511.896 276.694 505.083 269.881 496.679 269.881C488.275 269.881 481.462 276.694 481.462 285.098V315.533C481.462 323.937 488.275 330.75 496.679 330.75C505.083 330.75 511.896 323.937 511.896 315.533V285.098Z" fill="white"/>
<path d="M496.679 361.186C488.275 361.186 481.462 367.999 481.462 376.403V406.838C481.462 415.242 488.275 422.055 496.679 422.055C505.083 422.055 511.896 415.242 511.896 406.838V376.403C511.896 367.999 505.083 361.186 496.679 361.186Z" fill="white"/>
</g>
</svg>
