<svg width="896" height="960" viewBox="0 0 896 960" fill="none" xmlns="http://www.w3.org/2000/svg">
<g opacity="0.1">
<g clip-path="url(#clip0)">
<path d="M703.914 687.634H183.543V836.311H703.914V687.634Z" fill="#2260EA"/>
<path d="M518.068 130.093V18.585H369.391V130.093C369.391 171.165 402.657 204.432 443.729 204.432C484.802 204.432 518.068 171.165 518.068 130.093Z" fill="#2260EA"/>
<path d="M852.595 669.049H710.776L483.28 474.04C514.707 459.116 536.656 427.318 536.656 390.279C536.656 345.397 504.671 307.855 462.317 299.232V221.139C504.671 212.497 536.656 174.975 536.656 130.093V18.5847C536.656 8.30736 528.33 0 518.071 0H369.393C359.135 0 350.809 8.30736 350.809 18.5847V130.093C350.809 174.956 382.793 212.497 425.147 221.139V315.94C425.147 326.217 433.473 334.524 443.732 334.524C474.471 334.524 499.486 359.539 499.486 390.279C499.486 421.018 474.49 446.014 443.769 446.033C443.751 446.033 443.732 446.033 443.695 446.033C412.974 446.014 387.978 421.018 387.978 390.279C387.978 380.001 379.652 371.694 369.393 371.694C359.135 371.694 350.809 380.001 350.809 390.279C350.809 427.318 372.757 459.116 404.184 474.04L176.689 669.049H34.8689C24.6101 669.049 16.2842 677.356 16.2842 687.634V836.311C16.2842 846.588 24.6101 854.896 34.8689 854.896H852.595C862.854 854.896 871.18 846.588 871.18 836.311V687.634C871.18 677.356 862.854 669.049 852.595 669.049ZM387.978 130.093V37.1694H499.486V130.093C499.486 160.832 474.471 185.847 443.732 185.847C412.993 185.847 387.978 160.832 387.978 130.093ZM164.962 817.726H53.4536V706.218H164.962V817.726ZM443.732 489.093L653.683 669.049H233.781L443.732 489.093ZM685.333 817.726H202.131V706.218H685.333V817.726ZM834.011 817.726H722.502V706.218H834.011V817.726Z" fill="white"/>
</g>
<path d="M47.8473 909.679C63.1206 898.572 80.4304 885.981 113.981 885.981C147.531 885.981 164.842 898.571 180.114 909.679C193.75 919.597 204.522 927.431 227.964 927.431C251.408 927.431 262.18 919.597 275.818 909.679C291.092 898.571 308.404 885.981 341.955 885.981C375.506 885.981 392.818 898.571 408.092 909.679C421.73 919.597 432.501 927.431 455.944 927.431V958.518C422.393 958.518 405.082 945.929 389.808 934.821C376.17 924.903 365.398 917.069 341.955 917.069C318.512 917.069 307.74 924.903 294.101 934.821C278.828 945.929 261.515 958.518 227.964 958.518C194.414 958.518 177.102 945.929 161.831 934.821C148.194 924.903 137.423 917.069 113.981 917.069C90.5396 917.069 79.7679 924.903 66.1314 934.821C50.8591 945.929 33.5492 958.518 -0.00012207 958.518V927.431C23.4392 927.431 34.2109 919.597 47.8473 909.679Z" fill="white"/>
<path d="M487.508 911.161C502.782 900.054 520.092 887.464 553.642 887.464C587.192 887.464 604.504 900.053 619.775 911.161C633.412 921.079 644.183 928.913 667.625 928.913C691.069 928.913 701.841 921.079 715.479 911.161C730.753 900.053 748.065 887.464 781.616 887.464C815.167 887.464 832.479 900.053 847.753 911.161C861.391 921.079 872.163 928.913 895.605 928.913V960C862.054 960 844.743 947.411 829.469 936.303C815.831 926.385 805.06 918.551 781.616 918.551C758.173 918.551 747.401 926.385 733.762 936.303C718.489 947.411 701.176 960 667.625 960C634.075 960 616.763 947.411 601.492 936.303C587.855 926.385 577.084 918.551 553.642 918.551C530.201 918.551 519.429 926.385 505.793 936.303C490.52 947.411 473.21 960 439.661 960V928.913C463.1 928.913 473.872 921.079 487.508 911.161Z" fill="white"/>
</g>
<defs>
<clipPath id="clip0">
<rect width="854.896" height="854.896" fill="white" transform="translate(16.2842)"/>
</clipPath>
</defs>
</svg>
