<svg width="888" height="977" viewBox="0 0 888 977" fill="none" xmlns="http://www.w3.org/2000/svg">
<g opacity="0.1" clip-path="url(#clip0)">
<path d="M752.523 821.656L417.575 957.297C405.969 961.919 393.032 961.919 381.426 957.297C98.0961 843.313 374.261 948.992 46.4779 821.656C43.3363 820.504 41.248 817.513 41.248 814.166C41.248 810.82 43.3363 807.829 46.4779 806.676C429.462 659.963 383.217 674.13 399.501 667.616L752.523 806.676C755.665 807.829 757.753 810.82 757.753 814.166C757.753 817.513 755.665 820.504 752.523 821.656Z" fill="#CAD9FC"/>
<path d="M687.39 805.372C327.528 944.431 350.651 941.826 346.091 942.966C230.642 896.233 263.372 906.003 46.4779 821.655C43.3363 820.502 41.248 817.511 41.248 814.165C41.248 810.818 43.3363 807.827 46.4779 806.674L388.428 672.337L688.204 790.391C691.295 791.705 693.232 794.814 693.05 798.167C692.867 801.52 690.605 804.4 687.39 805.372V805.372Z" fill="#E8EDFC"/>
<path d="M220.383 162.833H578.616V260.533H220.383V162.833Z" fill="#A4C2F7"/>
<path d="M578.616 260.533L480.916 423.366H318.083L220.383 260.533H578.616Z" fill="#CAD9FC"/>
<path d="M529.766 260.533L432.066 423.366H318.083L220.383 260.533H529.766Z" fill="#E8EDFC"/>
<path d="M480.916 423.367V483.941C480.891 486.912 480.106 489.827 478.637 492.409L436.788 561.938C433.856 566.884 428.534 569.916 422.785 569.917H375.075C369.713 569.746 364.833 566.781 362.211 562.101L320.363 492.571C318.893 489.989 318.109 487.075 318.083 484.104V423.367H480.916Z" fill="#CAD9FC"/>
<path d="M432.066 423.366V483.94C432.041 486.911 431.256 489.826 429.787 492.408L387.939 561.937C385.446 566.741 380.486 569.755 375.075 569.755C369.663 569.755 364.703 566.741 362.211 561.937L320.363 492.408C318.893 489.826 318.109 486.911 318.083 483.94V423.366H432.066Z" fill="#E8EDFC"/>
<path d="M643.75 16.2832H155.25C146.257 16.2832 138.967 23.5735 138.967 32.5665V146.55C138.967 155.543 146.257 162.833 155.25 162.833H643.75C652.743 162.833 660.034 155.543 660.034 146.55V32.5665C660.034 23.5735 652.743 16.2832 643.75 16.2832Z" fill="#CAD9FC"/>
<path d="M594.9 16.2832H155.25C146.257 16.2832 138.967 23.5735 138.967 32.5665V146.55C138.967 155.543 146.257 162.833 155.25 162.833H594.9C603.893 162.833 611.184 155.543 611.184 146.55V32.5665C611.184 23.5735 603.893 16.2832 594.9 16.2832Z" fill="#E8EDFC"/>
<path d="M320.362 492.408L362.211 561.937C365.143 566.883 370.465 569.915 376.214 569.916H423.924C418.617 569.568 413.815 566.65 411.061 562.1L369.212 492.57C366.933 486.871 366.933 490.291 366.933 423.366L269.233 260.533V162.833H220.383V260.533L318.083 423.366C318.083 490.291 318.083 486.871 320.362 492.408V492.408Z" fill="white"/>
<path d="M46.4779 821.656L381.426 957.297C393.033 961.919 405.969 961.919 417.575 957.297L423.926 954.691L95.328 821.656C92.1864 820.504 90.0981 817.513 90.0981 814.166C90.0981 810.82 92.1864 807.829 95.328 806.676L423.926 677.223L399.501 667.616L46.4779 806.676C43.3363 807.829 41.248 810.82 41.248 814.166C41.248 817.513 43.3363 820.504 46.4779 821.656V821.656Z" fill="white"/>
<path d="M204.1 16.2832H155.25C146.257 16.2832 138.967 23.5735 138.967 32.5665V146.55C138.967 155.543 146.257 162.833 155.25 162.833H204.1C195.107 162.833 187.817 155.543 187.817 146.55V32.5665C187.817 23.5735 195.107 16.2832 204.1 16.2832Z" fill="white"/>
<path d="M272.022 700.024L393.17 652.347L405.09 682.634L283.942 730.311L272.022 700.024Z" fill="white"/>
<path d="M643.753 0H155.253C137.267 0 122.686 14.5806 122.686 32.5667V146.55C122.686 164.536 137.267 179.117 155.253 179.117H204.103V260.533C204.207 263.441 204.988 266.284 206.383 268.838L301.803 427.926V483.941C301.912 489.69 303.541 495.308 306.525 500.224L348.211 569.917C353.993 579.932 364.653 586.13 376.218 586.2H383.22V803.745L225.434 876.532L71.3939 814.167L284.217 730.307C288.265 728.744 291.522 725.63 293.265 721.656C295.008 717.681 295.092 713.176 293.499 709.139C291.904 705.12 288.776 701.901 284.805 700.19C280.834 698.48 276.346 698.419 272.33 700.021L41.2697 791.533C31.915 795.145 25.7461 804.139 25.7461 814.167C25.7461 824.194 31.915 833.189 41.2697 836.8L376.381 972.441C383.747 975.354 391.583 976.899 399.503 977C407.77 977.039 415.962 975.434 423.602 972.278L758.551 836.8C767.945 833.248 774.122 824.209 774.02 814.167C773.922 803.901 767.416 794.792 757.736 791.37L415.786 656.544V586.2H422.788C434.353 586.13 445.013 579.932 450.796 569.917L492.481 500.224C495.465 495.308 497.094 489.69 497.203 483.941V427.926L592.623 268.838C593.967 266.264 594.744 263.432 594.903 260.533V179.117H643.753C661.739 179.117 676.32 164.536 676.32 146.55V32.5667C676.32 14.5806 661.739 0 643.753 0V0ZM727.612 814.167L411.553 942.154C403.863 945.192 395.306 945.192 387.616 942.154L266.794 893.304L406.342 828.17C411.854 825.628 415.495 820.23 415.786 814.167V691.553L727.612 814.167ZM464.636 483.941L422.788 553.633H376.218L334.37 483.941V439.65H464.636V483.941ZM562.336 244.25H383.22C374.227 244.25 366.936 251.54 366.936 260.533C366.936 269.526 374.227 276.817 383.22 276.817H549.798L471.638 407.083H327.368L249.208 276.817H301.803C310.796 276.817 318.086 269.526 318.086 260.533C318.086 251.54 310.796 244.25 301.803 244.25H236.67V179.117H562.336V244.25ZM578.62 146.55H155.253V32.5667H187.82V65.1333C187.82 74.1264 195.11 81.4167 204.103 81.4167C213.096 81.4167 220.386 74.1264 220.386 65.1333V32.5667H252.953V65.1333C252.953 74.1264 260.243 81.4167 269.236 81.4167C278.229 81.4167 285.52 74.1264 285.52 65.1333V32.5667H318.086V65.1333C318.086 74.1264 325.377 81.4167 334.37 81.4167C343.363 81.4167 350.653 74.1264 350.653 65.1333V32.5667H383.22V65.1333C383.22 74.1264 390.51 81.4167 399.503 81.4167C408.496 81.4167 415.786 74.1264 415.786 65.1333V32.5667H448.353V65.1333C448.353 74.1264 455.643 81.4167 464.636 81.4167C473.629 81.4167 480.92 74.1264 480.92 65.1333V32.5667H513.486V65.1333C513.486 74.1264 520.777 81.4167 529.77 81.4167C538.763 81.4167 546.053 74.1264 546.053 65.1333V32.5667H578.62V65.1333C578.62 74.1264 585.91 81.4167 594.903 81.4167C603.896 81.4167 611.186 74.1264 611.186 65.1333V32.5667H643.753V146.55H578.62Z" fill="#2260EA"/>
<path d="M355.537 691.39C355.537 682.397 348.247 675.106 339.254 675.106C330.261 675.106 322.971 682.397 322.971 691.39C322.971 700.383 330.261 707.673 339.254 707.673C348.247 707.673 355.537 700.383 355.537 691.39Z" fill="#2260EA"/>
<path d="M631.213 411.318C636.74 409.485 640.869 404.843 642.045 399.141C643.222 393.439 641.266 387.542 636.916 383.672C632.566 379.802 626.481 378.547 620.955 380.379C592.221 388.762 568.489 409.112 555.821 436.231C544.728 464.208 546.272 495.615 560.055 522.37C571.088 540.403 572.682 562.67 564.331 582.091C555.98 601.512 538.722 615.672 518.044 620.07C509.051 621.464 502.891 629.884 504.285 638.877C505.679 647.87 514.099 654.031 523.092 652.637C524.766 652.871 526.465 652.871 528.14 652.637C556.874 644.254 580.606 623.904 593.273 596.785C604.281 568.794 602.739 537.423 589.039 510.646C579.137 492.41 577.709 470.753 585.132 451.375C593.749 431.818 610.647 417.129 631.213 411.318V411.318Z" fill="#2260EA"/>
<path d="M753.505 251.416C757.644 250.076 761.074 247.136 763.032 243.251C764.99 239.366 765.312 234.859 763.926 230.736C761.065 222.262 751.905 217.682 743.409 220.477C714.675 228.86 690.943 249.21 678.276 276.329C667.275 304.266 668.817 335.584 682.509 362.305C692.397 380.605 693.823 402.303 686.417 421.739C677.323 440.402 660.564 454.19 640.498 459.517C636.359 460.856 632.928 463.796 630.971 467.681C629.013 471.566 628.691 476.073 630.077 480.197C632.317 486.829 638.546 491.287 645.546 491.269C647.318 491.319 649.084 491.043 650.757 490.455C679.491 482.073 703.223 461.722 715.89 434.603C726.977 406.681 725.433 375.325 711.656 348.627C701.833 330.31 700.408 308.639 707.748 289.193C716.859 270.607 733.53 256.843 753.505 251.416V251.416Z" fill="#2260EA"/>
</g>
<defs>
<clipPath id="clip0">
<rect width="977" height="977" fill="white" transform="translate(-89)"/>
</clipPath>
</defs>
</svg>
