<svg width="953" height="1023" viewBox="0 0 953 1023" fill="none" xmlns="http://www.w3.org/2000/svg">
<g opacity="0.1">
<path d="M241.361 89.1365H702.963V185.297H241.361V89.1365Z" fill="#E8EDFC"/>
<path d="M241.361 89.1365H645.26V185.297H241.361V89.1365Z" fill="white"/>
<path d="M318.299 89.1355V185.296C318.237 206.515 301.051 223.701 279.833 223.762H164.435V50.6694H279.833C301.051 50.7311 318.237 67.9171 318.299 89.1355Z" fill="#7FACFA"/>
<path d="M260.604 89.1355V185.296C260.543 206.515 243.356 223.701 222.138 223.762H164.435V50.6694H222.138C243.356 50.7311 260.543 67.9171 260.604 89.1355Z" fill="#A4C2F7"/>
<path d="M818.365 50.6694V223.762H741.433C720.214 223.701 703.028 206.515 702.967 185.296V89.1355C703.028 67.9171 720.214 50.7311 741.433 50.6694H818.365Z" fill="#7FACFA"/>
<path d="M760.67 50.6694V223.762H741.433C720.214 223.701 703.028 206.515 702.967 185.296V89.1355C703.028 67.9171 720.214 50.7311 741.433 50.6694H760.67Z" fill="#A4C2F7"/>
<path d="M183.672 358.399H452.934V435.331H183.672V358.399Z" fill="#A4C2F7"/>
<path d="M568.328 358.399H837.6V435.331H568.328" fill="#A4C2F7"/>
<path d="M933.762 108.363V858.465C933.736 869.074 925.143 877.667 914.534 877.703H-162.534C-173.143 877.667 -181.736 869.074 -181.763 858.465V108.363C-181.745 55.2645 -138.701 12.2202 -85.6019 12.2026H183.669C194.279 12.229 202.872 20.822 202.898 31.4312V531.499C202.933 542.108 211.526 550.701 222.135 550.728H799.135C809.745 550.701 818.338 542.108 818.364 531.499V31.4312C818.32 27.9447 819.324 24.5287 821.252 21.6232C824.659 15.8212 830.866 12.2378 837.602 12.2026C863.125 12.1234 887.636 22.2307 905.685 40.2796C923.734 58.3284 933.842 82.8397 933.762 108.363Z" fill="#CAD9FC"/>
<path d="M876.068 108.363V858.465C876.032 869.074 867.439 877.667 856.83 877.702H-162.534C-173.143 877.667 -181.736 869.074 -181.763 858.465V108.363C-181.745 55.2643 -138.701 12.22 -85.6019 12.2024H125.966C136.575 12.2288 145.168 20.8218 145.203 31.431V531.499C145.23 542.108 153.823 550.701 164.432 550.728H799.135C809.745 550.701 818.338 542.108 818.364 531.499V31.431C818.32 27.9445 819.324 24.5284 821.252 21.623C831.192 26.2189 840.243 32.5316 847.982 40.2794C865.969 58.3722 876.068 82.8483 876.068 108.363Z" fill="#E8EDFC"/>
<path d="M510.637 185.293C510.637 185.293 475.438 201.255 472.365 339.166H452.934C442.316 339.166 433.705 347.777 433.705 358.395V435.327C433.705 445.954 442.316 454.565 452.934 454.565H568.332C578.959 454.565 587.569 445.954 587.569 435.327V358.395C587.569 347.777 578.959 339.166 568.332 339.166H548.91C545.828 201.255 510.637 185.293 510.637 185.293Z" fill="#E8EDFC"/>
<path d="M68.2618 108.359H106.737C117.355 108.359 125.965 116.969 125.965 127.596V166.062C125.965 176.68 117.355 185.291 106.737 185.291H68.2618C57.6438 185.291 49.0332 176.68 49.0332 166.062V127.596C49.0332 116.969 57.6438 108.359 68.2618 108.359Z" fill="#E8EDFC"/>
<path d="M68.2618 262.227H106.737C117.355 262.227 125.965 270.847 125.965 281.465V319.931C125.965 330.558 117.355 339.168 106.737 339.168H68.2618C57.6438 339.168 49.0332 330.558 49.0332 319.931V281.465C49.0332 270.847 57.6438 262.227 68.2618 262.227Z" fill="#E8EDFC"/>
<path d="M241.367 743.071V877.707H164.435V781.537C164.496 760.319 181.682 743.133 202.901 743.071H241.367Z" fill="#CAD9FC"/>
<path d="M241.361 743.071H318.294V877.707H241.361V743.071Z" fill="#E8EDFC"/>
<path d="M702.967 743.071H779.899V877.707H702.967V743.071Z" fill="#E8EDFC"/>
<path d="M856.826 781.537V877.707H779.894V743.071H818.36C839.578 743.133 856.764 760.319 856.826 781.537Z" fill="#CAD9FC"/>
<path d="M318.295 743.071H395.236V877.707H318.295V743.071Z" fill="#CAD9FC"/>
<path d="M626.033 743.071H702.965V877.707H626.033V743.071Z" fill="#CAD9FC"/>
<path d="M395.237 743.071H472.169V877.707H395.237V743.071Z" fill="#E8EDFC"/>
<path d="M549.106 743.071H626.039V877.707H549.106V743.071Z" fill="#E8EDFC"/>
<path d="M472.172 743.071H549.104V877.707H472.172V743.071Z" fill="#CAD9FC"/>
<path d="M68.2596 550.725C68.286 566.036 62.211 580.73 51.3905 591.551C40.5612 602.38 25.8756 608.446 10.5648 608.429C2.24477 608.446 -5.96967 606.606 -13.4798 603.04C-33.9762 593.708 -47.1387 573.255 -47.1387 550.725C-47.1387 528.204 -33.9762 507.751 -13.4798 498.419C-5.96967 494.853 2.24477 493.013 10.5648 493.031C25.8756 493.013 40.5612 499.079 51.3905 509.908C62.211 520.729 68.286 535.423 68.2596 550.725Z" fill="#CAD9FC"/>
<path d="M20.1792 550.726C20.232 573.274 7.05194 593.744 -13.4797 603.041C-33.9762 593.709 -47.1387 573.256 -47.1387 550.726C-47.1387 528.204 -33.9762 507.752 -13.4797 498.419C7.05194 507.717 20.232 528.187 20.1792 550.726Z" fill="#E8EDFC"/>
<path d="M933.763 896.931H-181.763C-192.389 896.931 -201 888.32 -201 877.702C-201 867.075 -192.389 858.465 -181.763 858.465H914.534V108.363C914.49 65.891 880.074 31.4749 837.602 31.4309V531.499C837.575 552.735 820.372 569.938 799.136 569.965H222.136C200.9 569.938 183.687 552.735 183.67 531.499V31.4309H-85.6018C-128.074 31.4749 -162.49 65.891 -162.534 108.363C-162.534 118.99 -171.145 127.601 -181.763 127.601C-192.389 127.601 -201 118.99 -201 108.363C-200.93 44.6638 -149.301 -6.96472 -85.6018 -7.03516H183.67C204.897 -7.00874 222.109 10.1949 222.136 31.4309V531.499H799.136V31.4309C799.162 10.1949 816.366 -7.00874 837.602 -7.03516C901.301 -6.96472 952.93 44.6638 953 108.363V877.702C953 888.32 944.389 896.931 933.763 896.931Z" fill="#2260EA"/>
<path d="M279.833 243H202.901C192.283 243 183.672 234.389 183.672 223.762V50.6693C183.672 40.0425 192.283 31.4319 202.901 31.4319H279.833C311.687 31.4671 337.501 57.2814 337.536 89.1354V185.296C337.501 217.15 311.687 242.964 279.833 243ZM222.138 204.534H279.833C290.451 204.525 299.061 195.914 299.07 185.296V89.1354C299.061 78.5174 290.451 69.9068 279.833 69.898H222.138V204.534Z" fill="#2260EA"/>
<path d="M818.364 243H741.432C709.578 242.964 683.773 217.15 683.737 185.296V89.1354C683.773 57.2814 709.578 31.4671 741.432 31.4319H818.364C828.991 31.4319 837.602 40.0425 837.602 50.6693V223.762C837.602 228.869 835.577 233.755 831.967 237.365C828.357 240.975 823.471 243 818.364 243ZM741.432 69.898C730.814 69.9068 722.212 78.5174 722.203 89.1354V185.296C722.212 195.914 730.814 204.525 741.432 204.534H799.136V69.898H741.432Z" fill="#2260EA"/>
<path d="M702.964 204.535H318.294C307.676 204.535 299.065 195.924 299.065 185.297V89.1366C299.065 78.5098 307.676 69.8992 318.294 69.8992H702.964C713.591 69.8992 722.201 78.5098 722.201 89.1366V185.297C722.201 195.924 713.591 204.535 702.964 204.535ZM337.532 166.069H683.735V108.365H337.532V166.069Z" fill="#2260EA"/>
<path d="M433.706 377.635H202.901C192.282 377.635 183.672 369.025 183.672 358.398C183.672 347.78 192.282 339.169 202.901 339.169H433.706C444.324 339.169 452.934 347.78 452.934 358.398C452.934 369.025 444.324 377.635 433.706 377.635Z" fill="#2260EA"/>
<path d="M433.706 454.57H202.901C192.282 454.57 183.672 445.959 183.672 435.333C183.672 424.715 192.282 416.104 202.901 416.104H433.706C444.324 416.104 452.934 424.715 452.934 435.333C452.934 445.959 444.324 454.57 433.706 454.57Z" fill="#2260EA"/>
<path d="M818.362 454.57H587.566C576.939 454.57 568.328 445.959 568.328 435.333C568.328 424.715 576.939 416.104 587.566 416.104H818.362C828.989 416.104 837.6 424.715 837.6 435.333C837.6 445.959 828.989 454.57 818.362 454.57Z" fill="#2260EA"/>
<path d="M818.362 377.635H587.566C576.939 377.635 568.328 369.025 568.328 358.398C568.328 347.78 576.939 339.169 587.566 339.169H818.362C828.989 339.169 837.6 347.78 837.6 358.398C837.6 369.025 828.989 377.635 818.362 377.635Z" fill="#2260EA"/>
<path d="M472.367 358.399H471.927C461.309 358.161 452.892 349.365 453.13 338.747C456.247 199.577 491.86 172.707 502.698 167.794C512.022 163.594 523.01 167.433 527.694 176.528C532.378 185.631 529.12 196.795 520.28 201.946C517.947 204.041 494.079 228.165 491.596 339.61C491.349 350.052 482.809 358.399 472.367 358.399ZM518.608 202.8H518.59H518.608Z" fill="#2260EA"/>
<path d="M548.912 358.399C538.462 358.399 529.921 350.053 529.675 339.602C527.201 228.148 503.332 204.033 500.999 201.938C492.16 196.787 488.902 185.615 493.586 176.52C498.261 167.425 509.249 163.586 518.581 167.786C529.42 172.699 565.024 199.569 568.141 338.73C568.264 343.837 566.345 348.776 562.823 352.465C559.293 356.145 554.45 358.285 549.353 358.399H548.912ZM502.672 202.801H502.69H502.672Z" fill="#2260EA"/>
<path d="M568.331 473.796H452.933C431.697 473.779 414.493 456.566 414.467 435.33V358.398C414.493 337.162 431.697 319.958 452.933 319.932H472.364C482.982 319.932 491.593 328.543 491.593 339.169C491.593 349.787 482.982 358.398 472.364 358.398H452.933V435.33H568.331V358.398H548.909C538.282 358.398 529.671 349.787 529.671 339.169C529.671 328.543 538.282 319.932 548.909 319.932H568.331C589.567 319.958 606.78 337.162 606.797 358.398V435.33C606.78 456.566 589.567 473.779 568.331 473.796Z" fill="#2260EA"/>
<path d="M106.737 204.535H68.262C47.0348 204.508 29.8223 187.305 29.7959 166.069V127.603C29.8223 106.367 47.0348 89.1541 68.262 89.1365H106.737C127.964 89.1541 145.176 106.367 145.203 127.603V166.069C145.176 187.305 127.964 204.508 106.737 204.535ZM68.262 127.603V166.069H106.754L106.737 127.603H68.262Z" fill="#2260EA"/>
<path d="M106.737 358.396H68.262C47.0348 358.37 29.8223 341.166 29.7959 319.93V281.464C29.8223 260.228 47.0348 243.024 68.262 242.998H106.737C127.964 243.024 145.176 260.228 145.203 281.464V319.93C145.176 341.166 127.964 358.37 106.737 358.396ZM68.262 281.464V319.93H106.754L106.737 281.464H68.262Z" fill="#2260EA"/>
<path d="M10.5708 627.666C-31.9188 627.666 -66.3613 593.215 -66.3613 550.725C-66.3613 508.245 -31.9188 473.793 10.5708 473.793C53.0605 473.793 87.503 508.245 87.503 550.725C87.459 593.197 53.0429 627.622 10.5708 627.666ZM10.5708 512.259C-10.674 512.259 -27.8953 529.481 -27.8953 550.725C-27.8953 571.97 -10.674 589.2 10.5708 589.2C31.8157 589.2 49.0369 571.97 49.0369 550.725C49.0105 529.498 31.8068 512.286 10.5708 512.259Z" fill="#2260EA"/>
<path d="M51.343 529.197C43.5687 529.197 36.5517 524.504 33.5759 517.32C30.6 510.135 32.2464 501.868 37.7491 496.365L54.671 479.434C62.2163 472.153 74.2166 472.25 81.6298 479.672C89.0518 487.094 89.1575 499.086 81.8675 506.631L64.9456 523.562C61.3359 527.172 56.4495 529.197 51.343 529.197Z" fill="#2260EA"/>
<path d="M145.204 569.961C134.577 569.961 125.967 561.35 125.967 550.723C125.967 486.998 74.3029 435.325 10.5684 435.325C-53.1661 435.325 -104.83 486.998 -104.83 550.723C-104.83 561.35 -113.44 569.961 -124.067 569.961C-134.685 569.961 -143.296 561.35 -143.296 550.723C-143.296 465.753 -74.4109 396.859 10.5684 396.859C95.5478 396.859 164.433 465.753 164.433 550.723C164.433 561.35 155.822 569.961 145.204 569.961Z" fill="#2260EA"/>
<path d="M779.901 896.928H241.367C230.749 896.928 222.139 888.317 222.139 877.699V743.063C222.139 732.437 230.749 723.826 241.367 723.826H779.901C790.528 723.826 799.139 732.437 799.139 743.063V877.699C799.139 888.317 790.528 896.928 779.901 896.928ZM260.605 858.462H760.673V762.292H260.605V858.462Z" fill="#2260EA"/>
<path d="M856.832 896.928H164.434C153.816 896.928 145.205 888.317 145.205 877.699V781.529C145.24 749.675 171.046 723.861 202.9 723.826H818.366C850.22 723.861 876.034 749.675 876.069 781.529V877.699C876.069 882.797 874.044 887.692 870.435 891.293C866.825 894.903 861.938 896.928 856.832 896.928ZM183.671 858.462H837.603V781.529C837.594 770.911 828.984 762.301 818.366 762.292H202.9C192.282 762.301 183.68 770.911 183.671 781.529V858.462Z" fill="#2260EA"/>
<path d="M702.964 896.928H318.294C307.676 896.928 299.065 888.317 299.065 877.699V743.063C299.065 732.437 307.676 723.826 318.294 723.826H702.964C713.591 723.826 722.201 732.437 722.201 743.063V877.699C722.201 888.317 713.591 896.928 702.964 896.928ZM337.532 858.462H683.735V762.292H337.532V858.462Z" fill="#2260EA"/>
<path d="M626.034 896.928H395.237C384.611 896.928 376 888.317 376 877.699V743.063C376 732.437 384.611 723.826 395.237 723.826H626.034C636.652 723.826 645.263 732.437 645.263 743.063V877.699C645.263 888.317 636.652 896.928 626.034 896.928ZM414.466 858.462H606.797V762.292H414.466V858.462Z" fill="#2260EA"/>
<path d="M549.103 896.928H472.171C461.544 896.928 452.934 888.317 452.934 877.699V743.063C452.934 732.437 461.544 723.826 472.171 723.826H549.103C559.721 723.826 568.332 732.437 568.332 743.063V877.699C568.332 888.317 559.721 896.928 549.103 896.928ZM491.4 858.462H529.866V762.292H491.4V858.462Z" fill="#2260EA"/>
</g>
</svg>
