<svg width="888" height="904" viewBox="0 0 888 904" fill="none" xmlns="http://www.w3.org/2000/svg">
<g opacity="0.1">
<path d="M134.666 783.466V888.933H14.1331C5.81198 888.933 -0.933594 882.187 -0.933594 873.866V783.466H134.666Z" fill="#CAD9FC"/>
<path d="M89.4664 783.466V888.933H14.1331C5.81198 888.933 -0.933594 882.187 -0.933594 873.866V783.466H89.4664Z" fill="#E8EDFC"/>
<path d="M872.933 783.466V873.866C872.933 882.187 866.188 888.933 857.866 888.933H737.333V783.466H872.933Z" fill="#CAD9FC"/>
<path d="M827.733 783.466V873.866C827.733 882.187 820.987 888.933 812.666 888.933H737.333V783.466H827.733Z" fill="#E8EDFC"/>
<path d="M752.399 241.068L651.302 414.335C648.627 418.968 643.695 421.836 638.345 421.868H534.987C529.637 421.836 524.705 418.968 522.03 414.335L420.933 241.068H752.399Z" fill="#CAD9FC"/>
<path d="M707.199 241.068L606.102 414.335C603.427 418.968 598.495 421.836 593.145 421.868H534.987C529.637 421.836 524.705 418.968 522.03 414.335L420.933 241.068H707.199Z" fill="#E8EDFC"/>
<path d="M420.933 150.67H752.399V241.07H420.933V150.67Z" fill="#7FACFA"/>
<path d="M420.933 150.67H707.199V241.07H420.933V150.67Z" fill="#A4C2F7"/>
<path d="M812.667 15.0681H360.666C352.345 15.0681 345.6 21.8137 345.6 30.1348V135.601C345.6 143.923 352.345 150.668 360.666 150.668H812.667C820.988 150.668 827.733 143.923 827.733 135.601V30.1348C827.733 21.8137 820.988 15.0681 812.667 15.0681Z" fill="#CAD9FC"/>
<path d="M767.466 15.0681H360.666C352.345 15.0681 345.6 21.8137 345.6 30.1348V135.601C345.6 143.923 352.345 150.668 360.666 150.668H767.466C775.787 150.668 782.533 143.923 782.533 135.601V30.1348C782.533 21.8137 775.787 15.0681 767.466 15.0681Z" fill="#E8EDFC"/>
<path d="M534.987 421.87H580.187C574.837 421.838 569.905 418.971 567.23 414.337L466.133 241.07V150.67H420.933V241.07L522.03 414.337C524.705 418.971 529.637 421.838 534.987 421.87Z" fill="white"/>
<path d="M405.866 15.0681H360.666C352.345 15.0681 345.6 21.8137 345.6 30.1348V135.601C345.6 143.923 352.345 150.668 360.666 150.668H405.866C397.545 150.668 390.8 143.923 390.8 135.601V30.1348C390.8 21.8137 397.545 15.0681 405.866 15.0681Z" fill="white"/>
<path d="M14.1331 888.933H59.3331C51.012 888.933 44.2664 882.187 44.2664 873.866V783.466H-0.933594V873.866C-0.933594 882.187 5.81198 888.933 14.1331 888.933Z" fill="white"/>
<path d="M842.801 30.1333C842.801 13.4912 829.31 0 812.667 0H360.668C344.025 0 330.534 13.4912 330.534 30.1333V135.6C330.534 152.242 344.025 165.733 360.668 165.733H405.868V241.067C406.022 243.7 406.741 246.269 407.977 248.6L509.074 421.867C514.424 431.134 524.288 436.869 534.989 436.933H571.601V512.267C571.601 520.588 578.346 527.333 586.667 527.333C594.989 527.333 601.734 520.588 601.734 512.267V436.933H638.346C649.047 436.869 658.911 431.134 664.261 421.867L765.358 248.6C766.594 246.269 767.313 243.7 767.467 241.067V165.733H812.667C829.31 165.733 842.801 152.242 842.801 135.6V30.1333ZM737.334 226H571.601C563.28 226 556.534 232.746 556.534 241.067C556.534 249.388 563.28 256.133 571.601 256.133H726.185L638.346 406.8H534.989L447.15 256.133H496.267C504.589 256.133 511.334 249.388 511.334 241.067C511.334 232.746 504.589 226 496.267 226H436.001V165.733H737.334V226ZM752.401 135.6H360.668V30.1333H390.801V60.2667C390.801 68.5878 397.546 75.3333 405.868 75.3333C414.189 75.3333 420.934 68.5878 420.934 60.2667V30.1333H451.067V60.2667C451.067 68.5878 457.813 75.3333 466.134 75.3333C474.455 75.3333 481.201 68.5878 481.201 60.2667V30.1333H511.334V60.2667C511.334 68.5878 518.08 75.3333 526.401 75.3333C534.722 75.3333 541.467 68.5878 541.467 60.2667V30.1333H571.601V60.2667C571.601 68.5878 578.346 75.3333 586.667 75.3333C594.989 75.3333 601.734 68.5878 601.734 60.2667V30.1333H631.867V60.2667C631.867 68.5878 638.613 75.3333 646.934 75.3333C655.255 75.3333 662.001 68.5878 662.001 60.2667V30.1333H692.134V60.2667C692.134 68.5878 698.88 75.3333 707.201 75.3333C715.522 75.3333 722.267 68.5878 722.267 60.2667V30.1333H752.401V60.2667C752.401 68.5878 759.146 75.3333 767.467 75.3333C775.789 75.3333 782.534 68.5878 782.534 60.2667V30.1333H812.667V135.6H752.401Z" fill="white"/>
<path d="M601.733 572.532C601.733 564.211 594.987 557.466 586.666 557.466C578.345 557.466 571.6 564.211 571.6 572.532V738.266C571.6 746.587 578.345 753.333 586.666 753.333C594.987 753.333 601.733 746.587 601.733 738.266V572.532Z" fill="white"/>
<path d="M375.733 798.534C367.412 798.534 360.666 805.28 360.666 813.601C360.666 821.922 367.412 828.668 375.733 828.668H511.333C519.654 828.668 526.399 821.922 526.399 813.601C526.399 805.28 519.654 798.534 511.333 798.534H375.733Z" fill="white"/>
<path d="M651.906 790.999C654.545 791.017 657.143 790.342 659.439 789.04L776.809 721.24C781.492 718.549 784.383 713.564 784.394 708.162C784.404 702.761 781.533 697.764 776.86 695.054C772.188 692.344 766.425 692.333 761.742 695.024L644.373 762.824C638.403 766.207 635.473 773.196 637.245 779.824C639.017 786.453 645.045 791.047 651.906 790.999V790.999Z" fill="white"/>
<path d="M699.667 617.731C696.194 615.719 692.062 615.176 688.186 616.223C684.311 617.269 681.014 619.819 679.026 623.306L611.226 740.675C607.065 747.915 609.561 757.156 616.801 761.316C624.04 765.477 633.281 762.981 637.442 755.742L705.242 638.372C707.254 634.899 707.797 630.767 706.751 626.892C705.704 623.016 703.154 619.719 699.667 617.731V617.731Z" fill="white"/>
<path d="M549 763.425C554.393 763.447 559.387 760.584 562.093 755.918C564.799 751.253 564.805 745.496 562.108 740.825L494.308 623.456C491.616 618.773 486.631 615.882 481.23 615.871C475.828 615.86 470.831 618.732 468.122 623.404C465.412 628.077 465.4 633.84 468.092 638.523L535.892 755.892C538.594 760.572 543.596 763.447 549 763.425V763.425Z" fill="white"/>
<path d="M534.536 783.468C536.548 779.995 537.091 775.863 536.044 771.987C534.998 768.112 532.448 764.815 528.961 762.827L411.592 695.027C404.353 690.866 395.111 693.362 390.951 700.602C386.79 707.841 389.286 717.082 396.525 721.243L513.895 789.043C517.368 791.055 521.5 791.598 525.375 790.551C529.251 789.505 532.548 786.955 534.536 783.468V783.468Z" fill="white"/>
<path d="M872.933 768.398H752.4C735.758 768.398 722.267 781.889 722.267 798.531V873.864H149.733V798.531C149.733 781.889 136.242 768.398 119.6 768.398H-0.933333C-9.25442 768.398 -16 775.143 -16 783.464C-16 791.785 -9.25442 798.531 -0.933333 798.531H119.6V873.864C119.6 890.506 133.091 903.998 149.733 903.998H722.267C738.909 903.998 752.4 890.506 752.4 873.864V798.531H872.933C881.254 798.531 888 791.785 888 783.464C888 775.143 881.254 768.398 872.933 768.398Z" fill="white"/>
<path d="M586.666 828.668C594.987 828.668 601.733 821.922 601.733 813.601C601.733 805.28 594.987 798.534 586.666 798.534C578.345 798.534 571.6 805.28 571.6 813.601C571.6 821.922 578.345 828.668 586.666 828.668Z" fill="white"/>
<path d="M345.601 693.065C353.922 693.065 360.668 686.319 360.668 677.998C360.668 669.677 353.922 662.932 345.601 662.932C337.28 662.932 330.534 669.677 330.534 677.998C330.534 686.319 337.28 693.065 345.601 693.065Z" fill="white"/>
<path d="M827.733 693.065C836.054 693.065 842.799 686.319 842.799 677.998C842.799 669.677 836.054 662.932 827.733 662.932C819.412 662.932 812.666 669.677 812.666 677.998C812.666 686.319 819.412 693.065 827.733 693.065Z" fill="white"/>
<path d="M194.934 587.6C195.823 615.421 208.673 641.506 230.19 659.166C245.967 670.486 255.323 688.715 255.323 708.133C255.323 727.551 245.967 745.78 230.19 757.1C223.956 762.595 223.35 772.1 228.834 778.344C234.329 784.577 243.834 785.183 250.078 779.7C272.257 762.583 285.247 736.149 285.247 708.133C285.247 680.116 272.257 653.683 250.078 636.566C235.061 624.621 225.942 606.767 225.067 587.6C225.942 568.432 235.061 550.578 250.078 538.633C254.392 535.158 256.451 529.596 255.44 524.149C254.429 518.703 250.511 514.25 245.237 512.555C239.963 510.86 234.185 512.195 230.19 516.033C208.673 533.693 195.823 559.778 194.934 587.6Z" fill="white"/>
<path d="M296.634 336.592C291.138 330.359 281.633 329.753 275.39 335.236C253.873 352.896 241.023 378.981 240.134 406.803C241.023 434.625 253.873 460.71 275.39 478.37C290.406 490.315 299.525 508.168 300.4 527.336C299.525 546.504 290.406 564.358 275.39 576.303C269.157 581.799 268.55 591.303 274.034 597.547C279.529 603.78 289.034 604.387 295.278 598.903C316.794 581.243 329.644 555.158 330.534 527.336C329.644 499.515 316.794 473.43 295.278 455.77C280.262 443.824 271.143 425.971 270.267 406.803C271.143 387.635 280.262 369.782 295.278 357.836C301.511 352.341 302.118 342.836 296.634 336.592Z" fill="white"/>
</g>
</svg>
