<svg width="888" height="891" viewBox="0 0 888 891" fill="none" xmlns="http://www.w3.org/2000/svg">
<g opacity="0.1">
<g clip-path="url(#clip0)">
<path d="M634.511 623.697C623.522 707.303 515.711 772.197 383.1 772.197C335.692 772.619 288.681 763.529 244.847 745.467C176.091 716.361 130.65 666.02 130.65 608.847C131.976 573.321 148.136 539.978 175.2 516.926L548.381 525.984L634.511 623.697Z" fill="#CAD9FC"/>
<path d="M591 608.847C580.011 692.453 472.2 757.347 339.59 757.347C307.63 757.464 275.788 753.471 244.847 745.467C176.091 716.361 130.65 666.02 130.65 608.847C131.976 573.321 148.136 539.978 175.2 516.926L516.75 525.242L591 608.847Z" fill="#E8EDFC"/>
<path d="M487.05 599.197C487.05 624.739 445.767 653.399 390.525 653.399C335.283 653.399 294 624.739 294 599.197C294.548 590.103 298.529 581.558 305.137 575.288C351.172 582.119 389.634 576.328 432.402 575.288H475.467C482.228 581.495 486.37 590.044 487.05 599.197Z" fill="#A4C2F7"/>
<path d="M682.181 626.222C682.054 631.525 679.107 636.357 674.452 638.899C669.797 641.442 664.139 641.308 659.609 638.548C652.481 633.647 644.759 629.192 637.631 624.886C500.714 547.517 405.377 587.018 323.702 577.514C242.027 568.01 130.652 519.748 146.987 439.112C159.312 375.851 237.423 357.586 299.051 367.832C293.551 398.343 291.855 429.419 294.002 460.348L427.652 504.898L546.452 445.498C546.793 431.257 548.786 417.104 552.392 403.324C667.628 479.801 682.478 579.148 682.181 626.222V626.222Z" fill="#E8EDFC"/>
<path d="M552.393 403.323C549.918 413.079 548.181 423.007 547.195 433.023C603.618 480.673 636.609 550.447 637.632 624.291C645.205 628.449 652.482 633.201 659.61 638.102C664.14 640.862 669.798 640.996 674.453 638.454C679.109 635.911 682.055 631.079 682.182 625.776C682.479 579.147 667.629 479.801 552.393 403.323V403.323Z" fill="#CAD9FC"/>
<path d="M746.183 31.9253C741.965 30.5038 737.332 31.0489 733.56 33.4103L377.16 259.427C325.49 292.004 294.106 348.776 294 409.858V460.348L427.65 504.898L546.45 445.498C546.791 431.257 548.784 417.104 552.39 403.324C557.387 378.749 571.1 356.808 591 341.548C630.947 314.818 826.669 193.048 866.17 167.654C870.477 164.963 873.109 160.258 873.15 155.18V74.2478L746.183 31.9253Z" fill="#A4C2F7"/>
<path d="M873.15 74.2478L510.513 303.977C458.957 336.625 427.692 393.384 427.65 454.408V504.898L294 460.348V409.858C294.042 348.834 325.307 292.075 376.863 259.427L733.263 33.4103C737.035 31.0489 741.668 30.5038 745.886 31.9253L873.15 74.2478Z" fill="#CAD9FC"/>
<path d="M219.746 516.926C166.435 464.803 185.294 378.227 289.69 366.496C230.29 359.665 159.455 379.267 147.724 439.112C142.52 468.08 152.959 497.647 175.196 516.926C58.7724 626.519 184.106 772.198 383.096 772.198H405.371C219.746 761.06 107.629 622.361 219.746 516.926Z" fill="white"/>
<path d="M389.183 285.86C410.419 263.882 402.102 271.01 768.6 39.3503L746.177 31.9253C741.96 30.5038 737.327 31.0489 733.554 33.4103C357.255 271.901 366.017 263.734 344.633 285.86C323.107 308.12 307.752 335.604 300.083 365.605C314.723 364.697 329.418 365.444 343.891 367.832V370.208C350.968 338.471 366.637 309.291 389.183 285.86Z" fill="white"/>
<path d="M179.653 371.249L194.503 396.791C180.123 404.826 169.147 417.806 163.615 433.322C158.32 448.687 158.956 465.476 165.397 480.397L138.37 492.574C128.811 470.834 127.751 446.301 135.4 423.818C143.382 401.562 159.084 382.909 179.653 371.249V371.249Z" fill="white"/>
<path d="M877.902 60.1415L750.934 17.819C742.433 14.9726 733.101 16.1187 725.541 20.9375L368.25 246.806C329.888 271.124 301.415 308.281 287.911 351.647C250.659 346.464 212.725 353.333 179.655 371.249C176.094 373.379 173.586 376.902 172.74 380.965C171.894 385.027 172.786 389.258 175.2 392.633C179.936 398.559 188.177 400.356 194.95 396.94C221.529 382.82 251.792 377.172 281.674 380.753C280.18 390.584 279.386 400.509 279.298 410.453V460.349C279.282 466.733 283.348 472.414 289.396 474.457L423.046 519.007C426.823 520.253 430.942 519.932 434.481 518.116L553.281 458.716C558.217 456.158 561.311 451.058 561.3 445.499C561.403 439.884 561.849 434.28 562.636 428.719C653.815 498.068 667.626 581.08 667.923 626.224C611.304 587.24 545.122 564.443 476.506 560.29C452.685 559.564 428.841 560.109 405.078 561.923C378.391 564.071 351.575 564.071 324.888 561.923C276.836 558.573 230.804 541.285 192.426 512.176C181.064 503.668 171.9 492.569 165.696 479.803C163.741 474.636 159.08 470.981 153.597 470.315C148.113 469.649 142.712 472.082 139.578 476.631C136.444 481.18 136.093 487.092 138.669 491.98C142.409 500.685 147.413 508.791 153.519 516.037C129.634 541.073 116.152 574.249 115.8 608.849C115.8 707.156 235.639 787.049 383.1 787.049C511.701 787.049 618.621 727.649 644.311 646.42L651.291 650.875C660.357 656.693 671.862 657.147 681.358 652.06C690.853 646.973 696.85 637.143 697.029 626.372C697.029 584.05 684.852 478.912 569.764 397.534C574.628 380.127 585.06 364.792 599.464 353.875C642.381 325.363 864.982 186.218 874.338 180.278C882.881 174.797 888.034 165.332 888 155.182V74.249C888.016 67.8648 883.95 62.1845 877.902 60.1415V60.1415ZM311.82 591.029L321.918 592.217C350.188 594.449 378.59 594.449 406.86 592.217C428.095 590.881 448.291 589.693 468.487 590.435C470.653 593.1 471.949 596.366 472.2 599.791C472.2 613.601 441.163 639.143 390.525 639.143C339.886 639.143 308.85 613.007 308.85 599.197C309.003 596.239 310.037 593.394 311.82 591.029V591.029ZM383.1 757.349C252.123 757.349 145.5 690.673 145.5 608.849C146.144 582.125 156.734 556.602 175.2 537.272C206.568 561.23 242.896 577.872 281.526 585.98C279.959 590.216 279.106 594.682 279.001 599.197C279.15 636.619 330.085 668.249 390.525 668.249C450.964 668.249 501.9 636.619 501.9 599.197C502.118 596.974 502.118 594.736 501.9 592.514C542.74 598.194 582.226 611.171 618.472 630.827C600.652 702.553 500.563 757.349 383.1 757.349V757.349ZM412.8 454.409V484.109L308.85 449.509V409.859C308.851 353.913 337.483 301.859 384.733 271.903L741.133 46.034L838.549 78.407L501.9 291.356C446.277 326.9 412.67 388.399 412.8 454.409V454.409ZM582.832 329.224C541.846 356.399 533.679 413.572 531.6 436.144L442.5 480.694V454.409C442.501 398.463 471.133 346.409 518.383 316.453L858.3 101.276V155.182C848.796 160.973 626.046 300.415 582.832 329.224Z" fill="#2260EA"/>
<path d="M149.957 413.422C141.756 413.422 135.107 420.07 135.107 428.272C135.107 436.473 141.756 443.122 149.957 443.122C158.159 443.122 164.807 436.473 164.807 428.272C164.807 420.07 158.159 413.422 149.957 413.422Z" fill="#2260EA"/>
<path d="M676.684 715.472C622.779 796.256 510.216 846.449 383.1 846.449C199.851 846.449 56.3998 742.499 56.3998 608.849C56.5838 588.601 60.1473 568.525 66.9433 549.449L71.2498 567.863C73.2182 576.065 81.4624 581.118 89.6638 579.149C97.8653 577.181 102.918 568.937 100.95 560.735L86.0998 501.335C85.031 496.95 82.0255 493.289 77.9323 491.386C73.8515 489.414 69.0937 489.414 65.0128 491.386L5.61283 521.086C-1.05174 525.096 -3.49277 533.569 0.0168429 540.511C3.52646 547.452 11.7975 550.509 18.9778 547.519L39.7678 537.124C31.3439 560.11 26.9239 584.37 26.6998 608.849C26.6998 758.686 183.219 876.149 383.1 876.149C520.017 876.149 641.935 820.907 701.335 732.104C704.306 727.701 704.703 722.047 702.375 717.272C700.047 712.497 695.348 709.327 690.049 708.956C684.75 708.585 679.655 711.069 676.684 715.472V715.472Z" fill="#2260EA"/>
<path d="M311.971 684.435C281.529 677.901 245.146 657.408 234.603 619.689C233.497 614.231 229.43 609.851 224.069 608.343C218.708 606.835 212.955 608.454 209.166 612.535C205.377 616.616 204.19 622.474 206.091 627.708C220.86 672.556 259.194 705.577 305.734 713.541H308.853C317.054 714.402 324.401 708.452 325.262 700.25C326.123 692.049 320.173 684.702 311.971 683.841V684.435Z" fill="#2260EA"/>
</g>
</g>
<defs>
<clipPath id="clip0">
<rect width="891" height="891" fill="white" transform="translate(-3)"/>
</clipPath>
</defs>
</svg>
