<svg width="880" height="972" viewBox="0 0 880 972" fill="none" xmlns="http://www.w3.org/2000/svg">
    <g opacity="0.1">
    <path d="M754.123 124.514L713.728 83.1676L760.854 21.1494L814.715 76.2762L754.123 124.514Z" fill="#2260EA"/>
<path d="M794.517 276.115L565.613 41.8197C595.36 11.3726 643.586 11.3726 673.333 41.8197L794.517 165.858C824.264 196.305 824.264 245.668 794.517 276.115Z" fill="#2260EA"/>
<path d="M740.654 331.244L511.752 96.9481L565.611 41.8193L794.514 276.115L740.654 331.244Z" fill="#2260EA"/>
<path d="M269.384 524.193L404.032 386.372L457.891 441.501L377.103 524.193H269.384Z" fill="#2260EA"/>
<path d="M343.441 324.351L538.682 124.51L713.726 303.677L518.485 503.518L343.441 324.351Z" fill="#2260EA"/>
<path d="M156.184 524.189H232.119V660.207H156.184V524.189Z" fill="#2260EA"/>
<path d="M794.045 640.776H751.518L733.959 603.857H683.938L651.666 524.189H794.045V640.776Z" fill="#2260EA"/>
<path d="M853.835 855.914L733.962 603.858H683.94L651.666 524.19H232.121V660.208H618.343L676.257 786.509H617.494V864.233H711.896L734.789 914.16C750.216 947.804 789.303 962.365 822.248 946.741C855.76 930.851 869.998 889.902 853.835 855.914V855.914Z" fill="#2260EA"/>
<path d="M549.417 613.295C534.59 598.119 510.55 598.119 495.724 613.295C495.724 613.295 442.839 649.842 442.839 825.37C442.839 846.833 457.939 864.232 478.909 864.232C499.877 864.232 514.978 846.833 514.978 825.37C514.978 719.332 549.419 668.255 549.419 668.255C564.246 653.077 564.246 628.471 549.417 613.295Z" fill="#2260EA"/>
<path d="M870.981 847.766L838.366 779.176C835.234 772.607 828.494 768.355 821.204 768.355C818.375 768.355 815.642 768.962 813.06 770.198C808.485 772.379 805.031 776.195 803.321 780.981C801.631 785.765 801.897 790.908 804.08 795.485L836.695 864.076C839.885 870.796 841.517 877.991 841.517 885.414C841.498 904.418 830.732 921.752 814.104 929.593C814.085 929.612 814.049 929.631 814.009 929.631L813.971 929.671C807.78 932.556 801.252 934.018 794.55 934.037C776.173 933.997 759.885 923.349 752.044 906.263L729.149 856.332C726.054 849.593 719.298 845.245 711.892 845.245H636.469V805.488H676.26C682.753 805.488 688.714 802.221 692.224 796.753C695.738 791.286 696.213 784.489 693.517 778.587L635.596 652.301C632.5 645.562 625.743 641.214 618.337 641.214H579.444C579.554 626.312 574.083 611.375 562.998 600.032C552.226 589.004 537.87 582.93 522.572 582.93C522.572 582.93 522.572 582.93 522.571 582.93C507.763 582.93 493.834 588.624 483.186 598.991C478.214 602.984 466.016 614.727 453.963 641.214H251.107V543.179H638.873L666.339 610.984C669.242 618.15 676.202 622.841 683.934 622.841H721.963L734.372 648.93C737.517 655.546 744.19 659.76 751.514 659.76H794.039C804.523 659.76 813.024 651.261 813.024 640.776V601.467H850.993C861.476 601.467 869.977 592.967 869.977 582.482C869.977 571.997 861.476 563.498 850.993 563.498H813.024V524.189C813.024 513.704 804.523 505.205 794.039 505.205L543.368 505.212L713.722 330.846L727.072 344.511C730.645 348.168 735.541 350.229 740.652 350.229C745.762 350.229 750.658 348.168 754.231 344.511L808.09 289.383C808.103 289.369 808.113 289.354 808.126 289.341C844.933 251.625 844.921 190.292 808.09 152.593L782.381 126.278L826.533 91.1288C830.734 87.7837 833.322 82.8174 833.656 77.4581C833.992 72.0989 832.039 66.8497 828.287 63.0091L774.427 7.87852C770.569 3.92977 765.178 1.85477 759.674 2.19649C754.163 2.53821 749.075 5.26247 745.734 9.65925L711.923 54.1548L686.907 28.5525C668.919 10.1415 644.968 0 619.471 0C619.469 0 619.471 0 619.469 0C593.986 0 570.049 10.1282 552.065 28.5183C552.053 28.5297 552.04 28.5392 552.029 28.5525L498.17 83.6812C490.963 91.0586 490.963 102.838 498.17 110.216L512.139 124.511L329.86 311.084C322.654 318.459 322.654 330.241 329.86 337.618L377.49 386.372L261.384 505.212L156.184 505.208C145.699 505.208 137.199 513.708 137.199 524.193V660.21C137.199 670.695 145.699 679.195 156.184 679.195L440.419 679.187C430.999 713.139 423.856 760.317 423.856 825.374C423.856 857.811 448.038 883.221 478.91 883.221C509.781 883.221 533.963 857.811 533.963 825.374C533.963 735.337 560.163 687.282 564.543 679.882C564.748 679.654 564.938 679.417 565.139 679.187H606.149L646.662 767.521H617.485C612.49 767.521 607.594 769.551 604.063 773.084C600.532 776.615 598.5 781.513 598.5 786.506V864.226C598.5 869.219 600.53 874.117 604.063 877.667C607.594 881.198 612.49 883.21 617.485 883.21H699.704L717.531 922.073C724.46 937.204 735.471 949.883 749.329 958.749C762.922 967.408 778.527 972 794.474 972H794.569C806.814 972 819.194 969.19 830.374 963.892C830.45 963.854 830.526 963.816 830.62 963.778L830.696 963.738C845.618 956.564 858.072 945.285 866.691 931.106C875.063 917.361 879.486 901.547 879.486 885.41C879.486 872.484 876.544 859.461 870.981 847.766V847.766ZM762.649 50.1548L786.444 74.5099L755.712 98.9769L738.747 81.6119L762.649 50.1548ZM775.057 621.793H763.509L751.101 595.705C747.955 589.089 741.282 584.874 733.958 584.874H696.727L679.837 543.177H775.059V621.793H775.057ZM659.748 55.087L780.935 179.125C798.727 197.337 802.48 224.562 792.196 246.577L594.259 43.9792C602.009 40.0475 610.588 37.9688 619.469 37.9688C634.66 37.9688 648.965 44.0475 659.748 55.087V55.087ZM565.608 68.9854L767.97 276.114L740.653 304.077L538.29 96.9475L565.608 68.9854ZM538.679 151.678L687.18 303.678L518.479 476.352L369.978 324.352L538.679 151.678ZM404.03 413.537L431.349 441.499L369.108 505.207H314.471L404.03 413.537ZM457.889 468.665L493.595 505.212H422.185L457.889 468.665ZM213.133 641.224H175.166V543.175H213.133V641.224ZM533.678 657.643C532.139 659.925 495.994 714.803 495.994 825.372C495.994 835.25 490.126 845.251 478.91 845.251C467.694 845.251 461.824 835.25 461.824 825.372C461.824 671.999 503.341 631.811 506.787 628.753C507.949 628.03 513.564 620.901 522.572 620.901C527.558 620.901 532.268 622.913 535.837 626.566H535.839C550.113 640.838 534.316 656.696 533.678 657.643V657.643Z" fill="white"/>
<path d="M74.4658 661.557L13.7176 680.987C3.73186 684.181 -1.77551 694.867 1.41956 704.853C3.99764 712.917 11.4604 718.058 19.4965 718.058C21.412 718.058 23.3617 717.766 25.2848 717.151L86.0329 697.72C96.0187 694.527 101.526 683.841 98.331 673.855C95.1379 663.867 84.4497 658.358 74.4658 661.557Z" fill="white"/>
<path d="M86.0329 486.677L25.2848 467.246C15.299 464.049 4.61274 469.559 1.41956 479.545C-1.77551 489.53 3.73186 500.217 13.7176 503.41L74.4658 522.84C76.3889 523.455 78.3386 523.748 80.2541 523.748C88.2883 523.748 95.753 518.607 98.331 510.542C101.526 500.556 96.0187 489.872 86.0329 486.677V486.677Z" fill="white"/>
<path d="M19.4961 611.185H80.2442C90.7293 611.185 99.2286 602.686 99.2286 592.2C99.2286 592.174 99.2248 592.147 99.2248 592.121C99.2248 592.094 99.2286 592.069 99.2286 592.041C99.2286 581.556 90.7293 573.057 80.2442 573.057H19.4961C9.01102 573.057 0.511719 581.556 0.511719 592.041C0.511719 592.068 0.515514 592.094 0.515514 592.121C0.515514 592.147 0.511719 592.172 0.511719 592.2C0.511719 602.686 9.01292 611.185 19.4961 611.185V611.185Z" fill="white"/>
<path d="M784.53 729.172C795.015 729.172 803.515 720.672 803.515 710.188C803.515 699.703 795.015 691.203 784.53 691.203C774.045 691.203 765.546 699.703 765.546 710.188C765.546 720.672 774.045 729.172 784.53 729.172Z" fill="white"/>
    </g>
</svg>
