<svg width="980" height="977" viewBox="0 0 980 977" fill="none" xmlns="http://www.w3.org/2000/svg">
<g opacity="0.1" clip-path="url(#clip0)">
<path d="M571.739 163.482V316.168L567.822 504.625C560.444 546.966 543.4 587.035 518.013 621.714L473.272 669.557C463.106 678.086 452.356 685.891 441.098 692.91C415.965 708.81 388.373 720.457 359.443 727.372H228.802C104.275 697.074 16.5956 585.585 16.5059 457.425V163.482C16.5133 82.313 82.3125 16.5138 163.481 16.5063H424.772C505.94 16.5138 571.732 82.313 571.739 163.482V163.482Z" fill="#7FACFA"/>
<path d="M522.753 163.482V316.168L518.828 504.625C511.457 546.966 494.413 587.035 469.026 621.714L424.278 669.557C414.111 678.086 403.362 685.891 392.104 692.91C366.971 708.81 339.379 720.457 310.457 727.372H228.802C104.275 697.074 16.5956 585.585 16.5059 457.425V163.482C16.5133 82.313 82.3125 16.5138 163.481 16.5063H375.777C456.946 16.5138 522.745 82.313 522.753 163.482V163.482Z" fill="#A4C2F7"/>
<path d="M130.821 147.148H457.432C466.448 147.148 473.759 154.459 473.759 163.482V294.123C473.759 303.139 466.448 310.45 457.432 310.45H130.821C121.798 310.45 114.487 303.139 114.487 294.123V163.482C114.487 154.459 121.798 147.148 130.821 147.148Z" fill="#E8EDFC"/>
<path d="M533.469 492.894L507.492 518.872C495.232 531.124 488.347 547.734 488.347 565.063C488.347 582.391 495.232 599.001 507.492 611.254L530.471 634.233L511.588 669.443L484.28 680.417L461.301 657.437C410.378 606.38 410.378 523.738 461.301 472.681L516.148 417.833L541.625 449.26L533.469 492.894Z" fill="#E8EDFC"/>
<path d="M758.074 907.978L712.017 954.034C705.925 960.224 697.597 963.707 688.91 963.707C680.224 963.707 671.904 960.224 665.804 954.034L664.496 952.561L466.739 753.661C463.689 750.567 461.992 746.403 462 742.067V709.407C461.955 705.056 463.667 700.877 466.739 697.812L550.838 613.705C553.133 611.463 556.026 609.93 559.166 609.295L571.254 606.85L603.585 600.481C608.915 599.353 614.455 601.012 618.282 604.892L646.696 633.306C653.066 639.72 653.066 650.074 646.696 656.495C643.654 659.582 641.95 663.746 641.965 668.09C642.017 672.366 643.706 676.462 646.696 679.52L715.942 748.757C719.074 751.807 720.838 755.986 720.838 760.352C720.838 764.725 719.074 768.904 715.942 771.946L704.512 783.376C698.143 789.798 698.143 800.151 704.512 806.573L758.074 861.764C764.263 867.864 767.747 876.184 767.747 884.871C767.747 893.565 764.263 901.885 758.074 907.978V907.978Z" fill="#CAD9FC"/>
<path d="M709.079 907.978L664.496 952.562L466.739 753.662C463.689 750.567 461.992 746.403 462 742.068V709.407C461.955 705.056 463.667 700.878 466.739 697.813L550.838 613.706C553.133 611.463 556.026 609.931 559.166 609.296L571.254 606.851L597.71 633.307C604.079 639.721 604.079 650.074 597.71 656.496C594.66 659.583 592.955 663.747 592.97 668.09C593.023 672.366 594.719 676.463 597.71 679.52L666.948 748.758C670.08 751.808 671.851 755.987 671.851 760.353C671.851 764.726 670.08 768.905 666.948 771.947L655.518 783.377C649.148 789.799 649.148 800.152 655.518 806.573L709.079 861.765C715.269 867.865 718.76 876.185 718.76 884.872C718.76 893.566 715.269 901.886 709.079 907.978V907.978Z" fill="#E8EDFC"/>
<path d="M929.393 19.6915C952.963 8.86703 971.308 27.2044 960.483 50.7746C942.669 88.0772 920.46 123.107 894.325 155.132C865.627 183.831 826.852 191.583 807.714 172.46C788.577 153.338 796.337 114.555 825.035 85.857C857.06 59.7152 892.09 37.5056 929.393 19.6915V19.6915Z" fill="#E8EDFC"/>
<path d="M576.964 311.106L576.807 310.942Z" fill="#E4C05C"/>
<path d="M796.122 276.322L669.233 403.368L634.935 388.671L604.398 375.776L595.091 353.724L576.963 311.106L579.744 308.325L703.852 184.053C709.952 177.938 718.242 174.499 726.876 174.499C735.518 174.499 743.801 177.938 749.908 184.053L796.122 230.266C802.236 236.374 805.675 244.656 805.675 253.298C805.675 261.932 802.236 270.215 796.122 276.322V276.322Z" fill="#CAD9FC"/>
<path d="M359.444 522.747V931.012C359.392 949.028 344.8 963.62 326.784 963.673H261.463C243.447 963.62 228.855 949.028 228.803 931.012V522.747C228.758 496.149 244.935 472.205 269.626 462.33C277.371 459.033 285.714 457.366 294.124 457.426C311.452 457.426 328.07 464.303 340.322 476.556C352.574 488.808 359.452 505.426 359.444 522.747V522.747Z" fill="#CAD9FC"/>
<path d="M310.458 522.745V931.011C310.405 949.027 295.813 963.619 277.797 963.671H261.463C243.447 963.619 228.855 949.027 228.803 931.011V522.745C228.758 496.147 244.935 472.203 269.626 462.328C294.325 472.203 310.502 496.147 310.458 522.745V522.745Z" fill="#E8EDFC"/>
<path d="M669.233 403.368L562.924 509.52C558.745 513.744 552.593 515.358 546.882 513.729C541.17 512.099 536.797 507.479 535.489 501.678L532.058 486.817L509.519 389.165C508.181 383.678 509.863 377.892 513.93 373.975L569.779 318.125L576.963 311.106L637.881 372.016L644.736 378.879L669.233 403.368Z" fill="#CAD9FC"/>
<path d="M774.399 248.887L647.518 376.098L637.882 372.016L595.092 353.724L582.683 348.498L569.78 318.125L576.964 311.106L579.745 308.325L703.853 184.053C709.953 177.938 718.243 174.499 726.877 174.499C735.519 174.499 743.802 177.938 749.909 184.053L782.405 216.549C786.165 227.971 783.055 240.537 774.399 248.887V248.887Z" fill="#E8EDFC"/>
<path d="M647.517 376.101L541.365 482.253C538.89 484.817 535.601 486.431 532.058 486.82L509.519 389.168C508.181 383.681 509.863 377.895 513.93 373.978L569.779 318.128L576.963 311.109L579.744 308.328L647.517 376.101Z" fill="#E8EDFC"/>
<path d="M310.454 604.4C310.454 613.416 303.143 620.734 294.12 620.734C285.105 620.734 277.794 613.416 277.794 604.4C277.794 595.385 285.105 588.066 294.12 588.066C303.143 588.066 310.454 595.385 310.454 604.4V604.4Z" fill="#2260EA"/>
<path d="M547.58 725.72C547.58 734.735 540.269 742.046 531.246 742.046C522.231 742.046 514.92 734.735 514.92 725.72C514.92 716.697 522.231 709.386 531.246 709.386C540.269 709.386 547.58 716.697 547.58 725.72V725.72Z" fill="#2260EA"/>
<path d="M604.654 414.949C604.654 423.964 597.343 431.275 588.321 431.275C579.305 431.275 571.994 423.964 571.994 414.949C571.994 405.926 579.305 398.615 588.321 398.615C597.343 398.615 604.654 405.926 604.654 414.949V414.949Z" fill="#2260EA"/>
<path d="M310.454 539.078C310.454 548.093 303.143 555.404 294.12 555.404C285.105 555.404 277.794 548.093 277.794 539.078C277.794 530.055 285.105 522.744 294.12 522.744C303.143 522.744 310.454 530.055 310.454 539.078V539.078Z" fill="#2260EA"/>
<path d="M228.802 727.372V931.011C228.854 949.027 243.446 963.62 261.462 963.672H310.457C292.441 963.62 277.849 949.027 277.796 931.011V727.372C153.27 697.074 65.5824 585.585 65.5001 457.425V163.482C65.5076 82.313 131.307 16.5138 212.476 16.5063H163.481C82.3125 16.5138 16.5133 82.313 16.5059 163.482V457.425C16.5956 585.585 104.275 697.074 228.802 727.372V727.372Z" fill="white"/>
<path d="M484.276 696.754C479.948 696.761 475.791 695.035 472.734 691.97L449.747 668.99C392.44 611.556 392.44 518.576 449.747 461.142L504.587 406.294C508.691 402.048 514.761 400.344 520.472 401.839C526.184 403.334 530.639 407.789 532.134 413.501C533.629 419.212 531.925 425.282 527.679 429.386L472.839 484.234C428.262 528.907 428.262 601.225 472.839 645.898L495.818 668.878C500.49 673.55 501.888 680.57 499.362 686.677C496.827 692.777 490.877 696.754 484.269 696.754H484.276Z" fill="#2260EA"/>
<path d="M530.466 650.561C526.138 650.569 521.981 648.842 518.924 645.777L495.944 622.797C464.114 590.885 464.114 539.237 495.944 507.324L521.921 481.346C528.32 475.104 538.547 475.172 544.864 481.496C551.188 487.813 551.255 498.039 545.013 504.438L519.036 530.423C499.944 549.575 499.944 580.561 519.036 599.706L542.016 622.693C546.688 627.357 548.086 634.384 545.559 640.484C543.032 646.592 537.082 650.569 530.473 650.569L530.466 650.561Z" fill="#2260EA"/>
<path d="M688.862 979.999C675.855 980.037 663.37 974.864 654.206 965.639L455.164 765.102C449.041 758.994 445.61 750.689 445.64 742.04V709.38C445.617 700.716 449.064 692.395 455.208 686.288L539.3 602.189C543.853 597.629 549.646 594.527 555.955 593.263L600.307 584.397C611.02 582.244 622.098 585.593 629.813 593.33L658.28 621.79C671.018 634.55 671.018 655.22 658.28 667.981L727.57 737.263C740.278 750.031 740.286 770.664 727.585 783.432L716.013 795.004L769.844 850.337C788.824 869.497 788.749 900.393 769.679 919.463L723.496 965.646C714.331 974.871 701.862 980.037 688.862 979.999V979.999ZM618.256 604.88L606.714 616.422L562.392 625.288L478.3 709.387V742.048L677.357 942.607C683.823 948.729 693.96 948.715 700.404 942.562L746.587 896.379C752.949 889.995 752.949 879.664 746.587 873.28L692.749 817.939C680.168 805.163 680.228 784.628 692.891 771.927L704.471 760.355L635.173 691.08C629.051 684.95 625.604 676.645 625.604 667.981C625.604 659.316 629.051 651.011 635.173 644.881L606.706 616.422L618.256 604.88Z" fill="#2260EA"/>
<path d="M835.67 199.341C820.974 199.76 806.725 194.228 796.17 183.994C770.267 158.099 777.877 109.912 813.476 74.299C846.884 46.7967 883.528 23.4732 922.588 4.85182C937.853 -3.37121 956.653 -0.986527 969.384 10.7874C981.158 23.5181 983.535 42.3189 975.312 57.5838C956.698 96.6432 933.382 133.273 905.88 166.673C887.61 186.274 862.433 197.996 835.67 199.341ZM942.854 32.84C940.544 32.9297 938.279 33.5053 936.208 34.5369C900.67 51.5511 867.232 72.6469 836.582 97.4057C812.773 121.215 808.333 149.988 819.262 160.91C830.183 171.832 858.956 167.421 882.788 143.589C907.532 112.94 928.628 79.5094 945.635 43.971C947.959 38.925 947.616 35.2097 946.285 33.9015C945.321 33.1241 944.095 32.7428 942.854 32.84Z" fill="#2260EA"/>
<path d="M669.15 419.732C664.814 419.739 660.658 418.013 657.6 414.948L565.233 322.566C561.002 318.462 559.312 312.399 560.808 306.695C562.303 300.991 566.758 296.544 572.454 295.048C578.158 293.546 584.221 295.243 588.325 299.474L680.692 391.856C685.364 396.528 686.762 403.548 684.235 409.655C681.709 415.755 675.751 419.732 669.15 419.732Z" fill="#2260EA"/>
<path d="M551.397 530.697C536.192 530.705 522.997 520.202 519.581 505.385L493.604 392.782C491.025 381.801 494.336 370.274 502.358 362.342L692.25 172.458C711.634 153.948 742.141 153.948 761.525 172.458L807.708 218.641C826.816 237.786 826.816 268.779 807.708 287.924L574.511 521.121C568.381 527.251 560.068 530.697 551.397 530.697V530.697ZM726.891 190.765C722.563 190.743 718.406 192.469 715.356 195.542L525.434 385.456L551.419 498.044L784.617 264.832C790.978 258.448 790.978 248.117 784.617 241.733L738.433 195.549C735.376 192.477 731.219 190.758 726.891 190.765Z" fill="#2260EA"/>
<path d="M228.778 326.785C223.119 326.778 217.872 323.847 214.896 319.033C211.921 314.219 211.659 308.209 214.186 303.148L295.841 139.846C298.45 134.628 303.645 131.197 309.469 130.845C315.292 130.502 320.861 133.282 324.076 138.149C327.29 143.023 327.664 149.235 325.055 154.453L243.4 317.762C240.634 323.294 234.968 326.793 228.778 326.785Z" fill="#2260EA"/>
<path d="M147.126 326.785C141.467 326.778 136.22 323.847 133.244 319.033C130.277 314.219 130.007 308.209 132.534 303.148L214.189 139.846C216.798 134.628 221.993 131.197 227.817 130.845C233.64 130.502 239.209 133.282 242.424 138.149C245.638 143.023 246.012 149.235 243.403 154.453L161.756 317.762C158.982 323.294 153.323 326.793 147.126 326.785Z" fill="#2260EA"/>
<path d="M457.427 326.783H130.816C112.785 326.761 98.1777 312.154 98.1553 294.123V163.482C98.1777 145.451 112.785 130.836 130.816 130.821H457.427C475.45 130.836 490.065 145.451 490.087 163.482V294.123C490.065 312.154 475.45 326.761 457.427 326.783ZM130.816 163.482V294.123H457.442L457.427 163.482H130.816Z" fill="#2260EA"/>
<path d="M326.778 979.997H261.458C234.411 979.968 212.501 958.049 212.471 931.011V522.745C212.471 477.653 249.026 441.098 294.118 441.098C339.217 441.098 375.773 477.653 375.773 522.745V931.011C375.743 958.049 353.825 979.968 326.778 979.997ZM294.118 473.758C267.072 473.788 245.161 495.706 245.131 522.745V931.011C245.139 940.026 252.442 947.33 261.458 947.337H326.778C335.794 947.33 343.105 940.026 343.112 931.011V522.745C343.082 495.706 321.164 473.788 294.118 473.758V473.758Z" fill="#2260EA"/>
<path d="M32.8342 163.481V457.425H0.173828V163.481H32.8342Z" fill="white"/>
<path d="M16.5003 245.129C25.5082 245.106 32.8043 237.81 32.8342 228.802V163.481H0.173828V228.802C0.196255 237.81 7.49232 245.106 16.5003 245.129Z" fill="#2260EA"/>
<path d="M0.173828 457.424H32.8342V359.443C32.8342 350.428 25.5232 343.109 16.5003 343.109C7.48485 343.109 0.173828 350.428 0.173828 359.443V457.424Z" fill="#2260EA"/>
<path d="M32.8392 294.124C32.772 289.803 31.0825 285.661 28.0998 282.529L25.6553 280.57C24.7433 279.95 23.7491 279.457 22.71 279.098C21.7905 278.627 20.7963 278.298 19.7721 278.118C18.6956 277.932 17.6042 277.827 16.5053 277.79C12.1845 277.849 8.04309 279.546 4.91086 282.529C-1.24893 289.025 -1.24893 299.214 4.91086 305.718C6.47324 307.191 8.30473 308.357 10.3007 309.149C12.2667 309.987 14.3748 310.428 16.5053 310.45C20.8262 310.39 24.9676 308.693 28.0998 305.718C31.0825 302.586 32.772 298.444 32.8392 294.124Z" fill="#2260EA"/>
<path d="M228.811 743.698C227.511 743.698 226.21 743.548 224.939 743.234C93.094 711.157 0.263534 593.112 0.173828 457.425C0.173828 448.409 7.48485 441.098 16.5003 441.098C25.5232 441.098 32.8342 448.409 32.8342 457.425C32.9239 578.049 115.453 682.982 232.654 711.494C240.697 713.445 246.005 721.092 245.026 729.3C244.046 737.516 237.087 743.698 228.811 743.698Z" fill="#2260EA"/>
<path d="M571.733 332.5C562.717 332.5 555.406 325.182 555.406 316.166V163.48C555.324 91.3563 496.881 32.913 424.765 32.8308H163.475C91.3587 32.913 32.9154 91.3563 32.8332 163.48C32.8332 172.495 25.5222 179.806 16.4993 179.806C7.48387 179.806 0.172852 172.495 0.172852 163.48C0.270033 73.3254 73.3279 0.275066 163.475 0.17041H424.765C514.912 0.275066 587.962 73.3254 588.067 163.48V316.166C588.067 320.495 586.347 324.651 583.283 327.716C580.218 330.773 576.069 332.5 571.733 332.5Z" fill="#2260EA"/>
<path d="M359.429 743.697C351.153 743.689 344.186 737.492 343.222 729.269C342.257 721.046 347.595 713.406 355.653 711.485C382.834 704.996 408.759 694.052 432.374 679.108C443.012 672.478 453.171 665.107 462.77 657.048C469.684 651.247 479.986 652.152 485.787 659.067C491.58 665.981 490.676 676.29 483.761 682.084C473.004 691.099 461.633 699.352 449.725 706.775C423.105 723.617 393.883 735.937 363.241 743.248C361.993 743.547 360.714 743.697 359.429 743.697V743.697Z" fill="#2260EA"/>
<path d="M517.994 638.041C511.849 638.026 506.235 634.572 503.454 629.092C500.673 623.613 501.204 617.042 504.822 612.078C528.684 579.403 544.734 541.689 551.723 501.837C553.263 492.949 561.718 486.999 570.606 488.539C579.495 490.078 585.445 498.533 583.905 507.422C576.041 552.215 558.01 594.608 531.195 631.343C528.123 635.559 523.212 638.048 517.994 638.041V638.041Z" fill="#2260EA"/>
</g>
<defs>
<clipPath id="clip0">
<rect width="980" height="980" fill="white"/>
</clipPath>
</defs>
</svg>
