<svg width="977" height="977" viewBox="0 0 977 977" fill="none" xmlns="http://www.w3.org/2000/svg">
    <g opacity="0.1">
    <path fill-rule="evenodd" clip-rule="evenodd" d="M478.076 498.92L415.385 561.611C412.349 564.583 408.183 566.108 403.945 565.796C399.708 565.484 395.809 563.367 393.24 559.982C390.283 556.377 386.892 553.151 383.144 550.375C361.295 534.939 331.268 538.78 314.009 559.22C296.749 579.66 297.992 609.906 316.871 628.861C318.254 630.253 319.723 631.559 321.268 632.769C324.504 635.528 326.421 639.528 326.545 643.778C326.669 648.029 324.988 652.134 321.919 655.077L259.717 717.279C253.94 722.983 244.651 722.983 238.874 717.279L176.183 654.589C173.147 651.616 168.98 650.092 164.743 650.403C160.506 650.715 156.607 652.832 154.038 656.217C138.26 675.553 110.908 680.831 89.0674 668.755C74.9904 660.86 65.4234 646.827 63.217 630.839C61.0105 614.85 66.4194 598.751 77.8319 587.338C79.1397 585.868 80.6152 584.557 82.2284 583.43C85.4426 580.648 87.3295 576.635 87.4226 572.385C87.5157 568.134 85.8062 564.043 82.7169 561.122L20.5146 498.92C14.8115 493.143 14.8115 483.854 20.5146 478.077L83.3683 415.386C86.4043 412.414 90.5712 410.89 94.8085 411.201C99.0459 411.513 102.945 413.63 105.514 417.015C108.43 420.658 111.826 423.89 115.609 426.622C131.775 438.185 153.178 439.328 170.484 429.553C184.534 421.634 194.077 407.606 196.282 391.629C198.487 375.653 193.1 359.564 181.72 348.136C180.412 346.666 178.936 345.355 177.323 344.228C174.109 341.446 172.222 337.433 172.129 333.183C172.036 328.932 173.745 324.841 176.835 321.92L238.874 259.718C244.651 254.015 253.94 254.015 259.717 259.718L321.919 321.92C324.988 324.863 326.669 328.968 326.545 333.219C326.421 337.469 324.504 341.469 321.268 344.228C319.723 345.439 318.254 346.744 316.871 348.136C297.992 367.091 296.749 397.337 314.009 417.777C331.268 438.217 361.295 442.058 383.144 426.622C386.892 423.847 390.283 420.62 393.24 417.015C395.809 413.63 399.708 411.513 403.945 411.201C408.183 410.89 412.349 412.414 415.385 415.386L478.076 478.077C483.779 483.854 483.779 493.143 478.076 498.92V498.92Z" fill="#2260EA"/>
<path fill-rule="evenodd" clip-rule="evenodd" d="M273.07 321.919C276.139 324.862 277.82 328.967 277.695 333.217C277.571 337.468 275.654 341.468 272.418 344.227C270.873 345.437 269.405 346.743 268.022 348.135C250.05 366.242 248.03 394.773 263.272 415.231C278.513 435.689 306.43 441.917 328.922 429.877C328.677 429.747 328.433 429.666 328.205 429.535C314.11 421.665 304.513 407.648 302.275 391.659C300.036 375.671 305.414 359.557 316.807 348.119C318.19 346.726 319.658 345.421 321.203 344.211C324.439 341.451 326.356 337.452 326.48 333.201C326.604 328.95 324.924 324.846 321.855 321.902L259.652 259.7C253.875 253.997 244.587 253.997 238.81 259.7L224.822 273.72L273.07 321.919Z" fill="#2260EA"/>
<path fill-rule="evenodd" clip-rule="evenodd" d="M478.076 478.076L415.385 415.385C412.349 412.413 408.182 410.888 403.945 411.2C399.707 411.512 395.808 413.629 393.24 417.014C390.282 420.619 386.891 423.845 383.144 426.621C382.086 427.386 380.93 427.988 379.887 428.672L429.226 478.076C434.929 483.853 434.929 493.141 429.226 498.919L379.822 548.322C380.93 549.006 382.086 549.609 383.079 550.374C386.826 553.149 390.217 556.376 393.175 559.981C395.743 563.366 399.642 565.483 403.88 565.795C408.117 566.106 412.284 564.582 415.32 561.609L478.011 498.919C483.732 493.159 483.761 483.871 478.076 478.076V478.076Z" fill="#2260EA"/>
<path fill-rule="evenodd" clip-rule="evenodd" d="M328.267 547.444C328.495 547.314 328.74 547.232 328.984 547.102C306.479 534.943 278.462 541.131 263.172 561.637C247.881 582.143 249.945 610.761 268.019 628.861C269.402 630.253 270.871 631.558 272.415 632.769C275.651 635.528 277.568 639.527 277.692 643.778C277.817 648.029 276.136 652.133 273.067 655.077L224.868 703.275L238.872 717.279C244.649 722.982 253.937 722.982 259.714 717.279L321.917 655.077C324.986 652.133 326.667 648.029 326.542 643.778C326.418 639.527 324.501 635.528 321.266 632.769C319.721 631.558 318.252 630.253 316.869 628.861C305.477 617.422 300.099 601.308 302.337 585.32C304.575 569.332 314.172 555.314 328.267 547.444V547.444Z" fill="#2260EA"/>
<path fill-rule="evenodd" clip-rule="evenodd" d="M717.276 738.123L655.073 800.163C652.152 803.252 648.061 804.961 643.811 804.868C639.56 804.775 635.548 802.888 632.765 799.674C631.639 798.061 630.327 796.585 628.857 795.278C615.47 781.613 595.607 776.503 577.288 782.01C558.968 787.517 545.216 802.732 541.582 821.514C537.949 840.295 545.035 859.541 559.979 871.484C563.363 874.052 565.48 877.951 565.792 882.189C566.104 886.426 564.579 890.593 561.607 893.629L498.916 956.483C493.139 962.186 483.851 962.186 478.073 956.483L415.382 893.629C412.41 890.593 410.886 886.426 411.197 882.189C411.509 877.951 413.626 874.052 417.011 871.484C420.654 868.567 423.886 865.171 426.618 861.388C442.103 839.545 438.263 809.48 417.785 792.23C397.307 774.981 367.026 776.306 348.132 795.278C346.662 796.585 345.351 798.061 344.224 799.674C341.442 802.888 337.429 804.775 333.179 804.868C328.928 804.961 324.837 803.252 321.916 800.163L259.714 738.123C254.011 732.346 254.011 723.058 259.714 717.28L321.916 655.078C324.985 652.135 326.666 648.03 326.542 643.779C326.418 639.529 324.501 635.529 321.265 632.77C319.72 631.559 318.251 630.254 316.868 628.862C297.989 609.907 296.746 579.661 314.006 559.221C331.265 538.781 361.292 534.94 383.141 550.376C386.889 553.151 390.28 556.378 393.237 559.983C395.806 563.368 399.705 565.485 403.942 565.797C408.18 566.108 412.346 564.584 415.382 561.612L478.073 498.921C483.851 493.218 493.139 493.218 498.916 498.921L561.118 561.123C564.081 564.155 568.178 565.81 572.415 565.686C576.653 565.562 580.645 563.672 583.427 560.472C584.637 558.927 585.942 557.459 587.335 556.075C598.765 544.702 614.852 539.319 630.826 541.524C646.8 543.728 660.828 553.266 668.751 567.311C678.475 584.649 677.268 606.051 665.657 622.186C662.941 625.979 659.769 629.424 656.213 632.444C652.829 635.013 650.711 638.912 650.4 643.149C650.088 647.387 651.612 651.554 654.585 654.59L717.276 717.28C722.979 723.058 722.979 732.346 717.276 738.123V738.123Z" fill="#2260EA"/>
<path fill-rule="evenodd" clip-rule="evenodd" d="M717.276 717.281L654.585 654.59C651.613 651.554 650.088 647.387 650.4 643.15C650.711 638.913 652.829 635.013 656.213 632.445C659.77 629.425 662.941 625.979 665.658 622.186C679.618 602.718 678.226 576.175 662.306 558.273C646.386 540.371 620.188 535.888 599.222 547.478C607.833 552.027 614.997 558.898 619.902 567.312C629.625 584.649 628.419 606.051 616.808 622.186C614.091 625.979 610.919 629.425 607.363 632.445C603.979 635.013 601.861 638.913 601.55 643.15C601.238 647.387 602.763 651.554 605.735 654.59L668.426 717.281C674.129 723.058 674.129 732.346 668.426 738.124L618.859 787.56C622.498 789.71 625.856 792.302 628.857 795.278C630.327 796.586 631.639 798.061 632.765 799.675C635.548 802.889 639.561 804.776 643.811 804.869C648.061 804.962 652.153 803.252 655.074 800.163L717.276 738.124C722.979 732.346 722.979 723.058 717.276 717.281V717.281Z" fill="#2260EA"/>
<path fill-rule="evenodd" clip-rule="evenodd" d="M550.371 861.388C538.812 845.221 537.669 823.82 547.44 806.513C552.314 798.089 559.465 791.209 568.071 786.664C544.773 773.596 515.345 780.61 500.446 802.783C485.548 824.955 490.175 854.852 511.079 871.484C514.464 874.052 516.581 877.952 516.893 882.189C517.204 886.426 515.68 890.593 512.708 893.629L464.021 942.479L478.024 956.515C483.801 962.218 493.09 962.218 498.867 956.515L561.558 893.662C564.53 890.626 566.054 886.459 565.743 882.222C565.431 877.984 563.314 874.085 559.929 871.516C556.301 868.587 553.086 865.18 550.371 861.388Z" fill="#2260EA"/>
<path fill-rule="evenodd" clip-rule="evenodd" d="M717.276 259.718L654.585 322.409C651.549 325.381 647.382 326.905 643.144 326.594C638.907 326.282 635.008 324.165 632.439 320.78C629.419 317.224 625.974 314.052 622.181 311.336C606.046 299.725 584.644 298.518 567.306 308.242C553.261 316.165 543.723 330.193 541.519 346.167C539.314 362.141 544.697 378.228 556.071 389.659C557.454 391.051 558.922 392.356 560.467 393.567C563.667 396.348 565.557 400.341 565.681 404.578C565.805 408.816 564.15 412.912 561.118 415.875L498.916 478.077C493.139 483.78 483.851 483.78 478.073 478.077L415.382 415.386C412.346 412.414 408.18 410.89 403.942 411.201C399.705 411.513 395.806 413.63 393.237 417.015C390.28 420.62 386.889 423.847 383.141 426.622C361.292 442.058 331.265 438.217 314.006 417.777C296.746 397.337 297.989 367.091 316.868 348.136C318.251 346.744 319.72 345.439 321.265 344.228C324.501 341.469 326.418 337.469 326.542 333.219C326.666 328.968 324.985 324.863 321.916 321.92L259.714 259.718C254.011 253.941 254.011 244.652 259.714 238.875L322.405 176.184C325.457 173.247 329.615 171.746 333.841 172.056C338.066 172.367 341.96 174.46 344.55 177.813C347.549 181.379 350.935 184.601 354.646 187.42C370.786 199.055 392.232 200.2 409.52 190.351C423.616 182.48 433.213 168.463 435.451 152.475C437.689 136.487 432.311 120.373 420.919 108.934L416.522 105.026C413.318 102.248 411.424 98.2541 411.301 94.0149C411.177 89.7757 412.834 85.6785 415.871 82.7179L478.073 20.5156C483.851 14.8125 493.139 14.8125 498.916 20.5156L561.118 82.7179C564.155 85.6785 565.813 89.7757 565.689 94.0149C565.565 98.2541 563.671 102.248 560.467 105.026L556.071 108.934C544.69 120.362 539.304 136.451 541.508 152.427C543.713 168.404 553.256 182.432 567.306 190.351C584.592 200.209 606.043 199.063 622.181 187.42C626.016 184.693 629.467 181.461 632.439 177.813C635.03 174.46 638.923 172.367 643.149 172.056C647.374 171.746 651.532 173.247 654.585 176.184L717.276 238.875C722.979 244.652 722.979 253.941 717.276 259.718V259.718Z" fill="#2260EA"/>
<path fill-rule="evenodd" clip-rule="evenodd" d="M512.273 82.7179C515.31 85.6785 516.967 89.7757 516.843 94.0149C516.72 98.2541 514.826 102.248 511.622 105.026L507.225 108.934C495.845 120.362 490.458 136.451 492.663 152.427C494.868 168.404 504.411 182.432 518.461 190.351C533.804 199.075 552.576 199.211 568.043 190.709C567.815 190.579 567.555 190.497 567.311 190.351C553.261 182.432 543.718 168.404 541.513 152.427C539.308 136.451 544.695 120.362 556.075 108.934L560.472 105.026C563.676 102.248 565.57 98.2541 565.693 94.0149C565.817 89.7757 564.16 85.6785 561.123 82.7179L498.921 20.5156C493.143 14.8125 483.855 14.8125 478.078 20.5156L464.074 34.5192L512.273 82.7179Z" fill="#2260EA"/>
<path fill-rule="evenodd" clip-rule="evenodd" d="M717.275 238.874L654.584 176.184C651.532 173.246 647.374 171.745 643.148 172.056C638.923 172.367 635.029 174.459 632.439 177.812C629.466 181.46 626.016 184.692 622.181 187.419C621.155 188.168 620.047 188.754 618.924 189.422L668.425 238.874C674.128 244.652 674.128 253.94 668.425 259.717L618.875 309.267C619.982 309.951 621.122 310.57 622.132 311.335C625.925 314.052 629.37 317.224 632.39 320.78C634.959 324.164 638.858 326.282 643.095 326.593C647.333 326.905 651.499 325.38 654.535 322.408L717.226 259.717C722.943 253.953 722.965 244.665 717.275 238.874V238.874Z" fill="#2260EA"/>
<path fill-rule="evenodd" clip-rule="evenodd" d="M567.311 308.242C567.506 308.128 567.718 308.063 567.913 307.965C545.43 295.791 517.417 301.991 502.17 322.515C486.923 343.039 489.077 371.649 507.225 389.659C508.608 391.051 510.077 392.357 511.622 393.567C514.821 396.348 516.712 400.341 516.836 404.578C516.959 408.816 515.305 412.912 512.273 415.875L464.074 464.074L478.078 478.078C483.855 483.781 493.143 483.781 498.921 478.078L561.123 415.875C564.155 412.912 565.809 408.816 565.686 404.578C565.562 400.341 563.671 396.348 560.471 393.567C558.927 392.357 557.458 391.051 556.075 389.659C544.701 378.228 539.319 362.141 541.523 346.167C543.728 330.193 553.266 316.165 567.311 308.242V308.242Z" fill="#2260EA"/>
<path fill-rule="evenodd" clip-rule="evenodd" d="M956.482 498.92L894.279 561.122C891.319 564.159 887.221 565.817 882.982 565.693C878.743 565.569 874.75 563.675 871.971 560.471L868.063 556.074C856.635 544.694 840.546 539.307 824.57 541.512C808.594 543.717 794.565 553.26 786.646 567.31C776.789 584.596 777.934 606.047 789.577 622.185C792.305 626.02 795.536 629.471 799.185 632.443C802.537 635.034 804.63 638.927 804.941 643.153C805.251 647.378 803.751 651.536 800.813 654.589L738.122 717.279C732.345 722.983 723.057 722.983 717.279 717.279L654.589 654.589C651.616 651.553 650.092 647.386 650.403 643.148C650.715 638.911 652.832 635.012 656.217 632.443C659.773 629.423 662.945 625.978 665.661 622.185C677.272 606.05 678.479 584.648 668.755 567.31C660.832 553.265 646.804 543.727 630.83 541.523C614.856 539.318 598.769 544.701 587.338 556.074C585.946 557.458 584.641 558.926 583.43 560.471C580.649 563.671 576.657 565.561 572.419 565.685C568.181 565.809 564.085 564.154 561.122 561.122L498.92 498.92C493.217 493.143 493.217 483.854 498.92 478.077L561.122 415.875C564.154 412.912 565.809 408.816 565.685 404.578C565.561 400.34 563.671 396.348 560.471 393.567C558.926 392.356 557.458 391.051 556.074 389.659C544.701 378.228 539.318 362.141 541.523 346.167C543.727 330.193 553.265 316.165 567.31 308.242C584.648 298.518 606.05 299.725 622.185 311.336C625.978 314.052 629.423 317.224 632.443 320.78C635.012 324.165 638.911 326.282 643.148 326.594C647.386 326.905 651.553 325.381 654.589 322.409L717.279 259.718C723.057 254.015 732.345 254.015 738.122 259.718L800.813 322.409C803.849 325.381 808.016 326.905 812.253 326.594C816.491 326.282 820.39 324.165 822.958 320.78C838.737 301.444 866.089 296.166 887.929 308.242C902.006 316.137 911.573 330.17 913.779 346.158C915.986 362.147 910.577 378.246 899.164 389.659C897.857 391.129 896.381 392.44 894.768 393.567C891.554 396.349 889.667 400.362 889.574 404.612C889.481 408.863 891.19 412.954 894.279 415.875L956.482 478.077C962.185 483.854 962.185 493.143 956.482 498.92V498.92Z" fill="#2260EA"/>
<path fill-rule="evenodd" clip-rule="evenodd" d="M751.961 322.409C754.997 325.381 759.164 326.905 763.401 326.594C767.638 326.282 771.537 324.165 774.106 320.78C777.027 317.188 780.423 314.011 784.202 311.336C785.293 310.538 786.465 309.903 787.621 309.219L738.12 259.718C732.343 254.015 723.054 254.015 717.277 259.718L703.273 273.721L751.961 322.409Z" fill="#2260EA"/>
<path fill-rule="evenodd" clip-rule="evenodd" d="M956.479 478.078L894.277 415.875C891.187 412.954 889.478 408.863 889.571 404.613C889.664 400.362 891.551 396.35 894.765 393.567C896.378 392.441 897.854 391.129 899.162 389.659C917.31 371.649 919.464 343.039 904.217 322.515C888.97 301.991 860.957 295.791 838.474 307.965C838.669 308.063 838.881 308.128 839.076 308.242C853.153 316.138 862.72 330.17 864.927 346.159C867.133 362.147 861.724 378.246 850.312 389.659C849.004 391.129 847.528 392.441 845.915 393.567C842.701 396.35 840.814 400.362 840.721 404.613C840.628 408.863 842.337 412.954 845.427 415.875L907.629 478.078C913.332 483.855 913.332 493.143 907.629 498.92L858.128 548.405C861.736 550.545 865.066 553.121 868.044 556.075L871.952 560.471C874.731 563.675 878.724 565.569 882.963 565.693C887.202 565.817 891.3 564.159 894.26 561.123L956.463 498.92C962.17 493.147 962.177 483.859 956.479 478.078Z" fill="#2260EA"/>
<path fill-rule="evenodd" clip-rule="evenodd" d="M789.575 622.185C777.932 606.047 776.786 584.596 786.644 567.31C791.518 558.886 798.669 552.006 807.275 547.461C782.583 533.966 751.631 542.809 737.794 567.31C727.936 584.596 729.082 606.047 740.725 622.185C743.452 626.02 746.684 629.471 750.332 632.443C753.685 635.034 755.778 638.927 756.088 643.153C756.399 647.378 754.898 651.536 751.961 654.589L703.273 703.276L717.277 717.28C723.054 722.983 732.343 722.983 738.12 717.28L800.811 654.589C803.748 651.536 805.249 647.378 804.939 643.153C804.628 638.927 802.535 635.034 799.182 632.443C795.534 629.471 792.302 626.02 789.575 622.185Z" fill="#2260EA"/>
<path fill-rule="evenodd" clip-rule="evenodd" d="M409.525 190.351C409.297 190.481 409.053 190.562 408.809 190.693C424.265 199.209 443.037 199.08 458.375 190.351C472.471 182.48 482.067 168.463 484.305 152.475C486.544 136.487 481.166 120.373 469.773 108.934L465.377 105.026C462.173 102.248 460.279 98.2541 460.155 94.0149C460.031 89.7757 461.689 85.6785 464.725 82.7179L512.924 34.5192L498.92 20.5156C493.143 14.8125 483.855 14.8125 478.078 20.5156L415.876 82.7179C412.839 85.6785 411.181 89.7757 411.305 94.0149C411.429 98.2541 413.323 102.248 416.527 105.026L420.923 108.934C432.316 120.373 437.694 136.487 435.455 152.475C433.217 168.463 423.621 182.48 409.525 190.351Z" fill="white"/>
<path fill-rule="evenodd" clip-rule="evenodd" d="M308.564 238.874L357.968 189.471C356.861 188.787 355.705 188.184 354.711 187.419C351 184.601 347.614 181.379 344.616 177.812C342.025 174.459 338.132 172.367 333.906 172.056C329.681 171.745 325.523 173.246 322.47 176.184L259.78 238.874C254.077 244.652 254.077 253.94 259.78 259.717C254.002 254.014 244.714 254.014 238.937 259.717L224.95 273.737L176.832 321.919C173.743 324.84 172.034 328.932 172.127 333.182C172.22 337.432 174.107 341.445 177.321 344.228C178.934 345.354 180.41 346.666 181.717 348.136C193.097 359.564 198.484 375.652 196.28 391.629C194.075 407.605 184.532 421.634 170.482 429.552C170.238 429.683 169.977 429.764 169.749 429.911C192.255 442.077 220.281 435.873 235.549 415.344C250.816 394.815 248.695 366.189 230.567 348.136C229.26 346.666 227.784 345.354 226.171 344.228C222.957 341.445 221.07 337.432 220.977 333.182C220.884 328.932 222.593 324.84 225.682 321.919L273.734 273.737L287.722 259.717L308.564 238.874Z" fill="white"/>
<path fill-rule="evenodd" clip-rule="evenodd" d="M408.918 786.665C417.524 791.21 424.675 798.089 429.549 806.514C439.32 823.821 438.177 845.221 426.618 861.389C423.886 865.172 420.654 868.568 417.011 871.484C413.626 874.053 411.509 877.952 411.197 882.189C410.886 886.427 412.41 890.594 415.382 893.63L478.073 956.483C483.85 962.186 493.139 962.186 498.916 956.483L512.919 942.447L464.232 893.597C461.26 890.561 459.736 886.394 460.047 882.157C460.359 877.92 462.476 874.02 465.861 871.452C469.504 868.536 472.736 865.14 475.468 861.356C489.34 841.851 487.889 815.348 471.97 797.474C456.052 779.6 429.892 775.102 408.918 786.632V786.665Z" fill="white"/>
<path fill-rule="evenodd" clip-rule="evenodd" d="M287.725 717.278L273.722 703.274L225.035 654.587C221.999 651.615 217.832 650.091 213.594 650.402C209.357 650.714 205.458 652.831 202.889 656.216C199.968 659.807 196.572 662.985 192.794 665.66C191.703 666.458 190.53 667.077 189.374 667.777L224.872 703.274L238.875 717.278C244.653 722.981 253.941 722.981 259.718 717.278C254.015 723.055 254.015 732.344 259.718 738.121L321.92 800.16C324.841 803.25 328.932 804.959 333.183 804.866C337.433 804.773 341.446 802.886 344.229 799.672C345.355 798.059 346.667 796.583 348.137 795.275C351.138 792.299 354.496 789.707 358.135 787.557L308.568 738.121L287.725 717.278Z" fill="white"/>
<path fill-rule="evenodd" clip-rule="evenodd" d="M82.7169 561.124C85.8062 564.045 87.5157 568.136 87.4226 572.386C87.3295 576.637 85.4426 580.65 82.2284 583.432C80.6153 584.559 79.1397 585.87 77.8319 587.34C59.7027 605.351 57.5558 633.944 72.7923 654.459C88.0288 674.975 116.022 681.184 138.504 669.034C138.325 668.936 138.113 668.871 137.917 668.757C123.84 660.862 114.273 646.829 112.067 630.841C109.861 614.852 115.269 598.753 126.682 587.34C127.99 585.87 129.465 584.559 131.078 583.432C134.293 580.65 136.18 576.637 136.273 572.386C136.366 568.136 134.656 564.045 131.567 561.124L69.3646 498.922C63.6616 493.144 63.6616 483.856 69.3646 478.079L118.866 428.675C117.775 427.991 116.619 427.389 115.609 426.624C111.826 423.892 108.43 420.66 105.514 417.016C102.945 413.632 99.0459 411.515 94.8085 411.203C90.5712 410.891 86.4043 412.416 83.3683 415.388L20.5146 478.079C14.8115 483.856 14.8115 493.144 20.5146 498.922L82.7169 561.124Z" fill="white"/>
<path d="M826.982 557.622C837.846 556.157 848.771 559.849 856.52 567.603C857.467 568.554 858.364 569.554 859.206 570.6C864.609 577.377 872.649 581.524 881.303 581.998C890.396 582.473 899.267 579.084 905.728 572.668L967.93 510.465C973.752 504.661 977.024 496.777 977.024 488.556C977.024 480.335 973.752 472.451 967.93 466.647L906.363 405.324C907.861 404.07 909.31 402.735 910.759 401.302C925.723 386.421 932.842 365.383 929.99 344.473C926.903 320.873 911.651 300.628 889.819 291.15C867.987 281.672 842.781 284.353 823.432 298.212C818.857 301.554 814.693 305.424 811.024 309.741L749.587 248.304C745.953 244.753 741.467 242.197 736.56 240.878C735.172 235.831 732.515 231.224 728.842 227.493L666.135 164.803C660.067 158.601 651.609 155.334 642.947 155.847C633.918 156.336 625.517 160.625 619.825 167.652C617.748 170.172 615.356 172.416 612.709 174.328C601.789 182.168 587.312 182.962 575.6 176.364C565.916 171.002 559.305 161.412 557.738 150.455C556.171 139.497 559.829 128.439 567.621 120.577C568.593 119.618 569.615 118.71 570.682 117.858C577.454 112.451 581.6 104.414 582.08 95.7613C582.597 86.6614 579.202 77.7743 572.75 71.3363L510.434 9.08508C498.163 -2.62862 478.853 -2.62862 466.583 9.08508L404.397 71.2549C397.952 77.6975 394.558 86.5813 395.066 95.6799C395.521 104.304 399.625 112.327 406.351 117.744C407.425 118.607 408.451 119.519 409.412 120.463C417.219 128.322 420.888 139.388 419.323 150.355C417.759 161.321 411.142 170.919 401.449 176.282C389.728 182.886 375.238 182.079 364.323 174.214C361.693 172.3 359.308 170.069 357.224 167.571C351.54 160.543 343.144 156.253 334.118 155.765C325.462 155.238 317.005 158.501 310.947 164.705L248.223 227.412C244.551 231.142 241.894 235.75 240.505 240.797C235.597 242.113 231.111 244.67 227.478 248.222L165.276 310.392C158.836 316.838 155.444 325.719 155.946 334.817C156.393 343.438 160.506 351.455 167.246 356.848C168.306 357.697 169.317 358.605 170.275 359.568C178.083 367.428 181.755 378.494 180.194 389.462C178.633 400.431 172.02 410.033 162.329 415.403C150.603 421.994 136.117 421.181 125.203 413.319C122.565 411.413 120.179 409.181 118.103 406.675C112.409 399.651 104.01 395.363 94.9807 394.87C86.3296 394.34 77.8767 397.604 71.8258 403.809L9.08616 466.582C-3.00528 478.692 -3.00528 498.306 9.08616 510.416L70.6534 571.739C69.1554 572.993 67.7061 574.328 66.2569 575.761C51.3073 590.638 44.1899 611.659 47.0263 632.558C50.0993 656.154 65.3367 676.404 87.1589 685.892C108.981 695.381 134.183 692.713 153.536 678.868C158.136 675.533 162.319 671.657 165.992 667.323L227.429 728.76C231.101 732.384 235.626 735.027 240.586 736.445C241.99 741.392 244.616 745.905 248.223 749.57L310.409 811.772C316.842 818.231 325.735 821.622 334.834 821.086C343.485 820.616 351.521 816.467 356.914 809.688C357.757 808.643 358.654 807.643 359.601 806.692C367.453 798.876 378.517 795.197 389.486 796.755C400.454 798.313 410.056 804.928 415.42 814.622C422.02 826.347 421.219 840.836 413.369 851.764C411.458 854.403 409.22 856.788 406.709 858.863C399.686 864.551 395.397 872.945 394.903 881.97C394.428 890.617 397.682 899.054 403.843 905.141L466.534 967.848C472.34 973.68 480.23 976.958 488.459 976.958C496.689 976.958 504.579 973.68 510.385 967.848L573.173 905.206C579.323 899.112 582.57 890.679 582.097 882.035C581.603 873.011 577.314 864.617 570.291 858.929C567.778 856.844 565.536 854.453 563.615 851.813C555.769 840.888 554.974 826.404 561.58 814.687C567.005 804.88 576.765 798.233 587.877 796.775C598.74 795.274 609.676 798.972 617.399 806.757C618.35 807.71 619.247 808.715 620.086 809.769C625.483 816.544 633.517 820.691 642.166 821.168C651.267 821.695 660.159 818.298 666.591 811.837L728.777 749.651C732.384 745.987 735.01 741.473 736.414 736.527C741.371 735.112 745.891 732.468 749.554 728.841L812.294 665.987C818.449 659.883 821.702 651.44 821.234 642.784C820.715 633.772 816.423 625.395 809.412 619.71C806.901 617.629 804.663 615.238 802.752 612.594C794.898 601.673 794.103 587.183 800.717 575.468C806.141 565.686 815.89 559.063 826.982 557.622V557.622ZM332.701 189.016C336.368 193.34 340.539 197.211 345.125 200.545C373.834 220.978 413.411 216.008 436.176 189.11C458.941 162.213 457.301 122.359 432.404 97.4222C431.036 96.0544 429.636 94.7843 428.17 93.5467L488.5 33.217L548.976 93.4653C547.478 94.7354 546.013 96.0707 544.564 97.5036C529.614 112.38 522.496 133.401 525.333 154.3C528.43 177.871 543.665 198.089 565.469 207.564C587.273 217.038 612.449 214.38 631.793 200.561C636.394 197.227 640.576 193.35 644.25 189.016L704.58 249.346L644.25 309.675C640.583 305.341 636.406 301.464 631.81 298.131C603.097 277.695 563.515 282.669 540.752 309.574C517.988 336.478 519.638 376.338 544.547 401.269C545.915 402.637 547.315 403.907 548.781 405.145L488.533 465.393L426.916 403.826C421.219 398.049 413.439 394.804 405.325 394.821C404.787 394.821 404.266 394.821 403.696 394.821C394.678 395.306 386.284 399.583 380.59 406.594C378.504 409.116 376.108 411.364 373.458 413.286C362.534 421.13 348.054 421.93 336.332 415.338C326.643 409.96 320.035 400.35 318.484 389.377C316.932 378.405 320.616 367.339 328.435 359.486C329.371 358.545 330.36 357.659 331.398 356.832C338.175 351.429 342.323 343.39 342.797 334.735C343.296 325.638 339.904 316.758 333.466 310.31L272.388 249.232L332.701 189.016ZM187.779 643.044C181.702 636.857 173.251 633.593 164.592 634.088C155.558 634.577 147.156 638.873 141.47 645.91C139.388 648.421 136.997 650.658 134.354 652.57C123.433 660.41 108.957 661.204 97.2441 654.605C87.5607 649.243 80.9495 639.653 79.3823 628.696C77.8151 617.739 81.4731 606.68 89.2653 598.819C90.2393 597.861 91.261 596.954 92.3266 596.099C99.0637 590.69 103.174 582.664 103.627 574.035C104.144 564.939 100.755 556.053 94.3131 549.61L33.2181 488.499L93.5478 428.251C97.2224 432.529 101.393 436.356 105.972 439.649C134.663 460.15 174.281 455.224 197.078 428.321C219.874 401.418 218.231 361.529 193.3 336.592C191.932 335.208 190.499 333.905 189.017 332.651L249.347 272.403L309.807 332.651C308.309 333.938 306.827 335.289 305.427 336.689C290.471 351.563 283.347 372.584 286.18 393.486C289.291 417.067 304.551 437.285 326.376 446.742C348.202 456.199 373.389 453.506 392.721 439.649C397.302 436.308 401.472 432.438 405.146 428.12L465.394 488.369L405.146 548.617C401.447 544.388 397.266 540.606 392.689 537.349C363.993 516.889 324.405 521.837 301.629 548.731C278.852 575.625 280.489 615.487 305.394 640.423C306.762 641.807 308.195 643.109 309.676 644.363L249.428 704.611L187.779 643.044ZM644.413 788.112C643.159 786.598 641.808 785.133 640.391 783.716C625.534 768.734 604.499 761.606 583.595 764.469C559.995 767.537 539.741 782.772 530.249 804.596C520.757 826.419 523.422 851.623 537.269 870.978C540.612 875.577 544.493 879.759 548.83 883.435L488.5 943.781L428.252 883.533C432.54 879.825 436.367 875.616 439.65 870.995C460.115 842.292 455.159 802.693 428.25 779.919C401.342 757.146 361.469 758.804 336.544 783.732C335.176 785.1 333.874 786.517 332.636 787.982L272.388 727.652L333.466 666.59C339.899 660.139 343.29 651.261 342.797 642.165C342.344 633.536 338.233 625.511 331.496 620.101C330.436 619.252 329.425 618.345 328.467 617.382C320.657 609.529 316.98 598.469 318.534 587.503C320.089 576.537 326.696 566.934 336.381 561.562C348.097 554.953 362.584 555.747 373.507 563.598C376.152 565.519 378.548 567.762 380.639 570.274C386.33 577.303 394.731 581.592 403.762 582.079C412.411 582.596 420.858 579.334 426.916 573.14L488.5 511.524L549.579 572.619C556.063 578.998 564.919 582.375 574.004 581.933C582.626 581.475 590.645 577.365 596.051 570.632C596.895 569.573 597.798 568.562 598.754 567.603C606.603 559.788 617.665 556.109 628.631 557.667C639.598 559.225 649.197 565.84 654.558 575.533C661.167 587.234 660.385 601.706 652.555 612.627C650.632 615.281 648.384 617.682 645.862 619.775C638.845 625.468 634.558 633.859 634.057 642.881C633.608 651.512 636.874 659.921 643.029 665.987L704.629 727.587L644.413 788.112ZM776.438 631.792C779.777 636.384 783.653 640.561 787.983 644.233L727.653 704.481L667.405 644.233C671.738 640.558 675.614 636.376 678.95 631.776C699.415 603.073 694.459 563.474 667.55 540.701C640.642 517.928 600.769 519.585 575.844 544.514C574.476 545.881 573.173 547.298 571.936 548.764L511.688 488.515L572.766 427.453C579.211 421.01 582.605 412.126 582.097 403.028C581.642 394.404 577.538 386.381 570.812 380.964C569.738 380.101 568.712 379.189 567.751 378.245C559.943 370.388 556.271 359.324 557.832 348.357C559.393 337.391 566.007 327.791 575.697 322.425C587.423 315.818 601.919 316.626 612.84 324.493C615.482 326.394 617.868 328.627 619.939 331.137C625.623 338.165 634.019 342.455 643.045 342.942C651.618 343.335 659.956 340.075 665.988 333.97L727.588 272.387L789.172 333.954C795.25 340.139 803.701 343.403 812.359 342.91C821.379 342.414 829.77 338.133 835.465 331.121C837.542 328.6 839.934 326.357 842.581 324.444C853.493 316.584 867.979 315.783 879.691 322.393C889.377 327.752 895.991 337.34 897.562 348.298C899.132 359.255 895.477 370.316 887.686 378.179C886.715 379.14 885.693 380.048 884.625 380.899C877.888 386.308 873.777 394.334 873.324 402.963C872.803 412.06 876.192 420.947 882.638 427.388L943.782 488.499L883.534 548.975C882.264 547.461 880.912 545.995 879.495 544.579C854.574 519.612 814.668 517.938 787.743 540.729C760.819 563.521 755.88 603.156 776.389 631.858L776.438 631.792Z" fill="white"/>
    </g>
</svg>
