<svg width="979" height="977" viewBox="0 0 979 977" fill="none" xmlns="http://www.w3.org/2000/svg">
<g opacity="0.1">
<path d="M152.969 824.031V28.5938H30.5938V824.031V946.406H948.406V824.031H152.969Z" fill="#2260EA"/>
<path d="M948.406 808.734H274.288C270.856 781.814 258.582 756.796 239.393 737.607C220.204 718.418 195.186 706.144 168.266 702.712V28.5938C168.266 24.5368 166.654 20.6459 163.785 17.7772C160.917 14.9085 157.026 13.2969 152.969 13.2969H30.5938C26.5368 13.2969 22.6459 14.9085 19.7772 17.7772C16.9085 20.6459 15.2969 24.5368 15.2969 28.5938V946.406C15.2969 950.463 16.9085 954.354 19.7772 957.223C22.6459 960.092 26.5368 961.703 30.5938 961.703H948.406C952.463 961.703 956.354 960.092 959.223 957.223C962.092 954.354 963.703 950.463 963.703 946.406V824.031C963.703 819.974 962.092 816.083 959.223 813.215C956.354 810.346 952.463 808.734 948.406 808.734ZM243.373 808.734H168.266V733.627C187.019 736.832 204.316 745.778 217.769 759.231C231.222 772.684 240.168 789.981 243.373 808.734V808.734ZM137.672 43.8906V808.734H45.8906V43.8906H137.672ZM933.109 931.109H45.8906V839.328H933.109V931.109Z" fill="white"/>
<path d="M275.344 627.801C275.343 639.383 278.776 650.706 285.211 660.336C291.645 669.967 300.791 677.473 311.491 681.906C322.192 686.338 333.966 687.498 345.326 685.238C356.686 682.978 367.12 677.4 375.309 669.21L974.518 70.0004L952.889 48.3706L353.679 647.58C348.396 652.641 341.341 655.431 334.025 655.352C326.709 655.274 319.715 652.333 314.542 647.159C309.369 641.986 306.428 634.992 306.349 627.676C306.27 620.361 309.061 613.305 314.122 608.022L898.034 24.1098L876.404 2.47998L292.492 586.392C287.035 591.816 282.71 598.269 279.767 605.377C276.823 612.486 275.32 620.107 275.344 627.801Z" fill="white"/>
<path d="M210.424 548.228C211.645 548.531 212.898 548.685 214.156 548.687C216.92 548.688 219.632 547.941 222.005 546.524C224.378 545.107 226.323 543.074 227.633 540.641L292.614 419.948L275.527 531.065C275.013 534.372 275.598 537.756 277.191 540.698C278.785 543.641 281.3 545.98 284.35 547.357C287.4 548.733 290.818 549.072 294.079 548.32C297.34 547.569 300.264 545.768 302.404 543.195L378.888 451.414L355.362 431.803L314.06 481.319L336.286 336.856C336.836 333.29 336.107 329.646 334.23 326.566C332.352 323.485 329.447 321.168 326.026 320.022C322.606 318.876 318.89 318.976 315.536 320.304C312.182 321.632 309.406 324.103 307.697 327.28L229.453 472.707V441.609H198.859V533.39C198.859 536.798 199.996 540.109 202.091 542.797C204.186 545.485 207.119 547.396 210.424 548.228V548.228Z" fill="white"/>
<path d="M431.659 661.502L370.472 737.986C368.67 740.236 367.541 742.95 367.215 745.814C366.888 748.677 367.377 751.575 368.626 754.173C369.875 756.771 371.832 758.963 374.272 760.497C376.712 762.032 379.536 762.845 382.419 762.844H474.2V732.25H414.252L455.553 680.623L431.659 661.502Z" fill="white"/>
<path d="M528.206 657.623L696.492 565.813L711.147 592.675L542.86 684.484L528.206 657.623Z" fill="white"/>
<path d="M360.242 367.698L444.519 130.716L473.338 140.965L389.062 377.947L360.242 367.698Z" fill="white"/>
</g>
</svg>
