<svg width="925" height="924" viewBox="0 0 925 924" fill="none" xmlns="http://www.w3.org/2000/svg">
    <g opacity="0.1">
    <path d="M477.458 829.092L447.775 824.153V621.932C447.775 595.116 437.122 569.398 418.16 550.436C399.198 531.474 373.48 520.821 346.664 520.821H101.11C101.11 547.637 111.763 573.355 130.725 592.317C149.687 611.279 175.405 621.932 202.221 621.932H332.22C339.882 621.932 347.23 624.975 352.647 630.393C358.065 635.811 361.109 643.159 361.109 650.82V867.486C361.109 875.147 364.152 882.495 369.57 887.913C374.988 893.331 382.335 896.374 389.997 896.374H534.441C534.442 880.23 528.716 864.608 518.282 852.288C507.848 839.968 493.382 831.749 477.458 829.092Z" fill="#2260EA"/>
<path d="M272.03 107.959L173.332 58.6025L144.443 116.38L248.313 168.307" fill="#2260EA"/>
<path d="M303.635 367.321L399.155 410.741C405.039 413.413 410.029 417.723 413.528 423.156C417.027 428.589 418.887 434.915 418.886 441.378C418.886 450.955 415.081 460.14 408.309 466.912C401.537 473.684 392.352 477.488 382.775 477.488C378.006 477.491 373.283 476.548 368.88 474.715L281.477 438.286C230.359 416.996 188.602 378.033 163.828 328.509C160.572 322.008 158.88 314.836 158.888 307.565C158.888 295.168 163.812 283.279 172.578 274.514C181.344 265.748 193.233 260.823 205.63 260.823C216.785 260.822 227.578 264.779 236.09 271.989C244.601 279.199 250.279 289.195 252.112 300.199C254.537 314.754 260.505 328.49 269.49 340.195C278.475 351.9 290.201 361.216 303.635 367.321V367.321Z" fill="#2260EA"/>
<path d="M519.996 463.044H895.549V520.821H519.996V463.044Z" fill="#2260EA"/>
<path d="M258.09 142.811L340.827 179.586L367.867 120.986L282.067 82.8525L258.09 142.811Z" fill="#2260EA"/>
<path d="M895.549 448.601H866.661V188.602C866.661 184.771 865.139 181.097 862.43 178.389C859.721 175.68 856.047 174.158 852.216 174.158H794.439C790.608 174.158 786.934 175.68 784.225 178.389C781.516 181.097 779.995 184.771 779.995 188.602V390.823H606.662C602.832 390.823 599.158 392.345 596.449 395.054C593.74 397.763 592.218 401.437 592.218 405.268V448.601H519.996C516.166 448.601 512.492 450.122 509.783 452.831C507.074 455.54 505.552 459.214 505.552 463.045V520.822C505.552 524.653 507.074 528.327 509.783 531.036C512.492 533.745 516.166 535.267 519.996 535.267V833.6C508.57 823.794 494.679 817.3 479.827 814.823L462.219 811.905V621.933C462.185 591.296 449.999 561.924 428.336 540.261C406.673 518.598 377.301 506.412 346.664 506.378H317.776V469.054L363.333 488.034C371.015 491.234 379.367 492.488 387.65 491.686C395.933 490.883 403.89 488.049 410.814 483.434C417.739 478.818 423.417 472.565 427.344 465.229C431.272 457.892 433.328 449.7 433.33 441.378C433.327 439.135 433.163 436.896 432.839 434.676L475.421 338.91C476.928 335.513 477.068 331.667 475.812 328.17C474.555 324.672 472 321.794 468.676 320.133L452.715 312.159L468.676 280.223L629.095 360.49L642.008 334.635L481.603 254.367L489.591 238.392L463.736 225.479L455.762 241.44L439.787 233.452L426.874 259.307L442.835 267.281L426.874 299.217L410.898 291.229C409.201 290.381 407.353 289.875 405.459 289.741C403.566 289.607 401.665 289.847 399.865 290.448C398.065 291.049 396.401 291.999 394.968 293.243C393.535 294.488 392.361 296.002 391.514 297.701L353.338 374.053L317.776 357.89V304.157C317.722 293.125 316.092 282.157 312.937 271.585C314.417 270.272 315.612 268.67 316.447 266.876L403.113 79.0998C404.687 75.6912 404.873 71.8034 403.63 68.2603C402.387 64.7173 399.813 61.7976 396.454 60.1199L309.788 16.7869C308.001 15.8926 306.047 15.3789 304.051 15.2783C302.056 15.1777 300.06 15.4923 298.192 16.2024C296.324 16.9124 294.624 18.0024 293.199 19.4033C291.773 20.8042 290.654 22.4857 289.912 24.3413L284.366 38.2223L264.909 25.2224C258.087 20.6693 250.395 17.5803 242.319 16.1505C234.243 14.7207 225.958 14.9812 217.987 16.9155C210.017 18.8497 202.534 22.4157 196.011 27.3883C189.489 32.3609 184.068 38.632 180.092 45.8055L179.789 45.6467C178.091 44.798 176.243 44.2921 174.35 44.158C172.457 44.0239 170.556 44.2642 168.756 44.8652C166.955 45.4662 165.291 46.416 163.858 47.6604C162.425 48.9049 161.252 50.4195 160.404 52.1177L131.516 109.895C130.651 111.597 130.133 113.454 129.99 115.358C129.848 117.262 130.085 119.176 130.686 120.988C131.288 122.8 132.243 124.474 133.496 125.915C134.749 127.356 136.276 128.534 137.987 129.381L145.209 132.992C144.725 136.35 144.47 139.738 144.443 143.132C144.465 162.403 151.999 180.907 165.446 194.712C142.519 202.427 122.589 217.135 108.457 236.767C94.3259 256.399 86.7048 279.968 86.6661 304.157V347.49H28.8887C25.0578 347.49 21.3838 349.012 18.675 351.721C15.9661 354.43 14.4443 358.104 14.4443 361.935V636.377C14.465 651.57 18.4793 666.491 26.0848 679.643C33.6903 692.796 44.6197 703.718 57.7774 711.314V896.375C57.7774 900.206 59.2992 903.88 62.008 906.589C64.7169 909.298 68.3908 910.82 72.2217 910.82H129.999C133.83 910.82 137.504 909.298 140.213 906.589C142.922 903.88 144.443 900.206 144.443 896.375V723.043H346.664V867.487C346.664 878.979 351.23 890.001 359.356 898.128C367.483 906.254 378.505 910.82 389.997 910.82H592.218C596.049 910.82 599.723 909.298 602.432 906.589C605.141 903.88 606.662 900.206 606.662 896.375V795.265H808.883V896.375C808.883 900.206 810.405 903.88 813.114 906.589C815.823 909.298 819.497 910.82 823.328 910.82H881.105C884.936 910.82 888.61 909.298 891.319 906.589C894.028 903.88 895.549 900.206 895.549 896.375V535.267C899.38 535.267 903.054 533.745 905.763 531.036C908.472 528.327 909.994 524.653 909.994 520.822V463.045C909.994 459.214 908.472 455.54 905.763 452.831C903.054 450.122 899.38 448.601 895.549 448.601ZM837.772 203.047V428.176L808.883 399.288V203.047H837.772ZM621.107 419.712H788.459L817.348 448.601H621.107V419.712ZM534.441 477.489H881.105V506.378H534.441V477.489ZM346.664 535.267C369.643 535.29 391.673 544.428 407.921 560.676C424.169 576.924 433.307 598.954 433.33 621.933V809.709H375.553V650.821C375.553 639.329 370.988 628.307 362.861 620.18C354.735 612.054 343.713 607.488 332.22 607.488H202.221C181.76 607.45 161.97 600.181 146.35 586.966C130.729 573.75 120.282 555.439 116.855 535.267H346.664ZM382.775 463.045C379.915 463.047 377.082 462.482 374.441 461.384L287.038 424.955C239.114 404.983 199.967 368.445 176.741 322.01C174.686 317.823 173.559 313.242 173.436 308.58C173.313 303.918 174.197 299.284 176.028 294.994C177.859 290.705 180.594 286.86 184.046 283.724C187.497 280.588 191.585 278.233 196.03 276.82C200.475 275.407 205.172 274.97 209.802 275.538C214.431 276.106 218.883 277.666 222.855 280.112C226.826 282.557 230.223 285.831 232.815 289.708C235.406 293.586 237.13 297.978 237.869 302.583C240.67 319.481 247.592 335.428 258.022 349.015C268.452 362.601 282.069 373.409 297.669 380.481L393.19 423.901C396.542 425.431 399.384 427.891 401.379 430.989C403.374 434.088 404.437 437.694 404.442 441.378C404.442 447.125 402.159 452.636 398.096 456.699C394.032 460.762 388.521 463.045 382.775 463.045ZM410.898 323.541L443.441 339.791L414.986 403.736C411.964 401.298 408.656 399.236 405.135 397.598L379.655 386.042L410.898 323.541ZM296.456 241.209L291.415 238.681C278.661 232.311 268.769 221.377 263.704 208.051C258.638 194.725 258.769 179.982 264.072 166.748L265.935 162.083L321.574 186.811L296.456 241.209ZM289.912 102.124L348.614 128.211L333.664 160.609L276.667 135.274L289.912 102.124ZM310.915 49.6477L371.017 79.7064L360.719 102.008L300.645 75.3153L310.915 49.6477ZM231.918 44.1589C237.958 44.1528 243.864 45.9372 248.891 49.2866L273.446 65.6376L264.505 88.0119L206.164 58.8632C208.839 54.4128 212.612 50.7237 217.122 48.1491C221.631 45.5744 226.726 44.2005 231.918 44.1589ZM179.789 77.9875L253.686 114.936L240.383 148.158L163.828 109.881L179.789 77.9875ZM232.207 176.411C231.581 180.205 231.214 184.037 231.11 187.88V188.602H218.76C207.434 188.563 196.532 184.292 188.194 176.627C179.856 168.962 174.684 158.458 173.693 147.176L232.207 176.411ZM202.221 217.491C215.478 217.534 228.548 220.617 240.426 226.504C248.671 242.964 262.024 256.312 278.487 264.551L279.368 264.998C285.574 277.122 288.835 290.538 288.887 304.157V340.08C276.985 328.821 269.079 313.988 266.368 297.831C264.968 289.102 261.698 280.779 256.782 273.432C251.866 266.085 245.42 259.887 237.886 255.263C230.351 250.639 221.907 247.698 213.13 246.641C204.353 245.584 195.452 246.437 187.035 249.141C178.619 251.844 170.886 256.335 164.366 262.306C157.847 268.276 152.695 275.585 149.263 283.732C145.831 291.879 144.201 300.671 144.483 309.507C144.766 318.342 146.955 327.013 150.9 334.924C177.22 387.552 221.578 428.968 275.887 451.619L288.887 457.022V506.378H115.555V304.157C115.578 281.179 124.716 259.148 140.964 242.9C157.212 226.652 179.243 217.514 202.221 217.491ZM115.555 881.931H86.6661V721.743C91.4361 722.579 96.2678 723.014 101.11 723.043H115.555V881.931ZM101.11 694.154C85.7869 694.154 71.091 688.067 60.2556 677.232C49.4203 666.396 43.333 651.701 43.333 636.377V376.379H86.6661V520.822C86.7005 551.459 98.886 580.831 120.549 602.494C142.213 624.157 171.584 636.343 202.221 636.377H332.22C336.051 636.377 339.725 637.899 342.434 640.608C345.142 643.317 346.664 646.99 346.664 650.821V694.154H101.11ZM389.997 881.931C386.166 881.931 382.492 880.409 379.784 877.7C377.075 874.991 375.553 871.317 375.553 867.487V838.598H446.706L475.074 843.336C485.175 844.995 494.589 849.511 502.204 856.35C509.819 863.19 515.316 872.066 518.046 881.931H389.997ZM548.885 881.931V535.267H577.774V881.931H548.885ZM606.662 766.376V535.267H808.883V766.376H606.662ZM866.661 881.931H837.772V535.267H866.661V881.931Z" fill="white"/>
<path d="M637.065 310.615L662.921 297.702L653.402 278.678L672.425 288.197C675.137 289.551 678.206 290.017 681.198 289.529C684.189 289.042 686.952 287.626 689.094 285.482L707.77 266.805V304.158H736.659V231.936C736.659 229.08 735.811 226.288 734.224 223.913C732.637 221.538 730.381 219.687 727.742 218.594C725.103 217.501 722.199 217.215 719.398 217.773C716.596 218.33 714.023 219.705 712.003 221.724L676.036 257.691L627.561 233.453C624.849 232.094 621.777 231.624 618.783 232.108C615.788 232.593 613.022 234.008 610.877 236.154C608.732 238.299 607.317 241.065 606.832 244.059C606.347 247.054 606.818 250.125 608.177 252.837L637.065 310.615Z" fill="white"/>
<path d="M513.238 392.304L570.986 363.43L583.9 389.256L526.152 418.13L513.238 392.304Z" fill="white"/>
    </g>
</svg>
