<svg width="1247" height="977" viewBox="0 0 1247 977" fill="none" xmlns="http://www.w3.org/2000/svg">
<g opacity="0.1">
<path d="M124.681 353.28H70.9427C65.4347 353.28 60.1456 351.092 56.2548 347.192L26.86 317.806C22.9692 313.906 20.7812 308.626 20.7812 303.109V154.08C20.7812 148.563 22.9692 143.283 26.86 139.383L56.2548 109.997C60.1456 106.097 65.4347 103.909 70.9427 103.909H124.681V353.28Z" fill="#2260EA"/>
<path d="M1059.84 83.1257V477.968H262.259L353.278 62.3496H1039.06C1050.52 62.3781 1059.81 71.6627 1059.84 83.1257Z" fill="#7FACFA"/>
<path d="M997.5 83.1257V477.968H262.259L353.278 62.3496H976.714C988.177 62.3781 997.462 71.6627 997.5 83.1257V83.1257Z" fill="#A4C2F7"/>
<path d="M1163.75 326.055V457.19H1018.28V187.034C1018.26 179.357 1022.5 172.317 1029.29 168.741C1032.27 167.076 1035.64 166.21 1039.06 166.248H1082.08C1092.95 166.277 1101.94 174.724 1102.65 185.578L1109.1 277.635C1109.53 285.711 1114.64 292.789 1122.19 295.719L1150.45 306.525C1158.52 309.626 1163.83 317.408 1163.75 326.055Z" fill="#2260EA"/>
<path d="M1101.4 326.054V457.189H1018.28V187.033C1018.26 179.356 1022.5 172.317 1029.29 168.74C1035.7 172.003 1039.88 178.405 1040.31 185.578L1046.75 277.634C1047.18 285.71 1052.31 292.788 1059.84 295.718L1088.1 306.524C1096.18 309.626 1101.48 317.407 1101.4 326.054V326.054Z" fill="white"/>
<path d="M1226.08 872.808V935.156C1226.05 946.619 1216.77 955.903 1205.31 955.941H83.1199C71.6569 955.903 62.3723 946.619 62.3438 935.156V872.808C62.3723 861.345 71.6569 852.061 83.1199 852.032H87.6956C97.256 852.061 105.589 845.535 107.853 836.241L124.063 771.401C124.472 769.765 124.682 768.09 124.682 766.416V706.561H332.5L374.062 810.47H914.365L976.713 706.561H1163.75V766.416C1163.75 768.09 1163.95 769.765 1164.36 771.401L1180.57 836.241C1182.84 845.535 1191.17 852.061 1200.73 852.032H1205.31C1216.77 852.061 1226.05 861.345 1226.08 872.808V872.808Z" fill="#2260EA"/>
<path d="M1163.75 872.808V935.156C1163.71 946.619 1154.42 955.903 1142.96 955.941H83.1199C71.6569 955.903 62.3723 946.619 62.3438 935.156V872.808C62.3723 861.345 71.6569 852.061 83.1199 852.032H87.6956C97.256 852.061 105.589 845.535 107.853 836.241L124.063 771.401C124.472 769.765 124.682 768.09 124.682 766.416V706.561H332.5L374.062 810.47H914.365L976.713 706.561H1101.4V766.416C1101.41 768.09 1101.62 769.765 1102.03 771.401L1118.24 836.241C1120.49 845.535 1128.82 852.061 1138.39 852.032H1142.96C1154.42 852.061 1163.71 861.345 1163.75 872.808V872.808Z" fill="white"/>
<path d="M1163.75 602.651V706.56H124.681L103.905 602.651L469.238 571.486H798.413L1163.75 602.651Z" fill="#2260EA"/>
<path d="M1101.4 602.651V706.56H124.681L103.905 602.651L469.238 571.486H736.065L1101.4 602.651Z" fill="white"/>
<path d="M103.905 436.405H1163.75V602.652H103.905V436.405Z" fill="#2260EA"/>
<path d="M103.905 436.405H1101.4V602.652H103.905V436.405Z" fill="white"/>
<path d="M353.276 41.5632V436.405H103.905V41.5632C103.934 30.1002 113.218 20.8156 124.681 20.7871H332.5C343.963 20.8156 353.248 30.1002 353.276 41.5632Z" fill="#2260EA"/>
<path d="M290.929 41.5632V436.405H103.905V41.5632C103.934 30.1002 113.218 20.8156 124.681 20.7871H270.152C281.615 20.8156 290.9 30.1002 290.929 41.5632Z" fill="white"/>
<path d="M270.156 290.933C270.156 313.888 251.549 332.505 228.594 332.505C205.639 332.505 187.032 313.888 187.032 290.933C187.032 267.988 205.639 249.372 228.594 249.372C251.549 249.372 270.156 267.988 270.156 290.933Z" fill="white"/>
<path d="M498.752 195.547V261.634C498.705 267.084 496.545 272.297 492.721 276.179L463.212 305.688C459.331 309.512 454.118 311.681 448.667 311.719H353.281V145.472H448.667C454.118 145.51 459.331 147.669 463.212 151.493L492.721 181.002C496.545 184.884 498.705 190.106 498.752 195.547Z" fill="white"/>
<path d="M436.405 195.547V261.634C436.367 267.084 434.207 272.297 430.383 276.179L400.874 305.688C396.993 309.512 391.77 311.681 386.319 311.719H353.281V145.472H386.319C391.77 145.51 396.993 147.669 400.874 151.493L430.383 181.002C434.207 184.884 436.367 190.106 436.405 195.547Z" fill="white"/>
<path d="M644.218 353.281H852.027V581.875C852.027 593.348 842.723 602.652 831.241 602.652H664.994C653.521 602.652 644.218 593.348 644.218 581.875V353.281Z" fill="#2260EA"/>
<path d="M789.684 477.967C789.684 500.922 771.077 519.529 748.122 519.529C725.168 519.529 706.561 500.922 706.561 477.967C706.561 455.012 725.168 436.405 748.122 436.405C771.077 436.405 789.684 455.012 789.684 477.967Z" fill="white"/>
<path d="M810.466 353.28H685.78V281.277C685.78 274.333 689.252 267.845 695.027 263.983L736.589 232.086C743.571 227.425 752.665 227.425 759.648 232.086L801.21 263.983C806.993 267.845 810.466 274.333 810.466 281.277V353.28Z" fill="white"/>
<path d="M124.681 20.7871C113.218 20.8156 103.933 30.1002 103.905 41.5632V103.911H70.9427C65.4347 103.911 60.1456 106.099 56.2548 109.999L26.86 139.384C22.9692 143.285 20.7812 148.564 20.7812 154.082V303.11C20.7812 308.628 22.9692 313.908 26.86 317.808L56.2548 347.193C60.1456 351.093 65.4347 353.281 70.9427 353.281H103.905V602.652L124.681 706.561V766.417C124.681 768.091 124.472 769.765 124.063 771.401L107.853 836.241C105.589 845.535 97.2553 852.061 87.6949 852.032H83.1192C71.6562 852.061 62.3716 861.346 62.343 872.809V935.156C62.3716 946.619 71.6562 955.904 83.1192 955.942H145.467C134.004 955.904 124.719 946.619 124.681 935.156V872.809C124.719 861.346 134.004 852.061 145.467 852.032H150.033C159.603 852.061 167.936 845.535 170.191 836.241L186.401 771.401C186.819 769.765 187.028 768.091 187.028 766.417V706.561L166.243 602.652V436.405H103.905C98.3874 436.405 122.493 351.093 118.593 347.193L89.2074 317.808C85.3071 313.908 83.1192 308.628 83.1192 303.11V154.082C83.1192 148.564 85.3071 143.285 89.2074 139.384L118.593 109.999" fill="white"/>
<path d="M893.594 831.245H374.067C362.585 831.245 353.281 821.942 353.281 810.469C353.281 798.987 362.585 789.684 374.067 789.684H893.594C905.067 789.684 914.37 798.987 914.37 810.469C914.37 821.942 905.067 831.245 893.594 831.245V831.245Z" fill="#2260EA"/>
<path d="M62.3438 935.155H1205.31V976.717H62.3438V935.155Z" fill="white"/>
<path d="M166.243 955.94C166.215 944.477 156.93 935.183 145.467 935.154H62.3438V976.716H145.467C156.93 976.688 166.215 967.403 166.243 955.94V955.94Z" fill="#2260EA"/>
<path d="M1205.31 976.716V935.154H311.722C300.25 935.154 290.937 944.458 290.937 955.94C290.937 967.412 300.25 976.716 311.722 976.716H1205.31Z" fill="#2260EA"/>
<path d="M228.597 935.155C223.099 935.241 217.829 937.39 213.843 941.186L211.35 944.297C210.561 945.457 209.933 946.713 209.476 948.035C208.877 949.215 208.458 950.48 208.23 951.783C207.992 953.153 207.859 954.542 207.812 955.941C207.888 961.439 210.047 966.709 213.843 970.695C218.704 975.737 225.8 977.944 232.659 976.555C239.527 975.166 245.197 970.372 247.718 963.836C248.784 961.334 249.345 958.652 249.373 955.941C249.43 950.404 247.261 945.086 243.352 941.177C239.442 937.267 234.124 935.098 228.597 935.155V935.155Z" fill="#2260EA"/>
<path d="M62.343 976.716C39.398 976.688 20.8003 958.1 20.7812 935.154V872.807C20.8003 849.871 39.398 831.274 62.343 831.245H66.8902L83.1192 766.358V706.56C83.1192 695.087 92.4228 685.784 103.905 685.784H332.499C340.994 685.784 348.633 690.949 351.792 698.835L393.353 802.745C396.112 809.641 394.99 817.48 390.395 823.321C385.8 829.152 378.447 832.101 371.093 831.045C363.749 829.98 357.518 825.081 354.76 818.194L318.43 727.345H124.681V766.348C124.69 769.801 124.262 773.236 123.406 776.575L107.206 841.329C102.611 859.85 85.973 872.836 66.8902 872.807H62.343V935.154C73.8156 935.154 83.1192 944.458 83.1192 955.94C83.1192 967.413 73.8156 976.716 62.343 976.716V976.716Z" fill="#2260EA"/>
<path d="M1205.31 976.716C1193.82 976.716 1184.52 967.413 1184.52 955.94C1184.52 944.458 1193.82 935.155 1205.31 935.155V872.807H1200.76C1181.68 872.836 1165.05 859.851 1160.44 841.338L1144.23 776.423C1143.39 773.131 1142.96 769.744 1142.96 766.348V727.346H967.702L911.405 821.162C907.609 827.583 900.665 831.483 893.207 831.378C885.748 831.264 878.918 827.164 875.313 820.638C871.707 814.103 871.888 806.141 875.769 799.777L938.117 695.867C941.865 689.608 948.629 685.774 955.935 685.784H1163.74C1175.22 685.784 1184.52 695.087 1184.52 706.56V766.348L1200.73 831.255L1205.31 831.245C1228.25 831.274 1246.84 849.872 1246.87 872.807V935.155C1246.84 958.1 1228.25 976.688 1205.31 976.716V976.716Z" fill="#2260EA"/>
<path d="M1163.75 727.346H124.684C114.781 727.346 106.257 720.354 104.307 710.641L83.5312 606.732C82.304 600.634 83.8832 594.298 87.831 589.485C91.7789 584.662 97.6768 581.875 103.908 581.875H1163.75C1175.22 581.875 1184.52 591.178 1184.52 602.651V706.56C1184.52 718.042 1175.22 727.346 1163.75 727.346V727.346ZM141.712 685.784H1142.96V623.436H129.26L141.712 685.784Z" fill="#2260EA"/>
<path d="M1163.75 623.436H103.91C92.4276 623.436 83.124 614.133 83.124 602.651V436.404C83.124 424.931 92.4276 415.627 103.91 415.627H644.222C655.695 415.627 664.999 424.931 664.999 436.404C664.999 447.886 655.695 457.189 644.222 457.189H124.686V581.875H1142.96V457.189H852.031C840.549 457.189 831.246 447.886 831.246 436.404C831.246 424.931 840.549 415.627 852.031 415.627H1163.75C1175.22 415.627 1184.53 424.931 1184.53 436.404V602.651C1184.53 614.133 1175.22 623.436 1163.75 623.436V623.436Z" fill="#2260EA"/>
<path d="M852.031 623.436H644.222C632.74 623.436 623.437 614.132 623.437 602.65V353.28C623.437 341.807 632.74 332.503 644.222 332.503H852.031C863.504 332.503 872.807 341.807 872.807 353.28V602.65C872.807 614.132 863.504 623.436 852.031 623.436V623.436ZM664.998 581.874H831.246V374.065H664.998V581.874Z" fill="#2260EA"/>
<path d="M893.591 374.065H602.649C591.177 374.065 581.873 364.762 581.873 353.28C581.873 341.807 591.177 332.503 602.649 332.503H893.591C905.064 332.503 914.367 341.807 914.367 353.28C914.367 364.762 905.064 374.065 893.591 374.065Z" fill="#2260EA"/>
<path d="M748.118 540.313C713.691 540.313 685.78 512.402 685.78 477.965C685.78 443.538 713.691 415.627 748.118 415.627C782.555 415.627 810.466 443.538 810.466 477.965C810.428 512.383 782.536 540.275 748.118 540.313ZM748.118 457.189C736.646 457.189 727.342 466.493 727.342 477.965C727.342 489.447 736.646 498.751 748.118 498.751C759.6 498.751 768.904 489.447 768.904 477.965C768.894 466.493 759.591 457.199 748.118 457.189V457.189Z" fill="#2260EA"/>
<path d="M228.598 353.28C194.162 353.28 166.251 325.369 166.251 290.933C166.251 256.506 194.162 228.595 228.598 228.595C263.026 228.595 290.936 256.506 290.936 290.933C290.908 325.35 263.016 353.242 228.598 353.28ZM228.598 270.157C217.116 270.157 207.813 279.46 207.813 290.933C207.813 302.415 217.116 311.718 228.598 311.718C240.071 311.718 249.375 302.415 249.375 290.933C249.365 279.46 240.071 270.166 228.598 270.157Z" fill="#2260EA"/>
<path d="M1018.28 540.313H852.035C840.553 540.313 831.249 531.01 831.249 519.528C831.249 508.055 840.553 498.751 852.035 498.751H1018.28C1029.76 498.751 1039.07 508.055 1039.07 519.528C1039.07 531.01 1029.76 540.313 1018.28 540.313Z" fill="#2260EA"/>
<path d="M644.225 540.313H457.192C445.71 540.313 436.406 531.01 436.406 519.528C436.406 508.055 445.71 498.751 457.192 498.751H644.225C655.697 498.751 665.001 508.055 665.001 519.528C665.001 531.01 655.697 540.313 644.225 540.313Z" fill="#2260EA"/>
<path d="M353.28 457.189H103.91C92.4276 457.189 83.124 447.886 83.124 436.404V41.5618C83.1526 18.6167 101.741 0.0285388 124.686 0H332.504C355.44 0.0285388 374.038 18.6167 374.066 41.5618V436.404C374.066 447.886 364.763 457.189 353.28 457.189ZM124.686 415.627H332.504V41.5618H124.686V415.627Z" fill="#2260EA"/>
<path d="M249.37 124.685H207.808C196.336 124.685 187.032 115.382 187.032 103.909C187.032 92.4271 196.336 83.1235 207.808 83.1235H249.37C260.852 83.1235 270.156 92.4271 270.156 103.909C270.156 115.382 260.852 124.685 249.37 124.685Z" fill="#2260EA"/>
<path d="M249.37 187.033H207.808C196.336 187.033 187.032 177.73 187.032 166.248C187.032 154.775 196.336 145.472 207.808 145.472H249.37C260.852 145.472 270.156 154.775 270.156 166.248C270.156 177.73 260.852 187.033 249.37 187.033Z" fill="#2260EA"/>
<path d="M810.47 374.065H685.785C674.303 374.065 664.999 364.761 664.999 353.279V281.276C664.98 267.378 671.934 254.393 683.511 246.697L723.95 215.59C738.029 205.63 756.77 205.306 771.182 214.791L813.857 247.506C824.872 255.201 831.379 267.844 831.246 281.276V353.279C831.246 364.761 821.943 374.065 810.47 374.065ZM706.884 332.503H789.684V281.276L748.123 249.437L707.702 280.477L706.884 332.503Z" fill="#2260EA"/>
<path d="M103.909 374.066H70.9472C59.9313 374.028 49.372 369.661 41.5619 361.889L12.1766 332.504C4.35704 324.722 -0.0284004 314.144 0.000138422 303.109V154.071C-0.0284004 143.045 4.35704 132.467 12.1766 124.685L41.5619 95.3C49.372 87.528 59.9313 83.1521 70.9472 83.1235H103.909C115.382 83.1235 124.686 92.4271 124.686 103.909V353.28C124.686 364.762 115.382 374.066 103.909 374.066ZM70.9472 124.685L41.5619 154.071V303.109L70.9472 332.504H83.1237V124.685H70.9472Z" fill="#2260EA"/>
<path d="M448.575 332.504H353.275C341.803 332.504 332.499 323.19 332.499 311.718V145.471C332.499 133.989 341.803 124.685 353.275 124.685H448.575C459.591 124.714 470.15 129.09 477.961 136.862L513.434 172.335C517.334 176.235 519.522 181.515 519.522 187.033V270.156C519.522 275.664 517.334 280.953 513.434 284.844L477.961 320.327C470.15 328.09 459.591 332.465 448.575 332.504ZM374.061 290.932H448.575L477.961 261.547V195.632L448.575 166.247H374.061V290.932Z" fill="#2260EA"/>
<path d="M540.315 207.808H498.753C487.271 207.808 477.968 198.505 477.968 187.032C477.968 175.55 487.271 166.247 498.753 166.247H540.315C551.788 166.247 561.091 175.55 561.091 187.032C561.091 198.505 551.788 207.808 540.315 207.808Z" fill="#2260EA"/>
<path d="M540.315 290.932H498.753C487.271 290.932 477.968 281.629 477.968 270.156C477.968 258.674 487.271 249.371 498.753 249.371H540.315C551.788 249.371 561.091 258.674 561.091 270.156C561.091 281.629 551.788 290.932 540.315 290.932Z" fill="#2260EA"/>
<path d="M1163.75 457.19H1018.28C1006.8 457.19 997.499 447.886 997.499 436.404V187.033C997.518 164.088 1016.12 145.5 1039.06 145.472H1082C1103.82 145.538 1121.9 162.414 1123.46 184.18L1129.76 276.312L1157.94 287.195C1173.92 293.445 1184.46 308.817 1184.52 325.979V436.404C1184.52 447.886 1175.22 457.19 1163.75 457.19ZM1039.06 415.628H1142.96V325.979L1114.77 315.096C1099.73 309.245 1089.41 295.243 1088.27 279.147L1081.98 187.033H1039.06V415.628Z" fill="#2260EA"/>
<path d="M1059.84 187.033C1048.36 187.033 1039.06 177.729 1039.06 166.247V83.1233H353.275C341.803 83.1233 332.499 73.8197 332.499 62.3472C332.499 50.8651 341.803 41.5615 353.275 41.5615H1039.06C1062 41.5901 1080.59 60.1782 1080.62 83.1233V166.247C1080.62 177.729 1071.32 187.033 1059.84 187.033V187.033Z" fill="#2260EA"/>
</g>
</svg>
