<svg width="1123" height="977" viewBox="0 0 1123 977" fill="none" xmlns="http://www.w3.org/2000/svg">
<g opacity="0.1" clip-path="url(#clip0)">
<path d="M318.183 422.605H804.817V574.581H318.183V422.605Z" fill="#7FACFA"/>
<path d="M318.183 422.605H748.672V574.581H318.183V422.605Z" fill="#A4C2F7"/>
<path d="M786.104 96.1812H860.97L879.682 286.849L860.97 451.797H262.037L243.316 279.849L262.037 96.1812H786.104Z" fill="#CAD9FC"/>
<path d="M168.455 142.979L262.041 96.1812V451.797L149.743 395.652L168.455 142.979Z" fill="#CAD9FC"/>
<path d="M954.553 142.979L860.967 96.1812V451.797L973.265 395.652L954.553 142.979Z" fill="#CAD9FC"/>
<path d="M917.12 732.546H991.986C1002.32 732.546 1010.7 740.934 1010.7 751.267V816.776H898.399V751.267C898.399 740.934 906.779 732.546 917.12 732.546V732.546Z" fill="#A4C2F7"/>
<path d="M131.022 732.546H205.887C216.229 732.546 224.608 740.934 224.608 751.267V826.133H112.31V751.267C112.31 740.934 120.689 732.546 131.022 732.546Z" fill="#A4C2F7"/>
<path d="M355.621 40.0366H767.381C777.723 40.0366 786.102 48.4159 786.102 58.7487V264.633C786.102 274.975 777.723 283.354 767.381 283.354H355.621C345.28 283.354 336.9 274.975 336.9 264.633V58.7487C336.9 48.4159 345.28 40.0366 355.621 40.0366V40.0366Z" fill="#CAD9FC"/>
<path d="M355.621 40.0366H711.237C721.569 40.0366 729.949 48.4159 729.949 58.7487V264.633C729.949 274.975 721.569 283.354 711.237 283.354H355.621C345.28 283.354 336.9 274.975 336.9 264.633V58.7487C336.9 48.4159 345.28 40.0366 355.621 40.0366V40.0366Z" fill="#E8EDFC"/>
<path d="M1085.56 358.22V526.671C1085.5 547.32 1068.78 564.044 1048.13 564.104H1010.7C1007.53 564.138 1004.38 563.693 1001.34 562.793C984.842 558.561 973.292 543.704 973.267 526.671V358.22H1085.56Z" fill="#E8EDFC"/>
<path d="M1104.28 114.9V339.497C1104.25 349.821 1095.89 358.183 1085.56 358.217H973.263C962.939 358.183 954.577 349.821 954.551 339.497V114.9C954.482 87.5086 974.308 64.1099 1001.34 59.6803C1004.41 58.9949 1007.55 58.6779 1010.7 58.7465H1048.13C1063.03 58.7293 1077.32 64.6411 1087.86 75.171C1098.39 85.7094 1104.3 100 1104.28 114.9V114.9Z" fill="#CAD9FC"/>
<path d="M149.739 358.22V526.671C149.68 547.32 132.955 564.044 112.307 564.104H74.874C71.7039 564.138 68.5509 563.693 65.5093 562.793C49.0077 558.561 37.4583 543.704 37.4326 526.671V358.22H149.739Z" fill="#E8EDFC"/>
<path d="M1029.42 358.22V526.671C1029.39 543.704 1017.84 558.561 1001.34 562.793C984.842 558.561 973.292 543.704 973.267 526.671V358.22H1029.42Z" fill="white"/>
<path d="M93.586 358.22V526.671C93.5603 543.704 82.0109 558.561 65.5093 562.793C49.0077 558.561 37.4583 543.704 37.4326 526.671V358.22H93.586Z" fill="white"/>
<path d="M168.448 114.9V339.497C168.422 349.821 160.06 358.183 149.736 358.217H37.4291C27.1049 358.183 18.7427 349.821 18.717 339.497V114.9C18.6484 87.5086 38.4743 64.1099 65.5058 59.6803C68.5816 58.9949 71.7174 58.6779 74.8704 58.7465H112.303C127.194 58.7293 141.494 64.6411 152.024 75.171C162.562 85.7094 168.474 100 168.448 114.9Z" fill="#CAD9FC"/>
<path d="M1048.13 114.902V339.499C1048.1 349.823 1039.74 358.185 1029.42 358.219H973.263C962.939 358.185 954.577 349.823 954.551 339.499V114.902C954.482 87.5109 974.308 64.1122 1001.34 59.6826C1028.37 64.1122 1048.2 87.5109 1048.13 114.902V114.902Z" fill="#E8EDFC"/>
<path d="M112.303 114.902V339.499C112.269 349.823 103.907 358.185 93.5825 358.219H37.4291C27.1049 358.185 18.7427 349.823 18.717 339.499V114.902C18.6484 87.5109 38.4743 64.1122 65.5058 59.6826C92.5458 64.1122 112.363 87.5109 112.303 114.902Z" fill="#E8EDFC"/>
<path d="M318.183 545.381H804.817V807.419H318.183V545.381Z" fill="#CAD9FC"/>
<path d="M318.183 545.381H748.672V807.419H318.183V545.381Z" fill="#E8EDFC"/>
<path d="M37.4288 807.419H1085.56C1095.9 807.419 1104.28 815.799 1104.28 826.131V919.717C1104.28 930.05 1095.9 938.429 1085.56 938.429H37.4288C27.0961 938.429 18.7168 930.05 18.7168 919.717V826.131C18.7168 815.799 27.0961 807.419 37.4288 807.419V807.419Z" fill="#CAD9FC"/>
<path d="M37.4288 807.419H1029.42C1039.75 807.419 1048.13 815.799 1048.13 826.131V919.717C1048.13 930.05 1039.75 938.429 1029.42 938.429H37.4288C27.0961 938.429 18.7168 930.05 18.7168 919.717V826.131C18.7168 815.799 27.0961 807.419 37.4288 807.419V807.419Z" fill="#E8EDFC"/>
<path d="M37.4291 358.217V526.669C37.4548 543.702 49.0042 558.558 65.5058 562.791C68.5473 563.69 71.7003 564.136 74.8704 564.102H112.303C115.448 564.059 118.583 563.613 121.616 562.774C105.14 558.533 93.6082 543.685 93.5825 526.669V358.217C83.2583 358.183 74.8961 349.821 74.8704 339.496V114.9C74.7933 87.5086 94.6192 64.1185 121.651 59.6803C118.566 59.1149 115.439 58.7979 112.303 58.7465H74.8704C71.7174 58.6779 68.5816 58.9949 65.5058 59.6803C38.4743 64.1099 18.6484 87.5086 18.717 114.9V339.496C18.7427 349.821 27.1049 358.183 37.4291 358.217V358.217Z" fill="white"/>
<path d="M37.4289 938.43H93.5823C83.2581 938.404 74.8959 930.042 74.8702 919.718V826.132C74.8959 815.807 83.2581 807.445 93.5823 807.419H37.4289C27.1047 807.445 18.7425 815.807 18.7168 826.132V919.718C18.7425 930.042 27.1047 938.404 37.4289 938.43V938.43Z" fill="white"/>
<path d="M112.31 751.267V807.42H168.454V751.267C168.454 740.934 176.834 732.546 187.175 732.546H131.022C120.689 732.546 112.31 740.934 112.31 751.267V751.267Z" fill="white"/>
<path d="M37.4359 919.718H1085.57C1085.57 919.718 1085.64 919.992 1085.57 919.778C1085.55 919.675 1085.57 919.718 1085.57 919.718V826.697C1085.58 825.575 1085.46 826.38 1085.65 826.106L1085.57 826.149L1077.59 826.132H40.8887L37.4359 826.158L37.4102 826.02C37.453 826.132 37.4359 826.132 37.4359 826.132V919.718H0.00321501V827.006C-0.0653273 821.659 0.962807 816.356 3.01907 811.421C7.5343 800.917 16.5819 793.043 27.6172 790.027C30.3246 789.282 33.1091 788.853 35.9194 788.751L40.8887 788.699H1077.59L1086.47 788.725C1104 789.145 1118.89 801.671 1122.29 818.875C1122.77 821.454 1123.01 824.076 1123 826.697V919.409C1123 922.117 1122.73 924.816 1122.19 927.463C1118.55 944.607 1103.51 956.936 1085.99 957.142L1077.35 957.15H38.464C28.5511 957.33 18.9552 953.655 11.7154 946.886C4.24427 939.818 0.0117828 929.999 0.00321501 919.718H37.4359Z" fill="white"/>
<path d="M101.631 938.43C101.606 928.106 93.2435 919.743 82.9193 919.718H45.4865L37.4328 919.692C37.5527 919.641 37.1672 919.812 37.4242 919.709H0C0.0171356 939.355 15.2079 955.651 34.8024 957.031C38.6665 957.236 38.8465 957.099 40.7913 957.142H82.9193C93.2435 957.116 101.597 948.754 101.631 938.43Z" fill="#2260EA"/>
<path d="M0.00321501 919.718H37.4359V826.132C37.4359 826.132 37.453 826.123 37.393 826.021L37.4359 826.158L40.8887 826.132H1077.59L1085.57 826.149L1085.66 826.098C1085.46 826.372 1085.59 825.566 1085.58 826.689V906.763L1085.57 919.718C1085.57 919.718 1085.55 919.684 1085.58 919.769C1085.64 919.983 1085.58 919.709 1085.58 919.709L1077.35 919.718H232.653C222.32 919.718 213.941 928.097 213.941 938.43C213.941 948.771 222.32 957.151 232.653 957.151H1077.35L1085.99 957.142C1103.51 956.936 1118.55 944.607 1122.19 927.463C1122.73 924.807 1123 922.108 1123 919.401V826.697C1123.01 824.076 1122.77 821.462 1122.29 818.884C1118.89 801.679 1104 789.153 1086.47 788.733L1077.59 788.699H40.8887L35.9194 788.751C33.1091 788.853 30.3246 789.282 27.6172 790.027C16.5819 793.043 7.5343 800.917 3.01907 811.421C0.962807 816.356 -0.0653273 821.66 0.00321501 827.006V919.718Z" fill="#2260EA"/>
<path d="M157.79 919.718C152.838 919.787 148.091 921.732 144.501 925.142L142.257 927.952C141.545 928.997 140.98 930.128 140.569 931.319C140.029 932.381 139.652 933.521 139.446 934.686C139.232 935.928 139.112 937.179 139.069 938.43C139.146 943.391 141.083 948.138 144.501 951.719C148.879 956.26 155.271 958.256 161.448 957.005C167.634 955.754 172.741 951.428 175.011 945.542C175.971 943.297 176.476 940.881 176.511 938.43C176.554 933.452 174.6 928.663 171.079 925.142C167.557 921.62 162.768 919.667 157.79 919.718V919.718Z" fill="#2260EA"/>
<path d="M1010.7 826.132H898.404C888.071 826.132 879.684 817.753 879.684 807.42V751.267C879.709 730.601 896.459 713.86 917.125 713.834H991.99C1012.65 713.86 1029.4 730.601 1029.42 751.267V807.42C1029.42 817.753 1021.04 826.132 1010.7 826.132V826.132ZM917.125 788.699H991.99V751.267H917.125V788.699Z" fill="#2260EA"/>
<path d="M224.612 826.135H112.313C101.972 826.135 93.5928 817.756 93.5928 807.423V751.27C93.6185 730.604 110.36 713.863 131.026 713.837H205.891C226.557 713.863 243.307 730.604 243.324 751.27V807.423C243.324 817.756 234.944 826.135 224.612 826.135ZM131.026 788.702H205.891V751.27H131.026V788.702Z" fill="#2260EA"/>
<path d="M711.245 133.617H524.072C513.74 133.617 505.36 125.238 505.36 114.905C505.36 104.563 513.74 96.1841 524.072 96.1841H711.245C721.578 96.1841 729.957 104.563 729.957 114.905C729.957 125.238 721.578 133.617 711.245 133.617Z" fill="#2260EA"/>
<path d="M449.205 133.617H411.773C401.44 133.617 393.061 125.238 393.061 114.905C393.061 104.563 401.44 96.1841 411.773 96.1841H449.205C459.547 96.1841 467.926 104.563 467.926 114.905C467.926 125.238 459.547 133.617 449.205 133.617Z" fill="#2260EA"/>
<path d="M767.385 302.067H355.625C334.959 302.042 318.209 285.3 318.184 264.635V58.7501C318.209 38.0846 334.959 21.3431 355.625 21.3174H767.385C788.051 21.3431 804.801 38.0846 804.818 58.7501V264.635C804.801 285.3 788.051 302.042 767.385 302.067V302.067ZM355.625 58.7501V264.635H767.402L767.385 58.7501H355.625Z" fill="#2260EA"/>
<path d="M1048.14 582.818H1010.7C979.706 582.783 954.594 557.663 954.56 526.673V358.221C954.56 347.88 962.939 339.5 973.272 339.5H1085.57C1095.91 339.5 1104.29 347.88 1104.29 358.221V526.673C1104.26 557.663 1079.14 582.783 1048.14 582.818ZM991.992 376.933V526.673C992.001 537.006 1000.37 545.376 1010.7 545.385H1048.14C1058.47 545.376 1066.85 537.006 1066.86 526.673V376.933H991.992Z" fill="#2260EA"/>
<path d="M1085.56 376.931H973.267C952.601 376.914 935.86 360.164 935.834 339.499V114.902C935.877 73.571 969.368 40.0795 1010.7 40.0366H1048.13C1089.46 40.0795 1122.95 73.571 1123 114.902V339.499C1122.98 360.164 1106.23 376.914 1085.56 376.931V376.931ZM1010.7 77.4694C990.034 77.4951 973.292 94.2366 973.267 114.902V339.499H1085.59L1085.56 114.902C1085.55 94.2366 1068.8 77.4951 1048.13 77.4694H1010.7Z" fill="#2260EA"/>
<path d="M112.313 582.818H74.88C43.8817 582.783 18.7608 557.663 18.7266 526.673V358.221C18.7266 347.88 27.1059 339.5 37.4387 339.5H149.746C160.078 339.5 168.458 347.88 168.458 358.221V526.673C168.423 557.663 143.303 582.783 112.313 582.818ZM56.1593 376.933V526.673C56.1679 537.006 64.5386 545.376 74.88 545.385H112.313C122.646 545.376 131.016 537.006 131.025 526.673V376.933H56.1593Z" fill="#2260EA"/>
<path d="M149.74 376.934H37.4328C16.7758 376.917 0.0257035 360.167 0 339.501V114.905C0.0428389 73.5735 33.543 40.0819 74.8741 40.0391H112.307C153.629 40.0819 187.13 73.5735 187.172 114.905V339.501C187.147 360.167 170.397 376.917 149.74 376.934ZM74.8741 77.4718C54.2085 77.4975 37.4585 94.239 37.4328 114.905V339.501H149.757L149.74 114.905C149.714 94.239 132.964 77.4975 112.307 77.4718H74.8741Z" fill="#2260EA"/>
<path d="M860.971 470.519H262.038C251.697 470.519 243.317 462.139 243.317 451.798V96.1823C243.317 85.8495 251.697 77.4702 262.038 77.4702H336.904C347.236 77.4702 355.624 85.8495 355.624 96.1823C355.624 106.524 347.236 114.903 336.904 114.903H280.75V433.086H842.25V114.903H786.105C775.764 114.903 767.385 106.524 767.385 96.1823C767.385 85.8495 775.764 77.4702 786.105 77.4702H860.971C871.304 77.4702 879.683 85.8495 879.683 96.1823V451.798C879.683 462.139 871.304 470.519 860.971 470.519Z" fill="#2260EA"/>
<path d="M262.039 470.52C259.135 470.52 256.265 469.843 253.669 468.549L141.37 412.396C132.117 407.769 128.373 396.528 133 387.284C137.618 378.039 148.867 374.286 158.112 378.913L243.319 421.512V126.471L176.824 159.723C167.579 164.341 156.338 160.596 151.712 151.352C147.085 142.107 150.838 130.858 160.082 126.24L253.669 79.4422C259.469 76.5463 266.358 76.8547 271.875 80.2647C277.393 83.6747 280.752 89.6979 280.752 96.1837V451.799C280.752 462.141 272.372 470.511 262.039 470.52Z" fill="#2260EA"/>
<path d="M860.971 470.52C850.638 470.511 842.259 462.141 842.25 451.799V96.1837C842.25 89.6979 845.609 83.6747 851.126 80.2647C856.653 76.8547 863.541 76.5463 869.341 79.4422L962.928 126.24C972.172 130.858 975.917 142.107 971.298 151.352C966.672 160.597 955.431 164.341 946.178 159.723L879.683 126.471V421.512L964.898 378.913C970.879 375.923 977.999 376.351 983.585 380.035C989.162 383.719 992.358 390.102 991.955 396.777C991.553 403.451 987.62 409.406 981.64 412.396L869.341 468.549C866.745 469.843 863.875 470.52 860.971 470.52Z" fill="#2260EA"/>
<path d="M804.823 564.105H318.189C307.856 564.105 299.477 555.726 299.477 545.385V451.799C299.477 441.466 307.856 433.086 318.189 433.086H804.823C815.165 433.086 823.544 441.466 823.544 451.799V545.385C823.544 555.726 815.165 564.105 804.823 564.105V564.105ZM336.909 526.673H786.111V470.519H336.909V526.673Z" fill="#2260EA"/>
<path d="M804.823 826.135H318.189C307.856 826.135 299.477 817.756 299.477 807.423V545.385C299.477 535.052 307.856 526.673 318.189 526.673H804.823C815.165 526.673 823.544 535.052 823.544 545.385V807.423C823.544 817.756 815.165 826.135 804.823 826.135V826.135ZM336.909 788.702H786.111V564.106H336.909V788.702Z" fill="#2260EA"/>
</g>
<defs>
<clipPath id="clip0">
<rect width="1123" height="1123" fill="white" transform="translate(0 -73)"/>
</clipPath>
</defs>
</svg>
