<svg width="95" height="94" viewBox="0 0 95 94" fill="none" xmlns="http://www.w3.org/2000/svg">
<path d="M75.9911 75.21H19.0754V91.4716H75.9911V75.21Z" fill="#CCE4FF"/>
<path d="M55.664 14.2289V2.03271H39.4023V14.2289C39.4023 18.7212 43.0409 22.3597 47.5331 22.3597C52.0254 22.3597 55.664 18.7212 55.664 14.2289Z" fill="#CCE4FF"/>
<path d="M92.2526 73.1773H76.741L51.8587 51.8481C55.296 50.2159 57.6967 46.7379 57.6967 42.6867C57.6967 37.7778 54.1984 33.6717 49.5658 32.7285V24.1871C54.1984 23.2419 57.6967 19.1379 57.6967 14.2289V2.0327C57.6967 0.908618 56.786 0 55.664 0H39.4023C38.2803 0 37.3696 0.908618 37.3696 2.0327V14.2289C37.3696 19.1359 40.8679 23.2419 45.5004 24.1871V34.5559C45.5004 35.68 46.4111 36.5886 47.5331 36.5886C50.8952 36.5886 53.6313 39.3246 53.6313 42.6867C53.6313 46.0488 50.8973 48.7828 47.5372 48.7848C47.5352 48.7848 47.5331 48.7848 47.5291 48.7848C44.169 48.7828 41.435 46.0488 41.435 42.6867C41.435 41.5627 40.5244 40.654 39.4023 40.654C38.2803 40.654 37.3696 41.5627 37.3696 42.6867C37.3696 46.7379 39.7703 50.2159 43.2076 51.8481L18.3253 73.1773H2.81371C1.69166 73.1773 0.781006 74.0859 0.781006 75.21V91.4716C0.781006 92.5957 1.69166 93.5043 2.81371 93.5043H92.2526C93.3746 93.5043 94.2853 92.5957 94.2853 91.4716V75.21C94.2853 74.0859 93.3746 73.1773 92.2526 73.1773ZM41.435 14.2289V4.0654H53.6313V14.2289C53.6313 17.591 50.8952 20.327 47.5331 20.327C44.1711 20.327 41.435 17.591 41.435 14.2289ZM17.0426 89.4389H4.84641V77.2427H17.0426V89.4389ZM47.5331 53.4946L70.4966 73.1773H24.5697L47.5331 53.4946ZM73.9583 89.4389H21.108V77.2427H73.9583V89.4389ZM90.2199 89.4389H78.0237V77.2427H90.2199V89.4389Z" fill="#2260EA"/>
</svg>
