<svg width="105" height="103" viewBox="0 0 105 103" fill="none" xmlns="http://www.w3.org/2000/svg">
<path d="M75.1275 72.4997C73.8325 82.3522 61.1275 89.9997 45.5 89.9997C39.9132 90.0494 34.3732 88.9783 29.2075 86.8497C21.105 83.4197 15.75 77.4872 15.75 70.7497C15.9063 66.5631 17.8106 62.6338 21 59.9172L64.9775 60.9847L75.1275 72.4997Z" fill="#CAD9FC"/>
<path d="M70 70.7497C68.705 80.6022 56 88.2497 40.3725 88.2497C36.6062 88.2635 32.8538 87.793 29.2075 86.8497C21.105 83.4197 15.75 77.4872 15.75 70.7497C15.9063 66.5631 17.8106 62.6338 21 59.9172L61.25 60.8972L70 70.7497Z" fill="#E8EDFC"/>
<path d="M57.75 69.6124C57.75 72.6224 52.885 75.9999 46.375 75.9999C39.865 75.9999 35 72.6224 35 69.6124C35.0646 68.5408 35.5337 67.5338 36.3125 66.7949C41.7375 67.5999 46.27 66.9174 51.31 66.7949H56.385C57.1817 67.5263 57.6698 68.5338 57.75 69.6124Z" fill="#A4C2F7"/>
<path d="M80.7449 72.7975C80.7299 73.4224 80.3828 73.9918 79.8341 74.2914C79.2855 74.591 78.6187 74.5752 78.0849 74.25C77.2449 73.6725 76.3349 73.1475 75.4949 72.64C59.3599 63.5225 48.1249 68.1775 38.4999 67.0575C28.8749 65.9375 15.7499 60.25 17.6749 50.7475C19.1274 43.2925 28.3324 41.14 35.5949 42.3475C34.9468 45.9431 34.747 49.6052 34.9999 53.25L50.7499 58.5L64.7499 51.5C64.7901 49.8218 65.025 48.1539 65.4499 46.53C79.0299 55.5425 80.7799 67.25 80.7449 72.7975Z" fill="#E8EDFC"/>
<path d="M65.4499 46.5298C65.1583 47.6795 64.9536 48.8494 64.8374 50.0298C71.4865 55.6451 75.3743 63.8676 75.4949 72.5698C76.3874 73.0598 77.2449 73.6198 78.0849 74.1973C78.6187 74.5225 79.2855 74.5383 79.8341 74.2387C80.3827 73.9392 80.7299 73.3697 80.7449 72.7448C80.7799 67.2498 79.0299 55.5423 65.4499 46.5298Z" fill="#CAD9FC"/>
<path d="M88.2875 2.76232C87.7905 2.59481 87.2446 2.65904 86.8 2.93732L44.8 29.5723C38.711 33.4114 35.0125 40.1016 35 47.2998V53.2498L50.75 58.4998L64.75 51.4998C64.7902 49.8216 65.0251 48.1538 65.45 46.5298C66.0389 43.6338 67.6548 41.0482 70 39.2498C74.7075 36.0998 97.7725 21.7498 102.427 18.7573C102.935 18.4402 103.245 17.8857 103.25 17.2873V7.74982L88.2875 2.76232Z" fill="#A4C2F7"/>
<path d="M103.25 7.74982L60.515 34.8223C54.4394 38.6697 50.7549 45.3585 50.75 52.5498V58.4998L35 53.2498V47.2998C35.0049 40.1085 38.6894 33.4197 44.765 29.5723L86.765 2.93732C87.2096 2.65904 87.7555 2.59481 88.2525 2.76232L103.25 7.74982Z" fill="#CAD9FC"/>
<path d="M26.25 59.9173C19.9675 53.7748 22.19 43.5723 34.4925 42.1898C27.4925 41.3848 19.145 43.6948 17.7625 50.7473C17.1493 54.161 18.3794 57.6453 21 59.9173C7.28001 72.8323 22.05 89.9998 45.5 89.9998H48.125C26.25 88.6873 13.0375 72.3423 26.25 59.9173Z" fill="white"/>
<path d="M46.2175 32.6873C48.72 30.0973 47.74 30.9373 90.93 3.63732L88.2875 2.76232C87.7905 2.59481 87.2446 2.65904 86.8 2.93732C42.455 31.0423 43.4875 30.0798 40.9675 32.6873C38.4308 35.3105 36.6213 38.5494 35.7175 42.0848C37.4428 41.9779 39.1745 42.0659 40.88 42.3473V42.6273C41.7141 38.8872 43.5606 35.4486 46.2175 32.6873Z" fill="white"/>
<path d="M21.5249 42.75L23.275 45.76C21.5803 46.7069 20.2869 48.2366 19.6349 50.065C19.011 51.8757 19.0859 53.8542 19.8449 55.6125L16.6599 57.0475C15.5335 54.4856 15.4086 51.5945 16.3099 48.945C17.2506 46.3223 19.1011 44.1241 21.5249 42.75Z" fill="white"/>
<path d="M103.81 6.08755L88.8475 1.10005C87.8457 0.764615 86.7459 0.899672 85.855 1.46755L43.75 28.0851C39.2293 30.9508 35.8739 35.3296 34.2825 40.4401C29.8925 39.8293 25.4221 40.6387 21.525 42.7501C21.1053 43.0011 20.8098 43.4162 20.7101 43.895C20.6104 44.3737 20.7155 44.8723 21 45.2701C21.5582 45.9684 22.5293 46.1801 23.3275 45.7776C26.4597 44.1137 30.026 43.4481 33.5475 43.8701C33.3713 45.0286 33.2778 46.1982 33.2675 47.3701V53.2501C33.2656 54.0024 33.7447 54.6718 34.4575 54.9126L50.2075 60.1626C50.6526 60.3094 51.138 60.2716 51.555 60.0576L65.555 53.0576C66.1367 52.7562 66.5014 52.1552 66.5 51.5001C66.5121 50.8383 66.5647 50.1779 66.6575 49.5226C77.4025 57.6951 79.03 67.4776 79.065 72.7976C72.3928 68.2035 64.5935 65.517 56.5075 65.0276C53.7002 64.942 50.8904 65.0063 48.09 65.2201C44.9451 65.4731 41.7849 65.4731 38.64 65.2201C32.9773 64.8253 27.5526 62.788 23.03 59.3576C21.6911 58.3549 20.6111 57.047 19.88 55.5426C19.6497 54.9337 19.1004 54.5029 18.4542 54.4245C17.8079 54.346 17.1715 54.6327 16.8021 55.1688C16.4328 55.7048 16.3915 56.4016 16.695 56.9776C17.1358 58.0034 17.7255 58.9587 18.445 59.8126C15.6303 62.763 14.0415 66.6725 14 70.7501C14 82.3351 28.1225 91.7501 45.5 91.7501C60.655 91.7501 73.255 84.7501 76.2825 75.1776L77.105 75.7026C78.1734 76.3883 79.5292 76.4417 80.6482 75.8422C81.7673 75.2427 82.474 74.0844 82.495 72.8151C82.495 67.8276 81.06 55.4376 67.4975 45.8476C68.0707 43.7962 69.3 41.9891 70.9975 40.7026C76.055 37.3426 102.287 20.9451 103.39 20.2451C104.397 19.5991 105.004 18.4837 105 17.2875V7.75005C105.002 6.9977 104.523 6.3283 103.81 6.08755ZM37.1 68.6501L38.29 68.7901C41.6215 69.0531 44.9685 69.0531 48.3 68.7901C50.8025 68.6326 53.1825 68.4926 55.5625 68.5801C55.8177 68.8941 55.9704 69.2789 56 69.6826C56 71.3101 52.3425 74.3201 46.375 74.3201C40.4075 74.3201 36.75 71.2401 36.75 69.6126C36.7681 69.264 36.89 68.9288 37.1 68.6501ZM45.5 88.2501C30.065 88.2501 17.5 80.3926 17.5 70.7501C17.5759 67.6007 18.8239 64.593 21 62.3151C24.6966 65.1384 28.9777 67.0996 33.53 68.0551C33.3454 68.5542 33.2449 69.0805 33.2325 69.6126C33.25 74.0226 39.2525 77.7501 46.375 77.7501C53.4975 77.7501 59.5 74.0226 59.5 69.6126C59.5257 69.3507 59.5257 69.0869 59.5 68.8251C64.3128 69.4944 68.966 71.0237 73.2375 73.3401C71.1375 81.7926 59.3425 88.2501 45.5 88.2501ZM49 52.5501V56.0501L36.75 51.9726V47.3001C36.7501 40.7071 40.1243 34.5728 45.6925 31.0426L87.6925 4.42505L99.1725 8.24005L59.5 33.3351C52.9451 37.5237 48.9847 44.7711 49 52.5501ZM69.0375 37.7976C64.2075 41.0001 63.245 47.7376 63 50.3976L52.5 55.6476V52.5501C52.5001 45.9571 55.8743 39.8228 61.4425 36.2926L101.5 10.9351V17.2875C100.38 17.9701 74.13 34.4026 69.0375 37.7976Z" fill="#2260EA"/>
<path d="M18.0249 47.72C17.0584 47.72 16.2749 48.5035 16.2749 49.47C16.2749 50.4365 17.0584 51.22 18.0249 51.22C18.9914 51.22 19.7749 50.4365 19.7749 49.47C19.7749 48.5035 18.9914 47.72 18.0249 47.72Z" fill="#2260EA"/>
<path d="M80.0975 83.3151C73.745 92.8351 60.48 98.7501 45.5 98.7501C23.905 98.7501 6.99999 86.5001 6.99999 70.7501C7.02166 68.3639 7.4416 65.9981 8.24249 63.7501L8.74999 65.9201C8.98195 66.8866 9.95349 67.4821 10.92 67.2501C11.8865 67.0182 12.4819 66.0466 12.25 65.0801L10.5 58.0801C10.374 57.5633 10.0198 57.1319 9.53749 56.9076C9.05658 56.6753 8.4959 56.6753 8.01499 56.9076L1.01499 60.4076C0.229599 60.8802 -0.0580645 61.8788 0.355527 62.6968C0.769118 63.5147 1.74381 63.875 2.58999 63.5226L5.03999 62.2976C4.04727 65.0064 3.52639 67.8653 3.49999 70.7501C3.49999 88.4076 21.945 102.25 45.5 102.25C61.635 102.25 76.0025 95.7401 83.0025 85.2751C83.3526 84.7562 83.3993 84.0899 83.1249 83.5272C82.8506 82.9646 82.2969 82.591 81.6725 82.5472C81.048 82.5035 80.4476 82.7962 80.0975 83.3151Z" fill="#2260EA"/>
<path d="M37.1176 79.6575C33.5301 78.8875 29.2426 76.4725 28.0001 72.0275C27.8697 71.3843 27.3905 70.8681 26.7588 70.6904C26.127 70.5127 25.449 70.7034 25.0025 71.1844C24.5559 71.6653 24.416 72.3557 24.6401 72.9725C26.3806 78.2575 30.898 82.1489 36.3826 83.0875H36.7501C37.7166 83.189 38.5823 82.4877 38.6838 81.5212C38.7853 80.5547 38.0841 79.689 37.1176 79.5875V79.6575Z" fill="#2260EA"/>
</svg>
