<svg width="105" height="83" viewBox="0 0 105 83" fill="none" xmlns="http://www.w3.org/2000/svg">
<path d="M40.2498 9.02954H82.2499V17.779H40.2498V9.02954Z" fill="#E8EDFC"/>
<path d="M40.2498 9.02954H76.9996V17.779H40.2498V9.02954Z" fill="white"/>
<path d="M47.2498 9.02949V17.779C47.2442 19.7096 45.6805 21.2733 43.7498 21.2789H33.25V5.52954H43.7498C45.6805 5.53515 47.2442 7.09887 47.2498 9.02949Z" fill="#7FACFA"/>
<path d="M42.0003 9.02949V17.779C41.9947 19.7096 40.4309 21.2733 38.5003 21.2789H33.25V5.52954H38.5003C40.4309 5.53515 41.9947 7.09887 42.0003 9.02949Z" fill="#A4C2F7"/>
<path d="M92.7498 5.52954V21.2789H85.7499C83.8193 21.2733 82.2556 19.7096 82.25 17.779V9.02949C82.2556 7.09887 83.8193 5.53515 85.7499 5.52954H92.7498Z" fill="#7FACFA"/>
<path d="M87.5003 5.52954V21.2789H85.7499C83.8193 21.2733 82.2556 19.7096 82.25 17.779V9.02949C82.2556 7.09887 83.8193 5.53515 85.7499 5.52954H87.5003Z" fill="#A4C2F7"/>
<path d="M35.0002 33.5293H59.4999V40.5292H35.0002V33.5293Z" fill="#A4C2F7"/>
<path d="M69.9998 33.5293H94.5002V40.5292H69.9998" fill="#A4C2F7"/>
<path d="M103.25 10.779V79.0292C103.247 79.9945 102.465 80.7764 101.5 80.7796H3.50006C2.53475 80.7764 1.75289 79.9945 1.75049 79.0292V10.779C1.75209 5.9477 5.6686 2.03119 10.5 2.02958H35.0004C35.9657 2.03199 36.7476 2.81385 36.75 3.77916V49.2793C36.7532 50.2446 37.535 51.0264 38.5003 51.0288H91.0003C91.9656 51.0264 92.7475 50.2446 92.7499 49.2793V3.77916C92.7459 3.46193 92.8372 3.1511 93.0127 2.88675C93.3227 2.35883 93.8874 2.03279 94.5003 2.02958C96.8226 2.02237 99.0528 2.94202 100.695 4.58425C102.337 6.22647 103.257 8.4567 103.25 10.779Z" fill="#CAD9FC"/>
<path d="M98.0002 10.7793V79.0294C97.997 79.9947 97.2152 80.7766 96.2498 80.7798H3.50006C2.53475 80.7766 1.75289 79.9947 1.75049 79.0294V10.7793C1.75209 5.9479 5.6686 2.03139 10.5 2.02979H29.7501C30.7154 2.03219 31.4972 2.81405 31.5004 3.77936V49.2795C31.5028 50.2448 32.2847 51.0266 33.25 51.029H91.0003C91.9656 51.0266 92.7475 50.2448 92.7499 49.2795V3.77936C92.7459 3.46213 92.8372 3.15131 93.0127 2.88695C93.9171 3.30511 94.7406 3.87949 95.4448 4.58445C97.0814 6.23068 98.0002 8.4577 98.0002 10.7793Z" fill="#E8EDFC"/>
<path d="M64.7501 17.7791C64.7501 17.7791 61.5474 19.2314 61.2678 31.7796H59.4998C58.5337 31.7796 57.7502 32.5631 57.7502 33.5292V40.5291C57.7502 41.496 58.5337 42.2795 59.4998 42.2795H69.9997C70.9666 42.2795 71.75 41.496 71.75 40.5291V33.5292C71.75 32.5631 70.9666 31.7796 69.9997 31.7796H68.2325C67.9521 19.2314 64.7501 17.7791 64.7501 17.7791Z" fill="#E8EDFC"/>
<path d="M10.4998 10.7791H13.9998C14.9667 10.7791 15.7501 11.5625 15.7501 12.5294V16.0294C15.7501 16.9955 14.9667 17.7789 13.9998 17.7789H10.4998C9.53371 17.7789 8.75024 16.9955 8.75024 16.0294V12.5294C8.75024 11.5625 9.53371 10.7791 10.4998 10.7791Z" fill="#E8EDFC"/>
<path d="M24.4996 10.7791H28.0003C28.9664 10.7791 29.7499 11.5625 29.7499 12.5294V16.0294C29.7499 16.9955 28.9664 17.7789 28.0003 17.7789H24.4996C23.5335 17.7789 22.75 16.9955 22.75 16.0294V12.5294C22.75 11.5625 23.5335 10.7791 24.4996 10.7791Z" fill="#E8EDFC"/>
<path d="M10.4998 24.7788H13.9998C14.9667 24.7788 15.7501 25.5631 15.7501 26.5292V30.0291C15.7501 30.996 14.9667 31.7795 13.9998 31.7795H10.4998C9.53371 31.7795 8.75024 30.996 8.75024 30.0291V26.5292C8.75024 25.5631 9.53371 24.7788 10.4998 24.7788Z" fill="#E8EDFC"/>
<path d="M24.4996 24.7788H28.0003C28.9664 24.7788 29.7499 25.5631 29.7499 26.5292V30.0291C29.7499 30.996 28.9664 31.7795 28.0003 31.7795H24.4996C23.5335 31.7795 22.75 30.996 22.75 30.0291V26.5292C22.75 25.5631 23.5335 24.7788 24.4996 24.7788Z" fill="#E8EDFC"/>
<path d="M40.2499 68.5295V80.7798H33.25V72.0295C33.2556 70.0989 34.8193 68.5351 36.7499 68.5295H40.2499Z" fill="#CAD9FC"/>
<path d="M40.2498 68.5295H47.2496V80.7798H40.2498V68.5295Z" fill="#E8EDFC"/>
<path d="M82.25 68.5295H89.2499V80.7798H82.25V68.5295Z" fill="#E8EDFC"/>
<path d="M96.2496 72.0295V80.7798H89.2498V68.5295H92.7497C94.6803 68.5351 96.244 70.0989 96.2496 72.0295Z" fill="#CAD9FC"/>
<path d="M47.2498 68.5295H54.2505V80.7798H47.2498V68.5295Z" fill="#CAD9FC"/>
<path d="M75.25 68.5295H82.2499V80.7798H75.25V68.5295Z" fill="#CAD9FC"/>
<path d="M54.2505 68.5295H61.2504V80.7798H54.2505V68.5295Z" fill="#E8EDFC"/>
<path d="M68.2502 68.5295H75.2501V80.7798H68.2502V68.5295Z" fill="#E8EDFC"/>
<path d="M61.2502 68.5295H68.2501V80.7798H61.2502V68.5295Z" fill="#CAD9FC"/>
<path d="M24.4996 51.0288C24.502 52.4219 23.9492 53.7589 22.9647 54.7435C21.9794 55.7288 20.6432 56.2807 19.2501 56.2791C18.493 56.2807 17.7456 56.1133 17.0623 55.7889C15.1974 54.9397 13.9998 53.0788 13.9998 51.0288C13.9998 48.9796 15.1974 47.1187 17.0623 46.2696C17.7456 45.9451 18.493 45.7777 19.2501 45.7793C20.6432 45.7777 21.9794 46.3297 22.9647 47.315C23.9492 48.2995 24.502 49.6365 24.4996 51.0288Z" fill="#CAD9FC"/>
<path d="M20.1249 51.029C20.1297 53.0806 18.9304 54.9431 17.0623 55.7891C15.1974 54.9399 13.9998 53.079 13.9998 51.029C13.9998 48.9799 15.1974 47.1189 17.0623 46.2698C18.9304 47.1157 20.1297 48.9782 20.1249 51.029Z" fill="#E8EDFC"/>
<path d="M3.50006 80.7798H8.75038C7.78507 80.7766 7.00321 79.9947 7.00001 79.0294V10.7793C7.00161 5.9479 10.9181 2.03139 15.7503 2.02979H10.5C5.6686 2.03139 1.75209 5.9479 1.75049 10.7793V79.0294C1.75289 79.9947 2.53475 80.7766 3.50006 80.7798Z" fill="white"/>
<path d="M3.49995 10.7791V80.7796H0V10.7791H3.49995Z" fill="white"/>
<path d="M1.75037 19.5293C2.71568 19.5261 3.49754 18.7443 3.49995 17.7789V10.7791H0V17.7789C0.00240327 18.7443 0.784264 19.5261 1.75037 19.5293Z" fill="#2260EA"/>
<path d="M0 80.7797H3.49995V31.7797C3.49995 30.8128 2.71648 30.0293 1.75037 30.0293C0.783462 30.0293 0 30.8128 0 31.7797V80.7797Z" fill="#2260EA"/>
<path d="M3.49994 24.7789C3.49273 24.3158 3.31168 23.872 2.99285 23.5364L2.73009 23.3265C2.63236 23.2608 2.52662 23.2079 2.41527 23.1695C2.31593 23.119 2.20939 23.083 2.09964 23.0645C1.98428 23.0445 1.86732 23.0325 1.75036 23.0293C1.28654 23.0357 0.842733 23.2168 0.507879 23.5364C-0.153017 24.2333 -0.153017 25.3252 0.507879 26.0214C0.674505 26.18 0.870772 26.3049 1.08466 26.3891C1.29535 26.4788 1.52125 26.5268 1.75036 26.5292C2.21339 26.522 2.65639 26.341 2.99285 26.0214C3.31168 25.6857 3.49273 25.2427 3.49994 24.7789Z" fill="#2260EA"/>
<path d="M103.25 82.5292H1.75037C0.783462 82.5292 0 81.7458 0 80.7797C0 79.8128 0.783462 79.0293 1.75037 79.0293H101.5V10.7791C101.496 6.9147 98.3646 3.78325 94.5002 3.77924V49.2794C94.4978 51.2116 92.9324 52.7769 91.0002 52.7793H38.5002C36.568 52.7769 35.0019 51.2116 35.0003 49.2794V3.77924H10.4998C6.6354 3.78325 3.50395 6.9147 3.49995 10.7791C3.49995 11.746 2.71648 12.5295 1.75037 12.5295C0.783462 12.5295 0 11.746 0 10.7791C0.00640869 4.98328 4.70398 0.285706 10.4998 0.279297H35.0003C36.9317 0.2817 38.4978 1.84702 38.5002 3.77924V49.2794H91.0002V3.77924C91.0026 1.84702 92.5679 0.2817 94.5002 0.279297C100.296 0.285706 104.994 4.98328 105 10.7791V80.7797C105 81.7458 104.217 82.5292 103.25 82.5292Z" fill="#2260EA"/>
<path d="M43.7497 23.0294H36.7498C35.7837 23.0294 35.0002 22.2459 35.0002 21.279V5.52967C35.0002 4.56276 35.7837 3.7793 36.7498 3.7793H43.7497C46.648 3.7825 48.9968 6.13129 49 9.02962V17.7791C48.9968 20.6774 46.648 23.0262 43.7497 23.0294ZM38.5002 19.5295H43.7497C44.7158 19.5287 45.4993 18.7452 45.5001 17.7791V9.02962C45.4993 8.06351 44.7158 7.28004 43.7497 7.27924H38.5002V19.5295Z" fill="#2260EA"/>
<path d="M92.7499 23.0294H85.75C82.8517 23.0262 80.5037 20.6774 80.5005 17.7791V9.02962C80.5037 6.13129 82.8517 3.7825 85.75 3.7793H92.7499C93.7168 3.7793 94.5003 4.56276 94.5003 5.52967V21.279C94.5003 21.7437 94.316 22.1883 93.9876 22.5167C93.6591 22.8452 93.2145 23.0294 92.7499 23.0294ZM85.75 7.27924C84.7839 7.28004 84.0012 8.06351 84.0004 9.02962V17.7791C84.0012 18.7452 84.7839 19.5287 85.75 19.5295H91.0003V7.27924H85.75Z" fill="#2260EA"/>
<path d="M82.2498 19.5295H47.2496C46.2835 19.5295 45.5 18.746 45.5 17.7791V9.02967C45.5 8.06276 46.2835 7.2793 47.2496 7.2793H82.2498C83.2168 7.2793 84.0002 8.06276 84.0002 9.02967V17.7791C84.0002 18.746 83.2168 19.5295 82.2498 19.5295ZM48.9999 16.0296H80.5003V10.7792H48.9999V16.0296Z" fill="#2260EA"/>
<path d="M57.7503 35.2795H36.7498C35.7837 35.2795 35.0002 34.496 35.0002 33.5291C35.0002 32.563 35.7837 31.7795 36.7498 31.7795H57.7503C58.7164 31.7795 59.4999 32.563 59.4999 33.5291C59.4999 34.496 58.7164 35.2795 57.7503 35.2795Z" fill="#2260EA"/>
<path d="M57.7503 42.2795H36.7498C35.7837 42.2795 35.0002 41.496 35.0002 40.5291C35.0002 39.563 35.7837 38.7795 36.7498 38.7795H57.7503C58.7164 38.7795 59.4999 39.563 59.4999 40.5291C59.4999 41.496 58.7164 42.2795 57.7503 42.2795Z" fill="#2260EA"/>
<path d="M92.7498 42.2795H71.7501C70.7832 42.2795 69.9998 41.496 69.9998 40.5291C69.9998 39.563 70.7832 38.7795 71.7501 38.7795H92.7498C93.7167 38.7795 94.5002 39.563 94.5002 40.5291C94.5002 41.496 93.7167 42.2795 92.7498 42.2795Z" fill="#2260EA"/>
<path d="M92.7498 35.2795H71.7501C70.7832 35.2795 69.9998 34.496 69.9998 33.5291C69.9998 32.563 70.7832 31.7795 71.7501 31.7795H92.7498C93.7167 31.7795 94.5002 32.563 94.5002 33.5291C94.5002 34.496 93.7167 35.2795 92.7498 35.2795Z" fill="#2260EA"/>
<path d="M61.2679 33.5293H61.2279C60.2617 33.5077 59.4959 32.7074 59.5175 31.7413C59.8011 19.0785 63.0415 16.6336 64.0277 16.1866C64.876 15.8044 65.8758 16.1537 66.3019 16.9812C66.7281 17.8096 66.4317 18.8253 65.6274 19.294C65.4151 19.4846 63.2434 21.6796 63.0175 31.8198C62.9951 32.7699 62.218 33.5293 61.2679 33.5293ZM65.4752 19.3717H65.4736H65.4752Z" fill="#2260EA"/>
<path d="M68.2326 33.5294C67.2817 33.5294 66.5047 32.7699 66.4822 31.819C66.2571 21.6781 64.0854 19.4839 63.8731 19.2932C63.0688 18.8246 62.7724 17.808 63.1986 16.9805C63.6239 16.153 64.6237 15.8037 65.4729 16.1858C66.459 16.6328 69.6986 19.0778 69.9822 31.7397C69.9934 32.2044 69.8187 32.6538 69.4983 32.9894C69.1771 33.3243 68.7365 33.5189 68.2726 33.5294H68.2326ZM64.0253 19.3717H64.0269H64.0253Z" fill="#2260EA"/>
<path d="M69.9998 44.0291H59.4999C57.5677 44.0275 56.0024 42.4614 56 40.5291V33.5292C56.0024 31.597 57.5677 30.0317 59.4999 30.0293H61.2679C62.2341 30.0293 63.0175 30.8128 63.0175 31.7797C63.0175 32.7458 62.2341 33.5292 61.2679 33.5292H59.4999V40.5291H69.9998V33.5292H68.2326C67.2657 33.5292 66.4822 32.7458 66.4822 31.7797C66.4822 30.8128 67.2657 30.0293 68.2326 30.0293H69.9998C71.932 30.0317 73.4981 31.597 73.4997 33.5292V40.5291C73.4981 42.4614 71.932 44.0275 69.9998 44.0291Z" fill="#2260EA"/>
<path d="M13.9999 19.5294H10.4999C8.56773 19.527 7.0024 17.9617 7 16.0294V12.5295C7.0024 10.5973 8.56773 9.03114 10.4999 9.02954H13.9999C15.9321 9.03114 17.4982 10.5973 17.4998 12.5295V16.0294C17.4982 17.9617 15.9321 19.527 13.9999 19.5294ZM10.4999 12.5295V16.0294H14.0015L13.9999 12.5295H10.4999Z" fill="#2260EA"/>
<path d="M28.0005 19.5294H24.4997C22.5683 19.527 21.0022 17.9617 20.9998 16.0294V12.5295C21.0022 10.5973 22.5683 9.03114 24.4997 9.02954H28.0005C29.9319 9.03114 31.498 10.5973 31.5004 12.5295V16.0294C31.498 17.9617 29.9319 19.527 28.0005 19.5294ZM24.4997 12.5295V16.0294H28.0021L28.0005 12.5295H24.4997Z" fill="#2260EA"/>
<path d="M13.9999 33.5291H10.4999C8.56773 33.5267 7.0024 31.9614 7 30.0292V26.5292C7.0024 24.597 8.56773 23.0317 10.4999 23.0293H13.9999C15.9321 23.0317 17.4982 24.597 17.4998 26.5292V30.0292C17.4982 31.9614 15.9321 33.5267 13.9999 33.5291ZM10.4999 26.5292V30.0292H14.0015L13.9999 26.5292H10.4999Z" fill="#2260EA"/>
<path d="M28.0005 33.5291H24.4997C22.5683 33.5267 21.0022 31.9614 20.9998 30.0292V26.5292C21.0022 24.597 22.5683 23.0317 24.4997 23.0293H28.0005C29.9319 23.0317 31.498 24.597 31.5004 26.5292V30.0292C31.498 31.9614 29.9319 33.5267 28.0005 33.5291ZM24.4997 26.5292V30.0292H28.0021L28.0005 26.5292H24.4997Z" fill="#2260EA"/>
<path d="M19.2501 58.0296C15.3841 58.0296 12.2502 54.895 12.2502 51.0289C12.2502 47.1637 15.3841 44.0291 19.2501 44.0291C23.1162 44.0291 26.25 47.1637 26.25 51.0289C26.246 54.8934 23.1146 58.0256 19.2501 58.0296ZM19.2501 47.529C17.3171 47.529 15.7502 49.0959 15.7502 51.0289C15.7502 52.962 17.3171 54.5297 19.2501 54.5297C21.1832 54.5297 22.7501 52.962 22.7501 51.0289C22.7477 49.0975 21.1824 47.5314 19.2501 47.529Z" fill="#2260EA"/>
<path d="M22.96 49.0697C22.2526 49.0697 21.6141 48.6427 21.3434 47.989C21.0726 47.3354 21.2224 46.5831 21.7231 46.0824L23.2628 44.542C23.9493 43.8795 25.0412 43.8883 25.7157 44.5636C26.391 45.2389 26.4006 46.33 25.7373 47.0165L24.1976 48.557C23.8692 48.8855 23.4246 49.0697 22.96 49.0697Z" fill="#2260EA"/>
<path d="M31.5002 52.7792C30.5333 52.7792 29.7499 51.9958 29.7499 51.0288C29.7499 45.2306 25.0491 40.529 19.25 40.529C13.451 40.529 8.75019 45.2306 8.75019 51.0288C8.75019 51.9958 7.96673 52.7792 6.99982 52.7792C6.03371 52.7792 5.25024 51.9958 5.25024 51.0288C5.25024 43.2976 11.5179 37.0291 19.25 37.0291C26.9821 37.0291 33.2498 43.2976 33.2498 51.0288C33.2498 51.9958 32.4664 52.7792 31.5002 52.7792Z" fill="#2260EA"/>
<path d="M89.2499 82.5292H40.2498C39.2837 82.5292 38.5002 81.7458 38.5002 80.7796V68.5294C38.5002 67.5625 39.2837 66.7791 40.2498 66.7791H89.2499C90.2168 66.7791 91.0002 67.5625 91.0002 68.5294V80.7796C91.0002 81.7458 90.2168 82.5292 89.2499 82.5292ZM42.0002 79.0293H87.5003V70.279H42.0002V79.0293Z" fill="#2260EA"/>
<path d="M96.2497 82.5292H33.2498C32.2837 82.5292 31.5002 81.7458 31.5002 80.7796V72.0294C31.5034 69.131 33.8514 66.7823 36.7498 66.7791H92.7497C95.648 66.7823 97.9968 69.131 98 72.0294V80.7796C98 81.2435 97.8158 81.6889 97.4873 82.0165C97.1589 82.345 96.7143 82.5292 96.2497 82.5292ZM35.0002 79.0293H94.5001V72.0294C94.4993 71.0633 93.7158 70.2798 92.7497 70.279H36.7498C35.7837 70.2798 35.001 71.0633 35.0002 72.0294V79.0293Z" fill="#2260EA"/>
<path d="M82.2498 82.5292H47.2496C46.2835 82.5292 45.5 81.7458 45.5 80.7796V68.5294C45.5 67.5625 46.2835 66.7791 47.2496 66.7791H82.2498C83.2168 66.7791 84.0002 67.5625 84.0002 68.5294V80.7796C84.0002 81.7458 83.2168 82.5292 82.2498 82.5292ZM48.9999 79.0293H80.5003V70.279H48.9999V79.0293Z" fill="#2260EA"/>
<path d="M75.2501 82.5292H54.2504C53.2835 82.5292 52.5 81.7458 52.5 80.7796V68.5294C52.5 67.5625 53.2835 66.7791 54.2504 66.7791H75.2501C76.2162 66.7791 76.9996 67.5625 76.9996 68.5294V80.7796C76.9996 81.7458 76.2162 82.5292 75.2501 82.5292ZM55.9999 79.0293H73.4997V70.279H55.9999V79.0293Z" fill="#2260EA"/>
<path d="M68.2503 82.5292H61.2504C60.2835 82.5292 59.5 81.7458 59.5 80.7796V68.5294C59.5 67.5625 60.2835 66.7791 61.2504 66.7791H68.2503C69.2164 66.7791 69.9998 67.5625 69.9998 68.5294V80.7796C69.9998 81.7458 69.2164 82.5292 68.2503 82.5292ZM62.9999 79.0293H66.4999V70.279H62.9999V79.0293Z" fill="#2260EA"/>
</svg>
