<svg width="105" height="105" viewBox="0 0 105 105" fill="none" xmlns="http://www.w3.org/2000/svg">
<path fill-rule="evenodd" clip-rule="evenodd" d="M51.3801 53.6201L44.6426 60.3576C44.3163 60.677 43.8684 60.8409 43.413 60.8074C42.9576 60.7739 42.5386 60.5463 42.2626 60.1826C41.9447 59.7951 41.5803 59.4483 41.1776 59.1501C38.8293 57.4911 35.6023 57.9039 33.7474 60.1007C31.8925 62.2974 32.0261 65.548 34.055 67.5851C34.2037 67.7347 34.3615 67.875 34.5275 68.0051C34.8753 68.3016 35.0813 68.7315 35.0947 69.1883C35.108 69.6451 34.9274 70.0863 34.5976 70.4026L27.9125 77.0876C27.2917 77.7005 26.2934 77.7005 25.6726 77.0876L18.935 70.3501C18.6088 70.0306 18.1609 69.8668 17.7055 69.9003C17.2501 69.9338 16.8311 70.1613 16.555 70.5251C14.8593 72.6032 11.9198 73.1704 9.57255 71.8726C8.05966 71.0241 7.03148 69.516 6.79435 67.7977C6.55722 66.0793 7.13852 64.3491 8.36505 63.1226C8.5056 62.9646 8.66418 62.8236 8.83755 62.7026C9.18298 62.4035 9.38577 61.9723 9.39578 61.5155C9.40578 61.0587 9.22206 60.619 8.89005 60.3051L2.20505 53.6201C1.59213 52.9992 1.59213 52.001 2.20505 51.3801L8.96005 44.6426C9.28633 44.3231 9.73416 44.1593 10.1896 44.1928C10.645 44.2263 11.064 44.4538 11.34 44.8176C11.6535 45.2091 12.0184 45.5565 12.425 45.8501C14.1624 47.0928 16.4627 47.2156 18.3225 46.1651C19.8325 45.3141 20.8581 43.8064 21.0951 42.0894C21.332 40.3724 20.7531 38.6432 19.5301 37.4151C19.3895 37.2571 19.2309 37.1161 19.0576 36.9951C18.7121 36.696 18.5093 36.2648 18.4993 35.808C18.4893 35.3512 18.673 34.9115 19.005 34.5976L25.6726 27.9126C26.2934 27.2997 27.2917 27.2997 27.9125 27.9126L34.5976 34.5976C34.9274 34.9139 35.108 35.355 35.0947 35.8119C35.0813 36.2687 34.8753 36.6985 34.5275 36.9951C34.3615 37.1252 34.2037 37.2654 34.055 37.4151C32.0261 39.4521 31.8925 42.7027 33.7474 44.8995C35.6023 47.0962 38.8293 47.5091 41.1776 45.8501C41.5803 45.5518 41.9447 45.205 42.2626 44.8176C42.5386 44.4538 42.9576 44.2263 43.413 44.1928C43.8684 44.1593 44.3163 44.3231 44.6426 44.6426L51.3801 51.3801C51.993 52.001 51.993 52.9992 51.3801 53.6201Z" fill="#E8EDFC"/>
<path fill-rule="evenodd" clip-rule="evenodd" d="M29.3476 34.5976C29.6775 34.9139 29.8581 35.3551 29.8447 35.8119C29.8314 36.2687 29.6254 36.6986 29.2776 36.9951C29.1116 37.1252 28.9538 37.2655 28.8051 37.4151C26.8736 39.3611 26.6565 42.4274 28.2946 44.626C29.9326 46.8247 32.9328 47.4941 35.3501 46.2001C35.3239 46.1861 35.2976 46.1774 35.2731 46.1634C33.7582 45.3175 32.7269 43.811 32.4863 42.0928C32.2458 40.3745 32.8237 38.6427 34.0481 37.4134C34.1968 37.2637 34.3546 37.1234 34.5206 36.9934C34.8684 36.6968 35.0744 36.267 35.0877 35.8101C35.1011 35.3533 34.9205 34.9122 34.5906 34.5959L27.9056 27.9109C27.2847 27.2979 26.2865 27.2979 25.6656 27.9109L24.1624 29.4176L29.3476 34.5976Z" fill="#CAD9FC"/>
<path fill-rule="evenodd" clip-rule="evenodd" d="M51.3801 51.38L44.6426 44.6426C44.3163 44.3231 43.8684 44.1593 43.413 44.1928C42.9577 44.2262 42.5386 44.4538 42.2626 44.8176C41.9447 45.205 41.5803 45.5518 41.1776 45.8501C41.0638 45.9323 40.9396 45.9971 40.8276 46.0706L46.1301 51.38C46.743 52.0009 46.743 52.9992 46.1301 53.62L40.8206 58.9295C40.9396 59.003 41.0638 59.0678 41.1706 59.15C41.5733 59.4483 41.9377 59.7951 42.2556 60.1825C42.5316 60.5463 42.9507 60.7738 43.406 60.8073C43.8614 60.8408 44.3093 60.677 44.6356 60.3575L51.3731 53.62C51.9879 53.0011 51.991 52.0028 51.3801 51.38Z" fill="#CAD9FC"/>
<path fill-rule="evenodd" clip-rule="evenodd" d="M35.28 58.835C35.3045 58.821 35.3307 58.8123 35.357 58.7983C32.9384 57.4915 29.9273 58.1565 28.284 60.3604C26.6407 62.5642 26.8625 65.6398 28.805 67.585C28.9536 67.7347 29.1114 67.8749 29.2775 68.005C29.6252 68.3015 29.8313 68.7314 29.8446 69.1882C29.8579 69.645 29.6773 70.0862 29.3475 70.4025L24.1675 75.5825L25.6725 77.0875C26.2934 77.7004 27.2916 77.7004 27.9125 77.0875L34.5975 70.4025C34.9273 70.0862 35.1079 69.645 35.0946 69.1882C35.0813 68.7314 34.8752 68.3015 34.5275 68.005C34.3614 67.8749 34.2036 67.7347 34.055 67.585C32.8306 66.3557 32.2526 64.6239 32.4932 62.9056C32.7337 61.1873 33.7651 59.6809 35.28 58.835Z" fill="#CAD9FC"/>
<path fill-rule="evenodd" clip-rule="evenodd" d="M77.0876 79.3276L70.4026 85.9951C70.0887 86.3271 69.649 86.5108 69.1922 86.5008C68.7354 86.4908 68.3041 86.288 68.0051 85.9426C67.884 85.7692 67.7431 85.6106 67.5851 85.4701C66.1463 84.0015 64.0117 83.4523 62.0428 84.0442C60.074 84.636 58.596 86.2713 58.2055 88.2897C57.815 90.3082 58.5765 92.3766 60.1826 93.6601C60.5463 93.9361 60.7739 94.3552 60.8074 94.8106C60.8409 95.266 60.677 95.7138 60.3576 96.0401L53.6201 102.795C52.9992 103.408 52.001 103.408 51.3801 102.795L44.6426 96.0401C44.3231 95.7138 44.1593 95.266 44.1928 94.8106C44.2263 94.3552 44.4538 93.9361 44.8176 93.6601C45.2091 93.3467 45.5565 92.9817 45.8501 92.5751C47.5143 90.2276 47.1016 86.9964 44.9008 85.1426C42.6999 83.2888 39.4456 83.4312 37.4151 85.4701C37.2571 85.6106 37.1161 85.7692 36.9951 85.9426C36.696 86.288 36.2648 86.4908 35.808 86.5008C35.3512 86.5108 34.9115 86.3271 34.5976 85.9951L27.9126 79.3276C27.2997 78.7067 27.2997 77.7085 27.9126 77.0876L34.5976 70.4026C34.9274 70.0863 35.108 69.6451 35.0947 69.1883C35.0814 68.7315 34.8753 68.3016 34.5276 68.0051C34.3615 67.875 34.2037 67.7347 34.0551 67.5851C32.0261 65.548 31.8925 62.2974 33.7474 60.1007C35.6023 57.904 38.8294 57.4911 41.1776 59.1501C41.5803 59.4484 41.9447 59.7951 42.2626 60.1826C42.5386 60.5463 42.9577 60.7739 43.4131 60.8074C43.8685 60.8409 44.3163 60.677 44.6426 60.3576L51.3801 53.6201C52.001 53.0072 52.9992 53.0072 53.6201 53.6201L60.3051 60.3051C60.6235 60.6309 61.0637 60.8087 61.5192 60.7955C61.9746 60.7822 62.4037 60.579 62.7026 60.2351C62.8327 60.069 62.9729 59.9112 63.1226 59.7626C64.3511 58.5402 66.08 57.9618 67.7967 58.1987C69.5135 58.4356 71.0211 59.4607 71.8726 60.9701C72.9176 62.8334 72.7879 65.1335 71.5401 66.8676C71.2482 67.2752 70.9073 67.6455 70.5251 67.9701C70.1613 68.2461 69.9338 68.6652 69.9003 69.1206C69.8668 69.576 70.0306 70.0238 70.3501 70.3501L77.0876 77.0876C77.7005 77.7085 77.7005 78.7067 77.0876 79.3276Z" fill="#E8EDFC"/>
<path fill-rule="evenodd" clip-rule="evenodd" d="M77.0877 77.0875L70.3502 70.35C70.0307 70.0237 69.8669 69.5759 69.9004 69.1205C69.9338 68.6651 70.1614 68.2461 70.5251 67.97C70.9073 67.6454 71.2482 67.2752 71.5402 66.8675C73.0404 64.7752 72.8908 61.9226 71.1799 59.9987C69.469 58.0747 66.6534 57.5929 64.4001 58.8385C65.3256 59.3274 66.0956 60.0658 66.6226 60.97C67.6677 62.8333 67.538 65.1335 66.2902 66.8675C65.9982 67.2752 65.6573 67.6454 65.2751 67.97C64.9114 68.2461 64.6838 68.6651 64.6504 69.1205C64.6169 69.5759 64.7807 70.0237 65.1001 70.35L71.8377 77.0875C72.4506 77.7084 72.4506 78.7066 71.8377 79.3275L66.5106 84.6405C66.9017 84.8716 67.2626 85.1502 67.5851 85.47C67.7431 85.6106 67.8841 85.7691 68.0052 85.9425C68.3042 86.2879 68.7355 86.4907 69.1922 86.5007C69.649 86.5107 70.0888 86.327 70.4027 85.995L77.0877 79.3275C77.7006 78.7066 77.7006 77.7084 77.0877 77.0875Z" fill="#CAD9FC"/>
<path fill-rule="evenodd" clip-rule="evenodd" d="M59.1501 92.575C57.9078 90.8374 57.785 88.5374 58.8351 86.6775C59.359 85.7721 60.1274 85.0327 61.0524 84.5442C58.5485 83.1397 55.3858 83.8936 53.7846 86.2765C52.1835 88.6595 52.6808 91.8725 54.9274 93.66C55.2911 93.936 55.5187 94.3551 55.5522 94.8105C55.5856 95.2659 55.4218 95.7137 55.1024 96.04L49.8699 101.29L51.3749 102.798C51.9958 103.411 52.994 103.411 53.6149 102.798L60.3524 96.0435C60.6718 95.7172 60.8356 95.2693 60.8022 94.814C60.7687 94.3586 60.5411 93.9395 60.1774 93.6635C59.7874 93.3486 59.4419 92.9825 59.1501 92.575Z" fill="#CAD9FC"/>
<path fill-rule="evenodd" clip-rule="evenodd" d="M77.0876 27.9125L70.3501 34.6501C70.0238 34.9695 69.576 35.1333 69.1206 35.0998C68.6652 35.0664 68.2461 34.8388 67.9701 34.4751C67.6455 34.0929 67.2752 33.752 66.8676 33.4601C65.1335 32.2122 62.8334 32.0825 60.9701 33.1276C59.4607 33.9791 58.4356 35.4867 58.1987 37.2034C57.9618 38.9202 58.5402 40.6491 59.7626 41.8776C59.9112 42.0272 60.069 42.1675 60.2351 42.2976C60.579 42.5964 60.7821 43.0255 60.7954 43.481C60.8087 43.9364 60.6309 44.3766 60.3051 44.6951L53.6201 51.3801C52.9992 51.993 52.001 51.993 51.3801 51.3801L44.6426 44.6426C44.3163 44.3231 43.8685 44.1593 43.4131 44.1928C42.9577 44.2263 42.5386 44.4538 42.2626 44.8176C41.9447 45.205 41.5803 45.5518 41.1776 45.8501C38.8294 47.509 35.6023 47.0962 33.7474 44.8995C31.8925 42.7027 32.0261 39.4521 34.0551 37.4151C34.2037 37.2654 34.3615 37.1251 34.5276 36.9951C34.8753 36.6985 35.0814 36.2687 35.0947 35.8118C35.108 35.355 34.9274 34.9139 34.5976 34.5976L27.9126 27.9125C27.2997 27.2917 27.2997 26.2934 27.9126 25.6726L34.6501 18.935C34.9782 18.6193 35.425 18.458 35.8791 18.4914C36.3332 18.5248 36.7517 18.7497 37.0301 19.1101C37.3523 19.4934 37.7163 19.8397 38.1151 20.1426C39.8497 21.393 42.1546 21.5161 44.0126 20.4576C45.5275 19.6117 46.5588 18.1052 46.7994 16.387C47.0399 14.6687 46.4619 12.9369 45.2376 11.7076L44.7651 11.2875C44.4207 10.989 44.2172 10.5598 44.2039 10.1042C44.1906 9.64857 44.3687 9.20823 44.6951 8.89005L51.3801 2.20505C52.001 1.59213 52.9992 1.59213 53.6201 2.20505L60.3051 8.89005C60.6314 9.20823 60.8096 9.64857 60.7963 10.1042C60.783 10.5598 60.5794 10.989 60.2351 11.2875L59.7626 11.7076C58.5395 12.9357 57.9606 14.6648 58.1975 16.3818C58.4345 18.0989 59.4601 19.6065 60.9701 20.4576C62.8279 21.517 65.1332 21.3939 66.8676 20.1426C67.2798 19.8495 67.6506 19.5022 67.9701 19.1101C68.2485 18.7497 68.6669 18.5248 69.121 18.4914C69.5751 18.458 70.022 18.6193 70.3501 18.935L77.0876 25.6726C77.7005 26.2934 77.7005 27.2917 77.0876 27.9125Z" fill="#E8EDFC"/>
<path fill-rule="evenodd" clip-rule="evenodd" d="M55.055 8.89005C55.3814 9.20823 55.5595 9.64857 55.5462 10.1042C55.5329 10.5598 55.3294 10.9889 54.985 11.2875L54.5125 11.7075C53.2895 12.9357 52.7105 14.6648 52.9475 16.3818C53.1844 18.0988 54.21 19.6065 55.72 20.4575C57.369 21.3952 59.3864 21.4097 61.0487 20.496C61.0242 20.482 60.9963 20.4733 60.97 20.4575C59.46 19.6065 58.4344 18.0988 58.1975 16.3818C57.9605 14.6648 58.5395 12.9357 59.7625 11.7075L60.235 11.2875C60.5794 10.9889 60.7829 10.5598 60.7962 10.1042C60.8095 9.64857 60.6314 9.20823 60.305 8.89005L53.62 2.20505C52.9991 1.59213 52.0009 1.59213 51.38 2.20505L49.875 3.71005L55.055 8.89005Z" fill="#CAD9FC"/>
<path fill-rule="evenodd" clip-rule="evenodd" d="M77.0875 25.6725L70.35 18.935C70.0219 18.6193 69.575 18.458 69.1209 18.4914C68.6668 18.5248 68.2483 18.7497 67.97 19.11C67.6505 19.5021 67.2797 19.8494 66.8675 20.1425C66.7572 20.223 66.6382 20.286 66.5175 20.3578L71.8375 25.6725C72.4504 26.2934 72.4504 27.2916 71.8375 27.9125L66.5122 33.2378C66.6312 33.3113 66.7537 33.3778 66.8622 33.46C67.2699 33.7519 67.6401 34.0928 67.9647 34.475C68.2408 34.8387 68.6598 35.0663 69.1152 35.0998C69.5706 35.1333 70.0184 34.9695 70.3447 34.65L77.0822 27.9125C77.6966 27.2931 77.6989 26.2948 77.0875 25.6725Z" fill="#CAD9FC"/>
<path fill-rule="evenodd" clip-rule="evenodd" d="M60.97 33.1274C60.991 33.1151 61.0138 33.1081 61.0348 33.0976C58.6184 31.7892 55.6078 32.4555 53.9692 34.6613C52.3306 36.867 52.5621 39.9418 54.5125 41.8774C54.6612 42.027 54.819 42.1673 54.985 42.2974C55.3289 42.5962 55.5321 43.0253 55.5454 43.4808C55.5587 43.9362 55.3809 44.3764 55.055 44.6949L49.875 49.8749L51.38 51.3799C52.0009 51.9928 52.9991 51.9928 53.62 51.3799L60.305 44.6949C60.6309 44.3764 60.8087 43.9362 60.7954 43.4808C60.7821 43.0253 60.5789 42.5962 60.235 42.2974C60.069 42.1673 59.9112 42.027 59.7625 41.8774C58.5402 40.6489 57.9617 38.92 58.1986 37.2032C58.4355 35.4865 59.4606 33.9789 60.97 33.1274Z" fill="#CAD9FC"/>
<path fill-rule="evenodd" clip-rule="evenodd" d="M102.795 53.6201L96.1101 60.3051C95.7919 60.6314 95.3516 60.8096 94.896 60.7963C94.4404 60.783 94.0112 60.5794 93.7126 60.2351L93.2926 59.7626C92.0644 58.5395 90.3353 57.9606 88.6183 58.1975C86.9013 58.4345 85.3936 59.4601 84.5426 60.9701C83.4832 62.8279 83.6063 65.1332 84.8576 66.8676C85.1507 67.2798 85.498 67.6506 85.8901 67.9701C86.2504 68.2485 86.4753 68.6669 86.5087 69.121C86.5421 69.5751 86.3808 70.022 86.0651 70.3501L79.3276 77.0876C78.7067 77.7005 77.7085 77.7005 77.0876 77.0876L70.3501 70.3501C70.0306 70.0238 69.8668 69.576 69.9003 69.1206C69.9338 68.6652 70.1614 68.2461 70.5251 67.9701C70.9073 67.6455 71.2482 67.2752 71.5401 66.8676C72.7879 65.1335 72.9176 62.8334 71.8726 60.9701C71.0211 59.4607 69.5135 58.4356 67.7967 58.1987C66.08 57.9618 64.3511 58.5402 63.1226 59.7626C62.9729 59.9112 62.8327 60.069 62.7026 60.2351C62.4037 60.579 61.9746 60.7821 61.5192 60.7954C61.0638 60.8087 60.6235 60.6309 60.3051 60.3051L53.6201 53.6201C53.0072 52.9992 53.0072 52.001 53.6201 51.3801L60.3051 44.6951C60.6309 44.3766 60.8088 43.9364 60.7955 43.481C60.7822 43.0256 60.579 42.5965 60.2351 42.2976C60.069 42.1675 59.9112 42.0272 59.7626 41.8776C58.5402 40.6491 57.9618 38.9202 58.1987 37.2034C58.4356 35.4867 59.4607 33.9791 60.9701 33.1276C62.8334 32.0826 65.1335 32.2122 66.8676 33.4601C67.2752 33.752 67.6455 34.0929 67.9701 34.4751C68.2461 34.8388 68.6652 35.0664 69.1206 35.0999C69.576 35.1333 70.0238 34.9695 70.3501 34.6501L77.0876 27.9126C77.7085 27.2997 78.7067 27.2997 79.3276 27.9126L86.0651 34.6501C86.3914 34.9695 86.8392 35.1333 87.2946 35.0999C87.75 35.0664 88.169 34.8388 88.4451 34.4751C90.1408 32.397 93.0804 31.8297 95.4276 33.1276C96.9405 33.9761 97.9687 35.4842 98.2058 37.2025C98.4429 38.9208 97.8616 40.651 96.6351 41.8776C96.4946 42.0356 96.336 42.1765 96.1626 42.2976C95.8172 42.5966 95.6144 43.0279 95.6044 43.4847C95.5944 43.9415 95.7781 44.3812 96.1101 44.6951L102.795 51.3801C103.408 52.001 103.408 52.9992 102.795 53.6201Z" fill="#C6D8FB"/>
<path fill-rule="evenodd" clip-rule="evenodd" d="M80.815 34.6501C81.1413 34.9695 81.5891 35.1333 82.0445 35.0999C82.4999 35.0664 82.919 34.8388 83.195 34.4751C83.5089 34.0891 83.874 33.7476 84.28 33.4601C84.3973 33.3743 84.5233 33.3061 84.6475 33.2326L79.3275 27.9126C78.7066 27.2997 77.7084 27.2997 77.0875 27.9126L75.5825 29.4176L80.815 34.6501Z" fill="#A4C3FD"/>
<path fill-rule="evenodd" clip-rule="evenodd" d="M102.795 51.3799L96.11 44.6949C95.778 44.381 95.5943 43.9413 95.6043 43.4845C95.6143 43.0277 95.8171 42.5964 96.1625 42.2974C96.3359 42.1763 96.4945 42.0353 96.635 41.8774C98.5854 39.9418 98.8169 36.867 97.1783 34.6613C95.5397 32.4555 92.5291 31.7892 90.1128 33.0976C90.1338 33.1081 90.1565 33.1151 90.1775 33.1274C91.6904 33.9759 92.7186 35.484 92.9557 37.2023C93.1929 38.9206 92.6116 40.6508 91.385 41.8774C91.2445 42.0353 91.0859 42.1763 90.9125 42.2974C90.5671 42.5964 90.3643 43.0277 90.3543 43.4845C90.3443 43.9413 90.528 44.381 90.86 44.6949L97.545 51.3799C98.158 52.0008 98.158 52.999 97.545 53.6199L92.225 58.9381C92.6128 59.168 92.9708 59.4449 93.2908 59.7624L93.7108 60.2349C94.0094 60.5792 94.4386 60.7828 94.8942 60.7961C95.3498 60.8094 95.7901 60.6312 96.1083 60.3049L102.793 53.6199C103.407 52.9995 103.407 52.0012 102.795 51.3799Z" fill="#A4C3FD"/>
<path fill-rule="evenodd" clip-rule="evenodd" d="M84.8575 66.8676C83.6062 65.1332 83.4831 62.8279 84.5425 60.9701C85.0664 60.0647 85.8348 59.3253 86.7598 58.8368C84.1061 57.3865 80.7796 58.3369 79.2925 60.9701C78.2331 62.8279 78.3562 65.1332 79.6075 66.8676C79.9006 67.2798 80.2479 67.6506 80.64 67.9701C81.0003 68.2485 81.2253 68.6669 81.2586 69.121C81.292 69.5751 81.1307 70.022 80.815 70.3501L75.5825 75.5826L77.0875 77.0876C77.7084 77.7005 78.7066 77.7005 79.3275 77.0876L86.065 70.3501C86.3807 70.022 86.542 69.5751 86.5086 69.121C86.4753 68.6669 86.2503 68.2485 85.89 67.9701C85.4979 67.6506 85.1506 67.2798 84.8575 66.8676Z" fill="#A4C3FD"/>
<path fill-rule="evenodd" clip-rule="evenodd" d="M44.0125 20.4575C43.988 20.4715 43.9618 20.4803 43.9355 20.4943C45.5967 21.4096 47.6142 21.3957 49.2625 20.4575C50.7774 19.6117 51.8088 18.1052 52.0493 16.3869C52.2899 14.6687 51.7119 12.9369 50.4875 11.7075L50.015 11.2875C49.6707 10.9889 49.4671 10.5598 49.4538 10.1042C49.4405 9.64857 49.6187 9.20823 49.945 8.89005L55.125 3.71005L53.62 2.20505C52.9992 1.59213 52.0009 1.59213 51.38 2.20505L44.695 8.89005C44.3687 9.20823 44.1905 9.64857 44.2038 10.1042C44.2171 10.5598 44.4207 10.9889 44.765 11.2875L45.2375 11.7075C46.4619 12.9369 47.0399 14.6687 46.7993 16.3869C46.5588 18.1052 45.5274 19.6117 44.0125 20.4575Z" fill="white"/>
<path fill-rule="evenodd" clip-rule="evenodd" d="M33.1626 25.6725L38.4721 20.363C38.3531 20.2895 38.2289 20.2248 38.1221 20.1425C37.7233 19.8396 37.3594 19.4933 37.0371 19.11C36.7588 18.7497 36.3403 18.5248 35.8862 18.4914C35.4321 18.458 34.9852 18.6193 34.6571 18.935L27.9196 25.6725C27.3067 26.2934 27.3067 27.2916 27.9196 27.9125C27.2988 27.2996 26.3005 27.2996 25.6796 27.9125L24.1764 29.4193L19.0051 34.5975C18.6731 34.9114 18.4894 35.3511 18.4994 35.8079C18.5094 36.2647 18.7122 36.6959 19.0576 36.995C19.231 37.1161 19.3896 37.257 19.5301 37.415C20.7532 38.6432 21.3321 40.3723 21.0952 42.0893C20.8582 43.8063 19.8326 45.314 18.3226 46.165C18.2964 46.179 18.2684 46.1878 18.2439 46.2035C20.6627 47.5111 23.6746 46.8443 25.3155 44.638C26.9564 42.4317 26.7283 39.3553 24.7801 37.415C24.6396 37.257 24.481 37.1161 24.3076 36.995C23.9622 36.6959 23.7594 36.2647 23.7494 35.8079C23.7394 35.3511 23.9231 34.9114 24.2551 34.5975L29.4194 29.4193L30.9226 27.9125L33.1626 25.6725Z" fill="white"/>
<path fill-rule="evenodd" clip-rule="evenodd" d="M43.9478 84.5443C44.8727 85.0328 45.6412 85.7722 46.165 86.6776C47.2151 88.5375 47.0923 90.8375 45.85 92.5751C45.5564 92.9817 45.2091 93.3467 44.8175 93.6601C44.4538 93.9361 44.2262 94.3552 44.1927 94.8106C44.1592 95.266 44.3231 95.7138 44.6425 96.0401L51.38 102.795C52.0009 103.408 52.9991 103.408 53.62 102.795L55.125 101.287L49.8925 96.0366C49.5731 95.7103 49.4092 95.2625 49.4427 94.8071C49.4762 94.3517 49.7038 93.9326 50.0675 93.6566C50.4591 93.3432 50.8064 92.9782 51.1 92.5716C52.5908 90.4754 52.4349 87.627 50.7241 85.706C49.0133 83.7851 46.2019 83.3017 43.9478 84.5408V84.5443Z" fill="white"/>
<path fill-rule="evenodd" clip-rule="evenodd" d="M30.9225 77.0876L29.4175 75.5826L24.185 70.3501C23.8588 70.0306 23.4109 69.8668 22.9555 69.9003C22.5001 69.9338 22.0811 70.1613 21.805 70.5251C21.4911 70.9111 21.1261 71.2526 20.72 71.5401C20.6028 71.6258 20.4768 71.6923 20.3525 71.7676L24.1675 75.5826L25.6725 77.0876C26.2934 77.7005 27.2917 77.7005 27.9125 77.0876C27.2996 77.7085 27.2996 78.7067 27.9125 79.3276L34.5975 85.9951C34.9114 86.3271 35.3511 86.5108 35.8079 86.5008C36.2647 86.4908 36.696 86.288 36.995 85.9426C37.1161 85.7692 37.2571 85.6106 37.415 85.4701C37.7376 85.1503 38.0985 84.8716 38.4895 84.6406L33.1625 79.3276L30.9225 77.0876Z" fill="white"/>
<path fill-rule="evenodd" clip-rule="evenodd" d="M8.89005 60.305C9.22206 60.6189 9.40578 61.0587 9.39578 61.5155C9.38577 61.9722 9.18298 62.4035 8.83755 62.7026C8.66418 62.8236 8.5056 62.9646 8.36505 63.1226C6.41666 65.0582 6.18593 68.1311 7.82343 70.336C9.46093 72.5408 12.4694 73.2081 14.8855 71.9023C14.8663 71.8918 14.8436 71.8848 14.8226 71.8726C13.3097 71.024 12.2815 69.5159 12.0444 67.7976C11.8072 66.0793 12.3885 64.3491 13.6151 63.1226C13.7556 62.9646 13.9142 62.8236 14.0876 62.7026C14.433 62.4035 14.6358 61.9722 14.6458 61.5155C14.6558 61.0587 14.4721 60.6189 14.14 60.305L7.45505 53.62C6.84213 52.9992 6.84213 52.0009 7.45505 51.3801L12.7751 46.0706C12.6578 45.9971 12.5336 45.9323 12.425 45.8501C12.0184 45.5564 11.6535 45.2091 11.34 44.8176C11.064 44.4538 10.645 44.2262 10.1896 44.1928C9.73416 44.1593 9.28633 44.3231 8.96005 44.6426L2.20505 51.3801C1.59213 52.0009 1.59213 52.9992 2.20505 53.62L8.89005 60.305Z" fill="white"/>
<path d="M88.8773 59.9286C90.0449 59.7712 91.2191 60.168 92.0518 61.0014C92.1537 61.1036 92.2501 61.2111 92.3406 61.3234C92.9212 62.0517 93.7853 62.4974 94.7153 62.5484C95.6926 62.5994 96.646 62.2352 97.3403 61.5456L104.025 54.8606C104.651 54.2368 105.003 53.3896 105.003 52.506C105.003 51.6225 104.651 50.7752 104.025 50.1514L97.4086 43.5609C97.5696 43.4261 97.7253 43.2826 97.8811 43.1286C99.4893 41.5293 100.254 39.2684 99.9478 37.0211C99.616 34.4849 97.9768 32.3091 95.6305 31.2905C93.2842 30.2718 90.5754 30.56 88.4958 32.0494C88.0042 32.4086 87.5566 32.8245 87.1623 33.2884L80.5596 26.6856C80.169 26.3041 79.6869 26.0293 79.1596 25.8876C79.0103 25.3452 78.7248 24.85 78.3301 24.4491L71.5908 17.7116C70.9387 17.0451 70.0297 16.694 69.0988 16.7491C68.1284 16.8017 67.2255 17.2627 66.6138 18.0179C66.3906 18.2887 66.1336 18.5298 65.8491 18.7354C64.6754 19.5779 63.1196 19.6633 61.8608 18.9541C60.8201 18.3779 60.1096 17.3472 59.9412 16.1696C59.7728 14.992 60.1659 13.8035 61.0033 12.9586C61.1078 12.8556 61.2177 12.758 61.3323 12.6664C62.0601 12.0853 62.5057 11.2215 62.5573 10.2916C62.6128 9.31367 62.248 8.35855 61.5546 7.66665L54.8573 0.976397C53.5386 -0.282497 51.4633 -0.282497 50.1446 0.976397L43.4613 7.6579C42.7687 8.3503 42.404 9.30506 42.4586 10.2829C42.5075 11.2097 42.9485 12.072 43.6713 12.6541C43.7868 12.7469 43.8971 12.8449 44.0003 12.9464C44.8393 13.7911 45.2337 14.9803 45.0655 16.1589C44.8974 17.3375 44.1863 18.369 43.1446 18.9454C41.8849 19.6551 40.3276 19.5684 39.1546 18.7231C38.8719 18.5174 38.6156 18.2776 38.3916 18.0091C37.7807 17.2538 36.8783 16.7928 35.9083 16.7404C34.9781 16.6837 34.0692 17.0343 33.4181 17.7011L26.6771 24.4404C26.2824 24.8413 25.9968 25.3365 25.8476 25.8789C25.3202 26.0203 24.838 26.2952 24.4476 26.6769L17.7626 33.3584C17.0705 34.0512 16.7059 35.0057 16.7598 35.9834C16.8079 36.9099 17.2499 37.7716 17.9743 38.3511C18.0883 38.4423 18.1969 38.5399 18.2998 38.6434C19.139 39.4881 19.5336 40.6774 19.3658 41.8562C19.198 43.0351 18.4873 44.0671 17.4458 44.6441C16.1856 45.3525 14.6288 45.2651 13.4558 44.4201C13.1723 44.2154 12.916 43.9754 12.6928 43.7061C12.0808 42.9513 11.1782 42.4904 10.2078 42.4374C9.27807 42.3805 8.36962 42.7312 7.71932 43.3981L0.97657 50.1444C-0.322919 51.4459 -0.322919 53.5539 0.97657 54.8554L7.59332 61.4459C7.43232 61.5806 7.27657 61.7241 7.12082 61.8781C5.51415 63.477 4.74923 65.7361 5.05407 67.9821C5.38433 70.5181 7.02192 72.6944 9.3672 73.7141C11.7125 74.7338 14.4209 74.4472 16.5008 72.9592C16.9953 72.6008 17.4447 72.1842 17.8396 71.7184L24.4423 78.3212C24.837 78.7107 25.3232 78.9947 25.8563 79.1471C26.0072 79.6787 26.2894 80.1638 26.6771 80.5576L33.3603 87.2426C34.0517 87.9368 35.0074 88.3012 35.9853 88.2436C36.915 88.1931 37.7787 87.7472 38.3583 87.0186C38.4489 86.9063 38.5453 86.7989 38.6471 86.6966C39.4909 85.8567 40.68 85.4613 41.8588 85.6288C43.0376 85.7962 44.0696 86.5071 44.6461 87.5489C45.3553 88.8091 45.2693 90.3662 44.4256 91.5406C44.2202 91.8242 43.9797 92.0806 43.7098 92.3036C42.955 92.9149 42.4941 93.8171 42.4411 94.7869C42.3899 95.7163 42.7397 96.623 43.4018 97.2771L50.1393 104.016C50.7633 104.643 51.6113 104.996 52.4957 104.996C53.3801 104.996 54.2281 104.643 54.8521 104.016L61.6001 97.2841C62.261 96.6293 62.61 95.7229 62.5591 94.7939C62.506 93.8241 62.0451 92.9219 61.2903 92.3106C61.0203 92.0866 60.7792 91.8297 60.5728 91.5459C59.7295 90.3718 59.6442 88.8151 60.3541 87.5559C60.9372 86.502 61.9861 85.7876 63.1803 85.6309C64.3478 85.4696 65.5231 85.867 66.3531 86.7036C66.4553 86.806 66.5517 86.9141 66.6418 87.0274C67.2219 87.7555 68.0853 88.2012 69.0148 88.2524C69.993 88.309 70.9485 87.944 71.6398 87.2496L78.3231 80.5664C78.7107 80.1726 78.993 79.6875 79.1438 79.1559C79.6766 79.0038 80.1623 78.7197 80.5561 78.3299L87.2988 71.5749C87.9603 70.9189 88.3099 70.0114 88.2596 69.0811C88.2038 68.1126 87.7426 67.2124 86.9891 66.6014C86.7192 66.3777 86.4787 66.1207 86.2733 65.8366C85.4292 64.6629 85.3438 63.1057 86.0546 61.8466C86.6376 60.7954 87.6852 60.0835 88.8773 59.9286ZM35.7561 20.3139C36.1502 20.7787 36.5984 21.1946 37.0913 21.5529C40.1767 23.7489 44.4301 23.2148 46.8767 20.324C49.3233 17.4333 49.1471 13.1501 46.4713 10.4701C46.3243 10.3231 46.1738 10.1866 46.0163 10.0536L52.5001 3.5699L58.9996 10.0449C58.8386 10.1814 58.6811 10.3249 58.5253 10.4789C56.9187 12.0777 56.1537 14.3369 56.4586 16.5829C56.7914 19.1161 58.4288 21.289 60.7721 22.3073C63.1154 23.3255 65.8211 23.0398 67.9001 21.5546C68.3945 21.1963 68.844 20.7797 69.2388 20.3139L75.7226 26.7976L69.2388 33.2814C68.8447 32.8155 68.3958 32.3989 67.9018 32.0406C64.816 29.8444 60.5621 30.3789 58.1157 33.2704C55.6692 36.1619 55.8466 40.4457 58.5236 43.1251C58.6706 43.2721 58.8211 43.4086 58.9786 43.5416L52.5036 50.0166L45.8816 43.3999C45.2692 42.779 44.4331 42.4303 43.5611 42.4321C43.5033 42.4321 43.4473 42.4321 43.3861 42.4321C42.4168 42.4843 41.5148 42.9439 40.9028 43.6974C40.6786 43.9684 40.4211 44.2101 40.1363 44.4166C38.9623 45.2596 37.4061 45.3456 36.1463 44.6371C35.105 44.0592 34.3949 43.0264 34.2281 41.8471C34.0614 40.6679 34.4573 39.4787 35.2976 38.6346C35.3981 38.5335 35.5045 38.4382 35.6161 38.3494C36.3444 37.7688 36.7901 36.9047 36.8411 35.9746C36.8948 34.9969 36.5302 34.0425 35.8383 33.3496L29.2741 26.7854L35.7561 20.3139ZM20.1811 69.1091C19.5279 68.4442 18.6196 68.0934 17.6891 68.1467C16.7182 68.1992 15.8152 68.6609 15.2041 69.4171C14.9803 69.687 14.7234 69.9275 14.4393 70.1329C13.2657 70.9754 11.7098 71.0608 10.4511 70.3516C9.41038 69.7754 8.69985 68.7447 8.53143 67.5671C8.363 66.3895 8.75613 65.201 9.59357 64.3561C9.69825 64.2533 9.80805 64.1557 9.92257 64.0639C10.6466 63.4825 11.0884 62.6199 11.1371 61.6926C11.1926 60.715 10.8284 59.7601 10.1361 59.0676L3.57007 52.4999L10.0538 46.0249C10.4487 46.4847 10.897 46.896 11.3891 47.2499C14.4725 49.4532 18.7304 48.9238 21.1804 46.0325C23.6304 43.1412 23.4538 38.8542 20.7743 36.1741C20.6273 36.0254 20.4733 35.8854 20.3141 35.7506L26.7978 29.2756L33.2956 35.7506C33.1346 35.8889 32.9753 36.0341 32.8248 36.1846C31.2175 37.7831 30.4519 40.0423 30.7563 42.2886C31.0907 44.823 32.7307 46.9959 35.0763 48.0122C37.4219 49.0285 40.1288 48.7391 42.2066 47.2499C42.6988 46.8908 43.147 46.4749 43.5418 46.0109L50.0168 52.4859L43.5418 58.9609C43.1443 58.5064 42.695 58.1 42.2031 57.7499C39.1191 55.551 34.8645 56.0828 32.4167 58.9731C29.9688 61.8634 30.1447 66.1475 32.8213 68.8274C32.9683 68.9762 33.1223 69.1161 33.2816 69.2509L26.8066 75.7259L20.1811 69.1091ZM69.2563 84.6999C69.1216 84.5371 68.9763 84.3796 68.8241 84.2274C67.2274 82.6172 64.9667 81.8512 62.7201 82.1589C60.1838 82.4886 58.007 84.126 56.9869 86.4714C55.9668 88.8167 56.2532 91.5255 57.7413 93.6056C58.1006 94.0998 58.5178 94.5493 58.9838 94.9444L52.5001 101.43L46.0251 94.9549C46.486 94.5565 46.8973 94.1041 47.2501 93.6074C49.4495 90.5227 48.9168 86.2669 46.0249 83.8194C43.1331 81.3719 38.8478 81.5501 36.1691 84.2291C36.0221 84.3761 35.8821 84.5284 35.7491 84.6859L29.2741 78.2021L35.8383 71.6396C36.5296 70.9464 36.8941 69.9922 36.8411 69.0146C36.7924 68.0873 36.3506 67.2248 35.6266 66.6434C35.5126 66.5522 35.404 66.4546 35.3011 66.3512C34.4616 65.5072 34.0665 64.3185 34.2335 63.14C34.4006 61.9615 35.1106 60.9295 36.1516 60.3521C37.4107 59.6418 38.9677 59.7272 40.1416 60.5709C40.4258 60.7774 40.6833 61.0184 40.9081 61.2884C41.5196 62.0438 42.4226 62.5048 43.3931 62.5571C44.3226 62.6126 45.2305 62.2621 45.8816 61.5964L52.5001 54.9744L59.0643 61.5404C59.7611 62.226 60.7129 62.589 61.6893 62.5414C62.616 62.4922 63.4778 62.0505 64.0588 61.3269C64.1495 61.2131 64.2465 61.1044 64.3493 61.0014C65.1928 60.1614 66.3817 59.766 67.5603 59.9335C68.7388 60.101 69.7705 60.8119 70.3466 61.8536C71.0569 63.1111 70.9729 64.6665 70.1313 65.8401C69.9247 66.1254 69.6831 66.3835 69.4121 66.6084C68.658 67.2203 68.1972 68.122 68.1433 69.0916C68.0951 70.0191 68.4461 70.923 69.1076 71.5749L75.7278 78.1951L69.2563 84.6999ZM83.4453 67.8999C83.8042 68.3934 84.2207 68.8423 84.6861 69.2369L78.2023 75.7119L71.7273 69.2369C72.193 68.8419 72.6096 68.3925 72.9681 67.8981C75.1675 64.8134 74.6348 60.5576 71.7429 58.1101C68.8511 55.6626 64.5658 55.8408 61.8871 58.5199C61.7401 58.6669 61.6001 58.8191 61.4671 58.9766L54.9921 52.5016L61.5563 45.9391C62.249 45.2467 62.6137 44.292 62.5591 43.3141C62.5102 42.3873 62.0692 41.525 61.3463 40.9429C61.2308 40.8501 61.1206 40.7521 61.0173 40.6506C60.1782 39.8062 59.7836 38.6172 59.9513 37.4386C60.1191 36.26 60.8299 35.2283 61.8713 34.6516C63.1315 33.9416 64.6895 34.0283 65.8631 34.8739C66.147 35.0781 66.4035 35.3181 66.6261 35.5879C67.2369 36.3432 68.1393 36.8043 69.1093 36.8566C70.0307 36.8989 70.9268 36.5485 71.5751 35.8924L78.1953 29.2739L84.8138 35.8906C85.4671 36.5554 86.3753 36.9062 87.3058 36.8531C88.2752 36.7999 89.177 36.3398 89.7891 35.5861C90.0123 35.3153 90.2693 35.0742 90.5538 34.8686C91.7265 34.0238 93.2834 33.9378 94.5421 34.6481C95.583 35.2241 96.2939 36.2546 96.4627 37.4322C96.6315 38.6098 96.2386 39.7985 95.4013 40.6436C95.297 40.7469 95.1871 40.8444 95.0723 40.9359C94.3483 41.5173 93.9065 42.3798 93.8578 43.3071C93.8019 44.2849 94.1661 45.2399 94.8588 45.9321L101.43 52.4999L94.9551 58.9994C94.8186 58.8366 94.6733 58.6791 94.5211 58.5269C91.8428 55.8437 87.554 55.6637 84.6603 58.1132C81.7667 60.5627 81.2359 64.8223 83.4401 67.9069L83.4453 67.8999Z" fill="#2260EA"/>
</svg>
