<svg width="105" height="83" viewBox="0 0 105 83" fill="none" xmlns="http://www.w3.org/2000/svg">
<path d="M10.5 30.0292H5.97462C5.51079 30.0292 5.06538 29.845 4.73774 29.5165L2.26238 27.042C1.93474 26.7135 1.75049 26.2689 1.75049 25.8043V13.2545C1.75049 12.7898 1.93474 12.3452 2.26238 12.0168L4.73774 9.54224C5.06538 9.21379 5.51079 9.02954 5.97462 9.02954H10.5V30.0292Z" fill="#CAD9FC"/>
<path d="M89.2496 7.27911V40.529H22.085L29.7498 5.52954H87.5001C88.4654 5.53194 89.2472 6.3138 89.2496 7.27911Z" fill="#7FACFA"/>
<path d="M84.0001 7.27911V40.529H22.085L29.7498 5.52954H82.2498C83.2151 5.53194 83.9969 6.3138 84.0001 7.27911Z" fill="#A4C2F7"/>
<path d="M98.0002 27.7366V38.7796H85.75V16.0295C85.7484 15.3831 86.1057 14.7902 86.6777 14.489C86.9284 14.3488 87.212 14.2759 87.5004 14.2792H91.1229C92.0385 14.2816 92.7956 14.9929 92.8548 15.907L93.398 23.6591C93.434 24.3392 93.865 24.9352 94.5003 25.1819L96.8803 26.092C97.5596 26.3531 98.0066 27.0084 98.0002 27.7366Z" fill="#CAD9FC"/>
<path d="M92.7499 27.7366V38.7796H85.75V16.0295C85.7484 15.383 86.1057 14.7902 86.6777 14.489C87.2168 14.7638 87.5693 15.3029 87.6053 15.9069L88.1477 23.659C88.1837 24.3392 88.6155 24.9352 89.2499 25.1819L91.63 26.0919C92.3101 26.3531 92.7563 27.0084 92.7499 27.7366Z" fill="#E8EDFC"/>
<path d="M103.25 73.7791V79.0294C103.247 79.9947 102.466 80.7766 101.5 80.7798H7.00006C6.03475 80.7766 5.25289 79.9947 5.25049 79.0294V73.7791C5.25289 72.8138 6.03475 72.0319 7.00006 72.0295H7.38538C8.19048 72.0319 8.89223 71.4824 9.08289 70.6997L10.4479 65.2395C10.4824 65.1017 10.5 64.9607 10.5 64.8197V59.7793H28.0005L31.5005 68.5296H76.9998L82.2501 59.7793H98.0003V64.8197C98.0003 64.9607 98.0179 65.1017 98.0523 65.2395L99.4174 70.6997C99.6081 71.4824 100.31 72.0319 101.115 72.0295H101.5C102.466 72.0319 103.247 72.8138 103.25 73.7791Z" fill="#CAD9FC"/>
<path d="M98.0003 73.7791V79.0294C97.9971 79.9947 97.2152 80.7766 96.2499 80.7798H7.00006C6.03475 80.7766 5.25289 79.9947 5.25049 79.0294V73.7791C5.25289 72.8138 6.03475 72.0319 7.00006 72.0295H7.38538C8.19048 72.0319 8.89223 71.4824 9.08289 70.6997L10.4479 65.2395C10.4824 65.1017 10.5 64.9607 10.5 64.8197V59.7793H28.0005L31.5005 68.5296H76.9998L82.2501 59.7793H92.75V64.8197C92.7508 64.9607 92.7684 65.1017 92.8028 65.2395L94.1679 70.6997C94.3577 71.4824 95.0595 72.0319 95.8654 72.0295H96.2499C97.2152 72.0319 97.9971 72.8138 98.0003 73.7791Z" fill="#E8EDFC"/>
<path d="M98.0003 51.0289V59.7792H10.5001L8.75049 51.0289L39.5154 48.4045H67.2354L98.0003 51.0289Z" fill="#CAD9FC"/>
<path d="M92.75 51.0289V59.7792H10.5001L8.75049 51.0289L39.5154 48.4045H61.9851L92.75 51.0289Z" fill="#E8EDFC"/>
<path d="M8.75049 37.0291H98.0003V51.0288H8.75049V37.0291Z" fill="#CAD9FC"/>
<path d="M8.75049 37.0291H92.75V51.0288H8.75049V37.0291Z" fill="#E8EDFC"/>
<path d="M29.7502 3.77936V37.0293H8.75049V3.77936C8.75289 2.81405 9.53475 2.03219 10.5001 2.02979H28.0006C28.9659 2.03219 29.7478 2.81405 29.7502 3.77936Z" fill="#CAD9FC"/>
<path d="M24.4998 3.77936V37.0293H8.75049V3.77936C8.75289 2.81405 9.53475 2.03219 10.5001 2.02979H22.7503C23.7156 2.03219 24.4974 2.81405 24.4998 3.77936Z" fill="#E8EDFC"/>
<path d="M22.7499 24.779C22.7499 26.712 21.183 28.2797 19.2499 28.2797C17.3169 28.2797 15.75 26.712 15.75 24.779C15.75 22.8468 17.3169 21.2791 19.2499 21.2791C21.183 21.2791 22.7499 22.8468 22.7499 24.779Z" fill="#E8EDFC"/>
<path d="M42.0002 16.7465V22.3116C41.9962 22.7706 41.8144 23.2096 41.4923 23.5365L39.0074 26.0214C38.6805 26.3435 38.2415 26.5261 37.7825 26.5293H29.75V12.5295H37.7825C38.2415 12.5327 38.6805 12.7146 39.0074 13.0366L41.4923 15.5216C41.8144 15.8484 41.9962 16.2882 42.0002 16.7465Z" fill="#E8EDFC"/>
<path d="M36.7499 16.7465V22.3116C36.7467 22.7706 36.5648 23.2096 36.2428 23.5365L33.7578 26.0214C33.431 26.3435 32.9912 26.5261 32.5322 26.5293H29.75V12.5295H32.5322C32.9912 12.5327 33.431 12.7146 33.7578 13.0366L36.2428 15.5216C36.5648 15.8484 36.7467 16.2882 36.7499 16.7465Z" fill="white"/>
<path d="M54.2505 30.0293H71.7502V49.2794C71.7502 50.2455 70.9668 51.029 69.9998 51.029H56.0001C55.034 51.029 54.2505 50.2455 54.2505 49.2794V30.0293Z" fill="#CAD9FC"/>
<path d="M66.4999 40.529C66.4999 42.462 64.933 44.0289 62.9999 44.0289C61.0669 44.0289 59.5 42.462 59.5 40.529C59.5 38.596 61.0669 37.0291 62.9999 37.0291C64.933 37.0291 66.4999 38.596 66.4999 40.529Z" fill="#E8EDFC"/>
<path d="M68.2503 30.0293H57.7505V23.9659C57.7505 23.3811 58.0429 22.8347 58.5291 22.5095L62.0291 19.8235C62.6171 19.4309 63.3829 19.4309 63.9709 19.8235L67.4709 22.5095C67.9579 22.8347 68.2503 23.3811 68.2503 23.9659V30.0293Z" fill="#E8EDFC"/>
<path d="M10.5 2.02979C9.53465 2.03219 8.75278 2.81405 8.75038 3.77936V9.02968H5.97462C5.51079 9.02968 5.06538 9.21393 4.73774 9.54237L2.26238 12.0169C1.93474 12.3454 1.75049 12.79 1.75049 13.2546V25.8044C1.75049 26.2691 1.93474 26.7137 2.26238 27.0421L4.73774 29.5167C5.06538 29.8451 5.51079 30.0294 5.97462 30.0294H8.75038V51.029L10.5 59.7793V64.8197C10.5 64.9607 10.4823 65.1017 10.4479 65.2395L9.08283 70.6997C8.89217 71.4824 8.19042 72.0319 7.38533 72.0295H7.00001C6.0347 72.0319 5.25284 72.8138 5.25043 73.7791V79.0294C5.25284 79.9947 6.0347 80.7766 7.00001 80.7798H12.2503C11.285 80.7766 10.5032 79.9947 10.5 79.0294V73.7791C10.5032 72.8138 11.285 72.0319 12.2503 72.0295H12.6348C13.4407 72.0319 14.1425 71.4824 14.3324 70.6997L15.6974 65.2395C15.7327 65.1017 15.7503 64.9607 15.7503 64.8197V59.7793L13.9999 51.029V37.0293H8.75038C8.28575 37.0293 10.3157 29.8451 9.98726 29.5167L7.5127 27.0421C7.18426 26.7137 7.00001 26.2691 7.00001 25.8044V13.2546C7.00001 12.79 7.18426 12.3454 7.5127 12.0169L9.98726 9.54237" fill="white"/>
<path d="M75.2501 70.279H31.5004C30.5335 70.279 29.75 69.4955 29.75 68.5294C29.75 67.5625 30.5335 66.7791 31.5004 66.7791H75.2501C76.2162 66.7791 76.9997 67.5625 76.9997 68.5294C76.9997 69.4955 76.2162 70.279 75.2501 70.279Z" fill="#2260EA"/>
<path d="M5.25049 79.0293H101.5V82.5292H5.25049V79.0293Z" fill="white"/>
<path d="M14 80.7797C13.9976 79.8144 13.2157 79.0317 12.2504 79.0293H5.25049V82.5292H12.2504C13.2157 82.5268 13.9976 81.745 14 80.7797Z" fill="#2260EA"/>
<path d="M101.5 82.5292V79.0293H26.2499C25.2838 79.0293 24.4995 79.8128 24.4995 80.7797C24.4995 81.7458 25.2838 82.5292 26.2499 82.5292H101.5Z" fill="#2260EA"/>
<path d="M19.2499 79.0294C18.7869 79.0366 18.3431 79.2176 18.0074 79.5373L17.7975 79.7992C17.731 79.897 17.6782 80.0027 17.6397 80.1141C17.5892 80.2134 17.554 80.3199 17.5348 80.4297C17.5147 80.5451 17.5035 80.662 17.4995 80.7798C17.5059 81.2428 17.6878 81.6866 18.0074 82.0223C18.4168 82.4468 19.0144 82.6327 19.5919 82.5157C20.1703 82.3988 20.6478 81.995 20.8601 81.4447C20.9498 81.234 20.9971 81.0081 20.9995 80.7798C21.0043 80.3135 20.8216 79.8657 20.4924 79.5365C20.1631 79.2072 19.7153 79.0246 19.2499 79.0294Z" fill="#2260EA"/>
<path d="M5.25043 82.5292C3.31821 82.5268 1.75209 80.9614 1.75049 79.0292V73.7789C1.75209 71.8475 3.31821 70.2814 5.25043 70.279H5.63335L7.00001 64.8147V59.7791C7.00001 58.813 7.78347 58.0295 8.75038 58.0295H28.0005C28.7159 58.0295 29.3591 58.4645 29.6251 59.1286L33.125 67.8789C33.3574 68.4597 33.2628 69.1198 32.8759 69.6116C32.489 70.1027 31.8697 70.3511 31.2505 70.2621C30.6321 70.1724 30.1073 69.7598 29.875 69.1799L26.8157 61.5295H10.5V64.8139C10.5008 65.1047 10.4647 65.3939 10.3926 65.6751L9.02836 71.1281C8.64143 72.6878 7.24033 73.7813 5.63335 73.7789H5.25043V79.0292C6.21655 79.0292 7.00001 79.8127 7.00001 80.7796C7.00001 81.7457 6.21655 82.5292 5.25043 82.5292Z" fill="#2260EA"/>
<path d="M101.5 82.5292C100.533 82.5292 99.7498 81.7457 99.7498 80.7796C99.7498 79.8127 100.533 79.0292 101.5 79.0292V73.7789H101.117C99.5111 73.7813 98.11 72.6878 97.7222 71.1289L96.3572 65.6623C96.2859 65.3851 96.2499 65.0999 96.2499 64.8139V61.5295H81.4914L76.7506 69.4298C76.431 69.9705 75.8462 70.299 75.2181 70.2902C74.5901 70.2806 74.0149 69.9353 73.7113 69.3857C73.4077 68.8354 73.4229 68.1649 73.7497 67.629L79.0001 58.8787C79.3157 58.3516 79.8853 58.0287 80.5005 58.0295H98.0002C98.9663 58.0295 99.7498 58.813 99.7498 59.7791V64.8139L101.115 70.2798L101.5 70.279C103.432 70.2814 104.998 71.8475 105 73.7789V79.0292C104.998 80.9614 103.432 82.5268 101.5 82.5292Z" fill="#2260EA"/>
<path d="M98.0001 61.5295H10.4998C9.66586 61.5295 8.94808 60.9407 8.78386 60.1228L7.03429 51.3725C6.93095 50.859 7.06393 50.3255 7.39638 49.9202C7.72883 49.514 8.2255 49.2793 8.75021 49.2793H98.0001C98.9662 49.2793 99.7496 50.0628 99.7496 51.0289V59.7791C99.7496 60.746 98.9662 61.5295 98.0001 61.5295ZM11.9337 58.0296H96.2497V52.7792H10.8851L11.9337 58.0296Z" fill="#2260EA"/>
<path d="M98.0002 52.7793H8.75037C7.78346 52.7793 7 51.9958 7 51.0289V37.0291C7 36.063 7.78346 35.2795 8.75037 35.2795H54.2505C55.2166 35.2795 56.0001 36.063 56.0001 37.0291C56.0001 37.996 55.2166 38.7795 54.2505 38.7795H10.4999V49.2793H96.2498V38.7795H71.7502C70.7833 38.7795 69.9998 37.996 69.9998 37.0291C69.9998 36.063 70.7833 35.2795 71.7502 35.2795H98.0002C98.9663 35.2795 99.7498 36.063 99.7498 37.0291V51.0289C99.7498 51.9958 98.9663 52.7793 98.0002 52.7793Z" fill="#2260EA"/>
<path d="M71.7501 52.7794H54.2504C53.2835 52.7794 52.5 51.9959 52.5 51.029V30.0294C52.5 29.0632 53.2835 28.2798 54.2504 28.2798H71.7501C72.7162 28.2798 73.4997 29.0632 73.4997 30.0294V51.029C73.4997 51.9959 72.7162 52.7794 71.7501 52.7794ZM55.9999 49.2795H69.9997V31.7797H55.9999V49.2795Z" fill="#2260EA"/>
<path d="M75.25 31.7797H50.7496C49.7835 31.7797 49 30.9963 49 30.0294C49 29.0632 49.7835 28.2798 50.7496 28.2798H75.25C76.2161 28.2798 76.9996 29.0632 76.9996 30.0294C76.9996 30.9963 76.2161 31.7797 75.25 31.7797Z" fill="#2260EA"/>
<path d="M63 45.7794C60.1009 45.7794 57.7505 43.429 57.7505 40.5291C57.7505 37.6299 60.1009 35.2795 63 35.2795C65.8999 35.2795 68.2503 37.6299 68.2503 40.5291C68.2471 43.4274 65.8983 45.7762 63 45.7794ZM63 38.7795C62.0339 38.7795 61.2504 39.563 61.2504 40.5291C61.2504 41.496 62.0339 42.2794 63 42.2794C63.9669 42.2794 64.7504 41.496 64.7504 40.5291C64.7496 39.563 63.9661 38.7803 63 38.7795Z" fill="#2260EA"/>
<path d="M19.2503 30.0291C16.3504 30.0291 14 27.6787 14 24.7788C14 21.8797 16.3504 19.5293 19.2503 19.5293C22.1495 19.5293 24.4998 21.8797 24.4998 24.7788C24.4974 27.6771 22.1487 30.0259 19.2503 30.0291ZM19.2503 23.0292C18.2834 23.0292 17.4999 23.8127 17.4999 24.7788C17.4999 25.7457 18.2834 26.5292 19.2503 26.5292C20.2164 26.5292 20.9999 25.7457 20.9999 24.7788C20.9991 23.8127 20.2164 23.03 19.2503 23.0292Z" fill="#2260EA"/>
<path d="M85.7497 45.7795H71.7499C70.783 45.7795 69.9995 44.996 69.9995 44.0291C69.9995 43.063 70.783 42.2795 71.7499 42.2795H85.7497C86.7166 42.2795 87.5 43.063 87.5 44.0291C87.5 44.996 86.7166 45.7795 85.7497 45.7795Z" fill="#2260EA"/>
<path d="M54.2505 45.7795H38.5004C37.5335 45.7795 36.75 44.996 36.75 44.0291C36.75 43.063 37.5335 42.2795 38.5004 42.2795H54.2505C55.2166 42.2795 56.0001 43.063 56.0001 44.0291C56.0001 44.996 55.2166 45.7795 54.2505 45.7795Z" fill="#2260EA"/>
<path d="M29.7501 38.7795H8.75037C7.78346 38.7795 7 37.996 7 37.0291V3.77924C7.0024 1.84702 8.56773 0.2817 10.4999 0.279297H28.0005C29.9319 0.2817 31.498 1.84702 31.5004 3.77924V37.0291C31.5004 37.996 30.717 38.7795 29.7501 38.7795ZM10.4999 35.2796H28.0005V3.77924H10.4999V35.2796Z" fill="#2260EA"/>
<path d="M20.9995 10.7792H17.4996C16.5335 10.7792 15.75 9.99578 15.75 9.02967C15.75 8.06276 16.5335 7.2793 17.4996 7.2793H20.9995C21.9664 7.2793 22.7499 8.06276 22.7499 9.02967C22.7499 9.99578 21.9664 10.7792 20.9995 10.7792Z" fill="#2260EA"/>
<path d="M20.9995 16.0295H17.4996C16.5335 16.0295 15.75 15.246 15.75 14.2791C15.75 13.313 16.5335 12.5295 17.4996 12.5295H20.9995C21.9664 12.5295 22.7499 13.313 22.7499 14.2791C22.7499 15.246 21.9664 16.0295 20.9995 16.0295Z" fill="#2260EA"/>
<path d="M68.2502 31.7796H57.7504C56.7835 31.7796 56 30.9962 56 30.0292V23.9658C55.9984 22.7954 56.584 21.702 57.5589 21.0539L60.9643 18.4343C62.1499 17.5956 63.7281 17.5683 64.9417 18.367L68.5354 21.122C69.463 21.77 70.011 22.8347 69.9998 23.9658V30.0292C69.9998 30.9962 69.2163 31.7796 68.2502 31.7796ZM59.5272 28.2797H66.4998V23.9658L62.9999 21.2846L59.5961 23.8985L59.5272 28.2797Z" fill="#2260EA"/>
<path d="M8.75028 31.7797H5.97451C5.04686 31.7765 4.15765 31.4088 3.49996 30.7543L1.0254 28.2798C0.366909 27.6245 -0.00239161 26.7337 1.16566e-05 25.8044V13.2538C-0.00239161 12.3253 0.366909 11.4345 1.0254 10.7792L3.49996 8.30469C4.15765 7.6502 5.04686 7.2817 5.97451 7.2793H8.75028C9.71639 7.2793 10.4999 8.06276 10.4999 9.02967V30.0294C10.4999 30.9963 9.71639 31.7797 8.75028 31.7797ZM5.97451 10.7792L3.49996 13.2538V25.8044L5.97451 28.2798H6.99991V10.7792H5.97451Z" fill="#2260EA"/>
<path d="M37.7753 28.2796H29.7501C28.784 28.2796 28.0005 27.4953 28.0005 26.5292V12.5294C28.0005 11.5625 28.784 10.7791 29.7501 10.7791H37.7753C38.703 10.7815 39.5922 11.15 40.2499 11.8044L43.2372 14.7917C43.5656 15.1201 43.7498 15.5647 43.7498 16.0294V23.0293C43.7498 23.4931 43.5656 23.9385 43.2372 24.2661L40.2499 27.2542C39.5922 27.9079 38.703 28.2764 37.7753 28.2796ZM31.5004 24.7788H37.7753L40.2499 22.3043V16.7536L37.7753 14.279H31.5004V24.7788Z" fill="#2260EA"/>
<path d="M45.5003 17.779H42.0004C41.0335 17.779 40.25 16.9955 40.25 16.0294C40.25 15.0625 41.0335 14.2791 42.0004 14.2791H45.5003C46.4664 14.2791 47.2499 15.0625 47.2499 16.0294C47.2499 16.9955 46.4664 17.779 45.5003 17.779Z" fill="#2260EA"/>
<path d="M45.5003 24.779H42.0004C41.0335 24.779 40.25 23.9955 40.25 23.0294C40.25 22.0625 41.0335 21.2791 42.0004 21.2791H45.5003C46.4664 21.2791 47.2499 22.0625 47.2499 23.0294C47.2499 23.9955 46.4664 24.779 45.5003 24.779Z" fill="#2260EA"/>
<path d="M98.0003 38.7795H85.7501C84.784 38.7795 84.0005 37.9961 84.0005 37.0292V16.0295C84.0021 14.0973 85.5682 12.5319 87.5004 12.5295H91.1165C92.9542 12.5351 94.4763 13.9563 94.6077 15.7892L95.138 23.5477L97.5116 24.4641C98.8566 24.9904 99.7442 26.285 99.7498 27.7302V37.0292C99.7498 37.9961 98.9664 38.7795 98.0003 38.7795ZM87.5004 35.2796H96.2499V27.7302L93.8763 26.8137C92.6098 26.321 91.7406 25.1418 91.6445 23.7864L91.1149 16.0295H87.5004V35.2796Z" fill="#2260EA"/>
<path d="M89.25 16.0295C88.2838 16.0295 87.5004 15.246 87.5004 14.2791V7.27924H29.7501C28.784 7.27924 28.0005 6.49578 28.0005 5.52967C28.0005 4.56276 28.784 3.7793 29.7501 3.7793H87.5004C89.4326 3.7817 90.9979 5.34702 91.0003 7.27924V14.2791C91.0003 15.246 90.2169 16.0295 89.25 16.0295Z" fill="#2260EA"/>
</svg>
