<svg width="105" height="105" viewBox="0 0 105 105" fill="none" xmlns="http://www.w3.org/2000/svg">
<path d="M17.5 91V103.25H3.5C2.5335 103.25 1.75 102.466 1.75 101.5V91H17.5Z" fill="#CAD9FC"/>
<path d="M12.25 91V103.25H3.5C2.5335 103.25 1.75 102.466 1.75 101.5V91H12.25Z" fill="#E8EDFC"/>
<path d="M103.25 91V101.5C103.25 102.466 102.467 103.25 101.5 103.25H87.5V91H103.25Z" fill="#CAD9FC"/>
<path d="M98 91V101.5C98 102.466 97.2165 103.25 96.25 103.25H87.5V91H98Z" fill="#E8EDFC"/>
<path d="M89.25 28L77.5075 48.125C77.1968 48.6632 76.6239 48.9962 76.0025 49H63.9975C63.3761 48.9962 62.8032 48.6632 62.4925 48.125L50.75 28H89.25Z" fill="#CAD9FC"/>
<path d="M84 28L72.2575 48.125C71.9468 48.6632 71.3739 48.9962 70.7525 49H63.9975C63.3761 48.9962 62.8032 48.6632 62.4925 48.125L50.75 28H84Z" fill="#E8EDFC"/>
<path d="M50.75 17.5002H89.25V28.0002H50.75V17.5002Z" fill="#7FACFA"/>
<path d="M50.75 17.5002H84V28.0002H50.75V17.5002Z" fill="#A4C2F7"/>
<path d="M96.25 1.75H43.75C42.7835 1.75 42 2.5335 42 3.5V15.75C42 16.7165 42.7835 17.5 43.75 17.5H96.25C97.2165 17.5 98 16.7165 98 15.75V3.5C98 2.5335 97.2165 1.75 96.25 1.75Z" fill="#CAD9FC"/>
<path d="M91 1.75H43.75C42.7835 1.75 42 2.5335 42 3.5V15.75C42 16.7165 42.7835 17.5 43.75 17.5H91C91.9665 17.5 92.75 16.7165 92.75 15.75V3.5C92.75 2.5335 91.9665 1.75 91 1.75Z" fill="#E8EDFC"/>
<path d="M63.9975 49.0002H69.2475C68.6261 48.9965 68.0532 48.6634 67.7425 48.1252L56 28.0002V17.5002H50.75V28.0002L62.4925 48.1252C62.8032 48.6634 63.3761 48.9965 63.9975 49.0002Z" fill="white"/>
<path d="M49 1.75H43.75C42.7835 1.75 42 2.5335 42 3.5V15.75C42 16.7165 42.7835 17.5 43.75 17.5H49C48.0335 17.5 47.25 16.7165 47.25 15.75V3.5C47.25 2.5335 48.0335 1.75 49 1.75Z" fill="white"/>
<path d="M3.5 103.25H8.75C7.7835 103.25 7 102.466 7 101.5V91H1.75V101.5C1.75 102.466 2.5335 103.25 3.5 103.25Z" fill="white"/>
<path d="M99.75 3.5C99.75 1.567 98.183 0 96.25 0H43.75C41.817 0 40.25 1.567 40.25 3.5V15.75C40.25 17.683 41.817 19.25 43.75 19.25H49V28C49.0179 28.3059 49.1015 28.6043 49.245 28.875L60.9875 49C61.6089 50.0764 62.7546 50.7425 63.9975 50.75H68.25V59.5C68.25 60.4665 69.0335 61.25 70 61.25C70.9665 61.25 71.75 60.4665 71.75 59.5V50.75H76.0025C77.2454 50.7425 78.3911 50.0764 79.0125 49L90.755 28.875C90.8985 28.6043 90.9821 28.3059 91 28V19.25H96.25C98.183 19.25 99.75 17.683 99.75 15.75V3.5ZM87.5 26.25H68.25C67.2835 26.25 66.5 27.0335 66.5 28C66.5 28.9665 67.2835 29.75 68.25 29.75H86.205L76.0025 47.25H63.9975L53.795 29.75H59.5C60.4665 29.75 61.25 28.9665 61.25 28C61.25 27.0335 60.4665 26.25 59.5 26.25H52.5V19.25H87.5V26.25ZM89.25 15.75H43.75V3.5H47.25V7C47.25 7.9665 48.0335 8.75 49 8.75C49.9665 8.75 50.75 7.9665 50.75 7V3.5H54.25V7C54.25 7.9665 55.0335 8.75 56 8.75C56.9665 8.75 57.75 7.9665 57.75 7V3.5H61.25V7C61.25 7.9665 62.0335 8.75 63 8.75C63.9665 8.75 64.75 7.9665 64.75 7V3.5H68.25V7C68.25 7.9665 69.0335 8.75 70 8.75C70.9665 8.75 71.75 7.9665 71.75 7V3.5H75.25V7C75.25 7.9665 76.0335 8.75 77 8.75C77.9665 8.75 78.75 7.9665 78.75 7V3.5H82.25V7C82.25 7.9665 83.0335 8.75 84 8.75C84.9665 8.75 85.75 7.9665 85.75 7V3.5H89.25V7C89.25 7.9665 90.0335 8.75 91 8.75C91.9665 8.75 92.75 7.9665 92.75 7V3.5H96.25V15.75H89.25Z" fill="#2260EA"/>
<path d="M71.75 66.5C71.75 65.5335 70.9665 64.75 70 64.75C69.0335 64.75 68.25 65.5335 68.25 66.5V85.75C68.25 86.7165 69.0335 87.5 70 87.5C70.9665 87.5 71.75 86.7165 71.75 85.75V66.5Z" fill="#2260EA"/>
<path d="M45.5 92.75C44.5335 92.75 43.75 93.5335 43.75 94.5C43.75 95.4665 44.5335 96.25 45.5 96.25H61.25C62.2165 96.25 63 95.4665 63 94.5C63 93.5335 62.2165 92.75 61.25 92.75H45.5Z" fill="#2260EA"/>
<path d="M77.5773 91.8749C77.8839 91.877 78.1856 91.7986 78.4523 91.6474L92.0848 83.7724C92.6288 83.4598 92.9646 82.8808 92.9659 82.2534C92.9671 81.626 92.6335 81.0457 92.0909 80.7309C91.5482 80.4161 90.8788 80.4148 90.3348 80.7274L76.7023 88.6024C76.009 88.9953 75.6686 89.8071 75.8745 90.577C76.0804 91.3469 76.7804 91.8805 77.5773 91.8749Z" fill="#2260EA"/>
<path d="M83.125 71.7499C82.7216 71.5162 82.2416 71.4531 81.7915 71.5747C81.3414 71.6963 80.9584 71.9924 80.7275 72.3974L72.8525 86.0299C72.3692 86.8708 72.6591 87.9442 73.5 88.4274C74.3408 88.9107 75.4142 88.6208 75.8975 87.7799L83.7725 74.1474C84.0062 73.744 84.0692 73.264 83.9477 72.8139C83.8261 72.3638 83.53 71.9808 83.125 71.7499Z" fill="#2260EA"/>
<path d="M65.6252 88.6725C66.2516 88.6749 66.8316 88.3424 67.1459 87.8005C67.4602 87.2586 67.4609 86.59 67.1477 86.0475L59.2727 72.415C58.9601 71.871 58.381 71.5352 57.7536 71.5339C57.1263 71.5327 56.5459 71.8662 56.2311 72.4089C55.9164 72.9516 55.9151 73.621 56.2277 74.165L64.1027 87.7975C64.4165 88.3411 64.9975 88.6749 65.6252 88.6725Z" fill="#2260EA"/>
<path d="M63.945 91C64.1787 90.5966 64.2418 90.1166 64.1202 89.6665C63.9987 89.2164 63.7025 88.8334 63.2975 88.6025L49.665 80.7275C48.8242 80.2442 47.7508 80.5341 47.2675 81.375C46.7843 82.2158 47.0742 83.2892 47.915 83.7725L61.5475 91.6475C61.9509 91.8812 62.4309 91.9442 62.881 91.8227C63.3311 91.7011 63.7141 91.405 63.945 91Z" fill="#2260EA"/>
<path d="M103.25 89.2498H89.25C87.317 89.2498 85.75 90.8168 85.75 92.7498V101.5H19.25V92.7498C19.25 90.8168 17.683 89.2498 15.75 89.2498H1.75C0.783502 89.2498 0 90.0333 0 90.9998C0 91.9663 0.783502 92.7498 1.75 92.7498H15.75V101.5C15.75 103.433 17.317 105 19.25 105H85.75C87.683 105 89.25 103.433 89.25 101.5V92.7498H103.25C104.216 92.7498 105 91.9663 105 90.9998C105 90.0333 104.216 89.2498 103.25 89.2498Z" fill="#2260EA"/>
<path d="M70 96.25C70.9665 96.25 71.75 95.4665 71.75 94.5C71.75 93.5335 70.9665 92.75 70 92.75C69.0335 92.75 68.25 93.5335 68.25 94.5C68.25 95.4665 69.0335 96.25 70 96.25Z" fill="#2260EA"/>
<path d="M42 80.5C42.9665 80.5 43.75 79.7165 43.75 78.75C43.75 77.7835 42.9665 77 42 77C41.0335 77 40.25 77.7835 40.25 78.75C40.25 79.7165 41.0335 80.5 42 80.5Z" fill="#2260EA"/>
<path d="M98 80.5C98.9665 80.5 99.75 79.7165 99.75 78.75C99.75 77.7835 98.9665 77 98 77C97.0335 77 96.25 77.7835 96.25 78.75C96.25 79.7165 97.0335 80.5 98 80.5Z" fill="#2260EA"/>
<path d="M24.5 68.2499C24.6033 71.4814 26.0959 74.5112 28.595 76.5624C30.4275 77.8772 31.5143 79.9945 31.5143 82.2499C31.5143 84.5053 30.4275 86.6226 28.595 87.9374C27.871 88.5757 27.8006 89.6797 28.4375 90.4049C29.0758 91.1289 30.1798 91.1993 30.905 90.5624C33.4812 88.5743 34.99 85.504 34.99 82.2499C34.99 78.9958 33.4812 75.9255 30.905 73.9374C29.1609 72.5499 28.1017 70.4762 28 68.2499C28.1017 66.0235 29.1609 63.9498 30.905 62.5624C31.4061 62.1588 31.6453 61.5128 31.5279 60.8801C31.4105 60.2475 30.9554 59.7304 30.3428 59.5335C29.7302 59.3366 29.059 59.4917 28.595 59.9374C26.0959 61.9886 24.6033 65.0184 24.5 68.2499Z" fill="#2260EA"/>
<path d="M36.3125 39.0951C35.6742 38.3711 34.5702 38.3007 33.845 38.9376C31.3459 40.9888 29.8533 44.0186 29.75 47.2501C29.8533 50.4816 31.3459 53.5114 33.845 55.5626C35.5891 56.9501 36.6483 59.0238 36.75 61.2501C36.6483 63.4765 35.5891 65.5502 33.845 66.9376C33.121 67.5759 33.0505 68.6799 33.6875 69.4051C34.3258 70.1291 35.4298 70.1996 36.155 69.5626C38.6541 67.5114 40.1467 64.4816 40.25 61.2501C40.1467 58.0186 38.6541 54.9888 36.155 52.9376C34.4109 51.5502 33.3517 49.4765 33.25 47.2501C33.3517 45.0238 34.4109 42.9501 36.155 41.5626C36.879 40.9243 36.9494 39.8203 36.3125 39.0951Z" fill="#2260EA"/>
</svg>
