<svg width="77" height="105" viewBox="0 0 77 105" fill="none" xmlns="http://www.w3.org/2000/svg">
<path d="M55.2212 43.7498H62.2211V50.7496C62.2211 51.7166 61.4376 52.5 60.4707 52.5H56.9708C56.0047 52.5 55.2212 51.7166 55.2212 50.7496V43.7498Z" fill="#E8EDFC"/>
<path d="M65.7208 36.7498V42.0001C65.7152 43.9307 64.1515 45.4944 62.2209 45.5H55.221C53.2903 45.4944 51.7266 43.9307 51.7202 42.0001V36.7498H65.7208Z" fill="#7FACFA"/>
<path d="M60.4705 36.7498V42.0001C60.4649 43.9307 58.9012 45.4944 56.9705 45.5H55.221C53.2903 45.4944 51.7266 43.9307 51.7202 42.0001V36.7498H60.4705Z" fill="#A4C2F7"/>
<path d="M16.7209 75.6875H37.7206V94.0628H16.7209V75.6875Z" fill="#7FACFA"/>
<path d="M16.7209 75.6875H32.4711V94.0628H16.7209V75.6875Z" fill="#A4C2F7"/>
<path d="M20.2207 36.3125H34.2205V68.6876H20.2207V36.3125Z" fill="#7FACFA"/>
<path d="M20.2207 36.3125H28.971V68.6876H20.2207V36.3125Z" fill="#A4C2F7"/>
<path d="M35.9711 31.0621V10.4998C35.9678 9.53451 35.186 8.75265 34.2207 8.75024H18.4705C17.5052 8.75265 16.7234 9.53451 16.7209 10.4998V24.4996L35.9711 31.0621Z" fill="#7FACFA"/>
<path d="M74.4703 98.5777V101.5C74.4679 102.465 73.686 103.247 72.7207 103.25H58.7209C57.7556 103.247 56.9738 102.465 56.9706 101.5C56.9682 100.535 56.1863 99.7529 55.221 99.7497H25.4703C24.5049 99.7529 23.7231 100.535 23.7207 101.5C23.7175 102.465 22.9356 103.247 21.9703 103.25H7.97052C7.00521 103.247 6.22335 102.465 6.22095 101.5V98.5777C6.22415 98.1996 6.34672 97.8319 6.57102 97.5275L10.9458 91.7004C11.2782 91.2622 11.7957 91.0034 12.3453 91.0002H68.346C68.8955 91.0034 69.413 91.2622 69.7455 91.7004L74.1202 97.5275C74.3445 97.8319 74.4671 98.1996 74.4703 98.5777Z" fill="#CAD9FC"/>
<path d="M69.2208 98.5777V101.5C69.2176 102.465 68.4357 103.247 67.4704 103.25H58.7209C57.7556 103.247 56.9738 102.465 56.9706 101.5C56.9682 100.535 56.1863 99.7529 55.221 99.7497H25.4703C24.5049 99.7529 23.7231 100.535 23.7207 101.5C23.7175 102.465 22.9356 103.247 21.9703 103.25H7.97052C7.00521 103.247 6.22335 102.465 6.22095 101.5V98.5777C6.22415 98.1996 6.34672 97.8319 6.57102 97.5275L10.9458 91.7004C11.2782 91.2622 11.7957 91.0034 12.3453 91.0002H63.0957C63.6452 91.0034 64.1627 91.2622 64.496 91.7004L68.8707 97.5275C69.0942 97.8319 69.2168 98.1996 69.2208 98.5777Z" fill="#E8EDFC"/>
<path d="M70.9704 17.4998V36.7499C70.968 37.7152 70.1861 38.4971 69.2208 38.5003H16.7208C15.7555 38.4971 14.9737 37.7152 14.9705 36.7499V26.2501C14.9737 25.2848 15.7555 24.5029 16.7208 24.4997H29.8803C30.1767 24.5061 30.4683 24.4268 30.7206 24.2722C30.9249 24.1665 31.1043 24.0175 31.2453 23.8348L37.1958 16.4151C37.5258 15.997 38.0281 15.7526 38.5609 15.7502H69.2208C70.1861 15.7526 70.968 16.5345 70.9704 17.4998Z" fill="#CAD9FC"/>
<path d="M65.7209 17.4998V36.7499C65.7177 37.7152 64.9358 38.4971 63.9705 38.5003H16.7208C15.7555 38.4971 14.9737 37.7152 14.9705 36.7499V26.2501C14.9737 25.2848 15.7555 24.5029 16.7208 24.4997H29.8803C30.1767 24.5061 30.4683 24.4268 30.7206 24.2722C30.9249 24.1665 31.1043 24.0175 31.2453 23.8348L37.1958 16.4151C37.5258 15.997 38.0281 15.7526 38.5609 15.7502H63.9705C64.9358 15.7526 65.7177 16.5345 65.7209 17.4998Z" fill="#E8EDFC"/>
<path d="M34.2206 6.99977V8.75014H18.4705V6.99977C18.4689 5.60668 19.0216 4.27047 20.0061 3.28513C20.9915 2.3006 22.3277 1.74785 23.7208 1.75025H28.9711C30.3634 1.74785 31.7004 2.3006 32.6849 3.28513C33.6703 4.27047 34.2222 5.60668 34.2206 6.99977Z" fill="#CAD9FC"/>
<path d="M28.9711 7.00001V8.75038H18.4705V7.00001C18.4705 4.10088 20.8208 1.75049 23.7208 1.75049C26.6199 1.75049 28.9711 4.10088 28.9711 7.00001Z" fill="#E8EDFC"/>
<path d="M49.9708 26.2499C49.9708 28.183 48.4039 29.7499 46.4709 29.7499C44.5379 29.7499 42.9709 28.183 42.9709 26.2499C42.9709 24.3169 44.5379 22.75 46.4709 22.75C48.4039 22.75 49.9708 24.3169 49.9708 26.2499Z" fill="#CAD9FC"/>
<path d="M63.9706 26.2499C63.9706 28.183 62.4037 29.7499 60.4706 29.7499C58.5376 29.7499 56.9707 28.183 56.9707 26.2499C56.9707 24.3169 58.5376 22.75 60.4706 22.75C62.4037 22.75 63.9706 24.3169 63.9706 26.2499Z" fill="#E8EDFC"/>
<path d="M69.2208 68.2501V68.6699C69.2208 69.4534 68.6985 70.1407 67.9431 70.3498L37.7205 78.75H16.7208L10.228 72.2572C9.906 71.9303 9.72415 71.4913 9.72095 71.0323V68.2501C9.72335 67.2848 10.5052 66.503 11.4705 66.4998H67.4705C68.4358 66.503 69.2176 67.2848 69.2208 68.2501Z" fill="#CAD9FC"/>
<path d="M62.2209 66.4998V66.9203C62.2209 67.7038 61.6978 68.3903 60.9432 68.6002L30.7206 76.9996H14.9705L10.228 72.2572C9.906 71.9303 9.72415 71.4913 9.72095 71.0323V68.2501C9.72335 67.2848 10.5052 66.503 11.4705 66.4998H62.2209Z" fill="#E8EDFC"/>
<path d="M7.97052 103.25H13.2208C12.2555 103.247 11.4737 102.465 11.4705 101.5V98.5777C11.4745 98.1995 11.597 97.8318 11.8205 97.5274L16.1953 91.7003C16.5285 91.2621 17.046 91.0034 17.5956 91.0002H21.9703V78.75L20.2207 76.9996L15.4783 72.2572C15.1563 71.9303 14.9744 71.4913 14.9704 71.0323V68.2501C14.9736 67.2848 15.7555 66.503 16.7208 66.4998H11.4705C10.5052 66.503 9.7233 67.2848 9.72089 68.2501V71.0323C9.7241 71.4913 9.90594 71.9303 10.228 72.2572L16.7208 78.75V91.0002H12.3453C11.7957 91.0034 11.2782 91.2621 10.9458 91.7003L6.57102 97.5274C6.34672 97.8318 6.22415 98.1995 6.22095 98.5777V101.5C6.22335 102.465 7.00521 103.247 7.97052 103.25Z" fill="white"/>
<path d="M16.7208 38.5001H20.2208V66.4997H25.4703V38.5001H21.9704C21.005 38.4969 20.2232 37.715 20.2208 36.7497V26.2499C20.2232 25.2846 21.005 24.5027 21.9704 24.4995V10.4997C21.9736 9.53441 22.7554 8.75255 23.7207 8.75014V6.99977C23.7191 5.60668 24.2711 4.27047 25.2564 3.28513C26.2409 2.3006 27.578 1.74785 28.971 1.75025H23.7207C22.3276 1.74785 20.9914 2.3006 20.0061 3.28513C19.0216 4.27047 18.4688 5.60668 18.4704 6.99977V8.75014C17.5051 8.75255 16.7232 9.53441 16.7208 10.4997V24.4995C15.7555 24.5027 14.9737 25.2846 14.9705 26.2499V36.7497C14.9737 37.715 15.7555 38.4969 16.7208 38.5001Z" fill="white"/>
<path d="M18.4705 66.4998V38.5002H21.9704V66.4998H18.4705Z" fill="white"/>
<path d="M20.2208 57.7502C19.2555 57.7526 18.4737 58.5345 18.4705 59.4998V66.4997H21.9704V59.4998C21.968 58.5345 21.1861 57.7526 20.2208 57.7502Z" fill="#2260EA"/>
<path d="M21.9704 38.5002H18.4705V45.5001C18.4705 46.4662 19.2539 47.2497 20.2208 47.2497C21.1869 47.2497 21.9704 46.4662 21.9704 45.5001V38.5002Z" fill="#2260EA"/>
<path d="M18.4706 52.5C18.4778 52.963 18.6588 53.4068 18.9784 53.7424L19.2412 53.9523C19.3381 54.0188 19.4447 54.0717 19.556 54.1101C19.6554 54.1606 19.7611 54.1959 19.8708 54.2151C19.9862 54.2343 20.1032 54.2463 20.2209 54.2503C20.6839 54.2431 21.1278 54.0621 21.4634 53.7424C21.888 53.3331 22.0746 52.7355 21.9577 52.1579C21.8407 51.5795 21.4362 51.1013 20.8858 50.8898C20.6751 50.8 20.4492 50.7528 20.2209 50.7496C19.7555 50.7456 19.3077 50.9282 18.9784 51.2575C18.6492 51.5867 18.4657 52.0345 18.4706 52.5Z" fill="#2260EA"/>
<path d="M34.2206 68.2501C33.2545 68.2501 32.471 67.4666 32.471 66.4997V40.2497H20.2208C19.2539 40.2497 18.4705 39.4662 18.4705 38.5001C18.4705 37.5332 19.2539 36.7498 20.2208 36.7498H34.2206C35.1875 36.7498 35.971 37.5332 35.971 38.5001V66.4997C35.971 67.4666 35.1875 68.2501 34.2206 68.2501Z" fill="#2260EA"/>
<path d="M21.9704 105H7.97065C6.03843 104.998 4.47311 103.432 4.4707 101.5V98.5776C4.47311 97.8318 4.71183 97.106 5.15083 96.5036L9.54559 90.6485C10.2105 89.7721 11.2455 89.2546 12.3454 89.2498H51.7204C52.6873 89.2498 53.4708 90.0332 53.4708 91.0001C53.4708 91.9662 52.6873 92.7497 51.7204 92.7497H12.3454L7.97065 98.5784V101.5H21.9704C21.9728 99.5677 23.539 98.0024 25.4704 98H55.2211C56.1872 98 56.9707 98.7835 56.9707 99.7496C56.9707 100.717 56.1872 101.5 55.2211 101.5H25.4704C25.4688 103.432 23.9027 104.998 21.9704 105Z" fill="#2260EA"/>
<path d="M72.7208 105H58.721C56.7887 104.998 55.2226 103.432 55.221 101.5H25.4703C24.5042 101.5 23.7207 100.717 23.7207 99.7496C23.7207 98.7835 24.5042 98 25.4703 98H55.221C57.1524 98.0024 58.7186 99.5677 58.721 101.5H72.7208V98.5776L68.346 92.7497H28.971C28.0041 92.7497 27.2206 91.9662 27.2206 91.0001C27.2206 90.0332 28.0041 89.2498 28.971 89.2498H68.346C69.4427 89.2546 70.4761 89.7689 71.1402 90.6428L75.5206 96.4764C75.9716 97.0844 76.2167 97.8206 76.2207 98.5776V101.5C76.2183 103.432 74.653 104.998 72.7208 105Z" fill="#2260EA"/>
<path d="M37.7205 92.7497H16.7208C15.7539 92.7497 14.9705 91.9662 14.9705 91.0001V78.7499C14.9705 77.7838 15.7539 76.9995 16.7208 76.9995C17.6869 76.9995 18.4704 77.7838 18.4704 78.7499V89.2497H35.9709V78.7499C35.9709 77.7838 36.7544 76.9995 37.7205 76.9995C38.6874 76.9995 39.4709 77.7838 39.4709 78.7499V91.0001C39.4709 91.9662 38.6874 92.7497 37.7205 92.7497Z" fill="#2260EA"/>
<path d="M37.7204 80.5004H16.7207C16.2561 80.5004 15.8115 80.3154 15.4831 79.9869L8.99586 73.4997C8.33737 72.8452 7.96807 71.9544 7.97047 71.0252V68.2502C7.97287 66.318 9.5382 64.7526 11.4704 64.7502H67.4704C69.4026 64.7526 70.9687 66.318 70.9703 68.2502V68.67C70.9671 70.2409 69.9209 71.618 68.4084 72.0425L38.1891 80.4363C38.036 80.4788 37.879 80.5004 37.7204 80.5004ZM17.4449 76.9997H37.4817L67.4704 68.67V68.2502H11.4704V71.0252L17.4449 76.9997Z" fill="#2260EA"/>
<path d="M69.2209 40.2498H16.7209C14.7887 40.2474 13.2234 38.682 13.2209 36.7498V26.25C13.2234 24.3178 14.7887 22.7524 16.7209 22.75H29.8803L35.83 15.3135C36.4917 14.4812 37.4979 13.9974 38.5617 13.9998H69.2209C71.1531 14.0022 72.7184 15.5683 72.7208 17.4997V36.7498C72.7184 38.682 71.1531 40.2474 69.2209 40.2498ZM16.7209 26.25V36.7498H69.2209V17.4997H38.5617L32.6128 24.9378C31.9503 25.7693 30.9442 26.2524 29.8803 26.25H16.7209Z" fill="#2260EA"/>
<path d="M16.7208 26.2501C15.7539 26.2501 14.9705 25.4666 14.9705 24.4997V10.4999C14.9729 8.56773 16.539 7.0024 18.4704 7H34.2206C36.1528 7.0024 37.7181 8.56773 37.7205 10.4999V17.9372C37.7205 18.9041 36.937 19.6876 35.9709 19.6876C35.004 19.6876 34.2206 18.9041 34.2206 17.9372V10.4999H18.4704V24.4997C18.4704 25.4666 17.6869 26.2501 16.7208 26.2501Z" fill="#2260EA"/>
<path d="M14.9705 33.2499H11.4705C5.67148 33.2499 0.970703 28.5491 0.970703 22.7501C0.970703 16.951 5.67148 12.2502 11.4705 12.2502H16.7209C17.687 12.2502 18.4704 13.0337 18.4704 13.9998C18.4704 14.9667 17.687 15.7502 16.7209 15.7502H11.4705C7.6045 15.7502 4.47065 18.884 4.47065 22.7501C4.47065 26.6161 7.6045 29.75 11.4705 29.75H14.9705C15.9374 29.75 16.7209 30.5334 16.7209 31.5004C16.7209 32.4665 15.9374 33.2499 14.9705 33.2499Z" fill="#2260EA"/>
<path d="M34.2207 10.4998H18.4705C17.5044 10.4998 16.7209 9.71638 16.7209 8.75027V6.99989C16.725 3.13545 19.8564 0.00400542 23.7208 0H28.9712C32.8348 0.00400542 35.967 3.13545 35.9711 6.99989V8.75027C35.9711 9.71638 35.1876 10.4998 34.2207 10.4998ZM20.2209 6.99989H32.4711C32.4687 5.06767 30.9026 3.50235 28.9712 3.49995H23.7208C21.7886 3.50235 20.2233 5.06767 20.2209 6.99989Z" fill="#2260EA"/>
<path d="M23.7208 26.25C22.7539 26.25 21.9705 25.4665 21.9705 24.4996V15.7501C21.9705 14.7832 22.7539 13.9998 23.7208 13.9998C24.6869 13.9998 25.4704 14.7832 25.4704 15.7501V24.4996C25.4704 25.4665 24.6869 26.25 23.7208 26.25Z" fill="#2260EA"/>
<path d="M28.9711 26.25C28.0042 26.25 27.2207 25.4665 27.2207 24.4996V15.7501C27.2207 14.7832 28.0042 13.9998 28.9711 13.9998C29.9372 13.9998 30.7206 14.7832 30.7206 15.7501V24.4996C30.7206 25.4665 29.9372 26.25 28.9711 26.25Z" fill="#2260EA"/>
<path d="M62.2209 47.2496H55.221C52.3227 47.2464 49.9739 44.8984 49.9707 42.0001V38.5001C49.9707 37.5332 50.7542 36.7498 51.7203 36.7498H65.7209C66.687 36.7498 67.4704 37.5332 67.4704 38.5001V42.0001C67.4672 44.8984 65.1184 47.2464 62.2209 47.2496ZM53.4706 40.2497V42.0001C53.4715 42.9662 54.2541 43.7488 55.221 43.7496H62.2209C63.187 43.7488 63.9697 42.9662 63.9705 42.0001V40.2497H53.4706Z" fill="#2260EA"/>
<path d="M60.4706 54.2504H56.9706C55.0384 54.248 53.4731 52.6819 53.4707 50.7496V45.5001C53.4707 44.5332 54.2542 43.7498 55.2211 43.7498H62.221C63.1871 43.7498 63.9705 44.5332 63.9705 45.5001V50.7496C63.9681 52.6819 62.4028 54.248 60.4706 54.2504ZM56.9706 47.2497V50.7496H60.4706V47.2497H56.9706Z" fill="#2260EA"/>
<path d="M58.7211 61.2502C57.7542 61.2502 56.9707 60.4667 56.9707 59.4998V52.4999C56.9707 51.5338 57.7542 50.7495 58.7211 50.7495C59.6872 50.7495 60.4706 51.5338 60.4706 52.4999V59.4998C60.4706 60.4667 59.6872 61.2502 58.7211 61.2502Z" fill="#2260EA"/>
<path d="M46.4708 31.5004C43.5708 31.5004 41.2205 29.1492 41.2205 26.2501C41.2205 23.3509 43.5708 20.9998 46.4708 20.9998C49.3699 20.9998 51.7203 23.3509 51.7203 26.2501C51.7171 29.1484 49.3691 31.4972 46.4708 31.5004ZM46.4708 24.4997C45.5039 24.4997 44.7204 25.284 44.7204 26.2501C44.7204 27.2162 45.5039 28.0005 46.4708 28.0005C47.4369 28.0005 48.2204 27.2162 48.2204 26.2501C48.2196 25.284 47.4369 24.5013 46.4708 24.4997Z" fill="#2260EA"/>
<path d="M60.4707 31.5004C57.5716 31.5004 55.2212 29.1492 55.2212 26.2501C55.2212 23.3509 57.5716 20.9998 60.4707 20.9998C63.3706 20.9998 65.721 23.3509 65.721 26.2501C65.7178 29.1484 63.369 31.4972 60.4707 31.5004ZM60.4707 24.4997C59.5046 24.4997 58.7211 25.284 58.7211 26.2501C58.7211 27.2162 59.5046 28.0005 60.4707 28.0005C61.4376 28.0005 62.2211 27.2162 62.2211 26.2501C62.2203 25.284 61.4368 24.5013 60.4707 24.4997Z" fill="#2260EA"/>
<path d="M27.2206 68.2502C26.2545 68.2502 25.4702 67.4668 25.4702 66.4998V57.7504C25.4702 56.7835 26.2545 56 27.2206 56C28.1867 56 28.971 56.7835 28.971 57.7504V66.4998C28.971 67.4668 28.1867 68.2502 27.2206 68.2502Z" fill="#2260EA"/>
</svg>
