<svg width="95" height="105" viewBox="0 0 95 105" fill="none" xmlns="http://www.w3.org/2000/svg">
<path d="M81.4327 13.4503L77.0691 8.98392L82.1599 2.28442L87.9782 8.23948L81.4327 13.4503Z" fill="white"/>
<path d="M85.7964 29.8273L61.0691 4.51756C64.2825 1.22852 69.4921 1.22852 72.7054 4.51756L85.7964 17.9168C89.0097 21.2058 89.0097 26.5382 85.7964 29.8273Z" fill="#E8EDFC"/>
<path d="M79.978 35.7823L55.251 10.4726L61.069 4.51733L85.7963 29.827L79.978 35.7823Z" fill="white"/>
<path d="M29.0693 56.6254L43.6147 41.7373L49.4328 47.6926L40.7057 56.6254H29.0693Z" fill="white"/>
<path d="M37.0691 35.0377L58.1599 13.45L77.069 32.8044L55.9781 54.3922L37.0691 35.0377Z" fill="white"/>
<path d="M16.8411 56.6252H25.044V71.3185H16.8411V56.6252Z" fill="white"/>
<path d="M85.7454 69.2195H81.1515L79.2547 65.2313H73.8511L70.365 56.6252H85.7454V69.2195Z" fill="white"/>
<path d="M92.2041 92.4598L79.2549 65.2316H73.8513L70.3649 56.6255H25.0437V71.3187H66.7652L73.0213 84.9624H66.6735V93.3585H76.8712L79.3443 98.7518C81.0107 102.386 85.2331 103.959 88.792 102.271C92.4121 100.555 93.9501 96.1313 92.2041 92.4598Z" fill="#E8EDFC"/>
<path d="M59.3202 66.2513C57.7186 64.6119 55.1217 64.6119 53.52 66.2513C53.52 66.2513 47.8071 70.1992 47.8071 89.1605C47.8071 91.4792 49.4383 93.3587 51.7036 93.3587C53.9687 93.3587 55.5999 91.4792 55.5999 89.1605C55.5999 77.7059 59.3204 72.1883 59.3204 72.1883C60.9221 70.5487 60.9221 67.8907 59.3202 66.2513Z" fill="#E8EDFC"/>
<path d="M94.0569 91.5797L90.5336 84.1702C90.1952 83.4606 89.4672 83.0013 88.6797 83.0013C88.3741 83.0013 88.0788 83.0669 87.7999 83.2004C87.3057 83.436 86.9326 83.8482 86.7479 84.3652C86.5654 84.882 86.5941 85.4376 86.8299 85.932L90.3531 93.3415C90.6977 94.0675 90.874 94.8447 90.874 95.6466C90.872 97.6994 89.709 99.572 87.9127 100.419C87.9107 100.421 87.9068 100.423 87.9025 100.423L87.8984 100.427C87.2296 100.739 86.5243 100.897 85.8004 100.899C83.8153 100.895 82.0557 99.7445 81.2087 97.8988L78.7355 92.505C78.4012 91.777 77.6713 91.3073 76.8713 91.3073H68.7238V87.0126H73.0222C73.7236 87.0126 74.3675 86.6597 74.7467 86.069C75.1263 85.4784 75.1776 84.7442 74.8864 84.1066L68.6294 70.4646C68.2949 69.7366 67.5651 69.267 66.7651 69.267H62.5636C62.5755 67.6571 61.9845 66.0436 60.787 64.8182C59.6234 63.6269 58.0726 62.9709 56.4201 62.9709C56.4201 62.9709 56.4201 62.9709 56.4199 62.9709C54.8203 62.9709 53.3156 63.5859 52.1654 64.7058C51.6283 65.1371 50.3106 66.4057 49.0086 69.267H27.0952V58.6767H68.9834L71.9505 66.0013C72.264 66.7755 73.0158 67.2822 73.8511 67.2822H77.9593L79.2996 70.1004C79.6395 70.8151 80.3603 71.2704 81.1515 71.2704H85.7452C86.8777 71.2704 87.796 70.3523 87.796 69.2196V64.9733H91.8976C93.03 64.9733 93.9484 64.0551 93.9484 62.9225C93.9484 61.7898 93.03 60.8717 91.8976 60.8717H87.796V56.6254C87.796 55.4927 86.8777 54.5746 85.7452 54.5746L58.6665 54.5754L77.069 35.7396L78.5111 37.2157C78.8971 37.6107 79.426 37.8334 79.978 37.8334C80.5301 37.8334 81.059 37.6107 81.445 37.2157L87.263 31.2605C87.2645 31.259 87.2655 31.2574 87.2669 31.256C91.243 27.1817 91.2418 20.5562 87.263 16.4838L84.4859 13.6412L89.2554 9.84416C89.7092 9.48281 89.9887 8.94633 90.0248 8.36739C90.0611 7.78846 89.8501 7.22142 89.4449 6.80654L83.6266 0.851074C83.2099 0.424512 82.6274 0.200361 82.0329 0.237275C81.4376 0.274189 80.888 0.568477 80.527 1.04344L76.8746 5.85006L74.1723 3.08437C72.2292 1.09553 69.6419 0 66.8875 0C66.8873 0 66.8875 0 66.8873 0C64.1345 0 61.5487 1.09409 59.606 3.08068C59.6048 3.08191 59.6033 3.08294 59.6021 3.08437L53.784 9.03964C53.0056 9.83657 53.0056 11.1091 53.784 11.906L55.293 13.4503L35.6024 33.6047C34.824 34.4014 34.824 35.6742 35.6024 36.4711L40.7476 41.7377L28.2053 54.5754L16.8411 54.575C15.7084 54.575 14.7903 55.4931 14.7903 56.6258V71.319C14.7903 72.4516 15.7084 73.3698 16.8411 73.3698L47.5456 73.3689C46.528 77.0366 45.7563 82.133 45.7563 89.1608C45.7563 92.6648 48.3685 95.4097 51.7035 95.4097C55.0383 95.4097 57.6506 92.6648 57.6506 89.1608C57.6506 79.4346 60.4809 74.2434 60.954 73.444C60.9761 73.4194 60.9966 73.3938 61.0184 73.3689H65.4485L69.8248 82.9112H66.673C66.1334 82.9112 65.6045 83.1305 65.2231 83.5121C64.8416 83.8936 64.6222 84.4227 64.6222 84.962V93.3577C64.6222 93.8971 64.8414 94.4262 65.2231 94.8097C65.6045 95.1911 66.1334 95.4085 66.673 95.4085H75.5547L77.4804 99.6067C78.2289 101.241 79.4184 102.611 80.9155 103.569C82.3838 104.504 84.0696 105 85.7922 105H85.8025C87.1252 105 88.4625 104.696 89.6702 104.124C89.6784 104.12 89.6866 104.116 89.6969 104.112L89.7051 104.108C91.317 103.333 92.6623 102.114 93.5934 100.582C94.4978 99.0976 94.9756 97.3894 94.9756 95.6462C94.9756 94.2498 94.6577 92.843 94.0569 91.5797ZM82.3543 5.41796L84.9247 8.04891L81.6049 10.692L79.7723 8.8161L82.3543 5.41796ZM83.6947 67.169H82.4472L81.1068 64.3508C80.767 63.6362 80.0461 63.1809 79.2549 63.1809H75.2331L73.4086 58.6765H83.6949V67.169H83.6947ZM71.2384 5.95075L84.3296 19.3499C86.2516 21.3173 86.657 24.2583 85.5461 26.6364L64.1641 4.75084C65.0012 4.32612 65.9279 4.10156 66.8873 4.10156C68.5283 4.10156 70.0736 4.75822 71.2384 5.95075ZM61.069 7.45213L82.9291 29.8272L79.9782 32.8478L58.1179 10.4727L61.069 7.45213ZM58.16 16.3849L74.2018 32.8047L55.978 51.4578L39.9361 35.038L58.16 16.3849ZM43.6146 44.6722L46.5657 47.6928L39.8422 54.5748H33.9401L43.6146 44.6722ZM49.4327 50.6274L53.2898 54.5754H45.5758L49.4327 50.6274ZM22.993 69.268H18.8916V58.6763H22.993V69.268ZM57.6198 71.0417C57.4535 71.2882 53.549 77.2164 53.549 89.1606C53.549 90.2276 52.9151 91.308 51.7035 91.308C50.4919 91.308 49.8578 90.2276 49.8578 89.1606C49.8578 72.5925 54.3427 68.2512 54.7149 67.9209C54.8404 67.8427 55.447 67.0726 56.4201 67.0726C56.9586 67.0726 57.4674 67.29 57.853 67.6846H57.8532C59.3952 69.2264 57.6887 70.9394 57.6198 71.0417Z" fill="#2260EA"/>
<path d="M8.01328 71.4647L1.45098 73.5637C0.372269 73.9086 -0.222663 75.063 0.122484 76.1417C0.40098 77.0129 1.20714 77.5682 2.07524 77.5682C2.28216 77.5682 2.49278 77.5367 2.70052 77.4702L9.26282 75.3712C10.3415 75.0263 10.9365 73.8719 10.5913 72.7932C10.2464 71.7143 9.09178 71.1191 8.01328 71.4647Z" fill="#2260EA"/>
<path d="M9.26282 52.5733L2.70052 50.4744C1.62181 50.129 0.467425 50.7242 0.122484 51.8029C-0.222663 52.8816 0.372269 54.036 1.45098 54.3809L8.01328 56.4799C8.22102 56.5463 8.43164 56.5779 8.63856 56.5779C9.50645 56.5779 10.3128 56.0225 10.5913 55.1514C10.9365 54.0727 10.3415 52.9185 9.26282 52.5733Z" fill="#2260EA"/>
<path d="M2.07568 66.0228H8.63798C9.77063 66.0228 10.6888 65.1047 10.6888 63.9721C10.6888 63.9692 10.6884 63.9663 10.6884 63.9635C10.6884 63.9606 10.6888 63.9579 10.6888 63.9548C10.6888 62.8222 9.77063 61.9041 8.63798 61.9041H2.07568C0.943037 61.9041 0.0249023 62.8222 0.0249023 63.9548C0.0249023 63.9577 0.0253123 63.9606 0.0253123 63.9635C0.0253123 63.9663 0.0249023 63.969 0.0249023 63.9721C0.0249023 65.1047 0.943242 66.0228 2.07568 66.0228Z" fill="#2260EA"/>
<path d="M84.7175 78.7683C85.8501 78.7683 86.7683 77.8501 86.7683 76.7175C86.7683 75.5849 85.8501 74.6667 84.7175 74.6667C83.5849 74.6667 82.6667 75.5849 82.6667 76.7175C82.6667 77.8501 83.5849 78.7683 84.7175 78.7683Z" fill="#2260EA"/>
</svg>
