<svg width="105" height="105" viewBox="0 0 105 105" fill="none" xmlns="http://www.w3.org/2000/svg">
<path d="M61.2574 17.5159V33.8752L60.8377 54.067C60.0472 58.6035 58.221 62.8966 55.501 66.6122L50.7073 71.7382C49.6181 72.6521 48.4663 73.4883 47.2601 74.2404C44.5673 75.944 41.611 77.1919 38.5114 77.9327H24.5141C11.1719 74.6865 1.77768 62.7412 1.76807 49.0098V17.5159C1.76887 8.81927 8.81878 1.76936 17.5154 1.76855H45.5108C54.2075 1.76936 61.2566 8.81927 61.2574 17.5159Z" fill="#7FACFA"/>
<path d="M56.0088 17.5159V33.8752L55.5883 54.067C54.7986 58.6035 52.9724 62.8966 50.2524 66.6122L45.458 71.7382C44.3687 72.6521 43.2169 73.4883 42.0107 74.2404C39.3179 75.944 36.3616 77.1919 33.2628 77.9327H24.5141C11.172 74.6865 1.77768 62.7412 1.76807 49.0098V17.5159C1.76887 8.81927 8.81878 1.76936 17.5154 1.76855H40.2614C48.9581 1.76936 56.008 8.81927 56.0088 17.5159Z" fill="#A4C2F7"/>
<path d="M14.0162 15.7659H49.0102C49.9762 15.7659 50.7595 16.5492 50.7595 17.5159V31.5132C50.7595 32.4792 49.9762 33.2625 49.0102 33.2625H14.0162C13.0494 33.2625 12.2661 32.4792 12.2661 31.5132V17.5159C12.2661 16.5492 13.0494 15.7659 14.0162 15.7659Z" fill="#E8EDFC"/>
<path d="M57.1576 52.8101L54.3743 55.5934C53.0608 56.9061 52.3231 58.6858 52.3231 60.5424C52.3231 62.399 53.0608 64.1787 54.3743 65.4915L56.8364 67.9536L54.8132 71.726L51.8874 72.9018L49.4253 70.4397C43.9692 64.9692 43.9692 56.1148 49.4253 50.6443L55.3018 44.7678L58.0314 48.135L57.1576 52.8101Z" fill="#E8EDFC"/>
<path d="M81.2218 97.2833L76.2872 102.218C75.6344 102.881 74.7422 103.254 73.8115 103.254C72.8808 103.254 71.9893 102.881 71.3357 102.218L71.1956 102.06L50.0074 80.7494C49.6806 80.4178 49.4988 79.9717 49.4996 79.5072V76.0078C49.4948 75.5417 49.6782 75.094 50.0074 74.7656L59.018 65.7542C59.2639 65.5139 59.5739 65.3497 59.9103 65.2816L61.2054 65.0197L64.6695 64.3373C65.2406 64.2163 65.8341 64.3942 66.2441 64.8098L69.2885 67.8542C69.9709 68.5414 69.9709 69.6508 69.2885 70.3388C68.9625 70.6696 68.7799 71.1157 68.7815 71.581C68.7871 72.0392 68.9682 72.4781 69.2885 72.8057L76.7077 80.224C77.0433 80.5508 77.2323 80.9985 77.2323 81.4663C77.2323 81.9348 77.0433 82.3826 76.7077 82.7085L75.483 83.9332C74.8006 84.6212 74.8006 85.7305 75.483 86.4185L81.2218 92.3319C81.885 92.9855 82.2582 93.8769 82.2582 94.8076C82.2582 95.7391 81.885 96.6306 81.2218 97.2833Z" fill="#CAD9FC"/>
<path d="M75.9724 97.2834L71.1956 102.06L50.0074 80.7495C49.6806 80.4179 49.4988 79.9718 49.4996 79.5073V76.0079C49.4948 75.5418 49.6782 75.094 50.0074 74.7657L59.018 65.7542C59.2639 65.514 59.5739 65.3498 59.9103 65.2817L61.2054 65.0198L64.0399 67.8543C64.7223 68.5415 64.7223 69.6508 64.0399 70.3388C63.7132 70.6696 63.5305 71.1158 63.5321 71.5811C63.5377 72.0392 63.7196 72.4782 64.0399 72.8058L71.4583 80.2241C71.7939 80.5509 71.9837 80.9986 71.9837 81.4664C71.9837 81.9349 71.7939 82.3826 71.4583 82.7086L70.2336 83.9333C69.5512 84.6213 69.5512 85.7306 70.2336 86.4186L75.9724 92.332C76.6356 92.9855 77.0096 93.877 77.0096 94.8077C77.0096 95.7392 76.6356 96.6306 75.9724 97.2834Z" fill="#E8EDFC"/>
<path d="M99.578 2.10979C102.103 0.950021 104.069 2.91474 102.909 5.44011C101 9.43683 98.6208 13.1901 95.8207 16.6213C92.7459 19.6961 88.5914 20.5267 86.541 18.4779C84.4906 16.4291 85.322 12.2738 88.3968 9.19895C91.828 6.39804 95.5813 4.01844 99.578 2.10979Z" fill="#E8EDFC"/>
<path d="M61.8174 33.3328L61.8005 33.3152L61.8174 33.3328Z" fill="#E4C05C"/>
<path d="M85.2987 29.6059L71.7034 43.218L68.0287 41.6433L64.7568 40.2617L63.7597 37.8989L61.8174 33.3327L62.1153 33.0348L75.4126 19.7199C76.0662 19.0647 76.9544 18.6963 77.8795 18.6963C78.8054 18.6963 79.6929 19.0647 80.3472 19.7199L85.2987 24.6713C85.9538 25.3257 86.3223 26.2131 86.3223 27.139C86.3223 28.0641 85.9538 28.9516 85.2987 29.6059Z" fill="#CAD9FC"/>
<path d="M38.5115 56.0086V99.7513C38.5059 101.682 36.9424 103.245 35.0121 103.251H28.0135C26.0832 103.245 24.5198 101.682 24.5142 99.7513V56.0086C24.5094 53.1588 26.2426 50.5934 28.8881 49.5354C29.7179 49.1821 30.6118 49.0035 31.5128 49.0099C33.3694 49.0099 35.1499 49.7468 36.4627 51.0595C37.7754 52.3723 38.5123 54.1528 38.5115 56.0086Z" fill="#CAD9FC"/>
<path d="M33.2629 56.0084V99.7511C33.2573 101.681 31.6938 103.245 29.7636 103.25H28.0135C26.0832 103.245 24.5198 101.681 24.5142 99.7511V56.0084C24.5094 53.1586 26.2426 50.5932 28.8881 49.5352C31.5344 50.5932 33.2677 53.1586 33.2629 56.0084Z" fill="#E8EDFC"/>
<path d="M71.7035 43.218L60.3133 54.5914C59.8656 55.0439 59.2064 55.217 58.5945 55.0423C57.9826 54.8677 57.514 54.3728 57.3739 53.7512L57.0062 52.1589L54.5914 41.6962C54.448 41.1083 54.6282 40.4884 55.0639 40.0687L61.0478 34.0848L61.8175 33.3328L68.3444 39.8589L69.0788 40.5941L71.7035 43.218Z" fill="#CAD9FC"/>
<path d="M82.971 26.6665L69.3766 40.2961L68.3442 39.8588L63.7596 37.8989L62.43 37.3391L61.0476 34.0848L61.8173 33.3327L62.1153 33.0348L75.4125 19.7199C76.0661 19.0647 76.9543 18.6963 77.8794 18.6963C78.8053 18.6963 79.6928 19.0647 80.3471 19.7199L83.8288 23.2016C84.2317 24.4254 83.8985 25.7718 82.971 26.6665Z" fill="#E8EDFC"/>
<path d="M69.3768 40.2965L58.0034 51.6699C57.7383 51.9446 57.3859 52.1176 57.0062 52.1593L54.5914 41.6966C54.448 41.1087 54.6282 40.4887 55.0639 40.069L61.0478 34.0852L61.8175 33.3331L62.1154 33.0352L69.3768 40.2965Z" fill="#E8EDFC"/>
<path d="M33.263 64.7571C33.263 65.7231 32.4797 66.5072 31.5129 66.5072C30.547 66.5072 29.7637 65.7231 29.7637 64.7571C29.7637 63.7912 30.547 63.0071 31.5129 63.0071C32.4797 63.0071 33.263 63.7912 33.263 64.7571Z" fill="#2260EA"/>
<path d="M58.6697 77.7557C58.6697 78.7216 57.8864 79.5049 56.9197 79.5049C55.9537 79.5049 55.1704 78.7216 55.1704 77.7557C55.1704 76.7889 55.9537 76.0056 56.9197 76.0056C57.8864 76.0056 58.6697 76.7889 58.6697 77.7557Z" fill="#2260EA"/>
<path d="M64.784 44.4588C64.784 45.4247 64.0007 46.2081 63.0339 46.2081C62.068 46.2081 61.2847 45.4247 61.2847 44.4588C61.2847 43.4921 62.068 42.7087 63.0339 42.7087C64.0007 42.7087 64.784 43.4921 64.784 44.4588Z" fill="#2260EA"/>
<path d="M33.263 57.7584C33.263 58.7243 32.4797 59.5076 31.5129 59.5076C30.547 59.5076 29.7637 58.7243 29.7637 57.7584C29.7637 56.7916 30.547 56.0083 31.5129 56.0083C32.4797 56.0083 33.263 56.7916 33.263 57.7584Z" fill="#2260EA"/>
<path d="M24.5141 77.9327V99.7512C24.5197 101.682 26.0831 103.245 28.0134 103.251H33.2628C31.3325 103.245 29.7691 101.682 29.7635 99.7512V77.9327C16.4213 74.6865 7.02626 62.7412 7.01745 49.0098V17.5159C7.01825 8.81927 14.0682 1.76936 22.7648 1.76855H17.5154C8.81878 1.76936 1.76887 8.81927 1.76807 17.5159V49.0098C1.77768 62.7412 11.1719 74.6865 24.5141 77.9327Z" fill="white"/>
<path d="M51.8871 74.6522C51.4234 74.653 50.978 74.468 50.6504 74.1396L48.1875 71.6775C42.0475 65.5238 42.0475 55.5617 48.1875 49.408L54.0633 43.5315C54.503 43.0766 55.1534 42.894 55.7653 43.0541C56.3772 43.2143 56.8546 43.6917 57.0147 44.3036C57.1749 44.9155 56.9923 45.5659 56.5374 46.0056L50.6617 51.8822C45.8856 56.6686 45.8856 64.4169 50.6617 69.2034L53.1238 71.6655C53.6244 72.1661 53.7741 72.9182 53.5034 73.5725C53.2319 74.2261 52.5943 74.6522 51.8863 74.6522H51.8871Z" fill="#2260EA"/>
<path d="M56.8354 69.703C56.3717 69.7038 55.9264 69.5188 55.5988 69.1904L53.1367 66.7283C49.7263 63.3091 49.7263 57.7754 53.1367 54.3561L55.9199 51.5729C56.6056 50.9041 57.7012 50.9113 58.378 51.5889C59.0556 52.2657 59.0629 53.3614 58.3941 54.047L55.6108 56.831C53.5652 58.8831 53.5652 62.203 55.6108 64.2542L58.0729 66.7171C58.5735 67.2169 58.7233 67.9698 58.4525 68.6233C58.1818 69.2777 57.5443 69.7038 56.8362 69.7038L56.8354 69.703Z" fill="#2260EA"/>
<path d="M73.8066 105C72.413 105.004 71.0754 104.45 70.0934 103.461L48.7675 81.9752C48.1115 81.3209 47.7439 80.431 47.7471 79.5043V76.005C47.7447 75.0767 48.1139 74.1853 48.7723 73.5309L57.7821 64.5203C58.2699 64.0317 58.8906 63.6993 59.5666 63.5639L64.3186 62.614C65.4664 62.3834 66.6534 62.7422 67.4799 63.5712L70.5299 66.6203C71.8947 67.9876 71.8947 70.2022 70.5299 71.5694L77.9539 78.9925C79.3155 80.3605 79.3163 82.5711 77.9555 83.9392L76.7156 85.179L82.4832 91.1076C84.5168 93.1604 84.5088 96.4707 82.4656 98.5139L77.5174 103.462C76.5354 104.451 75.1994 105.004 73.8066 105ZM66.2417 64.8086L65.005 66.0453L60.2562 66.9952L51.2464 76.0058V79.5051L72.5739 100.994C73.2668 101.65 74.3528 101.648 75.0433 100.989L79.9915 96.0406C80.6731 95.3566 80.6731 94.2497 79.9915 93.5657L74.2231 87.6363C72.8751 86.2675 72.8815 84.0673 74.2383 82.7065L75.479 81.4666L68.0542 74.0443C67.3982 73.3875 67.029 72.4977 67.029 71.5694C67.029 70.6411 67.3982 69.7512 68.0542 69.0945L65.0042 66.0453L66.2417 64.8086Z" fill="#2260EA"/>
<path d="M89.5363 21.358C87.9617 21.4029 86.4351 20.8102 85.3041 19.7137C82.5289 16.9392 83.3442 11.7763 87.1583 7.96063C90.7377 5.01395 94.664 2.51501 98.8489 0.519855C100.484 -0.361183 102.499 -0.105682 103.863 1.1558C105.124 2.51981 105.379 4.53419 104.498 6.16971C102.504 10.3546 100.005 14.2793 97.0588 17.8579C95.1013 19.958 92.4037 21.2138 89.5363 21.358ZM101.02 3.51859C100.773 3.5282 100.53 3.58987 100.308 3.7004C96.5005 5.52335 92.9179 7.78362 89.634 10.4363C87.083 12.9873 86.6073 16.0702 87.7782 17.2404C88.9484 18.4105 92.0313 17.938 94.5847 15.3846C97.2358 12.1007 99.4961 8.51888 101.318 4.71119C101.567 4.17056 101.53 3.77249 101.388 3.63232C101.285 3.54903 101.153 3.50818 101.02 3.51859Z" fill="#2260EA"/>
<path d="M71.6945 44.9713C71.2299 44.9721 70.7846 44.7871 70.457 44.4587L60.5605 34.5606C60.1072 34.1209 59.9262 33.4713 60.0864 32.8602C60.2466 32.2491 60.7239 31.7725 61.3343 31.6123C61.9454 31.4514 62.5949 31.6332 63.0347 32.0865L72.9311 41.9846C73.4317 42.4852 73.5815 43.2373 73.3108 43.8916C73.0401 44.5452 72.4017 44.9713 71.6945 44.9713Z" fill="#2260EA"/>
<path d="M59.0789 56.8604C57.4498 56.8612 56.0361 55.7359 55.6701 54.1484L52.8868 42.0838C52.6105 40.9072 52.9653 39.6722 53.8247 38.8224L74.1703 18.4776C76.2471 16.4945 79.5158 16.4945 81.5926 18.4776L86.5409 23.4258C88.5881 25.477 88.5881 28.7977 86.5409 30.849L61.5554 55.8344C60.8986 56.4912 60.008 56.8604 59.0789 56.8604ZM77.8818 20.4391C77.4181 20.4367 76.9728 20.6217 76.646 20.9509L56.2972 41.2989L59.0813 53.3619L84.0667 28.3748C84.7483 27.6908 84.7483 26.5839 84.0667 25.8999L79.1185 20.9517C78.7909 20.6225 78.3456 20.4383 77.8818 20.4391Z" fill="#2260EA"/>
<path d="M24.5126 35.0127C23.9063 35.0119 23.344 34.6979 23.0252 34.1821C22.7065 33.6663 22.6784 33.0224 22.9491 32.4801L31.6979 14.9835C31.9774 14.4245 32.534 14.0568 33.158 14.0192C33.7819 13.9823 34.3786 14.2803 34.723 14.8017C35.0674 15.3239 35.1075 15.9895 34.8279 16.5486L26.0792 34.046C25.7829 34.6387 25.1758 35.0135 24.5126 35.0127Z" fill="#2260EA"/>
<path d="M15.7638 35.0127C15.1575 35.0119 14.5952 34.6979 14.2764 34.1821C13.9585 33.6663 13.9296 33.0224 14.2003 32.4801L22.949 14.9835C23.2286 14.4245 23.7852 14.0568 24.4092 14.0192C25.0331 13.9823 25.6298 14.2803 25.9742 14.8017C26.3186 15.3239 26.3587 15.9895 26.0791 16.5486L17.3312 34.046C17.0341 34.6387 16.4278 35.0135 15.7638 35.0127Z" fill="#2260EA"/>
<path d="M49.0102 35.0126H14.0162C12.0843 35.0101 10.5192 33.4451 10.5168 31.5132V17.5159C10.5192 15.584 12.0843 14.0182 14.0162 14.0166H49.0102C50.9413 14.0182 52.5071 15.584 52.5095 17.5159V31.5132C52.5071 33.4451 50.9413 35.0101 49.0102 35.0126ZM14.0162 17.5159V31.5132H49.0118L49.0102 17.5159H14.0162Z" fill="#2260EA"/>
<path d="M35.0121 105H28.0135C25.1157 104.997 22.7681 102.648 22.7649 99.7512V56.0084C22.7649 51.1771 26.6815 47.2605 31.5128 47.2605C36.3449 47.2605 40.2615 51.1771 40.2615 56.0084V99.7512C40.2583 102.648 37.9099 104.997 35.0121 105ZM31.5128 50.7598C28.615 50.763 26.2674 53.1114 26.2642 56.0084V99.7512C26.265 100.717 27.0475 101.5 28.0135 101.5H35.0121C35.9781 101.5 36.7614 100.717 36.7622 99.7512V56.0084C36.759 53.1114 34.4106 50.763 31.5128 50.7598Z" fill="#2260EA"/>
<path d="M3.51837 17.5159V49.0098H0.019043V17.5159H3.51837Z" fill="white"/>
<path d="M1.7683 26.2638C2.73344 26.2614 3.51516 25.4797 3.51837 24.5145V17.5159H0.019043V24.5145C0.0214458 25.4797 0.803167 26.2614 1.7683 26.2638Z" fill="#2260EA"/>
<path d="M0.019043 49.0098H3.51837V38.5118C3.51837 37.5458 2.73504 36.7617 1.7683 36.7617C0.802366 36.7617 0.019043 37.5458 0.019043 38.5118V49.0098Z" fill="#2260EA"/>
<path d="M3.51832 31.5132C3.51111 31.0503 3.33009 30.6066 3.01052 30.271L2.74861 30.0611C2.65089 29.9947 2.54437 29.9418 2.43304 29.9033C2.33452 29.8529 2.228 29.8176 2.11827 29.7984C2.00293 29.7784 1.88599 29.7672 1.76825 29.7632C1.30531 29.7696 0.861585 29.9514 0.525989 30.271C-0.133989 30.967 -0.133989 32.0587 0.525989 32.7555C0.693387 32.9133 0.889618 33.0382 1.10347 33.1231C1.31412 33.2129 1.53998 33.2601 1.76825 33.2625C2.2312 33.2561 2.67492 33.0743 3.01052 32.7555C3.33009 32.4199 3.51111 31.9762 3.51832 31.5132Z" fill="#2260EA"/>
<path d="M24.5159 79.6819C24.3766 79.6819 24.2372 79.6659 24.101 79.6323C9.97478 76.1954 0.0286543 63.5477 0.019043 49.0098C0.019043 48.0438 0.802366 47.2605 1.7683 47.2605C2.73504 47.2605 3.51837 48.0438 3.51837 49.0098C3.52798 61.9338 12.3704 73.1766 24.9276 76.2314C25.7894 76.4405 26.3581 77.2599 26.2532 78.1393C26.1482 79.0195 25.4026 79.6819 24.5159 79.6819Z" fill="#2260EA"/>
<path d="M61.2576 35.6251C60.2917 35.6251 59.5084 34.841 59.5084 33.875V17.5157C59.4995 9.78823 53.2378 3.52645 45.5111 3.51764H17.5157C9.78896 3.52645 3.52718 9.78823 3.51837 17.5157C3.51837 18.4817 2.73504 19.265 1.7683 19.265C0.802366 19.265 0.019043 18.4817 0.019043 17.5157C0.0294552 7.85635 7.85708 0.0295237 17.5157 0.0183105H45.5111C55.1696 0.0295237 62.9965 7.85635 63.0077 17.5157V33.875C63.0077 34.3388 62.8235 34.7841 62.4951 35.1125C62.1667 35.4401 61.7222 35.6251 61.2576 35.6251Z" fill="#2260EA"/>
<path d="M38.51 79.6818C37.6233 79.681 36.8768 79.017 36.7735 78.1359C36.6702 77.2549 37.2421 76.4363 38.1055 76.2305C41.0177 75.5353 43.7954 74.3627 46.3256 72.7616C47.4653 72.0512 48.5538 71.2615 49.5822 70.398C50.3231 69.7765 51.4268 69.8734 52.0483 70.6143C52.6691 71.3552 52.5721 72.4597 51.8313 73.0804C50.6787 74.0463 49.4605 74.9306 48.1846 75.7259C45.3324 77.5304 42.2015 78.8504 38.9184 79.6337C38.7847 79.6658 38.6477 79.6818 38.51 79.6818Z" fill="#2260EA"/>
<path d="M55.4995 68.3615C54.8411 68.3599 54.2396 67.9898 53.9417 67.4027C53.6437 66.8156 53.7006 66.1116 54.0882 65.5798C56.6449 62.0789 58.3645 58.0381 59.1134 53.7683C59.2784 52.8159 60.1842 52.1784 61.1366 52.3434C62.0889 52.5084 62.7264 53.4142 62.5614 54.3666C61.7188 59.1658 59.787 63.708 56.914 67.6438C56.5848 68.0956 56.0586 68.3623 55.4995 68.3615Z" fill="#2260EA"/>
</svg>
