<svg width="81" height="105" viewBox="0 0 81 105" fill="none" xmlns="http://www.w3.org/2000/svg">
<path d="M78.4401 88.305L42.4426 102.882C41.1953 103.379 39.805 103.379 38.5576 102.882C8.10761 90.6325 37.7876 101.99 2.56011 88.305C2.22248 88.1811 1.99805 87.8596 1.99805 87.5C1.99805 87.1403 2.22248 86.8189 2.56011 86.695C43.7201 70.9275 38.7501 72.45 40.5001 71.75L78.4401 86.695C78.7778 86.8189 79.0022 87.1403 79.0022 87.5C79.0022 87.8596 78.7778 88.1811 78.4401 88.305Z" fill="#CAD9FC"/>
<path d="M71.4401 86.5548C32.7651 101.5 35.2501 101.22 34.7601 101.342C22.3526 96.3198 25.8701 97.3698 2.56011 88.3048C2.22248 88.1809 1.99805 87.8595 1.99805 87.4998C1.99805 87.1402 2.22248 86.8187 2.56011 86.6948L39.3101 72.2573L71.5276 84.9448C71.8598 85.086 72.0679 85.4201 72.0484 85.7805C72.0288 86.1409 71.7856 86.4504 71.4401 86.5548Z" fill="#E8EDFC"/>
<path d="M21.25 17.5H59.75V28H21.25V17.5Z" fill="#A4C2F7"/>
<path d="M59.75 28L49.25 45.5H31.75L21.25 28H59.75Z" fill="#CAD9FC"/>
<path d="M54.5 28L44 45.5H31.75L21.25 28H54.5Z" fill="#E8EDFC"/>
<path d="M49.25 45.5V52.01C49.2472 52.3293 49.1629 52.6425 49.005 52.92L44.5075 60.3925C44.1924 60.924 43.6204 61.2499 43.0025 61.25H37.875C37.2988 61.2316 36.7743 60.9129 36.4925 60.41L31.995 52.9375C31.8371 52.66 31.7528 52.3468 31.75 52.0275V45.5H49.25Z" fill="#CAD9FC"/>
<path d="M44 45.5V52.01C43.9972 52.3293 43.9129 52.6425 43.755 52.92L39.2575 60.3925C38.9897 60.9087 38.4566 61.2327 37.875 61.2327C37.2934 61.2327 36.7603 60.9087 36.4925 60.3925L31.995 52.92C31.8371 52.6425 31.7528 52.3293 31.75 52.01V45.5H44Z" fill="#E8EDFC"/>
<path d="M66.75 1.75H14.25C13.2835 1.75 12.5 2.5335 12.5 3.5V15.75C12.5 16.7165 13.2835 17.5 14.25 17.5H66.75C67.7165 17.5 68.5 16.7165 68.5 15.75V3.5C68.5 2.5335 67.7165 1.75 66.75 1.75Z" fill="#CAD9FC"/>
<path d="M61.5 1.75H14.25C13.2835 1.75 12.5 2.5335 12.5 3.5V15.75C12.5 16.7165 13.2835 17.5 14.25 17.5H61.5C62.4665 17.5 63.25 16.7165 63.25 15.75V3.5C63.25 2.5335 62.4665 1.75 61.5 1.75Z" fill="#E8EDFC"/>
<path d="M31.995 52.92L36.4925 60.3925C36.8076 60.924 37.3796 61.2499 37.9975 61.25H43.125C42.5546 61.2126 42.0385 60.899 41.7425 60.41L37.245 52.9375C37 52.325 37 52.6925 37 45.5L26.5 28V17.5H21.25V28L31.75 45.5C31.75 52.6925 31.75 52.325 31.995 52.92Z" fill="white"/>
<path d="M2.56011 88.305L38.5576 102.882C39.805 103.379 41.1953 103.379 42.4426 102.882L43.1251 102.602L7.81011 88.305C7.47248 88.1811 7.24805 87.8596 7.24805 87.5C7.24805 87.1403 7.47248 86.8189 7.81011 86.695L43.1251 72.7825L40.5001 71.75L2.56011 86.695C2.22248 86.8189 1.99805 87.1403 1.99805 87.5C1.99805 87.8596 2.22248 88.1811 2.56011 88.305Z" fill="white"/>
<path d="M19.5 1.75H14.25C13.2835 1.75 12.5 2.5335 12.5 3.5V15.75C12.5 16.7165 13.2835 17.5 14.25 17.5H19.5C18.5335 17.5 17.75 16.7165 17.75 15.75V3.5C17.75 2.5335 18.5335 1.75 19.5 1.75Z" fill="white"/>
<path d="M26.7998 75.2329L39.8198 70.1089L41.1008 73.3639L28.0808 78.4879L26.7998 75.2329Z" fill="white"/>
<path d="M66.7499 0H14.2499C12.3169 0 10.7499 1.567 10.7499 3.5V15.75C10.7499 17.683 12.3169 19.25 14.2499 19.25H19.4999V28C19.5111 28.3125 19.595 28.6181 19.7449 28.8925L29.9999 45.99V52.01C30.0116 52.6279 30.1867 53.2317 30.5074 53.76L34.9874 61.25C35.6088 62.3264 36.7545 62.9925 37.9974 63H38.7499V86.38L21.7924 94.2025L5.23739 87.5L28.1099 78.4875C28.545 78.3195 28.895 77.9848 29.0823 77.5577C29.2696 77.1305 29.2786 76.6463 29.1074 76.2125C28.936 75.7806 28.5999 75.4346 28.1731 75.2507C27.7464 75.0669 27.264 75.0603 26.8324 75.2325L1.99989 85.0675C0.994531 85.4557 0.331543 86.4223 0.331543 87.5C0.331543 88.5777 0.994531 89.5443 1.99989 89.9325L38.0149 104.51C38.8065 104.823 39.6487 104.989 40.4999 105C41.3883 105.004 42.2687 104.832 43.0899 104.493L79.0874 89.9325C80.097 89.5507 80.7609 88.5793 80.7499 87.5C80.7394 86.3967 80.0402 85.4177 78.9999 85.05L42.2499 70.56V63H43.0024C44.2453 62.9925 45.391 62.3264 46.0124 61.25L50.4924 53.76C50.8131 53.2317 50.9882 52.6279 50.9999 52.01V45.99L61.2549 28.8925C61.3993 28.6159 61.4828 28.3116 61.4999 28V19.25H66.7499C68.6829 19.25 70.2499 17.683 70.2499 15.75V3.5C70.2499 1.567 68.6829 0 66.7499 0V0ZM75.7624 87.5L41.7949 101.255C40.9685 101.582 40.0488 101.582 39.2224 101.255L26.2374 96.005L41.2349 89.005C41.8273 88.7318 42.2185 88.1516 42.2499 87.5V74.3225L75.7624 87.5ZM47.4999 52.01L43.0024 59.5H37.9974L33.4999 52.01V47.25H47.4999V52.01ZM57.9999 26.25H38.7499C37.7834 26.25 36.9999 27.0335 36.9999 28C36.9999 28.9665 37.7834 29.75 38.7499 29.75H56.6524L48.2524 43.75H32.7474L24.3474 29.75H29.9999C30.9664 29.75 31.7499 28.9665 31.7499 28C31.7499 27.0335 30.9664 26.25 29.9999 26.25H22.9999V19.25H57.9999V26.25ZM59.7499 15.75H14.2499V3.5H17.7499V7C17.7499 7.9665 18.5334 8.75 19.4999 8.75C20.4664 8.75 21.2499 7.9665 21.2499 7V3.5H24.7499V7C24.7499 7.9665 25.5334 8.75 26.4999 8.75C27.4664 8.75 28.2499 7.9665 28.2499 7V3.5H31.7499V7C31.7499 7.9665 32.5334 8.75 33.4999 8.75C34.4664 8.75 35.2499 7.9665 35.2499 7V3.5H38.7499V7C38.7499 7.9665 39.5334 8.75 40.4999 8.75C41.4664 8.75 42.2499 7.9665 42.2499 7V3.5H45.7499V7C45.7499 7.9665 46.5334 8.75 47.4999 8.75C48.4664 8.75 49.2499 7.9665 49.2499 7V3.5H52.7499V7C52.7499 7.9665 53.5334 8.75 54.4999 8.75C55.4664 8.75 56.2499 7.9665 56.2499 7V3.5H59.7499V7C59.7499 7.9665 60.5334 8.75 61.4999 8.75C62.4664 8.75 63.2499 7.9665 63.2499 7V3.5H66.7499V15.75H59.7499Z" fill="#2260EA"/>
<path d="M35.7749 74.3049C35.7749 73.3384 34.9914 72.5549 34.0249 72.5549C33.0584 72.5549 32.2749 73.3384 32.2749 74.3049C32.2749 75.2714 33.0584 76.0549 34.0249 76.0549C34.9914 76.0549 35.7749 75.2714 35.7749 74.3049Z" fill="#2260EA"/>
<path d="M65.4021 44.2051C65.9961 44.0081 66.4399 43.5093 66.5663 42.8964C66.6927 42.2836 66.4826 41.6498 66.015 41.2339C65.5475 40.818 64.8936 40.6831 64.2996 40.8801C61.2116 41.7809 58.661 43.968 57.2996 46.8826C56.1074 49.8893 56.2733 53.2647 57.7546 56.1401C58.9404 58.0781 59.1117 60.4711 58.2142 62.5584C57.3167 64.6456 55.462 66.1674 53.2396 66.6401C52.2731 66.7899 51.6111 67.6948 51.7609 68.6613C51.9107 69.6278 52.8156 70.2899 53.7821 70.1401C53.9621 70.1652 54.1447 70.1652 54.3246 70.1401C57.4127 69.2392 59.9633 67.0521 61.3247 64.1376C62.5077 61.1293 62.3419 57.7578 60.8696 54.8801C59.8054 52.9201 59.652 50.5927 60.4497 48.5101C61.3758 46.4082 63.1919 44.8296 65.4021 44.2051Z" fill="#2260EA"/>
<path d="M78.5447 27.0201C78.9895 26.8761 79.3582 26.5601 79.5686 26.1426C79.779 25.7251 79.8136 25.2407 79.6647 24.7976C79.3572 23.8869 78.3727 23.3946 77.4597 23.6951C74.3716 24.5959 71.821 26.783 70.4597 29.6976C69.2774 32.7 69.4431 36.0658 70.9147 38.9376C71.9773 40.9042 72.1306 43.2362 71.3347 45.3251C70.3573 47.3308 68.5562 48.8126 66.3997 49.3851C65.9548 49.529 65.5861 49.845 65.3757 50.2625C65.1653 50.68 65.1307 51.1644 65.2797 51.6076C65.5204 52.3204 66.1898 52.7995 66.9422 52.7976C67.1326 52.8029 67.3224 52.7732 67.5022 52.7101C70.5902 51.8092 73.1408 49.6221 74.5022 46.7076C75.6937 43.7067 75.5277 40.3369 74.0472 37.4676C72.9914 35.4989 72.8382 33.17 73.6272 31.0801C74.6062 29.0826 76.3979 27.6033 78.5447 27.0201Z" fill="#2260EA"/>
</svg>
