<svg width="105" height="105" viewBox="0 0 105 105" fill="none" xmlns="http://www.w3.org/2000/svg">
<path d="M22.7334 63.0009C32.5091 57.1542 37.3009 45.5942 34.5283 34.5461C36.5828 35.0604 38.6929 35.319 40.8108 35.3161C49.8971 35.3192 58.3168 30.5478 62.9831 22.7512C67.6494 30.5478 76.069 35.3192 85.1554 35.3161C87.2733 35.319 89.3834 35.0604 91.4378 34.5461C88.6653 45.5942 93.4571 57.1542 103.233 63.0009C93.4571 68.8476 88.6653 80.4076 91.4378 91.4557C80.3911 88.7011 68.8415 93.4886 62.9831 103.251C57.1246 93.4886 45.575 88.7011 34.5283 91.4557C37.3009 80.4076 32.5091 68.8476 22.7334 63.0009Z" fill="#E8EDFC"/>
<path d="M103.233 63.0012C93.4572 57.1545 88.6654 45.5945 91.438 34.5464C89.6669 34.9865 87.8544 35.2387 86.0305 35.2989C83.6529 46.1415 88.4637 57.2915 97.9829 63.0012C88.4637 68.7108 83.6529 79.8608 86.0305 90.7034C87.8544 90.7636 89.6669 91.0158 91.438 91.4559C88.6654 80.4078 93.4572 68.8478 103.233 63.0012Z" fill="#CAD9FC"/>
<path d="M89.7054 64.0337C84.318 68.0069 81.5702 74.634 82.5655 81.2536C82.6264 81.6357 82.5004 82.0239 82.2268 82.2975C81.9532 82.5711 81.5651 82.697 81.183 82.6361C74.5639 81.6448 67.9387 84.3918 63.9631 89.776C63.7362 90.0912 63.3715 90.2781 62.9831 90.2781C62.5947 90.2781 62.23 90.0912 62.0031 89.776C58.5936 85.163 53.197 82.442 47.4607 82.4436C45.2033 82.4436 44.7133 82.8111 44.0833 82.5486C43.5902 82.3197 43.3109 81.7897 43.4008 81.2536C44.388 74.635 41.6418 68.0118 36.2608 64.0337C35.9456 63.8068 35.7588 63.4421 35.7588 63.0537C35.7588 62.6653 35.9456 62.3006 36.2608 62.0737C41.6387 58.0931 44.384 51.472 43.4008 44.8539C43.3109 44.3178 43.5902 43.7877 44.0833 43.5589C44.3059 43.4726 44.5463 43.4426 44.7833 43.4714C50.011 44.2487 55.3174 42.7016 59.3082 39.2364L62.2131 36.4189C62.4435 36.1838 62.7589 36.0513 63.0881 36.0513C63.4173 36.0513 63.7327 36.1838 63.9631 36.4189L66.6231 39.1664C69.2379 41.4685 72.4671 42.9584 75.9155 43.4539C77.6546 43.7296 79.4263 43.7296 81.1655 43.4539C81.5476 43.393 81.9357 43.5189 82.2093 43.7925C82.4829 44.0661 82.6089 44.4543 82.548 44.8364C81.5687 51.454 84.3132 58.0732 89.6879 62.0562C90.0123 62.2794 90.2076 62.6467 90.211 63.0404C90.2145 63.4342 90.0258 63.8049 89.7054 64.0337Z" fill="#A4C2F7"/>
<path d="M76.9829 63.0009C76.9829 70.7328 70.715 77.0008 62.983 77.0008C62.1024 76.9998 61.2237 76.9178 60.3581 76.7558C53.7494 75.5029 48.9658 69.7272 48.9658 63.0009C48.9658 56.2745 53.7494 50.4988 60.3581 49.246C61.2237 49.0839 62.1024 49.0019 62.983 49.001C70.715 49.001 76.9829 55.2689 76.9829 63.0009Z" fill="#CAD9FC"/>
<path d="M60.3581 76.7561C66.6402 76.7561 71.733 70.5978 71.733 63.0012C71.733 55.4046 66.6402 49.2463 60.3581 49.2463C54.0759 49.2463 48.9832 55.4046 48.9832 63.0012C48.9832 70.5978 54.0759 76.7561 60.3581 76.7561Z" fill="#E8EDFC"/>
<path d="M28.9634 28.9817C23.4859 34.4417 16.1535 35.9816 14.106 33.9167L6.68604 26.4967C8.73352 28.5617 16.066 27.0217 21.5259 21.5443C26.9859 16.0668 28.4209 9.29437 26.6884 6.93188L33.8983 14.1243C35.9633 16.1718 34.4233 23.5042 28.9634 28.9817Z" fill="#CAD9FC"/>
<path d="M21.526 21.5438C16.066 27.0213 8.73359 28.5438 6.68611 26.4963L2.97614 22.7513C2.64484 22.4227 2.4585 21.9754 2.4585 21.5088C2.4585 21.0422 2.64484 20.5949 2.97614 20.2663L20.2835 2.99396C20.6121 2.66267 21.0594 2.47632 21.526 2.47632C21.9926 2.47632 22.4399 2.66267 22.7685 2.99396L26.4785 6.70393L26.6884 6.93143C28.4209 9.25891 26.8109 16.2764 21.526 21.5438Z" fill="#E8EDFC"/>
<path d="M19.9685 34.3362C19.4085 34.0562 20.441 35.0012 8.2261 22.7863C7.8948 22.4577 7.70845 22.0104 7.70845 21.5438C7.70845 21.0772 7.8948 20.6299 8.2261 20.3013L24.151 4.37645L22.7335 2.99396C22.4049 2.66267 21.9576 2.47632 21.491 2.47632C21.0244 2.47632 20.5771 2.66267 20.2485 2.99396L2.97614 20.3013C2.64484 20.6299 2.4585 21.0772 2.4585 21.5438C2.4585 22.0104 2.64484 22.4577 2.97614 22.7863L14.106 33.9162C15.1035 35.0012 17.326 35.0012 19.9685 34.3362Z" fill="white"/>
<path d="M34.5283 91.4559C36.2993 91.0158 38.1118 90.7636 39.9358 90.7034C42.3134 79.8608 37.5026 68.7108 27.9834 63.0012C37.5026 57.2915 42.3134 46.1415 39.9358 35.2989C38.1118 35.2387 36.2993 34.9865 34.5283 34.5464C37.3009 45.5945 32.5091 57.1545 22.7334 63.0012C32.5091 68.8478 37.3009 80.4078 34.5283 91.4559Z" fill="white"/>
<path d="M30.7134 52.1509L33.7934 53.7959C31.4466 58.2279 27.9301 61.932 23.626 64.5058L21.876 61.4958C25.6179 59.2439 28.6737 56.0126 30.7134 52.1509Z" fill="white"/>
<path d="M28.2109 56.9109C27.2444 56.9109 26.4609 57.6944 26.4609 58.6609C26.4609 59.6274 27.2444 60.4109 28.2109 60.4109C29.1774 60.4109 29.9609 59.6274 29.9609 58.6609C29.9609 57.6944 29.1774 56.9109 28.2109 56.9109Z" fill="#2260EA"/>
<path d="M104.125 61.4958C95.0412 56.0357 90.583 45.2877 93.1352 35.001C93.3028 34.3938 93.1311 33.7434 92.6857 33.298C92.2403 32.8526 91.5899 32.6809 90.9827 32.8485C89.0652 33.3259 87.0964 33.5669 85.1203 33.566C79.3307 33.5649 73.7369 31.4703 69.3704 27.6685C68.6407 27.0307 67.5321 27.1051 66.8942 27.8348C66.2563 28.5645 66.3307 29.6731 67.0604 30.311C72.0753 34.6676 78.4949 37.0664 85.1378 37.066C86.5086 37.0598 87.8772 36.9545 89.2328 36.751C89.0367 38.0955 88.9373 39.4523 88.9353 40.8109C88.9477 49.5507 93.0785 57.7735 100.083 63.0008C93.0768 68.2207 88.9398 76.4364 88.9178 85.1731C88.9248 86.538 89.03 87.9007 89.2328 89.2506C87.8883 89.0545 86.5315 88.9551 85.1728 88.9531C76.433 88.9654 68.2103 93.0963 62.983 100.1C57.763 93.0946 49.5473 88.9576 40.8107 88.9356C39.4457 88.9432 38.0831 89.0484 36.7332 89.2506C38.4299 78.1925 33.2347 67.2133 23.6083 61.5133C22.7905 61.1437 21.8258 61.4526 21.3747 62.2284C20.9237 63.0042 21.1326 63.9954 21.8583 64.5233C30.9831 69.9389 35.4501 80.7181 32.8307 91.0005C32.6631 91.6077 32.8348 92.2581 33.2802 92.7035C33.7256 93.1489 34.376 93.3206 34.9832 93.153C45.281 90.5838 56.0486 95.0443 61.513 104.143C61.8282 104.674 62.4002 105 63.018 105C63.6357 105 64.2077 104.674 64.523 104.143C69.9787 95.0737 80.7072 90.6177 90.9827 93.153C91.5899 93.3206 92.2403 93.1489 92.6857 92.7035C93.1311 92.2581 93.3028 91.6077 93.1352 91.0005C90.566 80.7028 95.0265 69.9352 104.125 64.4708C104.656 64.1555 104.982 63.5835 104.982 62.9658C104.982 62.348 104.656 61.776 104.125 61.4608V61.4958Z" fill="#2260EA"/>
<path d="M5.44419 27.7387L12.8641 35.1586C13.9911 36.1454 15.4646 36.6429 16.9591 36.5411C18.241 36.5233 19.5137 36.323 20.7391 35.9461C23.744 35.0161 26.5175 33.4594 28.8765 31.3786L32.919 35.4036C33.3319 37.1825 33.5433 39.0023 33.549 40.8286C33.5468 44.7781 32.5732 48.6664 30.714 52.151C30.2654 52.9839 30.5599 54.0225 31.379 54.4959C31.7904 54.7312 32.2796 54.7895 32.7347 54.6575C33.1899 54.5256 33.5721 54.2147 33.794 53.796C35.9288 49.8069 37.0468 45.3529 37.0489 40.8286C37.0489 40.3736 37.0489 39.9361 37.0489 39.4986L50.7338 53.1835C46.5034 58.4924 46.1505 65.9145 49.8581 71.6009C53.5657 77.2872 60.4996 79.9582 67.0639 78.2288C73.6282 76.4994 78.3458 70.7586 78.7703 63.9836C79.1949 57.2086 75.2307 50.9238 68.9337 48.3885C68.0348 48.0212 67.0085 48.4522 66.6412 49.351C66.2739 50.2498 66.7048 51.2762 67.6037 51.6435C72.4705 53.5984 75.5528 58.4347 75.2697 63.6718C74.9866 68.9089 71.4009 73.3847 66.3518 74.8037C61.3026 76.2226 55.9103 74.2698 52.9406 69.9467C49.9709 65.6237 50.0828 59.8898 53.2188 55.6859L61.7762 64.2434C62.1048 64.5747 62.5521 64.761 63.0187 64.761C63.4853 64.761 63.9326 64.5747 64.2612 64.2434C64.5925 63.9148 64.7788 63.4675 64.7788 63.0009C64.7788 62.5343 64.5925 62.087 64.2612 61.7584L55.6688 53.201C56.5081 52.5667 57.4257 52.0433 58.3988 51.6435C59.2976 51.2762 59.7285 50.2498 59.3612 49.351C58.994 48.4522 57.9676 48.0212 57.0688 48.3885C55.6588 48.9903 54.3395 49.7854 53.1488 50.751L39.4814 37.0661H40.8114C47.4543 37.0665 53.8739 34.6677 58.8888 30.3111C59.6185 29.6733 59.6929 28.5646 59.055 27.8349C58.4171 27.1052 57.3085 27.0308 56.5788 27.6687C52.2123 31.4704 46.6185 33.565 40.8289 33.5661C39.0027 33.5604 37.1829 33.3491 35.4039 32.9361L31.379 28.8937C33.4597 26.5347 35.0165 23.7611 35.9464 20.7562C36.9614 17.2562 36.6814 14.4038 35.1589 12.8813L22.734 0.508883C22.0515 -0.169628 20.9491 -0.169628 20.2666 0.508883C19.9353 0.837472 19.7489 1.28476 19.7489 1.75137C19.7489 2.21798 19.9353 2.66527 20.2666 2.99386L25.219 7.94632C25.5165 8.24382 25.884 9.69631 25.114 12.3563C23.1738 18.4508 18.3986 23.2259 12.3041 25.1662C9.66165 25.9362 8.19167 25.5687 7.89417 25.2712L2.97671 20.3187C2.64812 19.9874 2.20083 19.8011 1.73422 19.8011C1.26761 19.8011 0.820318 19.9874 0.491729 20.3187C-0.16391 20.997 -0.16391 22.0729 0.491729 22.7512L5.44419 27.7387ZM13.3191 28.5262C16.8842 27.4038 20.1178 25.4203 22.734 22.7512C25.3954 20.1212 27.3669 16.8753 28.474 13.3013C28.638 12.7252 28.7724 12.1411 28.8765 11.5513L32.639 15.3138C32.9365 15.6113 33.304 17.0637 32.534 19.7237C30.5937 25.8182 25.8185 30.5934 19.7241 32.5336C17.0816 33.3036 15.6116 32.9361 15.3141 32.6386L11.5866 28.9287C12.1706 28.8239 12.7488 28.6896 13.3191 28.5262Z" fill="#2260EA"/>
<path d="M64.7331 1.75145C64.7331 0.78496 63.9496 0.00146484 62.9831 0.00146484C62.0166 0.00146484 61.2332 0.78496 61.2332 1.75145V5.25142C61.2332 6.21791 62.0166 7.00141 62.9831 7.00141C63.9496 7.00141 64.7331 6.21791 64.7331 5.25142V1.75145Z" fill="#2260EA"/>
<path d="M64.7331 12.2515C64.7331 11.285 63.9496 10.5015 62.9831 10.5015C62.0166 10.5015 61.2332 11.285 61.2332 12.2515V15.7514C61.2332 16.7179 62.0166 17.5014 62.9831 17.5014C63.9496 17.5014 64.7331 16.7179 64.7331 15.7514V12.2515Z" fill="#2260EA"/>
<path d="M64.7331 22.7512C64.7331 21.7847 63.9496 21.0012 62.9831 21.0012C62.0166 21.0012 61.2332 21.7847 61.2332 22.7512V26.2512C61.2332 27.2177 62.0166 28.0012 62.9831 28.0012C63.9496 28.0012 64.7331 27.2177 64.7331 26.2512V22.7512Z" fill="#2260EA"/>
<path d="M64.7331 33.2512C64.7331 32.2847 63.9496 31.5012 62.9831 31.5012C62.0166 31.5012 61.2332 32.2847 61.2332 33.2512V36.7512C61.2332 37.7177 62.0166 38.5012 62.9831 38.5012C63.9496 38.5012 64.7331 37.7177 64.7331 36.7512V33.2512Z" fill="#2260EA"/>
<path d="M62.9831 42.0012C62.0166 42.0012 61.2332 42.7847 61.2332 43.7512V47.2512C61.2332 48.2177 62.0166 49.0012 62.9831 49.0012C63.9496 49.0012 64.7331 48.2177 64.7331 47.2512V43.7512C64.7331 42.7847 63.9496 42.0012 62.9831 42.0012Z" fill="#2260EA"/>
</svg>
