<svg width="105" height="89" viewBox="0 0 105 89" fill="none" xmlns="http://www.w3.org/2000/svg">
<path d="M29.7498 38.3389H75.2499V52.5485H29.7498V38.3389Z" fill="#7FACFA"/>
<path d="M29.7498 38.3389H70.0003V52.5485H29.7498V38.3389Z" fill="#A4C2F7"/>
<path d="M73.5004 7.81836H80.5003L82.2499 25.6457L80.5003 41.0683H24.5004L22.75 24.9912L24.5004 7.81836H73.5004Z" fill="#CAD9FC"/>
<path d="M15.7501 12.1939L24.5003 7.81836V41.0683L14.0005 35.8187L15.7501 12.1939Z" fill="#CAD9FC"/>
<path d="M89.2505 12.1939L80.5002 7.81836V41.0683L91.0001 35.8187L89.2505 12.1939Z" fill="#CAD9FC"/>
<path d="M85.7504 67.3181H92.7503C93.7164 67.3181 94.4998 68.1024 94.4998 69.0685V75.1936H84V69.0685C84 68.1024 84.7835 67.3181 85.7504 67.3181Z" fill="#A4C2F7"/>
<path d="M12.2503 67.3181H19.2502C20.2171 67.3181 21.0006 68.1024 21.0006 69.0685V76.0684H10.5007V69.0685C10.5007 68.1024 11.2842 67.3181 12.2503 67.3181Z" fill="#A4C2F7"/>
<path d="M33.2506 2.56885H71.75C72.7169 2.56885 73.5004 3.35231 73.5004 4.31842V23.5685C73.5004 24.5354 72.7169 25.3189 71.75 25.3189H33.2506C32.2837 25.3189 31.5002 24.5354 31.5002 23.5685V4.31842C31.5002 3.35231 32.2837 2.56885 33.2506 2.56885Z" fill="#CAD9FC"/>
<path d="M33.2506 2.56885H66.5005C67.4666 2.56885 68.2501 3.35231 68.2501 4.31842V23.5685C68.2501 24.5354 67.4666 25.3189 66.5005 25.3189H33.2506C32.2837 25.3189 31.5002 24.5354 31.5002 23.5685V4.31842C31.5002 3.35231 32.2837 2.56885 33.2506 2.56885Z" fill="#E8EDFC"/>
<path d="M101.5 32.3188V48.069C101.494 49.9996 99.9305 51.5633 97.9999 51.5689H94.4999C94.2035 51.5721 93.9087 51.5305 93.6252 51.4464C92.0823 51.0506 91.0024 49.6616 91 48.069V32.3188H101.5Z" fill="#E8EDFC"/>
<path d="M103.25 9.56856V30.5682C103.247 31.5335 102.465 32.3154 101.5 32.3186H90.9998C90.0345 32.3154 89.2527 31.5335 89.2503 30.5682V9.56856C89.2439 7.00749 91.0976 4.81972 93.625 4.40556C93.9118 4.34147 94.2058 4.31183 94.4998 4.31824H97.9997C99.3928 4.31664 100.729 4.86939 101.714 5.85392C102.699 6.83926 103.252 8.17547 103.25 9.56856Z" fill="#CAD9FC"/>
<path d="M14.0006 32.3188V48.069C13.995 49.9996 12.4313 51.5633 10.5007 51.5689H7.00075C6.70435 51.5721 6.40955 51.5305 6.12516 51.4464C4.58227 51.0506 3.5024 49.6616 3.5 48.069V32.3188H14.0006Z" fill="#E8EDFC"/>
<path d="M96.2503 32.3188V48.069C96.2479 49.6616 95.1681 51.0507 93.6252 51.4464C92.0823 51.0507 91.0024 49.6616 91 48.069V32.3188H96.2503Z" fill="white"/>
<path d="M8.75032 32.3188V48.069C8.74792 49.6616 7.66805 51.0507 6.12516 51.4464C4.58227 51.0507 3.5024 49.6616 3.5 48.069V32.3188H8.75032Z" fill="white"/>
<path d="M15.75 9.56856V30.5682C15.7476 31.5335 14.9658 32.3154 14.0005 32.3186H3.49983C2.53452 32.3154 1.75266 31.5335 1.75026 30.5682V9.56856C1.74385 7.00749 3.59757 4.81972 6.12499 4.40556C6.41258 4.34147 6.70578 4.31183 7.00058 4.31824H10.5005C11.8928 4.31664 13.2298 4.86939 14.2144 5.85392C15.1997 6.83926 15.7525 8.17547 15.75 9.56856Z" fill="#CAD9FC"/>
<path d="M97.9997 9.56876V30.5684C97.9973 31.5338 97.2155 32.3156 96.2502 32.3188H90.9998C90.0345 32.3156 89.2527 31.5338 89.2503 30.5684V9.56876C89.2439 7.00769 91.0976 4.81992 93.625 4.40576C96.1524 4.81992 98.0061 7.00769 97.9997 9.56876Z" fill="#E8EDFC"/>
<path d="M10.5005 9.56876V30.5684C10.4973 31.5338 9.71546 32.3156 8.75015 32.3188H3.49983C2.53452 32.3156 1.75266 31.5338 1.75026 30.5684V9.56876C1.74385 7.00769 3.59757 4.81992 6.12499 4.40576C8.65322 4.81992 10.5061 7.00769 10.5005 9.56876Z" fill="#E8EDFC"/>
<path d="M29.7498 49.8184H75.2499V74.3188H29.7498V49.8184Z" fill="#CAD9FC"/>
<path d="M29.7498 49.8184H70.0003V74.3188H29.7498V49.8184Z" fill="#E8EDFC"/>
<path d="M3.49981 74.3188H101.5C102.467 74.3188 103.25 75.1023 103.25 76.0684V84.8187C103.25 85.7848 102.467 86.5682 101.5 86.5682H3.49981C2.5337 86.5682 1.75024 85.7848 1.75024 84.8187V76.0684C1.75024 75.1023 2.5337 74.3188 3.49981 74.3188Z" fill="#CAD9FC"/>
<path d="M3.49981 74.3188H96.2501C97.2162 74.3188 97.9997 75.1023 97.9997 76.0684V84.8187C97.9997 85.7848 97.2162 86.5682 96.2501 86.5682H3.49981C2.5337 86.5682 1.75024 85.7848 1.75024 84.8187V76.0684C1.75024 75.1023 2.5337 74.3188 3.49981 74.3188Z" fill="#E8EDFC"/>
<path d="M3.49983 32.3186V48.0688C3.50224 49.6613 4.5821 51.0504 6.12499 51.4462C6.40938 51.5303 6.70418 51.5719 7.00058 51.5687H10.5005C10.7945 51.5647 11.0877 51.5231 11.3713 51.4445C9.83082 51.048 8.75256 49.6597 8.75015 48.0688V32.3186C7.78484 32.3154 7.00298 31.5335 7.00058 30.5682V9.56856C6.99337 7.00749 8.84708 4.82052 11.3745 4.40556C11.0861 4.35269 10.7937 4.32305 10.5005 4.31824H7.00058C6.70578 4.31183 6.41258 4.34147 6.12499 4.40556C3.59757 4.81972 1.74385 7.00749 1.75026 9.56856V30.5682C1.75266 31.5335 2.53452 32.3154 3.49983 32.3186Z" fill="white"/>
<path d="M3.49982 86.5683H8.75014C7.78483 86.5659 7.00297 85.784 7.00056 84.8187V76.0684C7.00297 75.1031 7.78483 74.3213 8.75014 74.3188H3.49982C2.53451 74.3213 1.75265 75.1031 1.75024 76.0684V84.8187C1.75265 85.784 2.53451 86.5659 3.49982 86.5683Z" fill="white"/>
<path d="M10.5007 69.0685V74.3188H15.7503V69.0685C15.7503 68.1024 16.5337 67.3181 17.5006 67.3181H12.2503C11.2842 67.3181 10.5007 68.1024 10.5007 69.0685Z" fill="white"/>
<path d="M3.49999 84.8185H101.5C101.5 84.8185 101.507 84.8442 101.5 84.8241C101.498 84.8145 101.5 84.8185 101.5 84.8185V76.1212C101.501 76.0162 101.489 76.0915 101.508 76.0659L101.5 76.0699L100.754 76.0683H3.82283L3.49999 76.0707L3.49759 76.0579C3.5016 76.0683 3.49999 76.0683 3.49999 76.0683V84.8185H5.64618e-05V76.15C-0.00635221 75.6501 0.0897779 75.1543 0.282038 74.6928C0.704209 73.7107 1.55015 72.9745 2.58195 72.6925C2.83509 72.6228 3.09545 72.5828 3.3582 72.5732L3.82283 72.5684H100.754L101.584 72.5708C103.223 72.61 104.615 73.7812 104.933 75.3898C104.978 75.6309 105.001 75.876 105 76.1212V84.7897C105 85.0428 104.974 85.2952 104.924 85.5427C104.584 87.1457 103.177 88.2984 101.539 88.3177L100.732 88.3185H3.59612C2.66927 88.3353 1.77205 87.9916 1.09514 87.3588C0.396593 86.6979 0.000857546 85.7798 5.64618e-05 84.8185H3.49999Z" fill="white"/>
<path d="M9.50249 86.5681C9.50008 85.6028 8.71822 84.8209 7.75291 84.8185H4.25297L3.49995 84.8161C3.51116 84.8113 3.47511 84.8273 3.49915 84.8177H0C0.00160217 86.6546 1.42193 88.1783 3.25401 88.3072C3.6153 88.3265 3.63213 88.3136 3.81397 88.3176H7.75291C8.71822 88.3152 9.49928 87.5334 9.50249 86.5681Z" fill="#2260EA"/>
<path d="M5.64618e-05 84.8185H3.49999V76.0683C3.49999 76.0683 3.5016 76.0675 3.49599 76.0579L3.49999 76.0707L3.82283 76.0683H100.754L101.5 76.0699L101.509 76.0651C101.49 76.0907 101.502 76.0154 101.501 76.1204V83.6073L101.5 84.8185C101.5 84.8185 101.498 84.8153 101.501 84.8233C101.507 84.8434 101.501 84.8177 101.501 84.8177L100.732 84.8185H21.7527C20.7866 84.8185 20.0031 85.602 20.0031 86.5681C20.0031 87.535 20.7866 88.3185 21.7527 88.3185H100.732L101.539 88.3177C103.177 88.2985 104.584 87.1457 104.924 85.5427C104.974 85.2944 105 85.042 105 84.7889V76.1212C105.001 75.876 104.978 75.6317 104.933 75.3906C104.615 73.782 103.223 72.6108 101.584 72.5716L100.754 72.5684H3.82283L3.3582 72.5732C3.09545 72.5828 2.83509 72.6228 2.58195 72.6925C1.55015 72.9745 0.704209 73.7107 0.282038 74.6928C0.0897779 75.1543 -0.00635221 75.6501 5.64618e-05 76.15V84.8185Z" fill="#2260EA"/>
<path d="M14.7528 84.8187C14.2898 84.8251 13.846 85.007 13.5103 85.3258L13.3004 85.5885C13.234 85.6863 13.1811 85.792 13.1426 85.9034C13.0922 86.0027 13.0569 86.1092 13.0377 86.2182C13.0177 86.3343 13.0064 86.4513 13.0024 86.5683C13.0097 87.0321 13.1907 87.4759 13.5103 87.8107C13.9197 88.2353 14.5173 88.422 15.0949 88.305C15.6733 88.1881 16.1507 87.7835 16.363 87.2332C16.4527 87.0233 16.5 86.7974 16.5032 86.5683C16.5072 86.1028 16.3245 85.655 15.9953 85.3258C15.6661 84.9965 15.2182 84.8139 14.7528 84.8187Z" fill="#2260EA"/>
<path d="M94.5 76.0684H84.0001C83.034 76.0684 82.2498 75.285 82.2498 74.3189V69.0686C82.2522 67.1363 83.8183 65.571 85.7505 65.5686H92.7504C94.6818 65.571 96.2479 67.1363 96.2503 69.0686V74.3189C96.2503 75.285 95.4669 76.0684 94.5 76.0684ZM85.7505 72.5685H92.7504V69.0686H85.7505V72.5685Z" fill="#2260EA"/>
<path d="M21.0005 76.0687H10.5006C9.53371 76.0687 8.75024 75.2852 8.75024 74.3191V69.0688C8.75265 67.1366 10.318 65.5713 12.2502 65.5688H19.2501C21.1823 65.5713 22.7484 67.1366 22.75 69.0688V74.3191C22.75 75.2852 21.9666 76.0687 21.0005 76.0687ZM12.2502 72.5687H19.2501V69.0688H12.2502V72.5687Z" fill="#2260EA"/>
<path d="M66.5006 11.3185H49.0001C48.034 11.3185 47.2505 10.5351 47.2505 9.56898C47.2505 8.60207 48.034 7.8186 49.0001 7.8186H66.5006C67.4667 7.8186 68.2502 8.60207 68.2502 9.56898C68.2502 10.5351 67.4667 11.3185 66.5006 11.3185Z" fill="#2260EA"/>
<path d="M42.0003 11.3185H38.5003C37.5342 11.3185 36.7507 10.5351 36.7507 9.56898C36.7507 8.60207 37.5342 7.8186 38.5003 7.8186H42.0003C42.9672 7.8186 43.7506 8.60207 43.7506 9.56898C43.7506 10.5351 42.9672 11.3185 42.0003 11.3185Z" fill="#2260EA"/>
<path d="M71.7502 27.0686H33.2507C31.3185 27.0662 29.7524 25.5009 29.75 23.5687V4.31855C29.7524 2.38633 31.3185 0.821007 33.2507 0.818604H71.7502C73.6824 0.821007 75.2485 2.38633 75.2501 4.31855V23.5687C75.2485 25.5009 73.6824 27.0662 71.7502 27.0686ZM33.2507 4.31855V23.5687H71.7518L71.7502 4.31855H33.2507Z" fill="#2260EA"/>
<path d="M98 53.3187H94.5C91.6017 53.3155 89.2537 50.9667 89.2505 48.0691V32.319C89.2505 31.3521 90.034 30.5686 91.0001 30.5686H101.5C102.467 30.5686 103.25 31.3521 103.25 32.319V48.0691C103.247 50.9667 100.898 53.3155 98 53.3187ZM92.7504 34.0686V48.0691C92.7512 49.0352 93.5339 49.8179 94.5 49.8187H98C98.9661 49.8179 99.7495 49.0352 99.7503 48.0691V34.0686H92.7504Z" fill="#2260EA"/>
<path d="M101.5 34.0684H90.9999C89.0677 34.0668 87.5024 32.5006 87.5 30.5684V9.56874C87.504 5.7043 90.6355 2.57285 94.4999 2.56885H97.9998C101.864 2.57285 104.996 5.7043 105 9.56874V30.5684C104.998 32.5006 103.432 34.0668 101.5 34.0684ZM94.4999 6.06879C92.5677 6.0712 91.0023 7.63652 90.9999 9.56874V30.5684H101.502L101.5 9.56874C101.498 7.63652 99.9321 6.0712 97.9998 6.06879H94.4999Z" fill="#2260EA"/>
<path d="M10.5008 53.3187H7.00081C4.10248 53.3155 1.75369 50.9667 1.75049 48.0691V32.319C1.75049 31.3521 2.53395 30.5686 3.50006 30.5686H14.0007C14.9668 30.5686 15.7503 31.3521 15.7503 32.319V48.0691C15.7471 50.9667 13.3983 53.3155 10.5008 53.3187ZM5.25043 34.0686V48.0691C5.25124 49.0352 6.0339 49.8179 7.00081 49.8187H10.5008C11.4669 49.8179 12.2495 49.0352 12.2503 48.0691V34.0686H5.25043Z" fill="#2260EA"/>
<path d="M14.0006 34.0686H3.49995C1.56853 34.067 0.00240327 32.5009 0 30.5687V9.56898C0.00400542 5.70454 3.13625 2.5731 7.00069 2.56909H10.5006C14.3643 2.5731 17.4965 5.70454 17.5005 9.56898V30.5687C17.4981 32.5009 15.932 34.067 14.0006 34.0686ZM7.00069 6.06904C5.06847 6.07144 3.50235 7.63676 3.49995 9.56898V30.5687H14.0022L14.0006 9.56898C13.9982 7.63676 12.4321 6.07144 10.5006 6.06904H7.00069Z" fill="#2260EA"/>
<path d="M80.5003 42.8187H24.5004C23.5335 42.8187 22.75 42.0352 22.75 41.0683V7.81842C22.75 6.85231 23.5335 6.06885 24.5004 6.06885H31.5003C32.4664 6.06885 33.2506 6.85231 33.2506 7.81842C33.2506 8.78533 32.4664 9.56879 31.5003 9.56879H26.2499V39.3187H78.75V9.56879H73.5004C72.5335 9.56879 71.7501 8.78533 71.7501 7.81842C71.7501 6.85231 72.5335 6.06885 73.5004 6.06885H80.5003C81.4664 6.06885 82.2499 6.85231 82.2499 7.81842V41.0683C82.2499 42.0352 81.4664 42.8187 80.5003 42.8187Z" fill="#2260EA"/>
<path d="M24.5006 42.8189C24.229 42.8189 23.9606 42.7556 23.7179 42.6346L13.2181 37.3843C12.3529 36.9517 12.0028 35.9007 12.4354 35.0363C12.8672 34.1719 13.919 33.8211 14.7834 34.2536L22.7502 38.2366V10.6504L16.533 13.7595C15.6686 14.1912 14.6176 13.8412 14.185 12.9768C13.7524 12.1124 14.1033 11.0606 14.9676 10.6288L23.7179 6.25327C24.2602 5.98251 24.9043 6.01134 25.4202 6.33018C25.9361 6.64901 26.2501 7.21217 26.2501 7.8186V41.0685C26.2501 42.0354 25.4667 42.8181 24.5006 42.8189Z" fill="#2260EA"/>
<path d="M80.5001 42.8189C79.534 42.8181 78.7506 42.0354 78.7498 41.0685V7.8186C78.7498 7.21217 79.0638 6.64901 79.5797 6.33018C80.0964 6.01134 80.7405 5.98251 81.2828 6.25327L90.0331 10.6288C90.8974 11.0606 91.2475 12.1124 90.8157 12.9768C90.3831 13.8412 89.3321 14.1912 88.4669 13.7595L82.2497 10.6504V38.2366L90.2173 34.2536C90.7765 33.9741 91.4422 34.0141 91.9645 34.3586C92.486 34.7031 92.7848 35.2999 92.7471 35.9239C92.7095 36.548 92.3418 37.1047 91.7826 37.3843L81.2828 42.6346C81.0401 42.7556 80.7717 42.8189 80.5001 42.8189Z" fill="#2260EA"/>
<path d="M75.2502 51.5691H29.7501C28.784 51.5691 28.0005 50.7856 28.0005 49.8187V41.0684C28.0005 40.1023 28.784 39.3188 29.7501 39.3188H75.2502C76.2171 39.3188 77.0005 40.1023 77.0005 41.0684V49.8187C77.0005 50.7856 76.2171 51.5691 75.2502 51.5691ZM31.5004 48.0691H73.5006V42.8188H31.5004V48.0691Z" fill="#2260EA"/>
<path d="M75.2502 76.0687H29.7501C28.784 76.0687 28.0005 75.2852 28.0005 74.3191V49.8187C28.0005 48.8526 28.784 48.0691 29.7501 48.0691H75.2502C76.2171 48.0691 77.0005 48.8526 77.0005 49.8187V74.3191C77.0005 75.2852 76.2171 76.0687 75.2502 76.0687ZM31.5004 72.5687H73.5006V51.569H31.5004V72.5687Z" fill="#2260EA"/>
</svg>
