<svg width="103" height="103" viewBox="0 0 103 103" fill="none" xmlns="http://www.w3.org/2000/svg">
<path d="M53.2309 93.0767L49.8594 92.5156V69.5469C49.8594 66.501 48.6494 63.5799 46.4957 61.4262C44.3419 59.2725 41.4208 58.0625 38.375 58.0625H10.4844C10.4844 61.1083 11.6943 64.0294 13.8481 66.1832C16.0018 68.3369 18.9229 69.5469 21.9688 69.5469H36.7344C37.6046 69.5469 38.4392 69.8926 39.0546 70.5079C39.6699 71.1233 40.0156 71.9579 40.0156 72.8281V97.4375C40.0156 98.3077 40.3613 99.1423 40.9767 99.7577C41.592 100.373 42.4266 100.719 43.2969 100.719H59.7031C59.7033 98.885 59.0529 97.1107 57.8678 95.7113C56.6827 94.312 55.0396 93.3785 53.2309 93.0767Z" fill="#E8EDFC"/>
<path d="M29.8979 11.1685L18.6875 5.5625L15.4062 12.125L27.204 18.023" fill="#E8EDFC"/>
<path d="M33.4876 40.6276L44.337 45.5593C45.0054 45.8628 45.5721 46.3524 45.9695 46.9695C46.367 47.5866 46.5783 48.3051 46.5781 49.0391C46.5781 50.1269 46.146 51.1701 45.3768 51.9393C44.6076 52.7085 43.5644 53.1406 42.4766 53.1406C41.9348 53.1409 41.3984 53.0338 40.8983 52.8256L30.9709 48.688C25.1647 46.2698 20.4219 41.8442 17.608 36.2192C17.2382 35.4808 17.046 34.6662 17.0469 33.8403C17.0469 32.4323 17.6062 31.0819 18.6019 30.0862C19.5975 29.0906 20.9479 28.5313 22.3559 28.5313C23.6229 28.5311 24.8489 28.9805 25.8157 29.7995C26.7824 30.6184 27.4273 31.7538 27.6355 33.0036C27.9109 34.6568 28.5888 36.217 29.6093 37.5465C30.6299 38.876 31.9617 39.9341 33.4876 40.6276Z" fill="#E8EDFC"/>
<path d="M58.0625 51.5H100.719V58.0625H58.0625V51.5Z" fill="#E8EDFC"/>
<path d="M28.3147 15.1271L37.7122 19.3042L40.7834 12.6481L31.0381 8.31689L28.3147 15.1271Z" fill="#E8EDFC"/>
<path d="M100.719 49.8594H97.4375V20.3281C97.4375 19.893 97.2646 19.4757 96.957 19.168C96.6493 18.8604 96.232 18.6875 95.7969 18.6875H89.2344C88.7993 18.6875 88.382 18.8604 88.0743 19.168C87.7666 19.4757 87.5938 19.893 87.5938 20.3281V43.2969H67.9062C67.4711 43.2969 67.0538 43.4697 66.7462 43.7774C66.4385 44.0851 66.2656 44.5024 66.2656 44.9375V49.8594H58.0625C57.6274 49.8594 57.2101 50.0322 56.9024 50.3399C56.5947 50.6476 56.4219 51.0649 56.4219 51.5V58.0625C56.4219 58.4976 56.5947 58.9149 56.9024 59.2226C57.2101 59.5303 57.6274 59.7031 58.0625 59.7031V93.5886C56.7647 92.4748 55.1869 91.7372 53.4999 91.4558L51.5 91.1244V69.5469C51.4961 66.0671 50.112 62.731 47.6515 60.2704C45.1909 57.8098 41.8548 56.4258 38.375 56.4219H35.0938V52.1825L40.2683 54.3383C41.1408 54.7018 42.0895 54.8443 43.0303 54.7531C43.9711 54.662 44.8748 54.34 45.6613 53.8158C46.4478 53.2916 47.0927 52.5813 47.5389 51.748C47.985 50.9148 48.2185 49.9843 48.2188 49.0391C48.2184 48.7843 48.1997 48.5299 48.163 48.2778L52.9995 37.4005C53.1707 37.0147 53.1866 36.5777 53.0439 36.1805C52.9012 35.7833 52.6109 35.4564 52.2334 35.2677L50.4205 34.362L52.2334 30.7346L70.4541 39.8516L71.9209 36.9149L53.7017 27.7979L54.609 25.9834L51.6723 24.5166L50.7666 26.3295L48.9521 25.4223L47.4854 28.359L49.2983 29.2646L47.4854 32.892L45.6709 31.9848C45.4781 31.8884 45.2681 31.8309 45.0531 31.8157C44.8381 31.8005 44.6222 31.8278 44.4177 31.896C44.2132 31.9643 44.0242 32.0722 43.8614 32.2135C43.6987 32.3549 43.5654 32.5269 43.4691 32.7198L39.133 41.3921L35.0938 39.5563V33.4531C35.0877 32.2001 34.9026 30.9543 34.5441 29.7535C34.7123 29.6044 34.848 29.4224 34.9428 29.2187L44.7866 7.89055C44.9654 7.5034 44.9865 7.06181 44.8453 6.65939C44.7041 6.25696 44.4118 5.92533 44.0302 5.73477L34.1865 0.812899C33.9835 0.711325 33.7616 0.652979 33.5349 0.641552C33.3082 0.630125 33.0816 0.665865 32.8694 0.746512C32.6573 0.827159 32.4641 0.950958 32.3022 1.11008C32.1404 1.2692 32.0133 1.46018 31.929 1.67095L31.299 3.24759L29.0891 1.77102C28.3142 1.25388 27.4405 0.903022 26.5232 0.740623C25.6059 0.578225 24.6649 0.607808 23.7595 0.827506C22.8542 1.0472 22.0043 1.45224 21.2635 2.01704C20.5226 2.58184 19.9069 3.29413 19.4553 4.10891L19.4209 4.09087C19.228 3.99447 19.0181 3.93701 18.8031 3.92178C18.5881 3.90655 18.3722 3.93385 18.1677 4.00211C17.9632 4.07037 17.7742 4.17825 17.6114 4.3196C17.4487 4.46094 17.3154 4.63298 17.2191 4.82587L13.9379 11.3884C13.8397 11.5817 13.7808 11.7926 13.7646 12.0089C13.7485 12.2252 13.7753 12.4425 13.8437 12.6483C13.912 12.8541 14.0205 13.0443 14.1628 13.208C14.3052 13.3716 14.4785 13.5054 14.6729 13.6016L15.4932 14.0117C15.4383 14.3932 15.4092 14.778 15.4062 15.1634C15.4087 17.3524 16.2644 19.4541 17.7917 21.0221C15.1877 21.8984 12.9239 23.5689 11.3189 25.7988C9.71377 28.0287 8.84814 30.7057 8.84375 33.4531V38.375H2.28125C1.84613 38.375 1.42883 38.5479 1.12115 38.8555C0.813476 39.1632 0.640625 39.5805 0.640625 40.0156V71.1875C0.642971 72.9132 1.09893 74.6079 1.96278 76.1018C2.82663 77.5957 4.06802 78.8362 5.5625 79.6991V100.719C5.5625 101.154 5.73535 101.571 6.04303 101.879C6.35071 102.187 6.768 102.359 7.20312 102.359H13.7656C14.2007 102.359 14.618 102.187 14.9257 101.879C15.2334 101.571 15.4062 101.154 15.4062 100.719V81.0313H38.375V97.4375C38.375 98.7429 38.8936 99.9948 39.8166 100.918C40.7396 101.841 41.9915 102.359 43.2969 102.359H66.2656C66.7007 102.359 67.118 102.187 67.4257 101.879C67.7334 101.571 67.9062 101.154 67.9062 100.719V89.2344H90.875V100.719C90.875 101.154 91.0479 101.571 91.3555 101.879C91.6632 102.187 92.0805 102.359 92.5156 102.359H99.0781C99.5132 102.359 99.9305 102.187 100.238 101.879C100.546 101.571 100.719 101.154 100.719 100.719V59.7031C101.154 59.7031 101.571 59.5303 101.879 59.2226C102.187 58.9149 102.359 58.4976 102.359 58.0625V51.5C102.359 51.0649 102.187 50.6476 101.879 50.3399C101.571 50.0322 101.154 49.8594 100.719 49.8594ZM94.1562 21.9688V47.5395L90.875 44.2583V21.9688H94.1562ZM69.5469 46.5781H88.5552L91.8364 49.8594H69.5469V46.5781ZM59.7031 53.1406H99.0781V56.4219H59.7031V53.1406ZM38.375 59.7031C40.9849 59.7057 43.4872 60.7437 45.3327 62.5892C47.1782 64.4347 48.2161 66.937 48.2188 69.5469V90.875H41.6562V72.8281C41.6562 71.5228 41.1377 70.2709 40.2147 69.3478C39.2916 68.4248 38.0397 67.9063 36.7344 67.9063H21.9688C19.6447 67.9019 17.397 67.0763 15.6228 65.5753C13.8485 64.0742 12.6619 61.9943 12.2727 59.7031H38.375ZM42.4766 51.5C42.1517 51.5002 41.8299 51.4361 41.5299 51.3113L31.6025 47.1737C26.1591 44.9051 21.7128 40.7552 19.0747 35.4809C18.8413 35.0054 18.7133 34.4851 18.6993 33.9555C18.6853 33.4259 18.7857 32.8996 18.9937 32.4124C19.2017 31.9252 19.5123 31.4885 19.9044 31.1323C20.2964 30.7761 20.7607 30.5086 21.2656 30.3481C21.7705 30.1877 22.304 30.138 22.8298 30.2025C23.3556 30.2671 23.8613 30.4442 24.3124 30.722C24.7635 30.9998 25.1494 31.3716 25.4437 31.812C25.738 32.2525 25.9338 32.7513 26.0178 33.2743C26.3359 35.1936 27.1221 37.005 28.3067 38.5482C29.4914 40.0914 31.0381 41.3189 32.81 42.1222L43.6595 47.0539C44.0402 47.2277 44.3631 47.5071 44.5896 47.859C44.8162 48.211 44.9369 48.6205 44.9375 49.0391C44.9375 49.6918 44.6782 50.3177 44.2167 50.7792C43.7552 51.2407 43.1292 51.5 42.4766 51.5ZM45.6709 35.6549L49.3672 37.5006L46.1352 44.7636C45.7919 44.4866 45.4162 44.2524 45.0163 44.0663L42.1222 42.7538L45.6709 35.6549ZM32.6722 26.3033L32.0996 26.0162C30.651 25.2926 29.5275 24.0508 28.9521 22.5372C28.3768 21.0236 28.3917 19.349 28.9939 17.8459L29.2055 17.3159L35.5252 20.1247L32.6722 26.3033ZM31.929 10.5057L38.5965 13.4687L36.8984 17.1486L30.4245 14.2709L31.929 10.5057ZM34.3145 4.54532L41.1411 7.95946L39.9713 10.4926L33.148 7.46071L34.3145 4.54532ZM25.3419 3.92188C26.0279 3.92119 26.6987 4.12387 27.2696 4.50431L30.0587 6.36149L29.0431 8.90282L22.4166 5.59204C22.7205 5.08655 23.149 4.66753 23.6612 4.3751C24.1734 4.08266 24.7521 3.92661 25.3419 3.92188ZM19.4209 7.76423L27.8143 11.9609L26.3033 15.7344L17.608 11.3867L19.4209 7.76423ZM25.3747 18.9434C25.3035 19.3743 25.2619 19.8096 25.25 20.2461V20.3281H23.8473C22.5609 20.3237 21.3226 19.8385 20.3756 18.968C19.4285 18.0974 18.8411 16.9043 18.7285 15.6228L25.3747 18.9434ZM21.9688 23.6094C23.4745 23.6142 24.9591 23.9645 26.3082 24.6331C27.2446 26.5027 28.7613 28.0188 30.6313 28.9545L30.7313 29.0054C31.4362 30.3824 31.8066 31.9062 31.8125 33.4531V37.5334C30.4606 36.2545 29.5627 34.5698 29.2548 32.7345C29.0957 31.7431 28.7243 30.7978 28.1659 29.9633C27.6076 29.1288 26.8754 28.4248 26.0197 27.8996C25.1639 27.3744 24.2047 27.0403 23.2078 26.9203C22.2109 26.8003 21.1999 26.8971 20.2439 27.2042C19.2879 27.5113 18.4096 28.0214 17.6691 28.6995C16.9287 29.3777 16.3435 30.2078 15.9537 31.1332C15.5639 32.0585 15.3787 33.0572 15.4108 34.0608C15.4429 35.0643 15.6915 36.0491 16.1396 36.9477C19.1291 42.9254 24.1674 47.6295 30.3359 50.2023L31.8125 50.8159V56.4219H12.125V33.4531C12.1276 30.8432 13.1655 28.3409 15.011 26.4954C16.8565 24.6499 19.3588 23.612 21.9688 23.6094ZM12.125 99.0781H8.84375V80.8836C9.38554 80.9786 9.93433 81.028 10.4844 81.0313H12.125V99.0781ZM10.4844 77.75C8.74389 77.75 7.07469 77.0586 5.84399 75.8279C4.61328 74.5972 3.92188 72.928 3.92188 71.1875V41.6563H8.84375V58.0625C8.84766 61.5423 10.2317 64.8784 12.6923 67.339C15.1529 69.7995 18.489 71.1836 21.9688 71.1875H36.7344C37.1695 71.1875 37.5868 71.3604 37.8945 71.668C38.2021 71.9757 38.375 72.393 38.375 72.8281V77.75H10.4844ZM43.2969 99.0781C42.8618 99.0781 42.4445 98.9053 42.1368 98.5976C41.8291 98.2899 41.6562 97.8726 41.6562 97.4375V94.1563H49.738L52.9602 94.6944C54.1073 94.8828 55.1766 95.3958 56.0415 96.1726C56.9065 96.9495 57.5309 97.9577 57.841 99.0781H43.2969ZM61.3438 99.0781V59.7031H64.625V99.0781H61.3438ZM67.9062 85.9531V59.7031H90.875V85.9531H67.9062ZM97.4375 99.0781H94.1562V59.7031H97.4375V99.0781Z" fill="#2260EA"/>
<path d="M71.3598 34.1866L74.2966 32.7199L73.2154 30.5592L75.3761 31.6404C75.6841 31.7941 76.0327 31.847 76.3725 31.7917C76.7123 31.7363 77.0261 31.5755 77.2694 31.3319L79.3907 29.2106V33.4533H82.672V25.2501C82.6719 24.9257 82.5756 24.6086 82.3953 24.3388C82.2151 24.0691 81.9589 23.8589 81.6591 23.7347C81.3594 23.6106 81.0296 23.5781 80.7114 23.6414C80.3931 23.7046 80.1008 23.8608 79.8714 24.0902L75.7862 28.1754L70.2803 25.4224C69.9722 25.2681 69.6234 25.2146 69.2833 25.2697C68.9431 25.3247 68.629 25.4855 68.3853 25.7291C68.1417 25.9728 67.9809 26.2869 67.9259 26.6271C67.8708 26.9672 67.9242 27.3161 68.0786 27.6241L71.3598 34.1866Z" fill="#2260EA"/>
<path d="M57.2947 43.4651L63.8538 40.1855L65.3206 43.1189L58.7614 46.3985L57.2947 43.4651Z" fill="#2260EA"/>
</svg>
