<svg width="104" height="104" viewBox="0 0 104 104" fill="none" xmlns="http://www.w3.org/2000/svg">
<path d="M15.4062 88.5938V3.28125H2.28125V88.5938V101.719H100.719V88.5938H15.4062Z" fill="#E8EDFC"/>
<path d="M100.719 86.9531H28.418C28.05 84.0659 26.7336 81.3826 24.6755 79.3245C22.6174 77.2664 19.9341 75.95 17.0469 75.582V3.28125C17.0469 2.84613 16.874 2.42883 16.5663 2.12115C16.2587 1.81348 15.8414 1.64063 15.4062 1.64062H2.28125C1.84613 1.64063 1.42883 1.81348 1.12115 2.12115C0.813476 2.42883 0.640625 2.84613 0.640625 3.28125V101.719C0.640625 102.154 0.813476 102.571 1.12115 102.879C1.42883 103.187 1.84613 103.359 2.28125 103.359H100.719C101.154 103.359 101.571 103.187 101.879 102.879C102.187 102.571 102.359 102.154 102.359 101.719V88.5938C102.359 88.1586 102.187 87.7413 101.879 87.4337C101.571 87.126 101.154 86.9531 100.719 86.9531ZM25.1023 86.9531H17.0469V78.8977C19.0582 79.2414 20.9133 80.2009 22.3562 81.6438C23.7991 83.0867 24.7586 84.9418 25.1023 86.9531ZM13.7656 4.92188V86.9531H3.92188V4.92188H13.7656ZM99.0781 100.078H3.92188V90.2344H99.0781V100.078Z" fill="#2260EA"/>
<path d="M28.5313 67.5476C28.5312 68.7898 28.8994 70.0042 29.5895 71.0371C30.2796 72.07 31.2605 72.875 32.4081 73.3504C33.5558 73.8258 34.8187 73.9502 36.037 73.7078C37.2553 73.4654 38.3744 72.8672 39.2528 71.9888L103.519 7.72219L101.199 5.40234L36.9329 69.6689C36.3663 70.2117 35.6096 70.511 34.8249 70.5025C34.0403 70.4941 33.2902 70.1787 32.7353 69.6238C32.1805 69.069 31.8651 68.3189 31.8566 67.5342C31.8482 66.7496 32.1475 65.9929 32.6903 65.4263L95.3162 2.80031L92.9964 0.480469L30.3704 63.1064C29.7852 63.6881 29.3213 64.3802 29.0056 65.1426C28.6899 65.905 28.5287 66.7224 28.5313 67.5476Z" fill="#2260EA"/>
<path d="M21.5684 59.0132C21.6994 59.0457 21.8338 59.0622 21.9688 59.0624C22.2652 59.0625 22.5561 58.9824 22.8106 58.8304C23.0651 58.6785 23.2736 58.4604 23.4141 58.1994L30.3835 45.2549L28.5509 57.1724C28.4958 57.5271 28.5585 57.89 28.7294 58.2056C28.9003 58.5213 29.17 58.7721 29.4972 58.9198C29.8243 59.0674 30.1909 59.1037 30.5406 59.0231C30.8904 58.9425 31.204 58.7494 31.4335 58.4734L39.6366 48.6297L37.1134 46.5264L32.6837 51.8371L35.0675 36.343C35.1264 35.9607 35.0483 35.5698 34.8469 35.2394C34.6456 34.909 34.3339 34.6605 33.9671 34.5376C33.6002 34.4147 33.2017 34.4254 32.842 34.5679C32.4823 34.7103 32.1845 34.9753 32.0012 35.316L23.6094 50.9134V47.578H20.3281V57.4218C20.328 57.7873 20.45 58.1424 20.6747 58.4307C20.8994 58.719 21.214 58.924 21.5684 59.0132Z" fill="#2260EA"/>
<path d="M45.2967 71.1621L38.7342 79.3652C38.541 79.6066 38.4199 79.8976 38.3848 80.2047C38.3498 80.5119 38.4023 80.8227 38.5362 81.1013C38.6701 81.3799 38.88 81.6151 39.1417 81.7796C39.4035 81.9441 39.7064 82.0314 40.0155 82.0312H49.8593V78.75H43.4296L47.8593 73.2129L45.2967 71.1621Z" fill="#2260EA"/>
<path d="M55.6514 70.7458L73.7004 60.899L75.2722 63.78L57.2231 73.6268L55.6514 70.7458Z" fill="#2260EA"/>
<path d="M37.6372 39.6511L46.6761 14.2343L49.767 15.3336L40.7281 40.7503L37.6372 39.6511Z" fill="#2260EA"/>
</svg>
