<svg width="105" height="105" viewBox="0 0 105 105" fill="none" xmlns="http://www.w3.org/2000/svg">
<path d="M59.4998 19.25V50.7495L52.4999 57.7502L45.5 50.7495V19.25H59.4998Z" fill="#7FACFA"/>
<path d="M54.2503 19.25V48.9999L48.9999 54.2503L45.5 50.7495V19.25H54.2503Z" fill="#A4C2F7"/>
<path d="M73.3602 4.16496L66.5173 20.5977C65.975 21.893 65.5721 22.7502 64.1726 22.7502H41.7021C40.2946 22.743 39.0273 21.8962 38.4825 20.5977L31.6396 4.16496C31.4153 3.62663 31.4746 3.0122 31.7983 2.52674C32.1219 2.04128 32.6666 1.74969 33.2498 1.75049H71.75C72.3332 1.74969 72.878 2.04128 73.2016 2.52674C73.5253 3.0122 73.5845 3.62663 73.3602 4.16496Z" fill="#CAD9FC"/>
<path d="M68.1099 4.16496L61.2678 20.5977C60.7247 21.893 60.3225 22.7502 58.9222 22.7502H41.7021C40.2946 22.743 39.0273 21.8962 38.4825 20.5977L31.6396 4.16496C31.4153 3.62663 31.4746 3.0122 31.7983 2.52674C32.1219 2.04128 32.6666 1.74969 33.2498 1.75049H66.4997C67.0829 1.74969 67.6277 2.04128 67.9513 2.52674C68.2749 3.0122 68.3342 3.62663 68.1099 4.16496Z" fill="#E8EDFC"/>
<path d="M100.013 36.5399L55.598 80.9722C53.8836 82.6761 51.1167 82.6761 49.4024 80.9722L4.98772 36.5399C4.54632 36.1089 4.37249 35.4729 4.5327 34.8776C4.61361 34.5748 4.77063 34.2977 4.98772 34.0726L8.69755 30.3627C9.0244 30.0351 9.4682 29.8508 9.93123 29.8508C10.3943 29.8508 10.8381 30.0351 11.1649 30.3627L52.5002 71.6796L93.8354 30.3627C94.4026 29.7964 95.2822 29.6882 95.9703 30.1C96.0921 30.1721 96.2042 30.2602 96.3028 30.3627L100.013 34.0726C100.34 34.3994 100.524 34.8432 100.524 35.3062C100.524 35.7693 100.34 36.2131 100.013 36.5399Z" fill="#CAD9FC"/>
<path d="M95.9703 30.1C95.8878 30.3828 95.7372 30.6407 95.5329 30.8522L51.1175 75.2852C50.2964 76.1063 49.1813 76.5662 48.0205 76.5622C46.8629 76.5694 45.7526 76.1087 44.9403 75.2852L4.53271 34.8776C4.61362 34.5748 4.77064 34.2977 4.98773 34.0726L8.69756 30.3627C9.02441 30.0351 9.46821 29.8508 9.93124 29.8508C10.3943 29.8508 10.8381 30.0351 11.1649 30.3627L52.5002 71.6795L93.8354 30.3627C94.4026 29.7964 95.2822 29.6882 95.9703 30.1Z" fill="#E8EDFC"/>
<path d="M103.25 64.7501V101.5C103.247 102.465 102.465 103.247 101.5 103.25H3.50006C2.53475 103.247 1.75289 102.465 1.75049 101.5V64.7501C1.75289 63.7848 2.53475 63.003 3.50006 62.9998H21.8578C22.4177 62.9982 22.9448 63.2649 23.2749 63.7175L44.9755 93.7823C45.3056 94.2349 45.8327 94.5017 46.3926 94.5001H58.6076C59.1676 94.5017 59.6947 94.2349 60.0247 93.7823L81.7253 63.7175C82.0554 63.2649 82.5825 62.9982 83.1425 62.9998H101.5C102.465 63.003 103.247 63.7848 103.25 64.7501Z" fill="#CAD9FC"/>
<path d="M98.0002 64.7501V101.5C97.997 102.465 97.2152 103.247 96.2498 103.25H3.50006C2.53475 103.247 1.75289 102.465 1.75049 101.5V64.7501C1.75289 63.7848 2.53475 63.003 3.50006 62.9998H20.9653C21.5253 62.9982 22.0524 63.2649 22.3825 63.7175L44.0823 93.7823C44.4131 94.2349 44.9403 94.5017 45.5002 94.5001H58.6076C59.1676 94.5017 59.6947 94.2349 60.0247 93.7823L81.7253 63.7175C82.0554 63.2649 82.5825 62.9982 83.1425 62.9998H96.2498C97.2152 63.003 97.997 63.7848 98.0002 64.7501Z" fill="#E8EDFC"/>
<path d="M7.00001 101.5V64.7501C7.00321 63.7848 7.78507 63.003 8.75038 62.9998H3.50006C2.53475 63.003 1.75289 63.7848 1.75049 64.7501V101.5C1.75289 102.465 2.53475 103.247 3.50006 103.25H8.75038C7.78507 103.247 7.00321 102.465 7.00001 101.5Z" fill="white"/>
<path d="M38.5002 1.75049H33.2498C32.6666 1.74969 32.1219 2.04128 31.7983 2.52674C31.4746 3.0122 31.4153 3.62663 31.6396 4.16496L38.4825 20.5977C39.0273 21.8962 40.2946 22.743 41.7021 22.7502H45.5V50.7497L49 54.2505L52.4999 57.7504L55.1251 55.1253L50.7496 50.7497V22.7502H46.9524C45.5449 22.743 44.2768 21.8962 43.732 20.5977L36.89 4.16496C36.6657 3.62663 36.7249 3.0122 37.0486 2.52674C37.3722 2.04128 37.917 1.74969 38.5002 1.75049Z" fill="white"/>
<path d="M52.4998 59.5C52.0359 59.5008 51.5905 59.3157 51.2629 58.9873L44.2622 51.9874C43.9346 51.6589 43.7495 51.2143 43.7495 50.7497V22.7501C43.7495 21.7832 44.533 20.9998 45.4999 20.9998H59.4997C60.4666 20.9998 61.25 21.7832 61.25 22.7501V50.7497C61.25 51.2143 61.065 51.6589 60.7374 51.9874L53.7367 58.9873C53.409 59.3157 52.9636 59.5008 52.4998 59.5ZM47.2495 50.0255L52.4998 55.2751L57.7501 50.0255V24.4997H47.2495V50.0255Z" fill="#2260EA"/>
<path d="M64.1668 24.4996H41.7091C39.5886 24.5044 37.6748 23.2275 36.8641 21.268L30.0213 4.84737C29.5702 3.76751 29.6888 2.53304 30.3385 1.55891C30.9874 0.584794 32.0809 -0.000800266 33.2512 8.20848e-07H71.7482C72.9186 -0.000800266 74.0121 0.584794 74.661 1.55891C75.3107 2.53304 75.4292 3.76751 74.9782 4.84737L68.1353 21.2696C67.7092 23.129 66.0733 24.4596 64.1668 24.4996ZM33.2512 3.49995H33.2448L40.0941 19.9222C40.3649 20.5751 41.0026 21.0005 41.7091 20.9997H64.1668C64.2421 21.0045 64.3182 20.9973 64.3911 20.9773C64.5985 20.644 64.7708 20.2915 64.9054 19.923L71.7482 3.49995H33.2512Z" fill="#2260EA"/>
<path d="M52.4999 84.0002C50.8745 84.0042 49.3156 83.3577 48.1693 82.2058L3.74982 37.7855C3.09293 37.1295 2.72363 36.2394 2.72363 35.311C2.72363 34.3825 3.09293 33.4925 3.74982 32.8364L7.46126 29.1234C8.82871 27.7583 11.0437 27.7583 12.4104 29.1234L52.4999 69.2122L92.5895 29.1234C93.9562 27.7583 96.1712 27.7583 97.5386 29.1234L101.25 32.8364C101.907 33.4925 102.276 34.3825 102.276 35.311C102.276 36.2394 101.907 37.1295 101.25 37.7855L56.8306 82.2058C55.6843 83.3577 54.1253 84.0042 52.4999 84.0002ZM9.93581 31.598L6.22438 35.311L50.6446 79.7304C51.6836 80.7222 53.3178 80.7222 54.3569 79.7304L98.7755 35.311L95.0641 31.598L53.7368 72.9252C53.0535 73.6077 51.9464 73.6077 51.2631 72.9252L9.93581 31.598Z" fill="#2260EA"/>
<path d="M3.49995 64.7502V101.5H0V64.7502H3.49995Z" fill="white"/>
<path d="M1.75037 73.4997C2.71568 73.4973 3.49754 72.7154 3.49995 71.7501V64.7502H0V71.7501C0.00240327 72.7154 0.784264 73.4973 1.75037 73.4997Z" fill="#2260EA"/>
<path d="M0 101.5H3.49995V85.7498C3.49995 84.7837 2.71648 84.0002 1.75037 84.0002C0.783462 84.0002 0 84.7837 0 85.7498V101.5Z" fill="#2260EA"/>
<path d="M3.49994 78.7499C3.49273 78.2869 3.31168 77.8431 2.99285 77.5074L2.73009 77.2975C2.63236 77.231 2.52662 77.1782 2.41527 77.1397C2.31593 77.0892 2.20939 77.054 2.09964 77.0348C1.98428 77.0155 1.86732 77.0035 1.75036 76.9995C1.28654 77.0067 0.842733 77.1878 0.507879 77.5074C-0.153017 78.2043 -0.153017 79.2954 0.507879 79.9924C0.674505 80.1502 0.870772 80.2752 1.08466 80.3601C1.29535 80.4498 1.52125 80.4971 1.75036 80.5003C2.21339 80.493 2.65639 80.312 2.99285 79.9924C3.31168 79.6567 3.49273 79.2129 3.49994 78.7499Z" fill="#2260EA"/>
<path d="M101.5 105H3.49995C1.56773 104.998 0.00240327 103.432 0 101.5C0 100.533 0.783462 99.7497 1.75037 99.7497C2.71648 99.7497 3.49995 100.533 3.49995 101.5V101.502L101.5 101.5V64.7502H83.1456L61.4425 94.7989C60.7832 95.7082 59.7282 96.2481 58.6043 96.2497H46.3957C45.2726 96.2481 44.2184 95.7098 43.5583 94.8005L21.856 64.7502H3.49995C3.49995 65.7163 2.71648 66.4998 1.75037 66.4998C0.783462 66.4998 0 65.7163 0 64.7502C0.00240327 62.818 1.56773 61.2518 3.49995 61.2502H21.8544C22.9776 61.2518 24.0318 61.7902 24.6911 62.6994L46.3941 92.7498H58.6043L80.3073 62.701C80.9674 61.7918 82.0216 61.2518 83.1456 61.2502H101.5C103.432 61.2518 104.998 62.818 105 64.7502V101.5C104.998 103.432 103.432 104.998 101.5 105Z" fill="#2260EA"/>
<path d="M22.7517 31.5003C22.1364 31.5011 21.566 31.1783 21.2496 30.6504L15.9993 21.9009C15.6725 21.3642 15.658 20.6937 15.9617 20.1433C16.2645 19.5938 16.8396 19.2485 17.4677 19.2397C18.0965 19.2301 18.6813 19.5585 19.0002 20.0993L24.2505 28.8495C24.5749 29.3895 24.5837 30.0632 24.2729 30.6111C23.9629 31.1599 23.3821 31.4995 22.7517 31.5003Z" fill="#2260EA"/>
<path d="M22.7499 31.5003C21.783 31.5003 20.9995 30.7169 20.9995 29.7499V1.75037C20.9995 0.783462 21.783 0 22.7499 0C23.716 0 24.4995 0.783462 24.4995 1.75037V23.4326L26.4998 20.1001C26.8186 19.5593 27.4034 19.2309 28.0314 19.2397C28.6603 19.2493 29.2347 19.5946 29.5383 20.1441C29.8419 20.6945 29.8275 21.365 29.5006 21.9009L24.2503 30.6512C23.9339 31.1783 23.3643 31.5003 22.7499 31.5003Z" fill="#2260EA"/>
<path d="M82.2514 31.5004C81.6362 31.5012 81.0658 31.1784 80.7494 30.6505L75.499 21.901C75.0104 21.0727 75.2811 20.0056 76.1055 19.5106C76.9306 19.0155 77.9992 19.2791 78.4999 20.0994L83.7502 28.8496C84.0747 29.3896 84.0835 30.0633 83.7735 30.6112C83.4626 31.16 82.8819 31.4996 82.2514 31.5004Z" fill="#2260EA"/>
<path d="M82.2501 31.5003C81.284 31.5003 80.5005 30.7169 80.5005 29.7499V1.75037C80.5005 0.783462 81.284 0 82.2501 0C83.217 0 84.0004 0.783462 84.0004 1.75037V23.4326L86 20.1001C86.3188 19.5593 86.9036 19.2309 87.5324 19.2397C88.1605 19.2493 88.7357 19.5946 89.0385 20.1441C89.3421 20.6945 89.3277 21.365 89.0008 21.9009L83.7505 30.6512C83.4341 31.1783 82.8645 31.5003 82.2501 31.5003Z" fill="#2260EA"/>
</svg>
