<svg width="90" height="88" viewBox="0 0 90 88" fill="none" xmlns="http://www.w3.org/2000/svg">
<circle cx="29.8339" cy="59" r="27" stroke="#2260EA" stroke-width="4"/>
<path d="M40.0033 59.6188C40.0033 65.0246 35.621 69.4069 30.2152 69.4069C29.3121 69.41 28.4132 69.2842 27.5457 69.0332C23.3386 67.836 20.4365 63.9929 20.4365 59.6188C20.4365 55.2447 23.3386 51.4015 27.5457 50.2044C28.4132 49.9533 29.3121 49.8275 30.2152 49.8306C35.621 49.8306 40.0033 54.2129 40.0033 59.6188Z" fill="#7FACFA"/>
<path d="M27.5457 69.0334C31.4773 69.0334 34.6644 64.8184 34.6644 59.619C34.6644 54.4196 31.4773 50.2046 27.5457 50.2046C23.6142 50.2046 20.4271 54.4196 20.4271 59.619C20.4271 64.8184 23.6142 69.0334 27.5457 69.0334Z" fill="#A4C2F7"/>
<path d="M84.4949 21.356L77.3762 39.1526H48.9017L41.783 21.356H84.4949Z" fill="#A4C2F7"/>
<path d="M79.1559 21.356L72.0373 39.1526H77.3763L84.4949 21.356H79.1559Z" fill="#7FACFA"/>
<path d="M70.2576 56.9492V69.4068L63.139 74.7458L56.0203 69.4068V56.9492H70.2576Z" fill="#A4C2F7"/>
<path d="M64.9186 56.9492V69.4068L60.4695 72.7526L63.139 74.7458L70.2576 69.4068V56.9492H64.9186Z" fill="#7FACFA"/>
<path d="M75.5966 48.0508V55.1694C75.5966 56.1523 74.7998 56.9491 73.8169 56.9491H52.461C51.4781 56.9491 50.6813 56.1523 50.6813 55.1694V48.0508H75.5966Z" fill="#CAD9FC"/>
<path d="M70.2576 48.0508V55.1694C70.2576 56.1523 69.4608 56.9491 68.478 56.9491H52.461C51.4781 56.9491 50.6813 56.1523 50.6813 55.1694V48.0508H70.2576Z" fill="#E8EDFC"/>
<path d="M79.1559 39.1528H47.122C46.1391 39.1528 45.3423 39.9496 45.3423 40.9325V46.2715C45.3423 47.2544 46.1391 48.0511 47.122 48.0511H79.1559C80.1388 48.0511 80.9356 47.2544 80.9356 46.2715V40.9325C80.9356 39.9496 80.1388 39.1528 79.1559 39.1528Z" fill="#CAD9FC"/>
<path d="M73.8169 39.1528H47.122C46.1391 39.1528 45.3423 39.9496 45.3423 40.9325V46.2715C45.3423 47.2544 46.1391 48.0511 47.122 48.0511H73.8169C74.7998 48.0511 75.5966 47.2544 75.5966 46.2715V40.9325C75.5966 39.9496 74.7998 39.1528 73.8169 39.1528Z" fill="#E8EDFC"/>
<path d="M88.0542 3.55945V19.5764C88.0542 20.5593 87.2574 21.3561 86.2745 21.3561H40.0034C39.7024 21.3617 39.4061 21.2814 39.1491 21.1247C38.5826 20.8147 38.2284 20.2222 38.2237 19.5764V3.55945C38.2237 2.57657 39.0205 1.77979 40.0034 1.77979H86.2745C87.2574 1.77979 88.0542 2.57657 88.0542 3.55945Z" fill="#CAD9FC"/>
<path d="M82.7152 3.55945V19.5764C82.7152 20.5593 81.9184 21.3561 80.9356 21.3561H40.0034C39.7024 21.3617 39.4061 21.2814 39.1491 21.1247C38.5826 20.8147 38.2284 20.2222 38.2237 19.5764V3.55945C38.2237 2.57657 39.0205 1.77979 40.0034 1.77979H80.9356C81.9184 1.77979 82.7152 2.57657 82.7152 3.55945Z" fill="#E8EDFC"/>
<path d="M23.8754 43.5382C23.4312 42.6656 22.3656 42.3157 21.4906 42.7551C13.9805 46.5102 9.83386 54.0204 9.83386 63.9153C9.83386 64.8982 10.6306 65.6949 11.6135 65.6949C12.5964 65.6949 13.3932 64.8982 13.3932 63.9153C13.3932 55.4441 16.8279 49.0551 23.0923 45.9229C23.9649 45.4787 24.3148 44.4131 23.8754 43.5382Z" fill="#2260EA"/>
<path d="M27.6305 42.5593C28.6133 42.5593 29.4101 41.7625 29.4101 40.7797C29.4101 39.7968 28.6133 39 27.6305 39C26.6476 39 25.8508 39.7968 25.8508 40.7797C25.8508 41.7625 26.6476 42.5593 27.6305 42.5593Z" fill="#2260EA"/>
<mask id="path-16-inside-1" fill="white">
<path d="M30.2152 71.1864C36.604 71.1864 41.783 66.0073 41.783 59.6186C41.783 53.2299 36.604 48.0508 30.2152 48.0508C23.8265 48.0508 18.6474 53.2299 18.6474 59.6186C18.6572 66.0032 23.8306 71.1766 30.2152 71.1864ZM30.2152 51.6101C34.6382 51.6101 38.2237 55.1956 38.2237 59.6186C38.2237 64.0415 34.6382 67.6271 30.2152 67.6271C25.7923 67.6271 22.2068 64.0415 22.2068 59.6186C22.2165 55.1997 25.7963 51.6199 30.2152 51.6101Z"/>
</mask>
<path d="M30.2152 71.1864C36.604 71.1864 41.783 66.0073 41.783 59.6186C41.783 53.2299 36.604 48.0508 30.2152 48.0508C23.8265 48.0508 18.6474 53.2299 18.6474 59.6186C18.6572 66.0032 23.8306 71.1766 30.2152 71.1864ZM30.2152 51.6101C34.6382 51.6101 38.2237 55.1956 38.2237 59.6186C38.2237 64.0415 34.6382 67.6271 30.2152 67.6271C25.7923 67.6271 22.2068 64.0415 22.2068 59.6186C22.2165 55.1997 25.7963 51.6199 30.2152 51.6101Z" fill="#2260EA"/>
<path d="M30.2152 71.1864L30.2019 79.8643H30.2152V71.1864ZM18.6474 59.6186H9.96945L9.96947 59.6319L18.6474 59.6186ZM30.2152 51.6101V42.9321H30.2056L30.196 42.9322L30.2152 51.6101ZM22.2068 59.6186L13.5288 59.5994L13.5288 59.609V59.6186H22.2068ZM30.2152 79.8643C41.3967 79.8643 50.461 70.8 50.461 59.6186H33.1051C33.1051 61.2146 31.8112 62.5084 30.2152 62.5084V79.8643ZM50.461 59.6186C50.461 48.4371 41.3967 39.3728 30.2152 39.3728V56.7287C31.8112 56.7287 33.1051 58.0226 33.1051 59.6186H50.461ZM30.2152 39.3728C19.0338 39.3728 9.96946 48.4371 9.96946 59.6186H27.3254C27.3254 58.0226 28.6192 56.7287 30.2152 56.7287V39.3728ZM9.96947 59.6319C9.98662 70.7989 19.035 79.8472 30.2019 79.8643L30.2286 62.5084C28.6262 62.506 27.3278 61.2076 27.3254 59.6053L9.96947 59.6319ZM30.2152 60.2881C29.8455 60.2881 29.5457 59.9883 29.5457 59.6186H46.9017C46.9017 50.4029 39.4309 42.9321 30.2152 42.9321V60.2881ZM29.5457 59.6186C29.5457 59.2488 29.8455 58.9491 30.2152 58.9491V76.305C39.4309 76.305 46.9017 68.8342 46.9017 59.6186H29.5457ZM30.2152 58.9491C30.585 58.9491 30.8847 59.2488 30.8847 59.6186H13.5288C13.5288 68.8342 20.9996 76.305 30.2152 76.305V58.9491ZM30.8847 59.6378C30.8839 59.9966 30.5932 60.2873 30.2345 60.288L30.196 42.9322C20.9994 42.9525 13.5492 50.4028 13.5288 59.5994L30.8847 59.6378Z" fill="#2260EA" mask="url(#path-16-inside-1)"/>
<path d="M30.2152 71.1864L30.2019 79.8643H30.2152V71.1864ZM18.6474 59.6186H9.96945L9.96947 59.6319L18.6474 59.6186ZM30.2152 51.6101V42.9321H30.2056L30.196 42.9322L30.2152 51.6101ZM22.2068 59.6186L13.5288 59.5994L13.5288 59.609V59.6186H22.2068ZM30.2152 79.8643C41.3967 79.8643 50.461 70.8 50.461 59.6186H33.1051C33.1051 61.2146 31.8112 62.5084 30.2152 62.5084V79.8643ZM50.461 59.6186C50.461 48.4371 41.3967 39.3728 30.2152 39.3728V56.7287C31.8112 56.7287 33.1051 58.0226 33.1051 59.6186H50.461ZM30.2152 39.3728C19.0338 39.3728 9.96946 48.4371 9.96946 59.6186H27.3254C27.3254 58.0226 28.6192 56.7287 30.2152 56.7287V39.3728ZM9.96947 59.6319C9.98662 70.7989 19.035 79.8472 30.2019 79.8643L30.2286 62.5084C28.6262 62.506 27.3278 61.2076 27.3254 59.6053L9.96947 59.6319ZM30.2152 60.2881C29.8455 60.2881 29.5457 59.9883 29.5457 59.6186H46.9017C46.9017 50.4029 39.4309 42.9321 30.2152 42.9321V60.2881ZM29.5457 59.6186C29.5457 59.2488 29.8455 58.9491 30.2152 58.9491V76.305C39.4309 76.305 46.9017 68.8342 46.9017 59.6186H29.5457ZM30.2152 58.9491C30.585 58.9491 30.8847 59.2488 30.8847 59.6186H13.5288C13.5288 68.8342 20.9996 76.305 30.2152 76.305V58.9491ZM30.8847 59.6378C30.8839 59.9966 30.5932 60.2873 30.2345 60.288L30.196 42.9322C20.9994 42.9525 13.5492 50.4028 13.5288 59.5994L30.8847 59.6378Z" fill="#2260EA" mask="url(#path-16-inside-1)"/>
<path d="M86.2745 0H40.0033C38.0376 0 36.444 1.59356 36.444 3.55932V19.5763C36.4277 20.842 37.1125 22.013 38.2237 22.6195C38.7561 22.9565 39.3732 23.1355 40.0033 23.1356H40.5728L44.8084 33.8136V33.9737L46.2499 37.5331C44.6882 37.9275 43.5861 39.3216 43.5627 40.9322V46.2712C43.5627 48.2369 45.1562 49.8305 47.122 49.8305H48.9016V55.1695C48.9016 57.1353 50.4952 58.7288 52.461 58.7288H54.2406V69.4068C54.2406 69.9669 54.5044 70.4944 54.9525 70.8305L61.3593 75.6356V81.8644C61.3593 82.8473 62.156 83.6441 63.1389 83.6441C64.1218 83.6441 64.9186 82.8473 64.9186 81.8644V75.6356L71.3254 70.8305C71.7735 70.4944 72.0372 69.9669 72.0372 69.4068V58.7288H73.8169C75.7826 58.7288 77.3762 57.1353 77.3762 55.1695V49.8305H79.1559C81.1216 49.8305 82.7152 48.2369 82.7152 46.2712V40.9322C82.708 39.2808 81.5658 37.8512 79.9567 37.4797L85.705 23.1356H86.2745C88.2403 23.1356 89.8338 21.542 89.8338 19.5763V3.55932C89.8338 1.59356 88.2403 0 86.2745 0ZM68.4779 68.5169L63.1389 72.5212L57.7999 68.5169V58.7288H68.4779V68.5169ZM79.1559 46.2712H63.1389C62.156 46.2712 61.3593 47.068 61.3593 48.0508C61.3593 49.0337 62.156 49.8305 63.1389 49.8305H73.8169V55.1695H52.461V49.8305H56.0203C57.0032 49.8305 57.7999 49.0337 57.7999 48.0508C57.7999 47.068 57.0032 46.2712 56.0203 46.2712H47.122V40.9322H79.1559V46.2712ZM76.166 37.3729H50.1118L48.1364 32.4432V32.283L44.4169 23.1356H81.7898L76.166 37.3729ZM86.2745 19.5763H40.0033V3.55932H86.2745V19.5763Z" fill="#2260EA"/>
<path d="M45.3423 10.678H48.9017C49.8845 10.678 50.6813 9.88119 50.6813 8.89831C50.6813 7.91543 49.8845 7.11865 48.9017 7.11865H45.3423C44.3595 7.11865 43.5627 7.91543 43.5627 8.89831C43.5627 9.88119 44.3595 10.678 45.3423 10.678Z" fill="#2260EA"/>
<path d="M56.0203 10.678H80.9356C81.9185 10.678 82.7152 9.88119 82.7152 8.89831C82.7152 7.91543 81.9185 7.11865 80.9356 7.11865H56.0203C55.0374 7.11865 54.2407 7.91543 54.2407 8.89831C54.2407 9.88119 55.0374 10.678 56.0203 10.678Z" fill="#2260EA"/>
</svg>
