<svg width="66" height="66" viewBox="0 0 66 66" fill="none" xmlns="http://www.w3.org/2000/svg">
<g clip-path="url(#clip0)">
<path d="M34.4492 66C33.9075 66 33.3795 65.7855 32.9917 65.395C32.516 64.9192 32.3015 64.24 32.4197 63.58L33.8772 55.3162C33.9515 54.8982 34.1522 54.5132 34.4492 54.2162L54.868 33.7975C55.737 32.9285 56.6582 32.384 57.607 32.1887C58.916 31.911 60.1892 32.3125 61.1875 33.3107L64.5892 36.7125C66.4647 38.5907 66.4647 41.6405 64.5892 43.5187L44.1732 63.9375C43.8735 64.2345 43.4885 64.438 43.0732 64.5095L34.8095 65.967C34.6885 65.989 34.5702 66 34.4492 66V66ZM42.7157 62.48H42.7432H42.7157ZM37.8262 56.672L36.993 61.3937L41.7147 60.5605L61.6715 40.601C61.9382 40.3315 61.9382 39.897 61.6715 39.6275L58.2945 36.2505C58.267 36.3027 58.0607 36.432 57.783 36.7097L37.8262 56.672Z" fill="#2260EA"/>
<path d="M27.5275 57.75H7.5625C3.39075 57.75 0 54.3592 0 50.1875V7.5625C0 3.39075 3.39075 0 7.5625 0H39.1875C43.3593 0 46.75 3.39075 46.75 7.5625V35.2275C46.75 36.366 45.826 37.29 44.6875 37.29C43.549 37.29 42.625 36.366 42.625 35.2275V7.5625C42.625 5.66775 41.0823 4.125 39.1875 4.125H7.5625C5.66775 4.125 4.125 5.66775 4.125 7.5625V50.1875C4.125 52.0823 5.66775 53.625 7.5625 53.625H27.5275C28.666 53.625 29.59 54.549 29.59 55.6875C29.59 56.826 28.666 57.75 27.5275 57.75Z" fill="#2260EA"/>
<path d="M36.4375 26.125H10.3125C9.174 26.125 8.25 25.201 8.25 24.0625C8.25 22.924 9.174 22 10.3125 22H36.4375C37.576 22 38.5 22.924 38.5 24.0625C38.5 25.201 37.576 26.125 36.4375 26.125Z" fill="#2260EA"/>
<path d="M25.4375 37.125H10.3125C9.174 37.125 8.25 36.201 8.25 35.0625C8.25 33.924 9.174 33 10.3125 33H25.4375C26.576 33 27.5 33.924 27.5 35.0625C27.5 36.201 26.576 37.125 25.4375 37.125Z" fill="#2260EA"/>
<path d="M22.6875 15.125H10.3125C9.174 15.125 8.25 14.201 8.25 13.0625C8.25 11.924 9.174 11 10.3125 11H22.6875C23.826 11 24.75 11.924 24.75 13.0625C24.75 14.201 23.826 15.125 22.6875 15.125Z" fill="#2260EA"/>
</g>
<defs>
<clipPath id="clip0">
<rect width="66" height="66" fill="white"/>
</clipPath>
</defs>
</svg>
