<svg width="60" height="46" viewBox="0 0 60 46" fill="none" xmlns="http://www.w3.org/2000/svg">
<path d="M47.4194 26.8104V6.0039C47.4194 2.80225 44.8146 0.197449 41.6129 0.197449H5.80645C2.6048 0.197449 0 2.80225 0 6.0039V26.8104C0 30.012 2.6048 32.6168 5.80645 32.6168H11.0183L11.1295 37.8594C11.1628 39.4345 12.9715 40.3128 14.2297 39.364L23.1792 32.6169H41.6129C44.8146 32.6168 47.4194 30.012 47.4194 26.8104ZM22.5315 28.7458C22.111 28.7458 21.7021 28.8828 21.3663 29.1358L14.9194 33.9962L14.8483 30.6404C14.8259 29.5878 13.9662 28.746 12.9133 28.746H5.80645C4.73927 28.746 3.87097 27.8777 3.87097 26.8105V6.00402C3.87097 4.93684 4.73927 4.06854 5.80645 4.06854H41.6129C42.6801 4.06854 43.5484 4.93684 43.5484 6.00402V26.8105C43.5484 27.8777 42.6801 28.746 41.6129 28.746H22.5315V28.7458ZM60 18.1007V34.0684C60 37.2702 57.3953 39.8749 54.1935 39.8749H48.9734L48.8704 43.9162C48.8435 44.9679 47.9816 45.8023 46.9356 45.8023C46.1632 45.8023 46.5933 45.9362 36.9127 39.8749H28.0645C26.9955 39.8749 26.129 39.0084 26.129 37.9394C26.129 36.8704 26.9955 36.0039 28.0645 36.0039C38.3306 36.0039 37.8509 35.8953 38.4957 36.2988L45.0871 40.4259L45.1517 37.8899C45.1785 36.8405 46.0368 36.0038 47.0866 36.0038H54.1935C55.2607 36.0038 56.129 35.1355 56.129 34.0683V18.1006C56.129 17.0334 55.2607 16.1651 54.1935 16.1651C53.1246 16.1651 52.2581 15.2986 52.2581 14.2296C52.2581 13.1606 53.1246 12.2941 54.1935 12.2941C57.3953 12.2942 60 14.8989 60 18.1007V18.1007ZM35.8065 12.8991C35.8065 13.9681 34.94 14.8345 33.871 14.8345H13.5484C12.4794 14.8345 11.6129 13.9681 11.6129 12.8991C11.6129 11.8301 12.4794 10.9636 13.5484 10.9636H33.871C34.94 10.9636 35.8065 11.8301 35.8065 12.8991ZM32.2984 21.3668C32.2984 22.4358 31.4319 23.3023 30.3629 23.3023H17.0565C15.9875 23.3023 15.121 22.4358 15.121 21.3668C15.121 20.2978 15.9875 19.4313 17.0565 19.4313H30.3629C31.4319 19.4313 32.2984 20.2978 32.2984 21.3668Z" fill="#2260EA"/>
</svg>
