<svg width="50" height="50" viewBox="0 0 50 50" fill="none" xmlns="http://www.w3.org/2000/svg">
<path d="M39.5507 25.0983C36.3199 25.0983 33.6913 27.7268 33.6913 30.9576C33.6913 34.1885 36.3199 36.817 39.5507 36.817H47.8515C47.8846 36.817 47.9169 36.8137 47.9496 36.812C47.982 36.8136 48.014 36.8169 48.0468 36.8169C49.1255 36.8169 49.9999 35.9425 49.9999 34.8638V19.5318C49.9999 16.9316 48.7219 14.6254 46.7621 13.2046L40.1176 2.30427C39.8467 1.85974 39.4095 1.54177 38.9031 1.42106C38.3966 1.30017 37.863 1.38659 37.4205 1.66101L32.5204 4.69967L30.3107 0.96003C30.045 0.510421 29.6104 0.186008 29.1039 0.0590549C28.5974 -0.0678981 28.061 0.0134495 27.6148 0.284543L8.79969 11.7193H5.85936C4.79872 11.7193 3.93281 10.8695 3.90683 9.815C3.93281 8.76051 4.79872 7.9107 5.85936 7.9107H9.47264C10.5513 7.9107 11.4258 7.03629 11.4258 5.95758C11.4258 4.87887 10.5513 4.00446 9.47264 4.00446H5.85936C3.09589 4.00446 0.773338 5.9277 0.159179 8.50592C0.0570311 8.74283 0 9.00357 0 9.27789V9.76617V9.86383V42.188C0 46.4958 3.50468 50.0005 7.81249 50.0005H42.1874C45.5556 50.0005 48.5344 47.8549 49.5996 44.6615C49.941 43.6383 49.3882 42.532 48.365 42.1907C47.3418 41.8494 46.2355 42.4022 45.8942 43.4254C45.3616 45.0217 43.8721 46.0942 42.1874 46.0942H7.81249C5.65858 46.0942 3.90624 44.3419 3.90624 42.188V15.2905C4.51747 15.5073 5.1748 15.6255 5.85936 15.6255H42.1874C44.3413 15.6255 46.0937 17.3779 46.0937 19.5318V25.0983H39.5507ZM46.0937 32.9107H39.5507C38.4738 32.9108 37.5976 32.0346 37.5976 30.9575C37.5976 29.8806 38.4738 29.0044 39.5507 29.0044H46.0937V32.9107ZM16.3211 11.7194L27.9538 4.64977L30.0335 8.1694C30.0735 8.26559 30.1194 8.36041 30.176 8.45182C30.2185 8.52027 30.2656 8.58404 30.3147 8.64537L32.1311 11.7194H16.3211V11.7194ZM36.6684 11.7193L34.5081 8.06344L37.8066 6.01803L41.282 11.7193H36.6684Z" fill="#2260EA"/>
</svg>
