<svg width="60" height="60" viewBox="0 0 60 60" fill="none" xmlns="http://www.w3.org/2000/svg">
<path d="M56.4844 38.9761V5.27344C56.4844 2.36566 54.1187 0 51.2109 0H12.4219C9.5141 0 7.14844 2.36566 7.14844 5.27344V7.14844H5.27344C2.36566 7.14844 0 9.5141 0 12.4219C0 15.3296 2.36566 17.6953 5.27344 17.6953H7.14844V24.7266H5.27344C2.36566 24.7266 0 27.0922 0 30C0 32.9078 2.36566 35.2734 5.27344 35.2734H7.14844V42.3047H5.27344C2.36566 42.3047 0 44.6704 0 47.5781C0 50.4859 2.36566 52.8516 5.27344 52.8516H7.14844V54.6094C7.14844 56.0104 7.68715 57.3454 8.66531 58.3686C9.67102 59.4206 11.0052 60 12.4219 60H47.6953C54.4801 60 60 54.4276 60 47.5781C60 44.2332 58.6577 41.1963 56.4844 38.9761ZM5.27344 14.1797C4.30418 14.1797 3.51562 13.3911 3.51562 12.4219C3.51562 11.4526 4.30418 10.6641 5.27344 10.6641H8.90625C9.87551 10.6641 10.6641 11.4526 10.6641 12.4219C10.6641 13.3911 9.87551 14.1797 8.90625 14.1797H5.27344ZM5.27344 31.7578C4.30418 31.7578 3.51562 30.9693 3.51562 30C3.51562 29.0307 4.30418 28.2422 5.27344 28.2422H8.90625C9.87551 28.2422 10.6641 29.0307 10.6641 30C10.6641 30.9693 9.87551 31.7578 8.90625 31.7578H5.27344ZM8.90625 49.3359H5.27344C4.30418 49.3359 3.51562 48.5474 3.51562 47.5781C3.51562 46.6089 4.30418 45.8203 5.27344 45.8203H8.90625C9.87551 45.8203 10.6641 46.6089 10.6641 47.5781C10.6641 48.5474 9.87551 49.3359 8.90625 49.3359ZM12.4219 56.4844C11.4855 56.4844 10.6641 55.6082 10.6641 54.6094V52.5492C12.71 51.8236 14.1797 49.8697 14.1797 47.5781C14.1797 45.2865 12.71 43.3327 10.6641 42.607V34.9711C12.71 34.2455 14.1797 32.2916 14.1797 30C14.1797 27.7084 12.71 25.7545 10.6641 25.0289V17.393C12.71 16.6673 14.1797 14.7135 14.1797 12.4219C14.1797 10.1303 12.71 8.17641 10.6641 7.45078V5.27344C10.6641 4.30418 11.4526 3.51562 12.4219 3.51562H51.2109C52.1802 3.51562 52.9688 4.30418 52.9688 5.27344V36.4623C51.3696 35.7006 49.5814 35.2734 47.6953 35.2734C40.9105 35.2734 35.3906 40.7933 35.3906 47.5781C35.3906 51.068 36.8242 54.2257 39.1273 56.4844H12.4219ZM47.6953 56.4844C42.849 56.4844 38.9062 52.4891 38.9062 47.5781C38.9062 42.7318 42.849 38.7891 47.6953 38.7891C52.5416 38.7891 56.4844 42.7318 56.4844 47.5781C56.4844 52.4891 52.5416 56.4844 47.6953 56.4844Z" fill="#2260EA"/>
<path d="M47.6953 14.1797H37.1484C36.1777 14.1797 35.3906 14.9667 35.3906 15.9375C35.3906 16.9083 36.1777 17.6953 37.1484 17.6953H47.6953C48.6661 17.6953 49.4531 16.9083 49.4531 15.9375C49.4531 14.9667 48.6661 14.1797 47.6953 14.1797Z" fill="#2260EA"/>
<path d="M47.6953 28.2422H37.1484C36.1777 28.2422 35.3906 29.0292 35.3906 30C35.3906 30.9708 36.1777 31.7578 37.1484 31.7578H47.6953C48.6661 31.7578 49.4531 30.9708 49.4531 30C49.4531 29.0292 48.6661 28.2422 47.6953 28.2422Z" fill="#2260EA"/>
<path d="M51.2109 45.8203H49.4531V44.0625C49.4531 43.0917 48.6661 42.3047 47.6953 42.3047C46.7245 42.3047 45.9375 43.0917 45.9375 44.0625V47.5781C45.9375 48.5489 46.7245 49.3359 47.6953 49.3359H51.2109C52.1817 49.3359 52.9688 48.5489 52.9688 47.5781C52.9688 46.6073 52.1817 45.8203 51.2109 45.8203Z" fill="#2260EA"/>
<path d="M31.2429 11.1788C30.5566 10.4924 29.4435 10.4924 28.7571 11.179L22.9688 16.9672L20.2019 14.2003C19.5155 13.5138 18.4024 13.5138 17.716 14.2003C17.0295 14.8868 17.0295 15.9997 17.716 16.6862L21.7259 20.6961C22.069 21.0394 22.5189 21.2109 22.9688 21.2109C23.4187 21.2109 23.8685 21.0394 24.2117 20.696L31.2429 13.6647C31.9294 12.9783 31.9294 11.8653 31.2429 11.1788Z" fill="#2260EA"/>
<path d="M31.2429 25.2414C30.5566 24.5549 29.4435 24.5549 28.7571 25.2415L22.9688 31.0297L20.2019 28.2628C19.5155 27.5763 18.4024 27.5763 17.716 28.2628C17.0295 28.9493 17.0295 30.0622 17.716 30.7487L21.7259 34.7586C22.069 35.1019 22.5189 35.2734 22.9688 35.2734C23.4187 35.2734 23.8685 35.1019 24.2117 34.7585L31.2429 27.7272C31.9294 27.0408 31.9294 25.9278 31.2429 25.2414Z" fill="#2260EA"/>
<path d="M31.2429 39.3038C30.5566 38.6174 29.4435 38.6174 28.7571 39.304L22.9688 45.0922L20.2019 42.3253C19.5155 41.6388 18.4024 41.6388 17.716 42.3253C17.0295 43.0118 17.0295 44.1247 17.716 44.8112L21.7259 48.8211C22.069 49.1644 22.5189 49.3359 22.9688 49.3359C23.4187 49.3359 23.8685 49.1644 24.2117 48.821L31.2429 41.7897C31.9294 41.1033 31.9294 39.9903 31.2429 39.3038Z" fill="#2260EA"/>
</svg>
