<svg width="30" height="30" viewBox="0 0 30 30" fill="none" xmlns="http://www.w3.org/2000/svg">
<g clip-path="url(#clip0)">
<path d="M29.4003 21.8583L18.89 3.6537C17.1733 0.646358 12.8321 0.646358 11.1216 3.6537L0.605129 21.8583C-1.11159 24.8656 1.02505 28.6017 4.48936 28.6017H25.479C28.9433 28.6017 31.117 24.8286 29.4003 21.8583ZM14.9996 24.5631C14.0857 24.5631 13.3261 23.8035 13.3261 22.8896C13.3261 21.9756 14.0857 21.2161 14.9996 21.2161C15.9136 21.2161 16.6731 21.9756 16.6361 22.9328C16.6793 23.8035 15.8765 24.5631 14.9996 24.5631ZM16.5249 13.744C16.4508 15.0408 16.3705 16.3315 16.2964 17.6283C16.2594 18.0482 16.2594 18.4311 16.2594 18.8448C16.2223 19.5302 15.6851 20.0613 14.9996 20.0613C14.3142 20.0613 13.7831 19.5673 13.7399 18.8818C13.6287 16.8625 13.5114 14.8803 13.4002 12.861C13.3632 12.3299 13.3261 11.7927 13.2829 11.2616C13.2829 10.3847 13.7769 9.66221 14.5797 9.43373C15.3825 9.24229 16.1791 9.62516 16.5249 10.3847C16.6422 10.6502 16.6793 10.9158 16.6793 11.2245C16.6422 12.0706 16.562 12.9104 16.5249 13.744Z" fill="#FF0000"/>
</g>
<defs>
<clipPath id="clip0">
<rect width="30" height="30" fill="white"/>
</clipPath>
</defs>
</svg>
