<svg width="8" height="15" viewBox="0 0 8 15" fill="none" xmlns="http://www.w3.org/2000/svg">
    <path d="M7.99754 7.48824C7.99806 7.23833 7.90511 6.99615 7.73482 6.80372L2.02349 0.38638C1.8296 0.167958 1.55099 0.0306013 1.24894 0.00452582C0.946897 -0.0215497 0.64616 0.0657923 0.41289 0.247337C0.17962 0.428882 0.0329258 0.689759 0.00507768 0.972578C-0.0227705 1.2554 0.0705087 1.53699 0.264395 1.75541L5.38175 7.48824L0.447159 13.2211C0.352276 13.3305 0.281419 13.4563 0.238662 13.5915C0.195905 13.7266 0.18209 13.8683 0.198013 14.0084C0.213935 14.1486 0.259279 14.2844 0.331441 14.4081C0.403602 14.5318 0.501157 14.6409 0.618499 14.7291C0.735948 14.8271 0.873736 14.9013 1.02323 14.947C1.17272 14.9928 1.3307 15.0092 1.48726 14.9951C1.64382 14.9811 1.7956 14.9369 1.93308 14.8653C2.07056 14.7938 2.19078 14.6965 2.28621 14.5794L7.80336 8.16206C7.94673 7.9641 8.0151 7.72685 7.99754 7.48824Z" fill="white"/>
</svg>
