<svg width="259" height="360" viewBox="0 0 259 360" fill="none" xmlns="http://www.w3.org/2000/svg">
<path d="M8.4082 192.584H59.9785C64.6221 192.584 68.3867 187.819 68.3867 181.942C68.3867 176.065 64.6221 171.301 59.9785 171.301H8.4082C3.76463 171.301 0 176.065 0 181.942C0 187.819 3.76463 192.584 8.4082 192.584ZM8.4082 150.017H43.1621C47.8057 150.017 51.5703 145.253 51.5703 139.376C51.5703 133.499 47.8057 128.734 43.1621 128.734H8.4082C3.76463 128.734 0 133.499 0 139.376C0 145.253 3.76463 150.017 8.4082 150.017ZM43.1621 213.867H8.4082C3.76463 213.867 0 218.632 0 224.509C0 230.386 3.76463 235.15 8.4082 235.15H43.1621C47.8057 235.15 51.5703 230.386 51.5703 224.509C51.5703 218.632 47.8057 213.867 43.1621 213.867ZM283.012 172.89L64.3984 1.91431C61.3406 -0.477223 57.4207 -0.143785 54.6438 2.74152C51.8657 5.62753 50.8444 10.4283 52.1017 14.6899L100.847 179.892C100.635 181.269 100.635 182.616 100.847 183.993L52.1017 349.195C50.8444 353.456 51.8663 358.257 54.6438 361.143C57.391 363.997 61.3093 364.387 64.3984 361.97L283.012 190.995C285.491 189.056 287 185.631 287 181.942C287 178.254 285.491 174.829 283.012 172.89ZM76.4451 327.53L116.263 192.584H211.326C215.97 192.584 219.734 187.819 219.734 181.942C219.734 176.065 215.97 171.301 211.326 171.301H116.263L76.4451 36.3549L262.597 181.942L76.4451 327.53Z" fill="url(#paint0_linear)"/>
<defs>
<linearGradient id="paint0_linear" x1="143.5" y1="363.56" x2="143.5" y2="0.325152" gradientUnits="userSpaceOnUse">
<stop stop-color="#2260EA"/>
<stop offset="0.984375" stop-color="#6E9AFC"/>
</linearGradient>
</defs>
</svg>
