<svg width="46" height="46" viewBox="0 0 46 46" fill="none" xmlns="http://www.w3.org/2000/svg">
<path d="M23 0C10.3174 0 0 10.3174 0 23C0 35.6826 10.3174 46 23 46C35.6826 46 46 35.6826 46 23C46 10.3174 35.6826 0 23 0ZM34.6572 18.1259L22.1988 30.5842C21.8251 30.958 21.3344 31.1458 20.8438 31.1458C20.3531 31.1458 19.8624 30.958 19.4887 30.5842L13.2595 24.3551C12.5101 23.6057 12.5101 22.3943 13.2595 21.6449C14.0089 20.8955 15.2202 20.8955 15.9697 21.6449L20.8438 26.519L31.947 15.4158C32.6964 14.6663 33.9077 14.6663 34.6572 15.4158C35.4066 16.1652 35.4066 17.3765 34.6572 18.1259Z" fill="#2260EA"/>
</svg>
