<svg width="16" height="12" viewBox="0 0 16 12" fill="none" xmlns="http://www.w3.org/2000/svg">
<path d="M10.606 6.08183L16 9.49183V2.52783L10.606 6.08183Z" fill="white"/>
<path d="M0 2.52783V9.49183L5.394 6.08183L0 2.52783Z" fill="white"/>
<path d="M15 0.5H1.00003C0.501029 0.5 0.105029 0.872 0.0300293 1.351L8.00003 6.602L15.97 1.351C15.895 0.872 15.499 0.5 15 0.5Z" fill="white"/>
<path d="M9.68998 6.68606L8.27498 7.61806C8.19098 7.67306 8.09598 7.70006 7.99998 7.70006C7.90398 7.70006 7.80898 7.67306 7.72498 7.61806L6.30998 6.68506L0.0319824 10.6561C0.108982 11.1311 0.502982 11.5001 0.999982 11.5001H15C15.497 11.5001 15.891 11.1311 15.968 10.6561L9.68998 6.68606Z" fill="white"/>
</svg>
