<svg width="44" height="51" viewBox="0 0 44 51" fill="none" xmlns="http://www.w3.org/2000/svg">
<path d="M9.5 0.479492C7.78125 0.479492 6.375 1.88574 6.375 3.60449V47.3545C6.375 49.0732 7.78125 50.4795 9.5 50.4795H40.75C42.4688 50.4795 43.875 49.0732 43.875 47.3545V12.9795L31.375 0.479492H9.5Z" fill="#E2E5E7"/>
<path d="M34.5 12.9795H43.875L31.375 0.479492V9.85449C31.375 11.5732 32.7812 12.9795 34.5 12.9795Z" fill="#B0B7BD"/>
<path d="M43.875 22.3545L34.5 12.9795H43.875V22.3545Z" fill="#CAD1D8"/>
<path d="M37.625 41.1045C37.625 41.9639 36.9219 42.667 36.0625 42.667H1.6875C0.828125 42.667 0.125 41.9639 0.125 41.1045V25.4795C0.125 24.6201 0.828125 23.917 1.6875 23.917H36.0625C36.9219 23.917 37.625 24.6201 37.625 25.4795V41.1045Z" fill="#2260EA"/>
<path d="M6.93555 30.0844C6.93555 29.6719 7.26055 29.2219 7.78398 29.2219H10.6699C12.2949 29.2219 13.7574 30.3094 13.7574 32.3938C13.7574 34.3688 12.2949 35.4688 10.6699 35.4688H8.58398V37.1188C8.58398 37.6688 8.23398 37.9797 7.78398 37.9797C7.37148 37.9797 6.93555 37.6688 6.93555 37.1188V30.0844V30.0844ZM8.58398 30.7954V33.9079H10.6699C11.5074 33.9079 12.1699 33.1688 12.1699 32.3938C12.1699 31.5204 11.5074 30.7954 10.6699 30.7954H8.58398Z" fill="white"/>
<path d="M16.2043 37.98C15.7918 37.98 15.3418 37.755 15.3418 37.2066V30.1097C15.3418 29.6613 15.7918 29.3347 16.2043 29.3347H19.0652C24.7746 29.3347 24.6496 37.98 19.1777 37.98H16.2043V37.98ZM16.9918 30.8597V36.4566H19.0652C22.4387 36.4566 22.5887 30.8597 19.0652 30.8597H16.9918V30.8597Z" fill="white"/>
<path d="M26.6744 30.9591V32.945H29.8604C30.3104 32.945 30.7604 33.395 30.7604 33.831C30.7604 34.2435 30.3104 34.581 29.8604 34.581H26.6744V37.2044C26.6744 37.6419 26.3635 37.9778 25.926 37.9778C25.376 37.9778 25.04 37.6419 25.04 37.2044V30.1075C25.04 29.6591 25.3775 29.3325 25.926 29.3325H30.3119C30.8619 29.3325 31.1869 29.6591 31.1869 30.1075C31.1869 30.5075 30.8619 30.9575 30.3119 30.9575H26.6744V30.9591Z" fill="white"/>
<path d="M36.0625 42.667H6.375V44.2295H36.0625C36.9219 44.2295 37.625 43.5264 37.625 42.667V41.1045C37.625 41.9639 36.9219 42.667 36.0625 42.667Z" fill="#CAD1D8"/>
</svg>
