<svg width="251" height="73" viewBox="0 0 251 73" fill="none" xmlns="http://www.w3.org/2000/svg">
<path d="M18.8421 65.6829H17.6137V70.1552H16.2812V60.1985H17.6137V64.5888H18.6547L22.1871 60.1985H23.8457L19.9871 65.0264L24.1302 70.1552H22.4994L18.8421 65.6829Z" fill="white"/>
<path d="M24.616 66.3873C24.616 65.6624 24.7594 65.0105 25.0463 64.4315C25.3378 63.8525 25.7403 63.4057 26.2538 63.0911C26.772 62.7766 27.3619 62.6193 28.0235 62.6193C29.046 62.6193 29.8718 62.968 30.501 63.6656C31.1348 64.3631 31.4518 65.2908 31.4518 66.4488V66.5377C31.4518 67.258 31.3107 67.9054 31.0284 68.4798C30.7508 69.0497 30.3506 69.4942 29.8278 69.8133C29.3097 70.1324 28.7128 70.292 28.0374 70.292C27.0195 70.292 26.1937 69.9432 25.5598 69.2457C24.9306 68.5482 24.616 67.625 24.616 66.4762V66.3873ZM25.9068 66.5377C25.9068 67.3583 26.0988 68.0171 26.4828 68.514C26.8715 69.0109 27.3896 69.2594 28.0374 69.2594C28.6897 69.2594 29.2079 69.0087 29.5919 68.5072C29.9759 68.0011 30.1679 67.2945 30.1679 66.3873C30.1679 65.5758 29.9713 64.9193 29.578 64.4178C29.1894 63.9118 28.6712 63.6587 28.0235 63.6587C27.3896 63.6587 26.8784 63.9072 26.4898 64.4041C26.1011 64.901 25.9068 65.6122 25.9068 66.5377Z" fill="white"/>
<path d="M37.3853 68.4798L39.9392 62.7561H41.5423V70.1552H40.2584V64.7734L37.8295 70.1552H36.9412L34.4637 64.6571V70.1552H33.1798V62.7561H34.8454L37.3853 68.4798Z" fill="white"/>
<path d="M49.7522 70.1552H48.4683V63.8023H45.0122V70.1552H43.7214V62.7561H49.7522V70.1552Z" fill="white"/>
<path d="M57.9689 62.7561V70.1552H56.6781V63.8023H54.1243L53.9716 66.5719C53.8883 67.8438 53.6709 68.7534 53.3192 69.3004C52.9723 69.8475 52.4194 70.1324 51.6606 70.1552H51.1471V69.0406L51.5149 69.0132C51.9313 68.9676 52.2297 68.7306 52.4101 68.302C52.5906 67.8735 52.7062 67.0802 52.7571 65.9222L52.8959 62.7561H57.9689Z" fill="white"/>
<path d="M63.1461 70.292C62.1282 70.292 61.3001 69.9638 60.6616 69.3073C60.0231 68.6462 59.7039 67.7641 59.7039 66.6608V66.4283C59.7039 65.6943 59.845 65.0401 60.1272 64.4657C60.4141 63.8867 60.812 63.4353 61.3209 63.1117C61.8344 62.7834 62.3896 62.6193 62.9865 62.6193C63.9627 62.6193 64.7214 62.9361 65.2627 63.5698C65.804 64.2035 66.0747 65.1108 66.0747 66.2915V66.8181H60.9878C61.0063 67.5475 61.2214 68.1379 61.6332 68.5892C62.0496 69.036 62.577 69.2594 63.2155 69.2594C63.6689 69.2594 64.0529 69.1682 64.3675 68.9859C64.6821 68.8035 64.9574 68.5619 65.1933 68.261L65.9775 68.8628C65.3483 69.8156 64.4045 70.292 63.1461 70.292ZM62.9865 63.6587C62.4683 63.6587 62.0334 63.8456 61.6818 64.2195C61.3301 64.5888 61.1127 65.1085 61.0294 65.7786H64.7908V65.6829C64.7538 65.0401 64.578 64.5432 64.2634 64.1921C63.9488 63.8365 63.5231 63.6587 62.9865 63.6587Z" fill="white"/>
<path d="M69.9055 67.0027H68.9686V70.1552H67.6778V62.7561H68.9686V65.8881H69.8083L72.3344 62.7561H73.889L70.9187 66.312L74.1388 70.1552H72.5079L69.9055 67.0027Z" fill="white"/>
<path d="M78.1431 69.2594C78.6011 69.2594 79.0013 69.1226 79.3437 68.8491C79.6861 68.5756 79.8758 68.2336 79.9128 67.8233H81.1272C81.1041 68.2473 80.9561 68.6508 80.6831 69.0337C80.4101 69.4167 80.0446 69.7221 79.5866 69.9501C79.1332 70.178 78.652 70.292 78.1431 70.292C77.1206 70.292 76.3064 69.9569 75.7003 69.2868C75.0988 68.612 74.7981 67.6911 74.7981 66.524V66.312C74.7981 65.5917 74.9323 64.9512 75.2006 64.3904C75.4689 63.8297 75.8529 63.3943 76.3526 63.0843C76.8569 62.7743 77.4514 62.6193 78.1362 62.6193C78.9782 62.6193 79.6768 62.8678 80.232 63.3647C80.7918 63.8616 81.0902 64.5067 81.1272 65.3H79.9128C79.8758 64.8213 79.6907 64.4292 79.3576 64.1237C79.0291 63.8137 78.622 63.6587 78.1362 63.6587C77.4838 63.6587 76.9772 63.8912 76.6163 64.3562C76.2601 64.8167 76.082 65.4846 76.082 66.3599V66.5993C76.082 67.4518 76.2601 68.1083 76.6163 68.5687C76.9726 69.0292 77.4815 69.2594 78.1431 69.2594Z" fill="white"/>
<path d="M88.7056 70.1552H87.4217V66.9959H83.9726V70.1552H82.6818V62.7561H83.9726V65.9633H87.4217V62.7561H88.7056V70.1552Z" fill="white"/>
<path d="M95.4095 70.1552C95.3354 70.0093 95.2753 69.7495 95.229 69.3757C94.6322 69.9866 93.9197 70.292 93.0915 70.292C92.3513 70.292 91.7429 70.0869 91.2664 69.6765C90.7945 69.2617 90.5585 68.7374 90.5585 68.1037C90.5585 67.3332 90.8546 66.736 91.4468 66.312C92.0436 65.8835 92.881 65.6692 93.959 65.6692H95.2082V65.088C95.2082 64.6457 95.074 64.2947 94.8057 64.0348C94.5373 63.7704 94.1418 63.6382 93.619 63.6382C93.1609 63.6382 92.7769 63.7522 92.467 63.9801C92.157 64.2081 92.002 64.4839 92.002 64.8076H90.7112C90.7112 64.4383 90.843 64.0827 91.1067 63.7408C91.3751 63.3943 91.736 63.1208 92.1894 62.9202C92.6474 62.7196 93.1494 62.6193 93.6953 62.6193C94.5605 62.6193 95.2383 62.8336 95.7287 63.2621C96.2191 63.6861 96.4736 64.2719 96.4921 65.0196V68.4251C96.4921 69.1044 96.58 69.6446 96.7558 70.0458V70.1552H95.4095ZM93.2789 69.191C93.6814 69.191 94.0631 69.0884 94.424 68.8833C94.7849 68.6781 95.0463 68.4114 95.2082 68.0832V66.5651H94.2019C92.6289 66.5651 91.8424 67.0187 91.8424 67.9259C91.8424 68.3225 91.9765 68.6325 92.2449 68.8559C92.5132 69.0793 92.8579 69.191 93.2789 69.191Z" fill="white"/>
<path d="M104.244 62.7561V70.1552H102.953V67.2763H101.017L99.2472 70.1552H97.8592L99.7469 67.0848C99.2657 66.9115 98.8956 66.6448 98.6365 66.2847C98.382 65.92 98.2548 65.496 98.2548 65.0127C98.2548 64.338 98.5116 63.7955 99.0251 63.3852C99.5387 62.9703 100.226 62.7606 101.086 62.7561H104.244ZM99.5456 65.0264C99.5456 65.3866 99.6705 65.6783 99.9204 65.9017C100.17 66.1206 100.501 66.2323 100.913 66.2368H102.953V63.7818H101.107C100.631 63.7818 100.251 63.8981 99.9689 64.1306C99.6867 64.3585 99.5456 64.6571 99.5456 65.0264Z" fill="white"/>
<path d="M114.154 68.4798L116.708 62.7561H118.311V70.1552H117.027V64.7734L114.598 70.1552H113.71L111.232 64.6571V70.1552H109.948V62.7561H111.614L114.154 68.4798Z" fill="white"/>
<path d="M123.495 70.292C122.477 70.292 121.649 69.9638 121.011 69.3073C120.372 68.6462 120.053 67.7641 120.053 66.6608V66.4283C120.053 65.6943 120.194 65.0401 120.476 64.4657C120.763 63.8867 121.161 63.4353 121.67 63.1117C122.183 62.7834 122.739 62.6193 123.335 62.6193C124.312 62.6193 125.07 62.9361 125.612 63.5698C126.153 64.2035 126.424 65.1108 126.424 66.2915V66.8181H121.337C121.355 67.5475 121.57 68.1379 121.982 68.5892C122.399 69.036 122.926 69.2594 123.564 69.2594C124.018 69.2594 124.402 69.1682 124.716 68.9859C125.031 68.8035 125.306 68.5619 125.542 68.261L126.327 68.8628C125.697 69.8156 124.753 70.292 123.495 70.292ZM123.335 63.6587C122.817 63.6587 122.382 63.8456 122.031 64.2195C121.679 64.5888 121.462 65.1085 121.378 65.7786H125.14V65.6829C125.103 65.0401 124.927 64.5432 124.612 64.1921C124.298 63.8365 123.872 63.6587 123.335 63.6587Z" fill="white"/>
<path d="M133.412 63.7818H130.893V70.1552H129.609V63.7818H127.138V62.7561H133.412V63.7818Z" fill="white"/>
<path d="M139.186 70.1552C139.112 70.0093 139.052 69.7495 139.006 69.3757C138.409 69.9866 137.696 70.292 136.868 70.292C136.128 70.292 135.519 70.0869 135.043 69.6765C134.571 69.2617 134.335 68.7374 134.335 68.1037C134.335 67.3332 134.631 66.736 135.223 66.312C135.82 65.8835 136.658 65.6692 137.736 65.6692H138.985V65.088C138.985 64.6457 138.851 64.2947 138.582 64.0348C138.314 63.7704 137.918 63.6382 137.396 63.6382C136.938 63.6382 136.554 63.7522 136.244 63.9801C135.934 64.2081 135.779 64.4839 135.779 64.8076H134.488C134.488 64.4383 134.62 64.0827 134.883 63.7408C135.152 63.3943 135.513 63.1208 135.966 62.9202C136.424 62.7196 136.926 62.6193 137.472 62.6193C138.337 62.6193 139.015 62.8336 139.505 63.2621C139.996 63.6861 140.25 64.2719 140.269 65.0196V68.4251C140.269 69.1044 140.357 69.6446 140.532 70.0458V70.1552H139.186ZM137.056 69.191C137.458 69.191 137.84 69.0884 138.201 68.8833C138.561 68.6781 138.823 68.4114 138.985 68.0832V66.5651H137.979C136.405 66.5651 135.619 67.0187 135.619 67.9259C135.619 68.3225 135.753 68.6325 136.021 68.8559C136.29 69.0793 136.634 69.191 137.056 69.191Z" fill="white"/>
<path d="M148.437 62.7561V70.1552H147.146V63.8023H144.592L144.44 66.5719C144.356 67.8438 144.139 68.7534 143.787 69.3004C143.44 69.8475 142.887 70.1324 142.129 70.1552H141.615V69.0406L141.983 69.0132C142.399 68.9676 142.698 68.7306 142.878 68.302C143.058 67.8735 143.174 67.0802 143.225 65.9222L143.364 62.7561H148.437Z" fill="white"/>
<path d="M156.654 62.7561V70.1552H155.363V63.8023H152.809L152.656 66.5719C152.573 67.8438 152.356 68.7534 152.004 69.3004C151.657 69.8475 151.104 70.1324 150.345 70.1552H149.832V69.0406L150.2 69.0132C150.616 68.9676 150.914 68.7306 151.095 68.302C151.275 67.8735 151.391 67.0802 151.442 65.9222L151.581 62.7561H156.654Z" fill="white"/>
<path d="M158.375 66.3873C158.375 65.6624 158.518 65.0105 158.805 64.4315C159.096 63.8525 159.499 63.4057 160.013 63.0911C160.531 62.7766 161.121 62.6193 161.782 62.6193C162.805 62.6193 163.631 62.968 164.26 63.6656C164.894 64.3631 165.21 65.2908 165.21 66.4488V66.5377C165.21 67.258 165.069 67.9054 164.787 68.4798C164.51 69.0497 164.109 69.4942 163.587 69.8133C163.068 70.1324 162.472 70.292 161.796 70.292C160.778 70.292 159.952 69.9432 159.319 69.2457C158.689 68.5482 158.375 67.625 158.375 66.4762V66.3873ZM159.666 66.5377C159.666 67.3583 159.858 68.0171 160.242 68.514C160.63 69.0109 161.148 69.2594 161.796 69.2594C162.448 69.2594 162.967 69.0087 163.351 68.5072C163.735 68.0011 163.927 67.2945 163.927 66.3873C163.927 65.5758 163.73 64.9193 163.337 64.4178C162.948 63.9118 162.43 63.6587 161.782 63.6587C161.148 63.6587 160.637 63.9072 160.249 64.4041C159.86 64.901 159.666 65.6122 159.666 66.5377Z" fill="white"/>
<path d="M166.48 66.3873C166.48 65.6624 166.624 65.0105 166.911 64.4315C167.202 63.8525 167.605 63.4057 168.118 63.0911C168.636 62.7766 169.226 62.6193 169.888 62.6193C170.91 62.6193 171.736 62.968 172.365 63.6656C172.999 64.3631 173.316 65.2908 173.316 66.4488V66.5377C173.316 67.258 173.175 67.9054 172.893 68.4798C172.615 69.0497 172.215 69.4942 171.692 69.8133C171.174 70.1324 170.577 70.292 169.902 70.292C168.884 70.292 168.058 69.9432 167.424 69.2457C166.795 68.5482 166.48 67.625 166.48 66.4762V66.3873ZM167.771 66.5377C167.771 67.3583 167.963 68.0171 168.347 68.514C168.736 69.0109 169.254 69.2594 169.902 69.2594C170.554 69.2594 171.072 69.0087 171.456 68.5072C171.84 68.0011 172.032 67.2945 172.032 66.3873C172.032 65.5758 171.836 64.9193 171.442 64.4178C171.054 63.9118 170.536 63.6587 169.888 63.6587C169.254 63.6587 168.743 63.9072 168.354 64.4041C167.966 64.901 167.771 65.6122 167.771 66.5377Z" fill="white"/>
<path d="M178.223 63.18C179.167 63.18 179.921 63.4923 180.485 64.1169C181.054 64.7369 181.339 65.5553 181.339 66.5719V66.6882C181.339 67.3857 181.202 68.0102 180.929 68.5619C180.656 69.109 180.263 69.5352 179.749 69.8407C179.241 70.1416 178.653 70.292 177.987 70.292C176.978 70.292 176.166 69.9615 175.551 69.3004C174.936 68.6348 174.628 67.7435 174.628 66.6266V66.0111C174.628 64.4565 174.919 63.2211 175.502 62.3047C176.09 61.3884 176.955 60.8299 178.098 60.6293C178.746 60.5153 179.183 60.3763 179.409 60.2122C179.636 60.048 179.749 59.8224 179.749 59.5352H180.804C180.804 60.105 180.672 60.5495 180.409 60.8686C180.15 61.1878 179.733 61.4134 179.16 61.5457L178.202 61.7576C177.439 61.9354 176.865 62.2363 176.481 62.6603C176.101 63.0797 175.854 63.6405 175.738 64.3426C176.418 63.5675 177.247 63.18 178.223 63.18ZM177.973 64.2195C177.344 64.2195 176.844 64.4292 176.474 64.8486C176.104 65.2635 175.919 65.8402 175.919 66.5787V66.6882C175.919 67.4814 176.104 68.1105 176.474 68.5756C176.849 69.036 177.353 69.2662 177.987 69.2662C178.625 69.2662 179.13 69.0337 179.5 68.5687C179.87 68.1037 180.055 67.4244 180.055 66.5309C180.055 65.8333 179.867 65.2749 179.493 64.8555C179.123 64.4315 178.616 64.2195 177.973 64.2195Z" fill="white"/>
<path d="M189 66.5377C189 67.6638 188.739 68.571 188.216 69.2594C187.693 69.9478 186.985 70.292 186.093 70.292C185.181 70.292 184.464 70.0071 183.941 69.4372V73H182.657V62.7561H183.83L183.893 63.5767C184.415 62.9384 185.142 62.6193 186.072 62.6193C186.974 62.6193 187.686 62.9544 188.209 63.6245C188.737 64.2947 189 65.227 189 66.4215V66.5377ZM187.716 66.3941C187.716 65.5598 187.536 64.901 187.175 64.4178C186.814 63.9345 186.319 63.6929 185.69 63.6929C184.913 63.6929 184.33 64.0326 183.941 64.7118V68.2473C184.325 68.922 184.913 69.2594 185.704 69.2594C186.319 69.2594 186.807 69.0201 187.168 68.5414C187.534 68.0581 187.716 67.3424 187.716 66.3941Z" fill="white"/>
<path d="M195.274 70.1552C195.2 70.0093 195.14 69.7495 195.094 69.3757C194.497 69.9866 193.784 70.292 192.956 70.292C192.216 70.292 191.607 70.0869 191.131 69.6765C190.659 69.2617 190.423 68.7374 190.423 68.1037C190.423 67.3332 190.719 66.736 191.311 66.312C191.908 65.8835 192.746 65.6692 193.824 65.6692H195.073V65.088C195.073 64.6457 194.939 64.2947 194.67 64.0348C194.402 63.7704 194.006 63.6382 193.483 63.6382C193.025 63.6382 192.641 63.7522 192.331 63.9801C192.021 64.2081 191.866 64.4839 191.866 64.8076H190.576C190.576 64.4383 190.708 64.0827 190.971 63.7408C191.24 63.3943 191.6 63.1208 192.054 62.9202C192.512 62.7196 193.014 62.6193 193.56 62.6193C194.425 62.6193 195.103 62.8336 195.593 63.2621C196.084 63.6861 196.338 64.2719 196.357 65.0196V68.4251C196.357 69.1044 196.444 69.6446 196.62 70.0458V70.1552H195.274ZM193.143 69.191C193.546 69.191 193.928 69.0884 194.288 68.8833C194.649 68.6781 194.911 68.4114 195.073 68.0832V66.5651H194.066C192.493 66.5651 191.707 67.0187 191.707 67.9259C191.707 68.3225 191.841 68.6325 192.109 68.8559C192.378 69.0793 192.722 69.191 193.143 69.191Z" fill="white"/>
<path d="M201.666 63.18C202.609 63.18 203.363 63.4923 203.928 64.1169C204.497 64.7369 204.782 65.5553 204.782 66.5719V66.6882C204.782 67.3857 204.645 68.0102 204.372 68.5619C204.099 69.109 203.706 69.5352 203.192 69.8407C202.683 70.1416 202.096 70.292 201.43 70.292C200.421 70.292 199.609 69.9615 198.994 69.3004C198.378 68.6348 198.071 67.7435 198.071 66.6266V66.0111C198.071 64.4565 198.362 63.2211 198.945 62.3047C199.533 61.3884 200.398 60.8299 201.541 60.6293C202.188 60.5153 202.626 60.3763 202.852 60.2122C203.079 60.048 203.192 59.8224 203.192 59.5352H204.247C204.247 60.105 204.115 60.5495 203.852 60.8686C203.593 61.1878 203.176 61.4134 202.602 61.5457L201.645 61.7576C200.881 61.9354 200.308 62.2363 199.924 62.6603C199.544 63.0797 199.297 63.6405 199.181 64.3426C199.861 63.5675 200.689 63.18 201.666 63.18ZM201.416 64.2195C200.786 64.2195 200.287 64.4292 199.917 64.8486C199.547 65.2635 199.362 65.8402 199.362 66.5787V66.6882C199.362 67.4814 199.547 68.1105 199.917 68.5756C200.291 69.036 200.796 69.2662 201.43 69.2662C202.068 69.2662 202.572 69.0337 202.942 68.5687C203.313 68.1037 203.498 67.4244 203.498 66.5309C203.498 65.8333 203.31 65.2749 202.936 64.8555C202.565 64.4315 202.059 64.2195 201.416 64.2195Z" fill="white"/>
<path d="M205.885 66.3873C205.885 65.6624 206.028 65.0105 206.315 64.4315C206.607 63.8525 207.009 63.4057 207.523 63.0911C208.041 62.7766 208.631 62.6193 209.292 62.6193C210.315 62.6193 211.141 62.968 211.77 63.6656C212.404 64.3631 212.721 65.2908 212.721 66.4488V66.5377C212.721 67.258 212.58 67.9054 212.297 68.4798C212.02 69.0497 211.62 69.4942 211.097 69.8133C210.579 70.1324 209.982 70.292 209.306 70.292C208.288 70.292 207.463 69.9432 206.829 69.2457C206.2 68.5482 205.885 67.625 205.885 66.4762V66.3873ZM207.176 66.5377C207.176 67.3583 207.368 68.0171 207.752 68.514C208.14 69.0109 208.659 69.2594 209.306 69.2594C209.959 69.2594 210.477 69.0087 210.861 68.5072C211.245 68.0011 211.437 67.2945 211.437 66.3873C211.437 65.5758 211.24 64.9193 210.847 64.4178C210.458 63.9118 209.94 63.6587 209.292 63.6587C208.659 63.6587 208.147 63.9072 207.759 64.4041C207.37 64.901 207.176 65.6122 207.176 66.5377Z" fill="white"/>
<path d="M219.758 63.7818H217.239V70.1552H215.955V63.7818H213.484V62.7561H219.758V63.7818Z" fill="white"/>
<path d="M223.346 67.0027H222.409V70.1552H221.118V62.7561H222.409V65.8881H223.248L225.775 62.7561H227.329L224.359 66.312L227.579 70.1552H225.948L223.346 67.0027Z" fill="white"/>
<path d="M233.318 70.1552C233.244 70.0093 233.184 69.7495 233.138 69.3757C232.541 69.9866 231.828 70.292 231 70.292C230.26 70.292 229.652 70.0869 229.175 69.6765C228.703 69.2617 228.467 68.7374 228.467 68.1037C228.467 67.3332 228.763 66.736 229.356 66.312C229.952 65.8835 230.79 65.6692 231.868 65.6692H233.117V65.088C233.117 64.6457 232.983 64.2947 232.714 64.0348C232.446 63.7704 232.051 63.6382 231.528 63.6382C231.07 63.6382 230.686 63.7522 230.376 63.9801C230.066 64.2081 229.911 64.4839 229.911 64.8076H228.62C228.62 64.4383 228.752 64.0827 229.016 63.7408C229.284 63.3943 229.645 63.1208 230.098 62.9202C230.556 62.7196 231.058 62.6193 231.604 62.6193C232.469 62.6193 233.147 62.8336 233.637 63.2621C234.128 63.6861 234.382 64.2719 234.401 65.0196V68.4251C234.401 69.1044 234.489 69.6446 234.665 70.0458V70.1552H233.318ZM231.188 69.191C231.59 69.191 231.972 69.0884 232.333 68.8833C232.694 68.6781 232.955 68.4114 233.117 68.0832V66.5651H232.111C230.538 66.5651 229.751 67.0187 229.751 67.9259C229.751 68.3225 229.885 68.6325 230.154 68.8559C230.422 69.0793 230.767 69.191 231.188 69.191Z" fill="white"/>
<path d="M81.7509 19.7507L88.7963 41.6753L95.82 19.7507H105.835V51.2632H98.2046V43.9045L98.9416 28.8409L91.311 51.2632H86.2816L78.6293 28.8192L79.3663 43.9045V51.2632H71.7573V19.7507H81.7509Z" fill="white"/>
<path d="M130.266 37.9094H118.3V45.4195H132.434V51.2632H110.691V19.7507H132.478V25.616H118.3V32.2605H130.266V37.9094Z" fill="white"/>
<path d="M160.746 25.616H151.273V51.2632H143.664V25.616H134.364V19.7507H160.746V25.616Z" fill="white"/>
<path d="M190.358 51.2632H182.792V38.1041H171.585V51.2632H163.976V19.7507H171.585V32.2605H182.792V19.7507H190.358V51.2632Z" fill="white"/>
<path d="M221.921 36.1563C221.921 39.2296 221.351 41.9494 220.209 44.3157C219.067 46.6821 217.441 48.5073 215.331 49.7915C213.236 51.0612 210.844 51.6961 208.156 51.6961C205.468 51.6961 203.083 51.0828 201.002 49.8564C198.921 48.6155 197.295 46.848 196.124 44.5538C194.968 42.2596 194.361 39.6264 194.304 36.6541V34.8793C194.304 31.7916 194.867 29.0717 195.994 26.7198C197.136 24.3535 198.762 22.5283 200.872 21.2441C202.996 19.96 205.41 19.3179 208.112 19.3179C210.786 19.3179 213.171 19.9527 215.266 21.2225C217.362 22.4922 218.988 24.303 220.144 26.6549C221.314 28.9924 221.907 31.6761 221.921 34.7062V36.1563ZM214.182 34.836C214.182 31.705 213.655 29.3314 212.6 27.7154C211.559 26.085 210.063 25.2697 208.112 25.2697C204.297 25.2697 202.281 28.1266 202.064 33.8404L202.043 36.1563C202.043 39.244 202.556 41.6176 203.582 43.2769C204.608 44.9362 206.133 45.7658 208.156 45.7658C210.078 45.7658 211.559 44.9506 212.6 43.3202C213.64 41.6897 214.168 39.345 214.182 36.2861V34.836Z" fill="white"/>
<path d="M225.845 51.2632V19.7507H236.012C238.801 19.7507 241.309 20.3856 243.534 21.6553C245.76 22.9106 247.494 24.6926 248.737 27.0012C249.994 29.2954 250.63 31.8709 250.645 34.7278V36.1779C250.645 39.0637 250.031 41.6536 248.802 43.9478C247.588 46.2276 245.868 48.0167 243.643 49.3153C241.432 50.5995 238.96 51.2488 236.229 51.2632H225.845ZM233.454 25.616V45.4195H236.099C238.281 45.4195 239.958 44.6476 241.128 43.1037C242.299 41.5454 242.884 39.2368 242.884 36.1779V34.8144C242.884 31.7699 242.299 29.4757 241.128 27.9319C239.958 26.388 238.252 25.616 236.012 25.616H233.454Z" fill="white"/>
<path d="M68.1394 25.3262V37.3862H40.0469L25.3262 25.3262H68.1394Z" fill="white" fill-opacity="0.37"/>
<path d="M43.6658 43.6658H40.0219H25.446C21.3697 43.6658 17.6022 42.3071 14.5759 40.0219C10.129 36.6867 7.28793 31.4369 7.28793 25.446C7.28793 15.4405 15.4405 7.28794 25.446 7.28794H43.6041V15.6258H50.892V0H25.446C11.426 0 0 11.426 0 25.446C0 30.8811 1.66757 35.8838 4.5704 40.0219C9.20256 46.6304 16.7993 50.9538 25.446 50.9538H50.892V43.6658H43.6658Z" fill="white"/>
</svg>
