<svg width="251" height="74" viewBox="0 0 251 74" fill="none" xmlns="http://www.w3.org/2000/svg">
<path d="M18.5608 66.4612H17.3325V70.9336H16V60.9768H17.3325V65.3671H18.3734L21.9058 60.9768H23.5644L19.7059 65.8047L23.849 70.9336H22.2181L18.5608 66.4612Z" fill="white"/>
<path d="M24.3348 67.1656C24.3348 66.4407 24.4782 65.7888 24.765 65.2098C25.0565 64.6308 25.459 64.184 25.9726 63.8695C26.4907 63.5549 27.0806 63.3976 27.7422 63.3976C28.7647 63.3976 29.5905 63.7464 30.2198 64.4439C30.8536 65.1414 31.1705 66.0692 31.1705 67.2271V67.316C31.1705 68.0363 31.0294 68.6837 30.7472 69.2581C30.4696 69.828 30.0694 70.2725 29.5466 70.5916C29.0284 70.9108 28.4316 71.0703 27.7561 71.0703C26.7383 71.0703 25.9124 70.7216 25.2786 70.024C24.6494 69.3265 24.3348 68.4033 24.3348 67.2545V67.1656ZM25.6256 67.316C25.6256 68.1366 25.8176 68.7954 26.2016 69.2923C26.5902 69.7893 27.1084 70.0377 27.7561 70.0377C28.4085 70.0377 28.9266 69.787 29.3106 69.2855C29.6946 68.7795 29.8866 68.0728 29.8866 67.1656C29.8866 66.3541 29.69 65.6976 29.2968 65.1961C28.9081 64.6901 28.39 64.437 27.7422 64.437C27.1084 64.437 26.5972 64.6855 26.2085 65.1824C25.8199 65.6794 25.6256 66.3906 25.6256 67.316Z" fill="white"/>
<path d="M37.1041 69.2581L39.658 63.5344H41.2611V70.9336H39.9772V65.5517L37.5482 70.9336H36.6599L34.1824 65.4355V70.9336H32.8985V63.5344H34.5641L37.1041 69.2581Z" fill="white"/>
<path d="M49.4709 70.9336H48.187V64.5807H44.731V70.9336H43.4402V63.5344H49.4709V70.9336Z" fill="white"/>
<path d="M57.6877 63.5344V70.9336H56.3969V64.5807H53.843L53.6903 67.3502C53.6071 68.6222 53.3896 69.5317 53.038 70.0788C52.691 70.6258 52.1381 70.9108 51.3794 70.9336H50.8658V69.8189L51.2336 69.7915C51.65 69.7459 51.9484 69.5089 52.1289 69.0803C52.3093 68.6518 52.425 67.8585 52.4759 66.7006L52.6147 63.5344H57.6877Z" fill="white"/>
<path d="M62.8648 71.0703C61.847 71.0703 61.0188 70.7421 60.3804 70.0856C59.7419 69.4245 59.4227 68.5424 59.4227 67.4391V67.2066C59.4227 66.4726 59.5638 65.8184 59.846 65.244C60.1328 64.665 60.5307 64.2137 61.0396 63.89C61.5532 63.5617 62.1084 63.3976 62.7052 63.3976C63.6814 63.3976 64.4402 63.7145 64.9815 64.3481C65.5228 64.9818 65.7934 65.8891 65.7934 67.0698V67.5964H60.7065C60.725 68.3258 60.9402 68.9162 61.3519 69.3676C61.7683 69.8143 62.2958 70.0377 62.9342 70.0377C63.3876 70.0377 63.7716 69.9465 64.0862 69.7642C64.4008 69.5818 64.6761 69.3402 64.9121 69.0393L65.6963 69.6411C65.0671 70.5939 64.1233 71.0703 62.8648 71.0703ZM62.7052 64.437C62.187 64.437 61.7521 64.624 61.4005 64.9978C61.0489 65.3671 60.8315 65.8868 60.7482 66.557H64.5096V66.4612C64.4726 65.8184 64.2967 65.3215 63.9821 64.9704C63.6675 64.6148 63.2419 64.437 62.7052 64.437Z" fill="white"/>
<path d="M69.6242 67.781H68.6874V70.9336H67.3966V63.5344H68.6874V66.6664H69.5271L72.0532 63.5344H73.6077L70.6375 67.0904L73.8576 70.9336H72.2267L69.6242 67.781Z" fill="white"/>
<path d="M77.8619 70.0377C78.3199 70.0377 78.7201 69.901 79.0624 69.6274C79.4048 69.3539 79.5945 69.012 79.6315 68.6017H80.846C80.8229 69.0256 80.6748 69.4291 80.4018 69.8121C80.1289 70.195 79.7634 70.5005 79.3053 70.7284C78.8519 70.9564 78.3708 71.0703 77.8619 71.0703C76.8394 71.0703 76.0251 70.7352 75.419 70.0651C74.8176 69.3904 74.5168 68.4694 74.5168 67.3024V67.0904C74.5168 66.37 74.651 65.7295 74.9194 65.1688C75.1877 64.608 75.5717 64.1726 76.0714 63.8626C76.5757 63.5526 77.1702 63.3976 77.8549 63.3976C78.6969 63.3976 79.3956 63.6461 79.9507 64.143C80.5106 64.6399 80.809 65.285 80.846 66.0783H79.6315C79.5945 65.5996 79.4094 65.2075 79.0763 64.9021C78.7478 64.5921 78.3407 64.437 77.8549 64.437C77.2026 64.437 76.696 64.6696 76.3351 65.1346C75.9788 65.595 75.8007 66.2629 75.8007 67.1382V67.3776C75.8007 68.2301 75.9788 68.8866 76.3351 69.347C76.6913 69.8075 77.2003 70.0377 77.8619 70.0377Z" fill="white"/>
<path d="M88.4243 70.9336H87.1404V67.7742H83.6913V70.9336H82.4005V63.5344H83.6913V66.7416H87.1404V63.5344H88.4243V70.9336Z" fill="white"/>
<path d="M95.1282 70.9336C95.0542 70.7877 94.994 70.5278 94.9478 70.154C94.3509 70.7649 93.6385 71.0703 92.8103 71.0703C92.07 71.0703 91.4616 70.8652 90.9851 70.4549C90.5132 70.04 90.2772 69.5157 90.2772 68.882C90.2772 68.1116 90.5733 67.5143 91.1656 67.0904C91.7624 66.6618 92.5998 66.4475 93.6778 66.4475H94.9269V65.8663C94.9269 65.4241 94.7928 65.073 94.5244 64.8132C94.2561 64.5487 93.8605 64.4165 93.3377 64.4165C92.8797 64.4165 92.4957 64.5305 92.1857 64.7585C91.8757 64.9864 91.7207 65.2622 91.7207 65.5859H90.4299C90.4299 65.2166 90.5618 64.861 90.8255 64.5191C91.0938 64.1726 91.4547 63.8991 91.9081 63.6985C92.3661 63.4979 92.8681 63.3976 93.4141 63.3976C94.2792 63.3976 94.957 63.6119 95.4474 64.0404C95.9379 64.4644 96.1923 65.0502 96.2108 65.7979V69.2034C96.2108 69.8827 96.2987 70.423 96.4745 70.8241V70.9336H95.1282ZM92.9977 69.9693C93.4002 69.9693 93.7819 69.8668 94.1427 69.6616C94.5036 69.4565 94.765 69.1898 94.9269 68.8615V67.3434H93.9207C92.3476 67.3434 91.5611 67.797 91.5611 68.7042C91.5611 69.1009 91.6953 69.4109 91.9636 69.6343C92.232 69.8576 92.5767 69.9693 92.9977 69.9693Z" fill="white"/>
<path d="M103.963 63.5344V70.9336H102.672V68.0546H100.736L98.9659 70.9336H97.578L99.4656 67.8631C98.9845 67.6899 98.6143 67.4232 98.3552 67.063C98.1008 66.6983 97.9735 66.2743 97.9735 65.7911C97.9735 65.1163 98.2303 64.5738 98.7439 64.1635C99.2574 63.7486 99.9445 63.5389 100.805 63.5344H103.963ZM99.2644 65.8047C99.2644 66.1649 99.3893 66.4567 99.6391 66.6801C99.8889 66.8989 100.22 67.0106 100.632 67.0151H102.672V64.5601H100.826C100.349 64.5601 99.9699 64.6764 99.6877 64.9089C99.4055 65.1368 99.2644 65.4355 99.2644 65.8047Z" fill="white"/>
<path d="M113.873 69.2581L116.427 63.5344H118.03V70.9336H116.746V65.5517L114.317 70.9336H113.429L110.951 65.4355V70.9336H109.667V63.5344H111.333L113.873 69.2581Z" fill="white"/>
<path d="M123.214 71.0703C122.196 71.0703 121.368 70.7421 120.729 70.0856C120.091 69.4245 119.772 68.5424 119.772 67.4391V67.2066C119.772 66.4726 119.913 65.8184 120.195 65.244C120.482 64.665 120.88 64.2137 121.389 63.89C121.902 63.5617 122.457 63.3976 123.054 63.3976C124.03 63.3976 124.789 63.7145 125.33 64.3481C125.872 64.9818 126.142 65.8891 126.142 67.0698V67.5964H121.055C121.074 68.3258 121.289 68.9162 121.701 69.3676C122.117 69.8143 122.645 70.0377 123.283 70.0377C123.737 70.0377 124.121 69.9465 124.435 69.7642C124.75 69.5818 125.025 69.3402 125.261 69.0393L126.045 69.6411C125.416 70.5939 124.472 71.0703 123.214 71.0703ZM123.054 64.437C122.536 64.437 122.101 64.624 121.749 64.9978C121.398 65.3671 121.18 65.8868 121.097 66.557H124.859V66.4612C124.822 65.8184 124.646 65.3215 124.331 64.9704C124.017 64.6148 123.591 64.437 123.054 64.437Z" fill="white"/>
<path d="M133.131 64.5601H130.612V70.9336H129.328V64.5601H126.857V63.5344H133.131V64.5601Z" fill="white"/>
<path d="M138.905 70.9336C138.831 70.7877 138.771 70.5278 138.724 70.154C138.128 70.7649 137.415 71.0703 136.587 71.0703C135.847 71.0703 135.238 70.8652 134.762 70.4549C134.29 70.04 134.054 69.5157 134.054 68.882C134.054 68.1116 134.35 67.5143 134.942 67.0904C135.539 66.6618 136.376 66.4475 137.454 66.4475H138.704V65.8663C138.704 65.4241 138.569 65.073 138.301 64.8132C138.033 64.5487 137.637 64.4165 137.114 64.4165C136.656 64.4165 136.272 64.5305 135.962 64.7585C135.652 64.9864 135.497 65.2622 135.497 65.5859H134.207C134.207 65.2166 134.338 64.861 134.602 64.5191C134.87 64.1726 135.231 63.8991 135.685 63.6985C136.143 63.4979 136.645 63.3976 137.191 63.3976C138.056 63.3976 138.734 63.6119 139.224 64.0404C139.714 64.4644 139.969 65.0502 139.987 65.7979V69.2034C139.987 69.8827 140.075 70.423 140.251 70.8241V70.9336H138.905ZM136.774 69.9693C137.177 69.9693 137.558 69.8668 137.919 69.6616C138.28 69.4565 138.542 69.1898 138.704 68.8615V67.3434H137.697C136.124 67.3434 135.338 67.797 135.338 68.7042C135.338 69.1009 135.472 69.4109 135.74 69.6343C136.009 69.8576 136.353 69.9693 136.774 69.9693Z" fill="white"/>
<path d="M148.156 63.5344V70.9336H146.865V64.5807H144.311L144.158 67.3502C144.075 68.6222 143.858 69.5317 143.506 70.0788C143.159 70.6258 142.606 70.9108 141.847 70.9336H141.334V69.8189L141.702 69.7915C142.118 69.7459 142.416 69.5089 142.597 69.0803C142.777 68.6518 142.893 67.8585 142.944 66.7006L143.083 63.5344H148.156Z" fill="white"/>
<path d="M156.372 63.5344V70.9336H155.082V64.5807H152.528L152.375 67.3502C152.292 68.6222 152.074 69.5317 151.723 70.0788C151.376 70.6258 150.823 70.9108 150.064 70.9336H149.551V69.8189L149.918 69.7915C150.335 69.7459 150.633 69.5089 150.814 69.0803C150.994 68.6518 151.11 67.8585 151.161 66.7006L151.299 63.5344H156.372Z" fill="white"/>
<path d="M158.093 67.1656C158.093 66.4407 158.237 65.7888 158.524 65.2098C158.815 64.6308 159.218 64.184 159.731 63.8695C160.249 63.5549 160.839 63.3976 161.501 63.3976C162.523 63.3976 163.349 63.7464 163.978 64.4439C164.612 65.1414 164.929 66.0692 164.929 67.2271V67.316C164.929 68.0363 164.788 68.6837 164.506 69.2581C164.228 69.828 163.828 70.2725 163.305 70.5916C162.787 70.9108 162.19 71.0703 161.515 71.0703C160.497 71.0703 159.671 70.7216 159.037 70.024C158.408 69.3265 158.093 68.4033 158.093 67.2545V67.1656ZM159.384 67.316C159.384 68.1366 159.576 68.7954 159.96 69.2923C160.349 69.7893 160.867 70.0377 161.515 70.0377C162.167 70.0377 162.685 69.787 163.069 69.2855C163.453 68.7795 163.645 68.0728 163.645 67.1656C163.645 66.3541 163.449 65.6976 163.055 65.1961C162.667 64.6901 162.149 64.437 161.501 64.437C160.867 64.437 160.356 64.6855 159.967 65.1824C159.579 65.6794 159.384 66.3906 159.384 67.316Z" fill="white"/>
<path d="M166.199 67.1656C166.199 66.4407 166.343 65.7888 166.63 65.2098C166.921 64.6308 167.324 64.184 167.837 63.8695C168.355 63.5549 168.945 63.3976 169.607 63.3976C170.629 63.3976 171.455 63.7464 172.084 64.4439C172.718 65.1414 173.035 66.0692 173.035 67.2271V67.316C173.035 68.0363 172.894 68.6837 172.612 69.2581C172.334 69.828 171.934 70.2725 171.411 70.5916C170.893 70.9108 170.296 71.0703 169.621 71.0703C168.603 71.0703 167.777 70.7216 167.143 70.024C166.514 69.3265 166.199 68.4033 166.199 67.2545V67.1656ZM167.49 67.316C167.49 68.1366 167.682 68.7954 168.066 69.2923C168.455 69.7893 168.973 70.0377 169.621 70.0377C170.273 70.0377 170.791 69.787 171.175 69.2855C171.559 68.7795 171.751 68.0728 171.751 67.1656C171.751 66.3541 171.554 65.6976 171.161 65.1961C170.773 64.6901 170.254 64.437 169.607 64.437C168.973 64.437 168.462 64.6855 168.073 65.1824C167.684 65.6794 167.49 66.3906 167.49 67.316Z" fill="white"/>
<path d="M177.941 63.9584C178.885 63.9584 179.639 64.2706 180.204 64.8952C180.773 65.5152 181.057 66.3336 181.057 67.3502V67.4665C181.057 68.164 180.921 68.7886 180.648 69.3402C180.375 69.8873 179.982 70.3135 179.468 70.619C178.959 70.9199 178.372 71.0703 177.706 71.0703C176.697 71.0703 175.885 70.7398 175.27 70.0788C174.654 69.4131 174.347 68.5219 174.347 67.4049V66.7895C174.347 65.2349 174.638 63.9994 175.221 63.083C175.809 62.1667 176.674 61.6082 177.817 61.4076C178.464 61.2937 178.901 61.1546 179.128 60.9905C179.355 60.8264 179.468 60.6007 179.468 60.3135H180.523C180.523 60.8833 180.391 61.3278 180.128 61.647C179.868 61.9661 179.452 62.1918 178.878 62.324L177.921 62.536C177.157 62.7138 176.584 63.0147 176.2 63.4386C175.82 63.8581 175.573 64.4188 175.457 65.1209C176.137 64.3459 176.965 63.9584 177.941 63.9584ZM177.692 64.9978C177.062 64.9978 176.563 65.2075 176.193 65.6269C175.823 66.0418 175.637 66.6185 175.637 67.3571V67.4665C175.637 68.2597 175.823 68.8889 176.193 69.3539C176.567 69.8143 177.072 70.0446 177.706 70.0446C178.344 70.0446 178.848 69.8121 179.218 69.347C179.589 68.882 179.774 68.2027 179.774 67.3092C179.774 66.6117 179.586 66.0532 179.211 65.6338C178.841 65.2098 178.335 64.9978 177.692 64.9978Z" fill="white"/>
<path d="M188.719 67.316C188.719 68.4421 188.458 69.3493 187.935 70.0377C187.412 70.7261 186.704 71.0703 185.811 71.0703C184.9 71.0703 184.183 70.7854 183.66 70.2155V73.7783H182.376V63.5344H183.549L183.611 64.355C184.134 63.7167 184.861 63.3976 185.79 63.3976C186.693 63.3976 187.405 63.7327 187.928 64.4029C188.455 65.073 188.719 66.0053 188.719 67.1998V67.316ZM187.435 67.1724C187.435 66.3381 187.255 65.6794 186.894 65.1961C186.533 64.7129 186.038 64.4712 185.409 64.4712C184.631 64.4712 184.049 64.8109 183.66 65.4902V69.0256C184.044 69.7004 184.631 70.0377 185.423 70.0377C186.038 70.0377 186.526 69.7984 186.887 69.3197C187.252 68.8364 187.435 68.1207 187.435 67.1724Z" fill="white"/>
<path d="M194.993 70.9336C194.919 70.7877 194.859 70.5278 194.812 70.154C194.215 70.7649 193.503 71.0703 192.675 71.0703C191.935 71.0703 191.326 70.8652 190.85 70.4549C190.378 70.04 190.142 69.5157 190.142 68.882C190.142 68.1116 190.438 67.5143 191.03 67.0904C191.627 66.6618 192.464 66.4475 193.542 66.4475H194.791V65.8663C194.791 65.4241 194.657 65.073 194.389 64.8132C194.121 64.5487 193.725 64.4165 193.202 64.4165C192.744 64.4165 192.36 64.5305 192.05 64.7585C191.74 64.9864 191.585 65.2622 191.585 65.5859H190.294C190.294 65.2166 190.426 64.861 190.69 64.5191C190.958 64.1726 191.319 63.8991 191.773 63.6985C192.231 63.4979 192.733 63.3976 193.279 63.3976C194.144 63.3976 194.822 63.6119 195.312 64.0404C195.802 64.4644 196.057 65.0502 196.075 65.7979V69.2034C196.075 69.8827 196.163 70.423 196.339 70.8241V70.9336H194.993ZM192.862 69.9693C193.265 69.9693 193.646 69.8668 194.007 69.6616C194.368 69.4565 194.63 69.1898 194.791 68.8615V67.3434H193.785C192.212 67.3434 191.426 67.797 191.426 68.7042C191.426 69.1009 191.56 69.4109 191.828 69.6343C192.096 69.8576 192.441 69.9693 192.862 69.9693Z" fill="white"/>
<path d="M201.384 63.9584C202.328 63.9584 203.082 64.2706 203.647 64.8952C204.216 65.5152 204.5 66.3336 204.5 67.3502V67.4665C204.5 68.164 204.364 68.7886 204.091 69.3402C203.818 69.8873 203.425 70.3135 202.911 70.619C202.402 70.9199 201.815 71.0703 201.148 71.0703C200.14 71.0703 199.328 70.7398 198.712 70.0788C198.097 69.4131 197.789 68.5219 197.789 67.4049V66.7895C197.789 65.2349 198.081 63.9994 198.664 63.083C199.251 62.1667 200.117 61.6082 201.259 61.4076C201.907 61.2937 202.344 61.1546 202.571 60.9905C202.798 60.8264 202.911 60.6007 202.911 60.3135H203.966C203.966 60.8833 203.834 61.3278 203.57 61.647C203.311 61.9661 202.895 62.1918 202.321 62.324L201.363 62.536C200.6 62.7138 200.026 63.0147 199.642 63.4386C199.263 63.8581 199.015 64.4188 198.9 65.1209C199.58 64.3459 200.408 63.9584 201.384 63.9584ZM201.134 64.9978C200.505 64.9978 200.006 65.2075 199.635 65.6269C199.265 66.0418 199.08 66.6185 199.08 67.3571V67.4665C199.08 68.2597 199.265 68.8889 199.635 69.3539C200.01 69.8143 200.514 70.0446 201.148 70.0446C201.787 70.0446 202.291 69.8121 202.661 69.347C203.031 68.882 203.216 68.2027 203.216 67.3092C203.216 66.6117 203.029 66.0532 202.654 65.6338C202.284 65.2098 201.778 64.9978 201.134 64.9978Z" fill="white"/>
<path d="M205.604 67.1656C205.604 66.4407 205.747 65.7888 206.034 65.2098C206.325 64.6308 206.728 64.184 207.242 63.8695C207.76 63.5549 208.35 63.3976 209.011 63.3976C210.034 63.3976 210.86 63.7464 211.489 64.4439C212.123 65.1414 212.439 66.0692 212.439 67.2271V67.316C212.439 68.0363 212.298 68.6837 212.016 69.2581C211.739 69.828 211.338 70.2725 210.816 70.5916C210.297 70.9108 209.701 71.0703 209.025 71.0703C208.007 71.0703 207.181 70.7216 206.548 70.024C205.918 69.3265 205.604 68.4033 205.604 67.2545V67.1656ZM206.895 67.316C206.895 68.1366 207.087 68.7954 207.471 69.2923C207.859 69.7893 208.377 70.0377 209.025 70.0377C209.677 70.0377 210.196 69.787 210.58 69.2855C210.964 68.7795 211.156 68.0728 211.156 67.1656C211.156 66.3541 210.959 65.6976 210.566 65.1961C210.177 64.6901 209.659 64.437 209.011 64.437C208.377 64.437 207.866 64.6855 207.477 65.1824C207.089 65.6794 206.895 66.3906 206.895 67.316Z" fill="white"/>
<path d="M219.476 64.5601H216.957V70.9336H215.673V64.5601H213.203V63.5344H219.476V64.5601Z" fill="white"/>
<path d="M223.064 67.781H222.128V70.9336H220.837V63.5344H222.128V66.6664H222.967L225.493 63.5344H227.048L224.078 67.0904L227.298 70.9336H225.667L223.064 67.781Z" fill="white"/>
<path d="M233.037 70.9336C232.963 70.7877 232.903 70.5278 232.857 70.154C232.26 70.7649 231.547 71.0703 230.719 71.0703C229.979 71.0703 229.37 70.8652 228.894 70.4549C228.422 70.04 228.186 69.5157 228.186 68.882C228.186 68.1116 228.482 67.5143 229.074 67.0904C229.671 66.6618 230.509 66.4475 231.587 66.4475H232.836V65.8663C232.836 65.4241 232.702 65.073 232.433 64.8132C232.165 64.5487 231.769 64.4165 231.246 64.4165C230.788 64.4165 230.404 64.5305 230.094 64.7585C229.784 64.9864 229.63 65.2622 229.63 65.5859H228.339C228.339 65.2166 228.471 64.861 228.734 64.5191C229.003 64.1726 229.363 63.8991 229.817 63.6985C230.275 63.4979 230.777 63.3976 231.323 63.3976C232.188 63.3976 232.866 63.6119 233.356 64.0404C233.847 64.4644 234.101 65.0502 234.12 65.7979V69.2034C234.12 69.8827 234.207 70.423 234.383 70.8241V70.9336H233.037ZM230.906 69.9693C231.309 69.9693 231.691 69.8668 232.051 69.6616C232.412 69.4565 232.674 69.1898 232.836 68.8615V67.3434H231.829C230.256 67.3434 229.47 67.797 229.47 68.7042C229.47 69.1009 229.604 69.4109 229.872 69.6343C230.141 69.8576 230.485 69.9693 230.906 69.9693Z" fill="white"/>
<path d="M81.751 20.5291L88.7964 42.4536L95.8201 20.5291H105.835V52.0415H98.2046V44.6828L98.9417 29.6192L91.311 52.0415H86.2817L78.6293 29.5975L79.3664 44.6828V52.0415H71.7574V20.5291H81.751Z" fill="white"/>
<path d="M130.267 38.6877H118.3V46.1979H132.434V52.0415H110.691V20.5291H132.478V26.3944H118.3V33.0388H130.267V38.6877Z" fill="white"/>
<path d="M160.746 26.3944H151.273V52.0415H143.664V26.3944H134.364V20.5291H160.746V26.3944Z" fill="white"/>
<path d="M190.358 52.0415H182.793V38.8825H171.585V52.0415H163.976V20.5291H171.585V33.0388H182.793V20.5291H190.358V52.0415Z" fill="white"/>
<path d="M221.921 36.9346C221.921 40.0079 221.351 42.7277 220.209 45.0941C219.067 47.4604 217.441 49.2856 215.331 50.5698C213.236 51.8395 210.844 52.4744 208.156 52.4744C205.468 52.4744 203.083 51.8612 201.002 50.6347C198.921 49.3938 197.295 47.6263 196.125 45.3321C194.968 43.038 194.361 40.4047 194.304 37.4324V35.6576C194.304 32.5699 194.867 29.85 195.994 27.4982C197.136 25.1318 198.762 23.3066 200.872 22.0224C202.996 20.7383 205.41 20.0962 208.113 20.0962C210.786 20.0962 213.171 20.7311 215.266 22.0008C217.362 23.2705 218.988 25.0813 220.144 27.4332C221.314 29.7707 221.907 32.4544 221.921 35.4845V36.9346ZM214.182 35.6143C214.182 32.4833 213.655 30.1098 212.6 28.4937C211.559 26.8633 210.064 26.0481 208.113 26.0481C204.297 26.0481 202.281 28.905 202.064 34.6188L202.043 36.9346C202.043 40.0223 202.556 42.3959 203.582 44.0552C204.608 45.7145 206.133 46.5442 208.156 46.5442C210.078 46.5442 211.559 45.7289 212.6 44.0985C213.64 42.468 214.168 40.1233 214.182 37.0644V35.6143Z" fill="white"/>
<path d="M225.845 52.0415V20.5291H236.012C238.801 20.5291 241.309 21.1639 243.534 22.4337C245.76 23.689 247.494 25.4709 248.737 27.7795C249.995 30.0737 250.63 32.6492 250.645 35.5061V36.9562C250.645 39.842 250.031 42.432 248.802 44.7261C247.588 47.0059 245.868 48.795 243.643 50.0936C241.432 51.3778 238.96 52.0271 236.229 52.0415H225.845ZM233.454 26.3944V46.1979H236.099C238.281 46.1979 239.958 45.4259 241.128 43.882C242.299 42.3237 242.884 40.0151 242.884 36.9562V35.5927C242.884 32.5482 242.299 30.2541 241.128 28.7102C239.958 27.1663 238.252 26.3944 236.012 26.3944H233.454Z" fill="white"/>
<path d="M68.1394 26.1045V38.1646H40.0469L25.3262 26.1045H68.1394Z" fill="#2260EA"/>
<path d="M43.6658 44.4442H40.0219H25.446C21.3697 44.4442 17.6022 43.0854 14.5759 40.8002C10.129 37.465 7.28793 32.2153 7.28793 26.2243C7.28793 16.2189 15.4405 8.06626 25.446 8.06626H43.6041V16.4042H50.892V0.77832H25.446C11.426 0.77832 0 12.2043 0 26.2243C0 31.6594 1.66757 36.6621 4.5704 40.8002C9.20256 47.4088 16.7993 51.7321 25.446 51.7321H50.892V44.4442H43.6658Z" fill="white"/>
</svg>
