<svg width="16" height="16" viewBox="0 0 16 16" fill="none" xmlns="http://www.w3.org/2000/svg">
<path d="M14.3681 11.6624C13.7936 11.3041 13.1473 10.9458 12.5728 10.5875C11.711 10.0859 11.352 10.9458 10.8493 11.5191C10.3466 12.0924 9.70027 12.3074 9.05396 11.9491C8.47945 11.5908 6.89957 10.2292 6.10963 9.58427C5.3915 8.79601 4.38612 7.57778 4.02706 6.93283C3.66799 6.28789 3.88343 5.64294 4.45793 5.14132C5.03243 4.6397 5.89419 4.28142 5.3915 3.4215C5.03244 2.84822 4.67337 2.20327 4.31431 1.62999C3.95524 0.913387 3.81162 0.69838 3.02168 0.841701C2.37536 0.985021 1.80086 1.34332 1.4418 1.91661C0.723667 2.91985 0.58004 4.42474 1.15454 5.42798C3.52437 9.44096 6.5405 12.4507 10.562 14.8155C11.6392 15.4604 13.0755 15.2455 14.0809 14.5289C14.5835 14.1706 15.0144 13.5973 15.158 12.9523C15.3017 12.0924 15.0862 12.0207 14.3681 11.6624Z" fill="white"/>
</svg>
