<svg width="1313" height="569" viewBox="0 0 1313 569" fill="none" xmlns="http://www.w3.org/2000/svg">
<path d="M733.881 147.264C817.28 185.299 1020.51 262.665 1150.88 228.767C1331.97 181.676 1315.29 62.1392 1455.88 -32.0415C1568.35 -107.386 1709.25 -108.111 1765.65 -99.0547" stroke="black" stroke-opacity="0.07"/>
<path d="M736.264 148.403C652.864 110.368 449.63 33.002 319.268 66.9003C138.172 113.991 154.852 233.528 14.2648 327.709C-98.205 403.053 -239.11 403.778 -295.504 394.722" stroke="black" stroke-opacity="0.07"/>
<path d="M733.881 323.597C817.28 361.632 1020.51 438.998 1150.88 405.1C1331.97 358.009 1315.29 238.472 1455.88 144.292C1568.35 68.947 1709.25 68.2225 1765.65 77.2783" stroke="black" stroke-opacity="0.07"/>
<path d="M736.264 324.736C652.864 286.701 449.63 209.335 319.268 243.233C138.172 290.324 154.852 409.861 14.2648 504.042C-98.205 579.386 -239.11 580.111 -295.504 571.055" stroke="black" stroke-opacity="0.07"/>
<path d="M733.881 199.649C817.28 237.683 1020.51 315.05 1150.88 281.151C1331.97 234.061 1315.29 114.524 1455.88 20.343C1568.35 -55.0015 1709.25 -55.726 1765.65 -46.6702" stroke="black" stroke-opacity="0.07"/>
<path d="M736.264 200.787C652.864 162.753 449.63 85.3863 319.268 119.285C138.172 166.375 154.852 285.912 14.2648 380.093C-98.205 455.437 -239.11 456.162 -295.504 447.106" stroke="black" stroke-opacity="0.07"/>
<path d="M733.881 264.58C817.28 302.615 1020.51 379.981 1150.88 346.083C1331.97 298.992 1315.29 179.455 1455.88 85.2744C1568.35 9.92987 1709.25 9.2054 1765.65 18.2612" stroke="black" stroke-opacity="0.07"/>
<path d="M736.264 265.719C652.864 227.684 449.63 150.318 319.268 184.216C138.172 231.307 154.852 350.844 14.2648 445.024C-98.205 520.369 -239.11 521.093 -295.504 512.038" stroke="black" stroke-opacity="0.07"/>
</svg>
