<svg width="39" height="40" viewBox="0 0 39 40" fill="none" xmlns="http://www.w3.org/2000/svg">
<path d="M36.038 13.5223C36.1595 12.8709 36.221 12.2097 36.2219 11.547C36.2144 5.39253 31.2192 0.409329 25.0647 0.416756C20.3796 0.422388 16.1984 3.35783 14.6016 7.76243C11.7425 6.62433 8.50216 8.01937 7.36398 10.8784C7.26546 11.1259 7.18482 11.3801 7.12271 11.639C2.55757 12.3218 -0.589681 16.576 0.0930657 21.1412C0.705375 25.2355 4.22269 28.2645 8.36243 28.2628H15.3273C16.0966 28.2628 16.7203 27.6391 16.7203 26.8698C16.7203 26.1005 16.0966 25.4768 15.3273 25.4768H8.36243C5.28513 25.4768 2.79051 22.9822 2.79051 19.9049C2.79051 16.8276 5.28513 14.333 8.36243 14.333C9.13177 14.333 9.75543 13.7093 9.75543 12.94C9.75796 11.4014 11.0073 10.1561 12.5459 10.1586C13.2736 10.1598 13.9719 10.4457 14.4915 10.955C15.0394 11.495 15.9214 11.4885 16.4614 10.9406C16.6641 10.7348 16.7979 10.4712 16.8442 10.186C17.6003 5.63714 21.9008 2.56253 26.4497 3.31866C30.9986 4.07478 34.0732 8.37531 33.3171 12.9242C33.272 13.1954 33.2135 13.4643 33.1419 13.7297C32.9818 14.3112 33.214 14.9296 33.7173 15.262C36.2814 16.9633 36.9808 20.4213 35.2794 22.9854C34.2496 24.5374 32.5125 25.4722 30.6499 25.4766H26.471C25.7017 25.4766 25.078 26.1003 25.078 26.8696C25.078 27.639 25.7017 28.2626 26.471 28.2626H30.6499C35.2658 28.2583 39.0043 24.5128 38.9999 19.8969C38.9976 17.4401 37.9143 15.1086 36.038 13.5223Z" fill="#E4E4E4"/>
<path d="M28.8176 30.0643C28.2778 29.543 27.422 29.543 26.8822 30.0643L22.2924 34.6514V14.3334C22.2924 13.5641 21.6687 12.9404 20.8994 12.9404C20.13 12.9404 19.5064 13.5641 19.5064 14.3334V34.6513L14.9193 30.0642C14.3659 29.5298 13.4841 29.5451 12.9496 30.0984C12.4282 30.6382 12.4282 31.494 12.9496 32.0338L19.9145 38.9987C20.4577 39.5433 21.3398 39.5445 21.8844 39.0011C21.8853 39.0003 21.8861 38.9995 21.887 38.9987L28.8518 32.0338C29.3863 31.4805 29.371 30.5987 28.8176 30.0643Z" fill="#E4E4E4"/>
</svg>
