<svg width="39" height="40" viewBox="0 0 39 40" fill="none" xmlns="http://www.w3.org/2000/svg">
<path d="M36.038 13.2569C36.1596 12.6055 36.2211 11.9443 36.2219 11.2817C36.2145 5.12715 31.2193 0.143948 25.0648 0.151375C20.3797 0.157007 16.1984 3.09245 14.6016 7.49705C11.7426 6.35895 8.50222 7.75399 7.36404 10.613C7.26552 10.8605 7.18488 11.1147 7.12277 11.3736C2.55763 12.0564 -0.58962 16.3106 0.0931268 20.8758C0.705436 24.9701 4.22275 27.9991 8.36249 27.9974H15.3273C16.0967 27.9974 16.7203 27.3738 16.7203 26.6044C16.7203 25.8351 16.0967 25.2114 15.3273 25.2114H8.36249C5.28519 25.2114 2.79057 22.7168 2.79057 19.6395C2.79057 16.5622 5.28519 14.0676 8.36249 14.0676C9.13183 14.0676 9.75549 13.4439 9.75549 12.6746C9.75802 11.136 11.0074 9.8907 12.546 9.89323C13.2736 9.89446 13.972 10.1803 14.4915 10.6896C15.0395 11.2296 15.9214 11.2231 16.4614 10.6752C16.6642 10.4695 16.7979 10.2058 16.8442 9.92066C17.6003 5.37176 21.9009 2.29715 26.4498 3.05328C30.9987 3.8094 34.0733 8.10993 33.3172 12.6588C33.2721 12.9301 33.2136 13.1989 33.142 13.4643C32.9819 14.0458 33.2141 14.6642 33.7173 14.9966C36.2815 16.6979 36.9809 20.1559 35.2795 22.7201C34.2497 24.2721 32.5126 25.2068 30.65 25.2113H26.4711C25.7017 25.2113 25.0781 25.8349 25.0781 26.6043C25.0781 27.3736 25.7017 27.9973 26.4711 27.9973H30.65C35.2659 27.9929 39.0043 24.2474 38.9999 19.6315C38.9976 17.1747 37.9144 14.8432 36.038 13.2569Z" fill="white" fill-opacity="0.17"/>
<path d="M28.8174 29.7991C28.2776 29.2778 27.4218 29.2778 26.8821 29.7991L22.2922 34.3862V14.0683C22.2922 13.2989 21.6685 12.6753 20.8992 12.6753C20.1298 12.6753 19.5062 13.2989 19.5062 14.0683V34.3862L14.9191 29.7991C14.3657 29.2646 13.4839 29.28 12.9494 29.8333C12.4281 30.3731 12.4281 31.2289 12.9494 31.7687L19.9143 38.7335C20.4575 39.2782 21.3396 39.2793 21.8843 38.736C21.8851 38.7352 21.8859 38.7344 21.8868 38.7335L28.8516 31.7687C29.3861 31.2154 29.3708 30.3336 28.8174 29.7991Z" fill="white" fill-opacity="0.17"/>
</svg>
